<?xml version="1.0" encoding="UTF-8"?>
<svg id="Layer_1" data-name="Layer 1" xmlns="http://www.w3.org/2000/svg" viewBox="0 0 52.28 51.67">
  <defs>
    <style>
      .cls-1 {
        fill: #fff;
      }

      .cls-2 {
        fill: #191919;
      }
    </style>
  </defs>
  <rect class="cls-2" width="52.28" height="51.67"/>
  <path class="cls-1" d="M26.14,5.51c11.23,0,20.36,9.13,20.36,20.36s-9.13,20.36-20.36,20.36S5.78,37.09,5.78,25.87,14.91,5.51,26.14,5.51M26.14,2.51C13.24,2.51,2.78,12.97,2.78,25.87s10.46,23.36,23.36,23.36,23.36-10.46,23.36-23.36S39.04,2.51,26.14,2.51h0Z"/>
  <g>
    <path class="cls-1" d="M24.29,17.26c-1.05,0-1.9.85-1.9,1.9v9.08c0,1.23-.15,2.13-.44,2.69-.46,1.01-1.43,1.51-2.94,1.51s-2.5-.5-2.94-1.51c-.3-.56-.44-1.46-.44-2.69v-9.08c0-.52-.21-1-.55-1.34-.35-.34-.82-.55-1.35-.55-1.05,0-1.9.85-1.9,1.9v9.09c0,1.91.3,3.38.89,4.44,1.1,1.94,3.2,2.91,6.3,2.91s5.19-.96,6.29-2.91c.6-1.06.88-2.53.88-4.44v-9.09h0c0-1.05-.85-1.9-1.9-1.9Z"/>
    <path class="cls-1" d="M41.12,18.62c-1.07-.93-2.5-1.4-4.29-1.4h-5.91c-1.04,0-1.89.84-1.89,1.88v14.38c0,1.04.84,1.88,1.89,1.88s1.88-.84,1.88-1.88v-2.76c0-1.04.84-1.88,1.88-1.88h1.9c1.97,0,3.48-.44,4.55-1.33,1.05-.89,1.59-2.4,1.59-4.55,0-1.96-.54-3.41-1.6-4.34ZM38.24,25.06c-.48.43-1.15.65-2.02.65h-1.53c-1.04,0-1.88-.85-1.88-1.88v-1.58c0-1.04.85-1.88,1.88-1.88h1.53c.86,0,1.54.2,2.02.61.48.4.72,1.08.72,2.02s-.24,1.63-.72,2.07Z"/>
  </g>
</svg>