<?xml version="1.0" encoding="UTF-8"?>
<svg id="Layer_1" data-name="Layer 1" xmlns="http://www.w3.org/2000/svg" viewBox="0 0 568.8 121.49">
  <defs>
    <style>
      .cls-1 {
        fill: #191919;
      }
    </style>
  </defs>
  <path class="cls-1" d="M262.35,7.73c-5.1,0-10.19,0-15.29,0-3.6,0-6.21,2.62-6.21,6.24,0,16.47,0,32.94,0,49.41,0,16.6,0,33.21,0,49.81,0,3.08,2.74,5.82,5.81,5.82,5.19,0,10.37,0,15.56,0,3.01,0,5.76-2.72,5.76-5.7,0-33.3,0-66.6,0-99.9,0-2.92-2.73-5.68-5.63-5.68Z"/>
  <path class="cls-1" d="M218.8,66.81c-3.96-4.98-9.1-8.33-14.89-10.74-6.92-2.88-13.91-5.64-20.84-8.51-3.43-1.42-6.71-3.08-8.83-6.35-1.63-2.52-1.53-5.05.21-7.49,2.7-3.78,6.68-4.71,10.93-4.77,6.53-.09,12.53,1.83,18.11,5.2,3.57,2.16,6.19,1.69,8.84-1.57,1.98-2.43,3.92-4.91,5.85-7.38,2.7-3.45,2.36-6.2-1.18-8.86-9.28-6.99-19.8-10.35-31.37-10.54-2.51-.05-5,.21-7.47.56-8.35,1.19-15.83,4.29-22.2,9.93-14.62,12.95-14.16,34.93.98,47.29,4.29,3.5,9.23,5.77,14.26,7.92,6.52,2.79,13.2,5.21,19.52,8.45,2.1,1.08,3.83,2.61,5.17,4.55,1.69,2.43,1.75,5.41.13,7.82-1.58,2.35-3.72,3.97-6.49,4.68-5.22,1.34-10.36.79-15.45-.72-4.8-1.42-9.18-3.68-13.32-6.47-2.75-1.86-5.1-1.64-7.52.64-.66.62-1.23,1.34-1.81,2.04-2.27,2.73-4.55,5.45-6.79,8.2-2.17,2.66-2.04,5.08.38,7.5.48.48,1,.93,1.56,1.31,14.61,10.03,30.61,13.74,48.08,10.31,9.45-1.85,17.51-6.28,23.57-13.93,5.1-6.45,7.24-13.83,6.74-22.03-.38-6.3-2.21-12.04-6.18-17.02Z"/>
  <path class="cls-1" d="M127.54,63.1c0-17.09,0-34.19,0-51.28,0-2.71-1.61-4.35-4.28-4.36-6.14,0-12.28,0-18.41,0-2.59,0-4.23,1.65-4.23,4.26,0,34.24,0,68.47,0,102.71,0,2.65,1.66,4.29,4.35,4.29,6,0,12.01-.11,18,.05,2.53.07,4.65-1.98,4.63-4.66-.1-17-.05-34.01-.05-51.01Z"/>
  <path class="cls-1" d="M88.49,7.44c-6.32.04-12.64.09-18.96-.01-2.82-.04-4.7,1.27-5.92,3.58-8.06,15.26-16.07,30.55-24.09,45.83-3.04,5.79-6.08,11.58-9.13,17.37-.3.56-.53,1.08-1.39,1.01-1.36-.11-1.9-.64-1.87-2.42.08-4.59-.01-9.17.16-13.77.25-6.5,1.04-12.91,1.98-19.32,1.41-9.66,3.58-19.15,6.16-28.56.72-2.61-.64-4.5-3.33-4.51-6.28,0-12.55,0-18.83,0-3.02,0-4.7,1.41-5.45,4.39-2.17,8.71-3.98,17.49-5.26,26.38-.96,6.64-1.69,13.3-2.16,19.99-.15,2.12,0,4.27-.4,6.37v17.47c.37,2.2.25,4.43.41,6.64.31,4.3.75,8.58,1.23,12.85.52,4.54,1.26,9.06,1.82,13.6.44,3.53,1.94,4.94,5.52,4.93,7.77-.03,15.55.01,23.32-.21,3.2-.09,5.22-1.4,6.59-4.11,2.61-5.15,5.23-10.28,7.84-15.43,5.24-10.33,10.46-20.67,15.71-30.99,9.69-19.07,19.4-38.14,29.12-57.2.47-.92.32-1.67-.19-2.4-.68-.98-1.58-1.51-2.87-1.5Z"/>
  <path class="cls-1" d="M559.7,9.46c-12.29-12.51-32.63-12.63-45.07-.28-4.4,4.37-7.24,9.71-8.55,15.33-.46,1.99-2.15,3.47-4.2,3.58-2.2.13-4.15-1.35-4.67-3.49-.09-.35-.19-.69-.28-1.05-.93-4.49-1.98-8.97-3.14-13.41-.44-1.69-2.63-3.48-4.27-3.48-6.69-.01-13.38-.02-20.06,0-2.24,0-3.74,2.05-3.1,4.17,4.42,14.65,6.88,29.64,8.1,44.86.45,5.52.75,11.06.59,16.6-.01.54-.01,1.08-.15,1.62-.22.82-.72,1.04-1.49,1.08-.75.03-1.2-.1-1.57-.9-9.68-21.03-19.39-42.06-29.18-63.04-1.01-2.18-2.77-3.61-5.46-3.59-7.87.06-15.74.12-23.6-.03-2.57-.05-4.65,2.01-4.64,4.66.1,17.01.06,34.02.06,51.02v51.3c0,2.68,1.63,4.33,4.3,4.33,5.74.01,11.47.01,17.19,0,2.38-.01,4.07-1.75,4.06-4.13,0-19.51.01-39.01,0-58.53,0-.91.05-1.79,1.13-2,1.1-.22,1.92-.03,2.45,1.25,1.42,3.44,2.92,6.86,4.6,10.18,5.48,10.86,11.08,21.67,16.63,32.5,2.87,5.59,5.68,11.19,8.6,16.73,1.34,2.57,3.29,4.13,6.48,4.05,6.32-.15,12.65-.19,18.96.03,2.34.07,4.79-2.37,5.03-4.44.49-4.04,1.12-8.06,1.68-12.1,1.03-7.43,1.56-14.89,1.78-22.36.23-7.58.1-15.17-.43-22.75-.26-3.6-.59-7.18-.98-10.77-.22-1.99,1.19-3.87,3.19-4,.01,0,.03,0,.04,0,1.9-.09,3.66.97,4.45,2.7,1.61,3.46,3.86,6.69,6.78,9.51,12.41,12,32.37,11.79,44.56-.44,12.3-12.33,12.36-32.26.17-44.67ZM537.21,35.33c0,2.67-.4,4.74-1.24,6.22-1.54,2.73-4.48,4.08-8.82,4.08s-7.28-1.35-8.83-4.08c-.83-1.48-1.25-3.55-1.25-6.22v-12.75c0-1.47,1.19-2.66,2.67-2.66.73,0,1.4.3,1.89.78.47.49.77,1.16.77,1.89v12.74c0,1.72.2,2.99.61,3.77.62,1.41,2,2.12,4.13,2.12s3.48-.71,4.12-2.12c.4-.79.61-2.05.61-3.77v-12.74c0-1.47,1.19-2.66,2.66-2.66s2.66,1.19,2.66,2.66v12.75ZM558.15,34.29c-1.49,1.24-3.61,1.86-6.38,1.86h-2.66c-1.46,0-2.64,1.18-2.64,2.64v3.86c0,1.46-1.18,2.64-2.64,2.64s-2.64-1.18-2.64-2.64v-20.15c0-1.46,1.18-2.64,2.64-2.64h8.28c2.51,0,4.52.66,6.02,1.97,1.49,1.31,2.24,3.34,2.24,6.09,0,3.01-.74,5.13-2.23,6.38Z"/>
  <path class="cls-1" d="M338.88,5.83c-31.89,0-57.83,25.94-57.83,57.83s25.94,57.83,57.83,57.83,57.83-25.94,57.83-57.83-25.94-57.83-57.83-57.83ZM338.88,95.31c-17.45,0-31.65-14.2-31.65-31.65s14.2-31.65,31.65-31.65,31.65,14.2,31.65,31.65-14.2,31.65-31.65,31.65Z"/>
  <path class="cls-1" d="M551.27,24.28h-2.15c-1.46,0-2.64,1.18-2.64,2.64v2.21c0,1.46,1.18,2.64,2.64,2.64h2.15c1.21,0,2.16-.3,2.83-.91.67-.61,1.01-1.58,1.01-2.9s-.34-2.27-1.01-2.83c-.67-.56-1.62-.85-2.83-.85Z"/>
  <path class="cls-1" d="M501.35,57.57c-.48-6.79-1.23-13.53-2.2-20.26-1.3-9.03-3.2-17.93-5.5-26.76-.44-1.69-2.62-3.48-4.27-3.48-6.69-.01-13.37-.02-20.06,0-2.24,0-3.74,2.05-3.1,4.17,4.41,14.64,6.88,29.65,8.1,44.86.44,5.52.75,11.06.59,16.6-.02.54-.01,1.07-.15,1.62-.22.82-.72,1.04-1.49,1.07-.75.03-1.2-.1-1.57-.9-9.69-21.04-19.4-42.06-29.18-63.06-1.01-2.17-2.78-3.6-5.47-3.58-7.87.06-15.74.11-23.6-.03-2.56-.05-4.65,2-4.63,4.66.1,17.01.05,34.02.05,51.03s0,34.2,0,51.3c0,2.68,1.63,4.32,4.31,4.33,5.73,0,11.46.01,17.19,0,2.39,0,4.06-1.75,4.06-4.12,0-19.51,0-39.02,0-58.54,0-.92.05-1.8,1.14-2.01,1.09-.21,1.92-.04,2.45,1.26,1.42,3.44,2.92,6.86,4.6,10.18,5.49,10.86,11.08,21.67,16.64,32.51,2.86,5.58,5.68,11.18,8.59,16.73,1.34,2.57,3.29,4.13,6.49,4.05,6.32-.16,12.65-.18,18.96.03,2.34.08,4.79-2.37,5.04-4.43.48-4.04,1.12-8.07,1.68-12.11,1.02-7.42,1.56-14.89,1.78-22.36.23-7.58.11-15.17-.43-22.75Z"/>
</svg>