<?xml version="1.0" encoding="UTF-8"?>
<svg id="Layer_1" data-name="Layer 1" xmlns="http://www.w3.org/2000/svg" viewBox="0 0 81.57 104.9">
  <defs>
    <style>
      .cls-1 {
        fill: #191818;
      }

      .cls-2 {
        opacity: .4;
      }

      .cls-3 {
        opacity: .3;
      }

      .cls-4 {
        fill: #0ac;
      }
    </style>
  </defs>
  <g>
    <path class="cls-1" d="M40.96,82.13h.02-.02ZM42.05,81.07c0,1.76-.44,3.43-1.3,4.79-1.27,1.98-2.54,2.08-3.64,2.16-.51.05-.98.08-1.47.3-.44.22-.76.56-1.1.93-.49.49-1.01,1.03-1.89,1.3-.56.19-1.12-.24-1.13-.83v-.02c0-.39.25-.73.63-.85.44-.15.74-.46,1.12-.85.39-.41.88-.91,1.62-1.3.81-.36,1.49-.42,2.08-.46.93-.08,1.5-.14,2.3-1.35,1.18-1.88,1.35-4.58.44-7.05-.71-1.93-1.96-3.31-3.35-3.74-.36-.1-.69-.15-1.05-.17-.59-.02-1.18.08-1.79.32-.41.15-.86.59-1.35,1.07-.56.52-1.18,1.12-1.93,1.5-.03.02-.08.03-.12.05h-.03c-.74.32-1.56.41-2.27.51-.68.08-1.32.17-1.69.39-.54.32-1,.71-1.34,1.17-.27.32-.73.44-1.1.24,0,0,0-.02-.02-.02-.47-.24-.64-.86-.32-1.29.49-.64,1.13-1.2,1.88-1.64.68-.41,1.54-.51,2.37-.61.39-.05.79-.1,1.15-.19-.22-.74-.27-1.35-.1-2.5.08-.49.52-.85,1.01-.74.49.07.83.52.74,1.01-.1.63-.1,1-.05,1.37.19-.17.39-.36.57-.54.61-.57,1.23-1.17,1.98-1.45,1.32-.49,2.65-.56,3.96-.17,1.94.57,3.58,2.33,4.5,4.8.47,1.25.69,2.57.69,3.84ZM21.91,72.96c-.08-.17-.1-.37-.02-.59.08-.2.24-.34.42-.41,2.16-.74,4.08.02,5.33,2.1.12.19.14.39.03.61-.08.22-.24.36-.41.44-2.2.71-4.31-.12-5.36-2.15ZM47.16,96.64c.09.9-.41,1.69-1.12,1.76s-1.36-.6-1.46-1.5.41-1.69,1.12-1.76c.71-.07,1.36.6,1.46,1.5M57.71,95.56c.09.9-.41,1.69-1.12,1.76s-1.36-.6-1.46-1.5.41-1.69,1.12-1.76,1.36.6,1.46,1.5ZM53.18,98.07c-.27.37-.56.66-.86.85l.08.91c.05.49-.3.93-.79.98-.07,0-.15,0-.22-.02-.39-.05-.71-.37-.74-.78l-.1-.9c-.34-.14-.69-.36-1.03-.69-.22-.22-.3-.54-.22-.85s.34-.52.64-.59c.86-.17,1.71-.25,2.55-.25.32-.02.61.17.74.46.15.29.14.63-.05.88ZM64.03,56.58c-.49-1.23-1.18-2.33-2.05-3.3-.08-.1-.17-.2-.27-.3l-.02-.02c-1-1.01-2.2-1.86-3.55-2.43-2.69-1.15-5.7-1.2-8.42-.1-1.83.73-3.38,1.88-4.55,3.38-.61.74-1.12,1.59-1.5,2.49,0,.02-.03.1-.05.2-.14.42.03.9.42,1.1.51.24,1.1-.02,1.25-.54,0-.03,0-.05.02-.05.08-.19.17-.37.27-.56.19.41.41.79.66,1.2-.17.17-.36.32-.56.47-.39.29-.46.85-.17,1.23.14.19.32.29.51.34.25.05.52,0,.74-.17.19-.14.36-.27.52-.42.34.41.71.81,1.1,1.18-1.07,1.59-1.84,3.4-2.33,5.39-.17-.24-.3-.47-.44-.73-.2-.42-.69-.61-1.12-.42l-.03.02c-.47.2-.68.74-.44,1.2,1.17,2.25,3.06,4.02,5.41,5.04.64.27,1.3.49,1.96.63,2.15.49,4.4.32,6.48-.52.54-.2,1.07-.47,1.56-.76.49-.3.56-1,.15-1.39l-.02-.02c-.27-.27-.71-.34-1.05-.14-2.05,1.2-4.51,1.62-6.9,1.03-.42-2.35-.02-4.43,1.17-6.07,1.4.78,2.94,1.37,4.6,1.74,1.32.3,2.72.46,4.16.39-.12.2-.25.41-.41.59-.29.36-.25.86.07,1.18.17.17.41.25.63.25.25,0,.52-.12.69-.34.56-.71,1.03-1.5,1.4-2.35,0-.02.02-.03.02-.05,1.13-2.69,1.18-5.68.08-8.39ZM47.43,56.19c-.29-.56-.51-1.08-.63-1.57v-.02c.46-.52.95-.98,1.5-1.37-.07,1.12-.36,2.1-.88,2.96ZM50.08,52.2c.08-.05.19-.1.29-.14,1.76-.69,3.64-.85,5.44-.44.56.12,1.1.3,1.64.54.63.27,1.23.61,1.78,1-4.11.96-7.44,2.91-9.74,5.68-.36-.36-.68-.73-.98-1.08,1.13-1.52,1.67-3.4,1.57-5.56ZM47.53,67.43c.36-2.25,1.08-4.23,2.16-5.95.49.39,1.01.79,1.57,1.15-1.22,1.76-1.74,3.94-1.52,6.31-.83-.39-1.57-.9-2.22-1.5ZM52.45,61.24c-.59-.39-1.15-.79-1.67-1.23,2.3-2.77,5.72-4.6,10.06-5.36.64.76,1.18,1.62,1.56,2.59.22.54.39,1.1.49,1.66-3.06-1.03-6.8-.46-9.52,1.57-.32.24-.63.49-.91.78ZM62.46,63.83c-3.04.32-5.94-.42-8.39-1.66.1-.1.22-.2.34-.29,2.5-1.84,5.99-2.25,8.62-1.01-.02,1-.2,2.01-.57,2.96ZM54.2,103.43c.05.49-.3.91-.78.98-1.3.15-2.62.3-3.48.36l-.34.05c-1.54.12-2.87.1-4.02-.07-1.96-.3-3.38-1.05-4.29-2.28l-1.07.76c-.2.14-.42.19-.64.15-.24-.03-.46-.15-.59-.36-.29-.41-.19-.96.2-1.23l1.3-.93c-.12-.32-.19-.68-.24-1.03l-1.29.03c-.05,0-.1,0-.17-.02-.41-.07-.73-.42-.74-.85-.02-.49.37-.9.86-.91l1.3-.03c.12-1.74.71-3.8,1.72-6.22-.36-1.62-.3-3.11.17-4.57.2-.57.64-1.03,1.18-1.25.54-.24,1.17-.24,1.72,0,1.32.63,2.47,1.64,3.5,3.08l2.86-.29c.41-.03.78.22.88.61,0,.05.02.1.03.15.14.49-.19.95-.71,1.01l-3.4.34c-.32.03-.64-.12-.83-.39-.95-1.4-1.94-2.37-3.08-2.91-.02,0-.05-.02-.07-.02-.08-.02-.17.02-.22.03-.05.02-.15.08-.19.2-.39,1.18-.42,2.45-.07,3.84.05.19.03.41-.05.59-1.88,4.36-2.23,7.42-1.01,9.1,1.01,1.42,3.3,1.98,6.76,1.67l.36-.03c.9-.07,2.18-.2,3.42-.36.49-.07.95.29,1,.78ZM64.45,100.42c-.17.37-.56.57-.95.52-.08-.02-.15-.03-.22-.07l-1.25-.56c-.64,1.4-1.94,2.47-3.87,3.16-.52.19-1.08-.15-1.18-.69v-.02c-.07-.42.19-.83.57-.96,1.59-.57,2.59-1.4,2.98-2.49.57-1.56,0-3.79-1.72-6.65-.27-.44-.1-1.01.34-1.27h.02c.41-.22.91-.08,1.15.32.91,1.49,1.52,2.84,1.88,4.08l1.32-.24c.51-.08.95.24,1.03.73.08.47-.24.95-.71,1.03l-1.32.22c.03.37.02.73-.02,1.05l1.5.66c.44.19.64.71.46,1.17ZM30.91,92.12c-.25-.58-.47-1.28-.66-2.09l-1.78-7.61c-.37-1.58-2-2.56-3.62-2.18l-.83.2-.57.08c-.94.12-1.64.24-2.11.35-1.78.42-3.23,1.21-4.29,2.35-.59.63-1.07,1.33-1.45,2.11-.24.5.05,1.09.59,1.21.04,0,.08.02.12.03.39.08.78-.11.96-.47.3-.6.67-1.14,1.12-1.62.82-.87,1.95-1.49,3.37-1.82.42-.1,1.06-.2,1.93-.31l.67-.1.91-.22c.64-.15,1.27.21,1.42.81l1.78,7.61c.21.91.47,1.72.76,2.4.11.26.1.55-.03.82-.37.74-1.66.74-1.98-.02-.13-.31-.42-.53-.76-.56-.34-.03-.66.12-.85.4-.3.44-.64.84-1.02,1.19-1.95,1.79-3.79,1.92-5.64.75-1.07-.67-1.82-1.93-2.25-3.74-.18-.76-.26-1.49-.26-2.21,0-.42-.3-.79-.72-.88,0,0-.01,0-.02,0-.56-.12-1.1.3-1.1.87,0,.86.09,1.74.3,2.64.54,2.29,1.57,3.93,3.05,4.87,1.5.95,3.07,1.24,4.65.87,1.08-.25,2.16-.87,3.2-1.82.1-.09.21-.19.31-.3.14-.14.35-.16.52-.07,1.34.78,3.43.3,4.17-1.18.38-.74.4-1.6.08-2.36h0ZM20.35,93.49c.65.52,1.29.7,1.94.55.7-.16,1.37-.66,2.06-1.52,1.16-1.46,1.59-3.32,1.17-5.11l-.63-2.69c-.1-.43-.5-.73-.94-.71-2.15.11-3.68.88-4.59,2.5-.68,1.22-.82,2.64-.42,4.36.29,1.25.75,2.1,1.4,2.62h0ZM20.96,87.41c.42-.76,1.02-1.2,1.89-1.4.06-.01.12-.03.18-.04.15-.03.29.06.32.21l.39,1.65c.29,1.24,0,2.53-.82,3.55-.57.71-.86.85-.99.86-.19.02-.27-.04-.44-.18-.18-.14-.51-.53-.76-1.6-.29-1.25-.22-2.25.23-3.04h0ZM30.04,62.86l-1.64-5.75c-.13-.45-.58-.73-1.04-.64,0,0-.01,0-.02,0-.52.1-.85.63-.7,1.14l1.64,5.75c.12.41.51.69.94.66h.02c.57-.05.96-.6.8-1.16h0ZM42.74,58.51c-1.94-6.78-7.83-7.4-11.05-5.17l-.5-1.76c-.49-1.7-1.97-2.52-3.7-2.02-1.71.49-2.57,2-2.1,3.68l.16.57c.13.45.58.73,1.04.64,0,0,.01,0,.02,0,.52-.1.85-.63.7-1.14l-.16-.57c-.26-.9.31-1.26.84-1.41.75-.21,1.23.04,1.43.76l.89,3.1c.07.23.2.44.4.56.4.25.89.16,1.18-.16.61-.68,1.38-1.16,2.31-1.43,2.4-.69,5.55.54,6.78,4.85,1.25,4.38-.8,7.13-3.25,7.83-1.02.29-1.94.27-2.82-.07-.19-.07-.39-.08-.58-.02-.07.02-.13.05-.2.08-.24.13-.4.36-.45.63-.09.46-.5.67-.83.77-.79.22-1.29-.02-1.49-.73l-.23-.82c-.12-.42-.52-.69-.96-.65h-.02c-.56.06-.94.61-.78,1.15l.23.82c.48,1.69,1.99,2.49,3.76,1.99.68-.19,1.23-.55,1.61-1.04.1-.13.27-.19.43-.16.91.15,1.86.08,2.83-.19,3.29-.94,6.1-4.5,4.51-10.09h0ZM36.67,65.04c.54-.15,3.18-1.14,2-5.29-.78-2.75-2.47-4.04-4.5-3.46-1.59.45-2.95,2.09-2.03,5.33,1.19,4.16,3.98,3.59,4.53,3.43ZM34.67,58.04c.98-.28,1.73.46,2.23,2.2.47,1.66.2,2.76-.74,3.03-.57.16-1.61.09-2.26-2.17-.34-1.2-.49-2.7.77-3.06Z"/>
    <g>
      <path class="cls-1" d="M55.36,77.04c-.36.36-.72.77-1.05,1.23-.15.23-.41.36-.69.36-.15,0-.31-.05-.46-.13-.23-.13-.38-.34-.44-.59-.05-.21,0-.44.13-.64.39-.56.84-1.06,1.31-1.52.15-.15.36-.21.57-.21.25,0,.49.11.65.31.33.39.29.88-.03,1.19h0Z"/>
      <path class="cls-1" d="M66.45,82.8c-.43.74-1.11,1.13-1.93,1.13-.54,0-1.11-.16-1.67-.49-1.52-.92-1.52-1.75-1.37-2.68.08-.41.05-.54.03-.56,0,0-.15-.51-.88-.93-.21-.11-.56-.33-.98-.33-.8,0-1.59.67-2.37,1.98-.69,1.16-.92,2.1-.7,2.78.18.54.59.79.82.92.43.25.77.36,1.03.36.31,0,.48-.15.62-.29.48-.43,1-.85,1.75-.85.48,0,1,.16,1.6.52,1.62.97,1.75,2.42,1.14,3.44-.48.82-1.59,1.85-3.22,2.29-.52.13-1.06.2-1.62.2-.21,0-.43,0-.65-.03-1.08-.1-2.19-.49-3.27-1.13-2.03-1.19-3.31-2.93-3.68-5.01-.21-1.14-.15-2.34.2-3.57.1-.38.46-.64.85-.64.15,0,.29.05.43.11.38.2.54.61.43,1-.26.97-.33,1.9-.16,2.76.28,1.57,1.28,2.88,2.85,3.81,1.03.61,2.05.92,3.04.92.39,0,.77-.05,1.14-.15,1.13-.29,1.87-.98,2.16-1.47.08-.15.1-.26.07-.39-.07-.26-.36-.49-.59-.62-.29-.18-.52-.29-.67-.29s-.28.11-.57.39c-.26.25-.84.77-1.82.77-.61,0-1.26-.2-1.95-.61-1.21-.72-2.9-2.46-.74-6.12,1.11-1.88,2.4-2.83,3.86-2.83.64,0,1.28.18,1.91.56.98.59,1.52,1.37,1.67,1.93.13.34.13.82.03,1.33-.05.36.12.67.52.92.29.16.54.26.74.26.28,0,.39-.18.44-.28.38-.64.7-3.68-2.57-5.61-.85-.49-1.7-.79-2.57-.87-.16-.03-.34-.03-.52-.03-.59,0-1.18.1-1.73.29-.1.03-.2.05-.29.05-.26,0-.51-.11-.69-.31-.18-.23-.25-.52-.16-.8.08-.29.28-.51.56-.61.75-.26,1.54-.39,2.32-.39,1.36,0,2.7.38,3.99,1.14,4.11,2.44,4.11,6.5,3.19,8.03h0Z"/>
    </g>
  </g>
  <g>
    <path class="cls-1" d="M40.27,15.93V6.69h-.03l-2.81,2.6-.92-2.5,3.76-3.52h3.05v12.66h-3.05Z"/>
    <path class="cls-1" d="M50.62,8.87v7.13h-1.67v-4.6c-.27.45-.52.8-.75,1.04l-.42-2.05c.48-.61.88-1.27,1.19-1.98.31-.71.56-1.55.76-2.52l1.61.27c-.15.95-.38,1.84-.71,2.69ZM51.05,15.74v-1.52h3.56c.69-1.58,1.21-3.34,1.57-5.28l1.7.32c-.34,1.8-.83,3.46-1.47,4.96h1.96v1.52h-7.33ZM55.65,7.05h2.61v1.49h-6.98v-1.49h2.63v-1.26h1.75v1.26ZM51.52,9.32l1.66-.37c.39,1.55.71,3.05.96,4.52l-1.66.29c-.24-1.4-.56-2.88-.96-4.43Z"/>
  </g>
  <g class="cls-3">
    <path class="cls-4" d="M34.7,11.19c-.22,0-.4.18-.4.4,0,.1.03.18.09.25l-1.68,1.2-1.49-1.98c.16-.08.26-.24.26-.43,0-.26-.21-.48-.48-.48s-.48.21-.48.48c0,.19.11.35.26.43l-1.49,1.98-1.64-1.18c.06-.08.1-.17.1-.28,0-.24-.2-.44-.44-.44s-.44.2-.44.44.2.44.44.44c.04,0,.07,0,.11-.01l.86,3.91h5.44l.87-3.95s.06.01.1.01c.22,0,.4-.18.4-.4s-.18-.4-.4-.4Z"/>
  </g>
  <g class="cls-2">
    <rect class="cls-4" x="17.58" y="30" width="48.94" height="6.95"/>
  </g>
  <g>
    <path class="cls-1" d="M24.59,26.87h1.5v.75h3.21v2.61h1.1v1.18h-3.95c.57.82,1.86,1.43,3.86,1.82l-.44,1.28c-.97-.18-1.84-.49-2.62-.92-.78-.43-1.39-.93-1.83-1.49-.46.56-1.09,1.05-1.9,1.49s-1.71.74-2.71.92l-.44-1.28c2-.39,3.29-.99,3.86-1.82h-3.95v-1.18h1.1v-2.61h3.21v-.75ZM20.39,25.22h2v-.85h1.39v.85h3.12v-.85h1.39v.85h2v1.21h-2v.88h-1.39v-.88h-3.12v.88h-1.39v-.88h-2v-1.21ZM24.59,28.72h-1.84v1.51h1.84v-1.51ZM26.09,28.72v1.51h1.84v-1.51h-1.84Z"/>
    <path class="cls-1" d="M31.31,27.6v-1.19h4.26v1.19h-4.26ZM31.61,25.95v-1.11h3.66v1.11h-3.66ZM32.91,34.15v.4h-1.3v-3.36h3.71v2.96h-2.41ZM31.7,29.16v-1.08h3.56v1.08h-3.56ZM31.7,30.71v-1.07h3.56v1.07h-3.56ZM32.91,33.1h1.21v-.85h-1.21v.85ZM35.6,28.65h1.08l.17-.87h-.84v-1.08h1.06l.14-.73h-1.5v-1.17h5.54v1.17h-2.65l-.14.73h2.31v1.95h.74v1.17h-5.91v-1.17ZM37.3,33.97v.41h-1.38v-4h5.1v4h-1.43v-.41h-2.3ZM39.6,32.86v-1.34h-2.3v1.34h2.3ZM38.24,27.78l-.18.87h1.33v-.87h-1.16Z"/>
    <path class="cls-1" d="M44.59,31.07v-.52h.55c.22-.17.42-.33.58-.5h-1.63c-.48.32-.95.58-1.39.77l-.59-1.02c.8-.4,1.55-.89,2.24-1.49h-2.15v-1.16h1.71v-.93h-1.32v-1.1h1.32v-.77h1.41v.77h1.2v.73c.27-.42.48-.8.64-1.13l1.13.44c-.29.67-.67,1.33-1.16,2h.52v.76c.46-.99.86-2.19,1.19-3.6l1.29.17c-.07.4-.19.87-.34,1.42h2.79v1.25h-.5c-.18,2.02-.6,3.55-1.26,4.59.42.56,1.02,1.07,1.78,1.51l-.59,1.12c-.86-.49-1.53-1.03-2.01-1.62-.62.6-1.5,1.14-2.64,1.62l-.66-1.09c1.14-.47,1.99-1.02,2.56-1.64-.34-.65-.6-1.44-.8-2.38-.17.32-.35.63-.55.95l-.77-.81v.65c-.31.37-.6.67-.88.92.64-.04,1.24-.09,1.82-.15l.04,1.1c-.67.07-1.38.14-2.13.19v.67c0,.72-.08,1.16-.24,1.33s-.59.25-1.28.25c-.21,0-.66-.02-1.33-.05l-.07-1.18c.6.04.98.05,1.13.05.19,0,.3-.02.34-.07.03-.04.05-.19.05-.45v-.47c-.9.04-1.66.07-2.29.09l-.08-1.13c.65-.01,1.43-.04,2.37-.09ZM46.27,26.23h-.98v.93h.23c.26-.29.51-.6.75-.93ZM45.46,29.02h1.61c.13-.22.26-.45.4-.69h-1.29c-.26.28-.5.51-.71.69ZM50.09,30.38c.36-.8.6-1.87.71-3.21h-1.41c-.11.3-.21.56-.31.77l.44-.08c.13,1.03.32,1.87.56,2.52Z"/>
    <path class="cls-1" d="M63.32,25.14v1.14h-1.86c.62.62,1.22,1.29,1.83,2.01l-.88.41v4.03c0,.39-.01.68-.04.86-.03.19-.1.35-.23.49-.12.14-.29.23-.5.26-.21.04-.52.05-.92.05-.32,0-.87-.02-1.65-.05l-.04-1.13c.82.04,1.32.05,1.51.05s.29-.01.32-.03c.03-.02.04-.1.04-.24v-.29h-5.13v1.72h-1.51v-5.72h7.59l-.56-.69c-2.65.23-5.17.37-7.58.43l-.08-1.1c.4,0,1.02-.03,1.86-.06.23-.35.43-.69.59-1h-2.74v-1.14h4.23v-.84h1.5v.84h4.24ZM55.77,30.25h5.13v-.51h-5.13v.51ZM55.77,31.23v.51h5.13v-.51h-5.13ZM59.69,26.29h-2.09c-.15.29-.33.61-.53.94.7-.04,1.8-.11,3.32-.21-.15-.17-.39-.41-.7-.73Z"/>
  </g>
</svg>