<?xml version="1.0" encoding="UTF-8"?>
<svg id="Layer_1" data-name="Layer 1" xmlns="http://www.w3.org/2000/svg" viewBox="0 0 81.57 104.9">
  <defs>
    <style>
      .cls-1 {
        fill: #191818;
      }

      .cls-2 {
        opacity: .4;
      }

      .cls-3 {
        opacity: .3;
      }

      .cls-4 {
        fill: #0ac;
      }
    </style>
  </defs>
  <g class="cls-2">
    <rect class="cls-4" x="10.11" y="30.16" width="56.94" height="6.95"/>
  </g>
  <g>
    <path class="cls-1" d="M11.42,34.32v-1.29h5.24c.78-1.55,1.4-3.38,1.84-5.49l1.48.29c-.39,1.91-.96,3.64-1.73,5.2h3.07v1.29h-9.9ZM17.11,25.85h3.98v1.24h-9.46v-1.24h3.98v-1.29h1.5v1.29ZM12.96,27.9l1.43-.33c.44,1.54.82,3.11,1.13,4.7l-1.43.25c-.31-1.55-.69-3.09-1.13-4.62Z"/>
    <path class="cls-1" d="M24.67,24.87v2.06h1.04v.5l.57-.13v-2.07h1.39v1.77l.88-.19v-2.16h1.29v1.88l2.4-.52v.73c0,1.04-.01,1.86-.04,2.44-.03.59-.09,1.03-.19,1.33s-.2.49-.31.57c-.11.08-.28.12-.51.12-.24,0-.55-.01-.92-.03l-.25-1.24c.26.02.48.03.66.03.05,0,.09-.01.1-.04.02-.03.04-.12.06-.27.02-.16.04-.38.04-.68,0-.3.01-.74.02-1.33l-1.06.23v4.12h-1.29v-3.84l-.88.19v4.48c0,.23.08.37.24.41.16.04.7.06,1.62.06h.54c.11,0,.24-.01.4-.04.15-.03.25-.04.3-.05.04-.01.11-.06.19-.15.08-.09.13-.16.14-.21.01-.05.03-.17.07-.35s.06-.33.06-.46c0-.12.02-.34.04-.64l1.34.3c-.02.38-.04.68-.06.91-.02.22-.06.45-.12.68s-.11.4-.17.51c-.05.11-.15.22-.29.34s-.28.2-.41.24c-.13.04-.33.08-.6.12s-.54.06-.79.06c-.26,0-.61,0-1.06,0-.48,0-.85,0-1.13-.01-.28,0-.54-.03-.77-.08-.23-.04-.41-.09-.51-.14-.11-.05-.2-.14-.27-.26-.07-.12-.12-.25-.13-.39-.01-.14-.02-.32-.02-.56v-4.47l-.95.21-.09-.71h-.58v4.06c.19-.07.56-.21,1.1-.43l.06,1.24c-1.11.5-2.25.89-3.43,1.19l-.13-1.29c.21-.05.55-.14,1-.27v-4.5h-.96v-1.21h.96v-2.06h1.41Z"/>
    <path class="cls-1" d="M37.41,30.63v-1.91h1.91v1.91h-1.91Z"/>
    <path class="cls-1" d="M47.55,32.51c-1.05.42-2.12.74-3.2.98l-.13-1.25c.58-.13.89-.2.94-.21v-2.41h-.81v-1.24h.81v-1.95h-.88v-1.29h3v1.29h-.75v1.95h.62v1.24h-.62v2.02c.35-.11.68-.22.99-.33l.03,1.2ZM52.57,32.38c.23-.21.49-.47.76-.77l1.1.57c-.19.22-.47.5-.83.83.37.2.73.36,1.08.5l-.64,1.07c-.97-.44-1.88-1.05-2.73-1.83v1.97h-1.47v-2.17c-.87.84-1.87,1.52-3.02,2.02l-.64-1.07c1.3-.51,2.34-1.16,3.13-1.94h-1.57v-2.39h6.27v2.39h-2.46c.26.26.61.54,1.02.81ZM47.28,28.87v-1.04h7.15v1.04h-7.15ZM48.68,27.51h-1.15v-2.65h6.64v2.65h-5.49ZM48.68,26.63h.77v-.75h-.77v.75ZM49.07,30.66h3.56v-.57h-3.56v.57ZM50.44,26.63h.77v-.75h-.77v.75ZM52.97,25.88h-.77v.75h.77v-.75Z"/>
    <path class="cls-1" d="M63.6,34.6c-.7,0-1.14-.05-1.31-.14-.17-.1-.26-.33-.26-.69v-1.8h-.79c-.12.71-.45,1.29-.97,1.74s-1.3.8-2.32,1.07l-.67-1.17c.8-.17,1.4-.38,1.81-.63s.69-.59.83-1.01h-1.3l.02.38c-1.12.6-2.25,1.08-3.4,1.43l-.17-1.28c.37-.11.71-.22,1.03-.34v-3.28h-.99v-1.21h.99v-2.81h1.4v2.81h.69v-.44h1.63c-.14-.29-.28-.56-.43-.83h-1.01v-1.1h2.73v-.82h1.47v.82h2.7v1.1h-.83c-.16.37-.29.64-.38.83h1.39v1.03h-6.94v.34h6.56v3.35h-1.73v1.25c0,.11.02.17.06.19.04.02.15.03.35.03.26,0,.41-.05.46-.16.05-.11.08-.47.09-1.11l1.21.14c-.01.34-.03.59-.03.75,0,.17-.03.35-.06.55-.03.2-.06.34-.08.42-.02.08-.07.17-.15.26s-.16.16-.21.18-.17.05-.33.08-.31.04-.44.04h-.6ZM58.49,31.18v-2.3h-.98v2.74c.21-.09.54-.23.98-.44ZM59.92,29.89h3.65v-.43h-3.65v.43ZM59.92,30.61v.46h3.65v-.46h-3.65ZM62.67,27.23c.15-.26.3-.54.43-.83h-2.29l.4.83h1.46Z"/>
  </g>
  <g>
    <path class="cls-1" d="M32.27,3.44h8.44v2.38l-3.38,2.79v.03h.23c1.01,0,1.81.31,2.42.94s.91,1.47.91,2.53c0,1.34-.41,2.37-1.23,3.09-.82.72-2,1.08-3.54,1.08s-2.81-.33-4.02-.99l.73-2.25c1.17.6,2.18.9,3.05.9.67,0,1.19-.16,1.56-.47.37-.31.55-.75.55-1.3s-.22-.97-.67-1.21c-.45-.24-1.27-.36-2.49-.36h-.87v-1.98l3.21-2.77v-.04h-4.91v-2.38Z"/>
    <path class="cls-1" d="M46.2,9.04v7.13h-1.67v-4.6c-.27.45-.52.79-.75,1.04l-.42-2.05c.48-.61.88-1.27,1.19-1.98.31-.71.56-1.55.76-2.52l1.61.27c-.15.95-.38,1.84-.71,2.7ZM46.63,15.9v-1.52h3.56c.69-1.58,1.21-3.34,1.57-5.28l1.7.32c-.34,1.8-.83,3.46-1.47,4.96h1.96v1.52h-7.33ZM51.23,7.21h2.61v1.49h-6.98v-1.49h2.63v-1.26h1.75v1.26ZM47.11,9.49l1.66-.37c.39,1.55.71,3.05.96,4.52l-1.66.29c-.24-1.4-.56-2.88-.96-4.43Z"/>
  </g>
  <g class="cls-3">
    <path class="cls-4" d="M30.28,11.35c-.22,0-.4.18-.4.4,0,.1.03.18.09.25l-1.68,1.2-1.49-1.98c.16-.08.26-.24.26-.43,0-.26-.21-.48-.48-.48s-.48.21-.48.48c0,.19.11.35.26.43l-1.49,1.98-1.64-1.18c.06-.08.1-.17.1-.28,0-.24-.2-.44-.44-.44s-.44.2-.44.44.2.44.44.44c.04,0,.07,0,.11-.01l.86,3.91h5.44l.87-3.95s.06.01.1.01c.22,0,.4-.18.4-.4s-.18-.4-.4-.4Z"/>
  </g>
  <g>
    <g>
      <g>
        <path class="cls-1" d="M29.14,98.69c-.2-.36-.63-.5-.99-.32-.76.39-1.56.7-2.36.89-.82.2-1.73.29-2.65.28-.78-.01-1.55-.11-2.26-.27-.35-.08-.71.12-.85.45v.02c-.19.45.08.96.55,1.07.45.1.92.18,1.41.23l1.38.07h0c.94.01,1.88-.1,2.78-.32.8-.19,1.68-.52,2.54-.94l.18-.1c.37-.21.48-.67.27-1.03,0,0,0,0,0-.01Z"/>
        <path class="cls-1" d="M37.16,88.74c-.02-.87-.38-1.65-1.01-2.22-.44-.4-1-.68-1.49-.74l-.12.03h0l.12-.22c.08-2.02-.13-7.07-3.75-10.33-.33-.29-.69-.56-1.06-.82-.12-.08-.26-.12-.4-.13-.33,0-.62.2-.74.54-.12.35,0,.71.27.9.32.2.61.44.89.67,1.88,1.69,2.68,4.05,3.02,5.99-.85-1.82-1.93-3.21-3.21-4.14-.96-.71-1.9-1.22-2.79-1.5.05-.05.1-.11.15-.17,1.38-1.66.19-4.28-.23-5.07-.14-.24-.4-.39-.68-.39-.07,0-.15,0-.23.03-.35.11-.58.44-.56.79,0,.06-.03.22-.1.28l-.14.06c-.07.02-.15.02-.24.02-.25,0-.56-.07-.93-.21-1.04-.38-2.12-.58-3.19-.6-.75-.01-1.49.06-2.18.23-2.16.52-3.88,1.93-4.93,4.02-1.6,1.26-2.78,2.78-3.41,4.41-.96,2.53-.99,5.29-.1,7.99.41,1.24.92,2.18,1.28,2.74.05.09.18.28.18.28-.42.34-.75.8-.94,1.32-.3.82-.24,1.69.15,2.46.58,1.13,1.79,1.91,3.01,1.93.25,0,.5-.02.7-.16.3.48.59.86.89,1.2.35.39.98.33,1.25-.12h0c.18-.31.13-.68-.1-.94-.34-.37-.64-.81-.99-1.41l-.43-.77-.77.53c-.07.03-.14.06-.21.07-.11.03-.23.04-.35.04-.65-.01-1.3-.45-1.62-1.08-.19-.39-.22-.82-.08-1.22.12-.31.33-.58.47-.73.1.06.22.09.34.09.07,0,.13,0,.2-.02.08-.02.14-.05.21-.09.33-.19.46-.58.33-.95-.07-.19-1.68-4.63.36-8.67.3-.62.68-1.18,1.15-1.7.26-.27.25-.69-.04-1.03-.14-.17-.35-.28-.57-.28-.2,0-.39.08-.52.23-.55.61-1.03,1.31-1.42,2.08-.76,1.52-1.16,3.23-1.19,5.09-.45-1.65-.67-3.91.25-6.33.52-1.36,1.54-2.65,2.99-3.79.08-.07.18-.15.24-.27.88-1.84,2.24-2.99,4.03-3.43.54-.13,1.13-.19,1.73-.18.9.02,1.83.19,2.73.51.53.19,1.01.29,1.44.29.23,0,.44-.02.64-.07.18-.04.34-.11.48-.19.15.57.29,1.46-.13,1.97-.36.42-.78.69-1.27.81-.2.05-.4.07-.61.07-.22,0-.45-.04-.65-.1-.07-.03-.15-.04-.24-.04-.07,0-.14,0-.21.02-.23.05-.42.21-.53.42-.16.36-.04.79.29,1l1.22.76c-.3.15-.74.33-1.3.47-.59.14-1.25.21-2.05.2h-.02c-3.31-.11-4.73-1.67-4.79-1.73-.15-.17-.37-.27-.59-.28-.07,0-.13,0-.2.02-.12.03-.22.08-.31.16-.17.14-.26.33-.28.54-.02.21.05.41.19.58.32.36,2.12,2.16,5.93,2.28h.17c.8.02,1.58-.07,2.32-.25,1.9-.46,2.92-1.4,2.92-1.4.18-.15.28-.4.27-.65-.01-.11-.05-.22-.11-.32.84.19,1.76.65,2.74,1.37,2.82,2.07,3.79,6.51,3.96,7.39.04.27.23.5.5.61.09.03.17.05.26.05.07,0,.13,0,.19-.02.12-.03.24-.09.31-.16l.13-.14c.34,0,.69.16.98.41.32.29.5.68.51,1.11.01.83-.52,1.59-1.23,1.76-.07.02-.14.03-.33.05l-.82-.17-.04.92c-.03.77-.12,1.32-.31,1.86-.25.64-.58,1.26-.99,1.87-.22.33-.17.77.13,1.03,0,0,0,0,.01.01.36.31.9.24,1.17-.14.5-.73.88-1.45,1.14-2.17.2-.56.32-1.13.42-1.72,1.44-.35,2.46-1.75,2.42-3.32h0Z"/>
      </g>
      <path class="cls-1" d="M28.96,91.18c-.04-.33-.22-.62-.49-.82-.2-.14-.43-.21-.67-.21-.1,0-.21,0-.31.03l-6.01,1.46c-.33.08-.61.3-.77.6-.16.31-.18.68-.06,1.01.63,1.64,2.18,2.73,3.95,2.76.37,0,.74-.03,1.1-.12,2.13-.52,3.53-2.55,3.26-4.72h0ZM24.63,94.39c-.93-.02-1.78-.51-2.25-1.3l4.99-1.22c-.08,1.16-.9,2.15-2.05,2.43-.23.05-.45.08-.68.08h0Z"/>
      <g>
        <path class="cls-1" d="M21.89,89.54c-.11.18-.29.31-.5.37-.07.02-.14.02-.21.02-.37,0-.68-.26-.77-.62-.21-.87-.83-1.01-1.18-1.02-.12,0-.24.01-.35.04-.31.08-.57.25-.72.49-.18.28-.22.64-.12,1.07.05.21.02.43-.09.61-.11.19-.29.32-.5.37-.07.02-.14.02-.21.02-.37,0-.69-.26-.77-.62-.27-1.1.03-1.88.33-2.34.38-.59.98-1.01,1.7-1.18.24-.06.49-.09.75-.08,1.02.02,2.35.62,2.75,2.26.05.21.02.43-.09.61h0Z"/>
        <path class="cls-1" d="M31.21,87.27c-.11.19-.29.32-.5.37-.07.02-.14.02-.21.02-.37,0-.68-.26-.77-.62-.21-.87-.83-1.01-1.18-1.02-.12,0-.24.01-.35.04-.31.07-.57.25-.72.49-.18.28-.22.64-.12,1.07.11.44-.16.88-.6.98-.07.02-.14.02-.21.02-.37,0-.68-.26-.77-.62-.27-1.1.03-1.88.33-2.33.38-.59.98-1.01,1.7-1.18.24-.06.5-.09.75-.08,1.02.02,2.35.62,2.75,2.26.05.21.02.43-.09.61h0Z"/>
      </g>
    </g>
    <g>
      <path class="cls-1" d="M52.45,94.48c-.07,0-.15,0-.22-.01l-9.75-1.13c-1.01-.12-1.75-.97-1.72-1.98l.03-1.26c.02-1.01.81-1.83,1.82-1.9l9.8-.65h0c.55-.03,1.08.16,1.48.54.39.38.61.91.6,1.45l-.07,3.04c-.01.55-.26,1.06-.67,1.42-.36.31-.81.48-1.28.48h0ZM52.49,89.02l-9.8.65c-.24.02-.43.21-.43.45l-.03,1.26c0,.24.17.44.41.47l9.75,1.13c.19.02.3-.06.36-.11s.15-.16.16-.34l.07-3.04c0-.18-.09-.29-.14-.35s-.18-.14-.35-.13h0Z"/>
      <g>
        <path class="cls-1" d="M39.74,86.08c-.81,0-1.55-.5-1.83-1.3l-.42-1.18c-.34-.96.1-2,1.02-2.42l8.92-4.11h0c.5-.23,1.07-.24,1.57-.02.5.21.9.63,1.08,1.14l1.02,2.87c.18.52.14,1.09-.12,1.57-.26.48-.71.84-1.24.97l-9.51,2.43c-.16.04-.33.06-.49.06h0ZM48.05,78.42l-8.92,4.11c-.22.1-.32.35-.24.58l.42,1.18c.08.23.32.35.55.29l9.51-2.43c.17-.04.26-.16.29-.23s.09-.21.03-.37l-1.02-2.87c-.06-.17-.19-.24-.26-.27-.07-.03-.21-.07-.38,0h0Z"/>
        <path class="cls-1" d="M47.65,104.9c-.31,0-.62-.07-.9-.22l-8.7-4.54c-.9-.47-1.29-1.53-.9-2.47l.48-1.16c.39-.94,1.41-1.42,2.38-1.12l9.38,2.89c.52.16.96.54,1.19,1.03.23.49.25,1.07.04,1.57l-1.16,2.82c-.21.51-.62.9-1.14,1.09-.21.08-.44.12-.67.12ZM39.43,96.78c-.18,0-.35.11-.43.29l-.48,1.16c-.09.22,0,.47.21.59l8.7,4.54h0c.16.08.3.05.37.02.07-.03.2-.09.27-.26l1.16-2.81c.07-.17.02-.31,0-.38s-.11-.19-.28-.24l-9.38-2.89s-.09-.02-.14-.02Z"/>
      </g>
    </g>
    <g>
      <path class="cls-1" d="M25.9,60.75c-.12,0-.25-.02-.37-.05l-9.54-2.32c-.53-.13-.99-.48-1.25-.96s-.31-1.05-.14-1.57l.99-2.88c.18-.52.57-.94,1.07-1.16s1.08-.21,1.57,0l8.96,4.01c.93.41,1.38,1.45,1.05,2.41l-.41,1.19c-.29.84-1.08,1.36-1.94,1.32h0ZM17.46,53.13c-.09,0-.16.02-.21.04-.07.03-.2.11-.25.28l-.99,2.88c-.06.17,0,.31.03.37.04.07.12.19.3.23h0l9.54,2.32c.24.06.47-.07.55-.3l.41-1.19c.08-.23-.03-.47-.25-.57l-8.96-4.01c-.06-.03-.12-.04-.17-.04h0Z"/>
      <g>
        <path class="cls-1" d="M17.24,69.86c-.42-.02-.84-.18-1.17-.46-.42-.35-.67-.87-.68-1.42l-.11-3.04c-.02-.55.19-1.08.58-1.46s.91-.58,1.47-.55l9.8.54c1.01.06,1.8.86,1.84,1.88l.05,1.26c.04,1.01-.69,1.88-1.7,2l-9.74,1.24h0c-.11.01-.23.02-.34.01h0ZM17.25,64.41c-.18,0-.29.08-.35.13s-.14.17-.14.35l.11,3.04c0,.18.1.29.16.34.06.05.18.13.36.11l9.74-1.24c.24-.03.41-.24.4-.48l-.05-1.26c0-.24-.2-.43-.44-.45l-9.8-.54s0,0,0,0Z"/>
        <path class="cls-1" d="M31.18,54.97c-.35-.02-.7-.13-1.01-.35l-8.08-5.58c-.45-.31-.75-.8-.82-1.34s.08-1.09.43-1.51l1.95-2.34c.35-.42.86-.67,1.41-.7s1.08.18,1.47.57h0l6.93,6.95c.72.72.77,1.85.12,2.63l-.8.97c-.41.49-1,.73-1.59.7h0ZM25.17,44.64h-.04c-.08,0-.22.03-.33.17l-1.95,2.34c-.11.14-.11.28-.1.36,0,.08.05.22.2.32l8.08,5.58c.2.14.46.1.62-.08l.8-.97c.15-.19.14-.45-.03-.62l-6.93-6.95c-.1-.1-.22-.13-.3-.14h0Z"/>
      </g>
    </g>
    <g>
      <path class="cls-1" d="M43.04,66.56c.08.2.23.36.43.45.09.04.18.06.28.07.34.02.66-.17.79-.48.45-1.04.29-1.86.08-2.36-.27-.64-.79-1.16-1.47-1.46-.31-.14-.65-.22-.99-.24-1.25-.08-2.3.58-2.83,1.77-.18.41,0,.89.42,1.07.09.04.18.06.28.07.34.02.66-.17.79-.48.31-.71.83-.83,1.22-.81.16.01.33.05.47.11.29.13.51.34.62.61.13.31.11.67-.07,1.07-.09.2-.09.42-.01.62h0Z"/>
      <path class="cls-1" d="M48.15,70.93l-5.66-2.48c-.13-.06-.27-.09-.41-.1-.2-.01-.4.02-.58.11-.3.14-.53.4-.63.72-.64,2.09.39,4.33,2.39,5.21.46.2.95.32,1.45.35,1.62.1,3.14-.69,3.98-2.07.18-.31.23-.67.12-1-.1-.33-.34-.59-.66-.73h0ZM44.81,73.11c-.31-.02-.61-.09-.9-.22-1.08-.47-1.72-1.59-1.59-2.75l4.7,2.06c-.55.63-1.36.96-2.2.91h0Z"/>
      <path class="cls-1" d="M51.91,68.72c.13.31.11.67-.07,1.07-.18.41,0,.89.42,1.07.09.04.18.06.27.07.34.02.66-.17.8-.48.45-1.03.29-1.85.08-2.36-.27-.65-.8-1.16-1.47-1.46-.31-.14-.65-.22-.99-.24-1.25-.08-2.3.58-2.83,1.77-.18.41,0,.89.42,1.07.09.04.18.06.27.07.34.02.66-.17.79-.48.31-.71.83-.83,1.22-.81.16.01.33.05.47.11.29.13.51.34.62.61h0Z"/>
      <path class="cls-1" d="M69.92,75.86c-.43-.21-.5-.46-.54-.57-.08-.33,0-.97.75-2.17,1.56-2.39,2.71-5.97,1.27-8.82-.86-1.73-3.28-3.84-7.29-4.09-.55-.04-1.12-.03-1.77.04-.04-.2-.1-.4-.16-.61-.16-.5-.35-.97-.57-1.41-.21-.42-.74-.56-1.14-.31,0,0,0,0-.01,0-.35.21-.48.66-.3,1.03.2.41.36.81.49,1.2.52,1.59.64,3.39.42,5.19-.04.35.15.69.48.83h.02c.49.21,1.04-.1,1.1-.63.06-.48.1-.96.11-1.44.64.34,1.45,1.03,1.4,1.75-.05,1.06-.52,2.1-1.02,3.2-.41.88-.87,1.88-.94,2.87-.08,1.02.23,1.83,1.04,2.72.14.15.34.24.55.25.07,0,.14,0,.21-.01.3-.06.54-.29.61-.58.01,0,0,0,0,0,.24.98.69,1.76,1.36,2.32.28.23.56.4.83.52.42.18.89.29,1.4.32.45.03.94,0,1.45-.09.35-.05.62-.32.67-.67.06-.34-.11-.67-.43-.85h0ZM67.82,75.7s.01.05.02.07c-.31-.08-.58-.21-.8-.4-.64-.52-.98-1.55-1.01-3,0-.28-.16-.56-.41-.69-.11-.06-.23-.09-.35-.1-.16,0-.31.02-.45.1-.37.21-.7.47-.97.79-.02-.14-.02-.28-.02-.44.04-.64.37-1.39.8-2.3.51-1.11,1.08-2.37,1.17-3.78.11-2.17-2.42-3.47-3.08-3.53-.01-.2-.02-.4-.06-.59.45-.02.9-.03,1.34,0,3.1.2,5.26,1.79,5.96,3.18,1.13,2.25.06,5.3-1.2,7.24-.88,1.38-1.19,2.51-.94,3.46h0Z"/>
      <path class="cls-1" d="M60.44,69.72h-.03c-.34-.05-.66.12-.82.42-.42.82-.92,1.61-1.5,2.3,0-.32-.34-.55-.58-.5,1.38-4.08,1.56-10.09-2.36-13.71-1.32-3.15-3.22-5.02-5.52-5.4-.26-.05-.52-.08-.75-.09-3.41-.22-4.96,2.39-5.58,3.39l-.12.23c-.25.39-.74,1.05-1.33,1.06-.37-.02-.68-.34-.76-.48-.14-.22-.36-.37-.62-.38-.06,0-.12,0-.18.02-.31.02-.6.26-.68.57-.22.72-.21,1.43.08,2-1.06,1.03-2.06,2.34-2.89,3.76-.07-.02-.15-.04-.24-.05.63-4.25,3.8-8.59,7.5-10.27,1.34-.61,2.65-.9,3.98-.82,1.78.12,3.82.96,5.1,2.47.1.07.2.12.41.14,1.3.19,2.36.57,3.25,1.04.37.2.83.05,1.03-.31.01,0,.02-.02.02-.03.23-.37.12-.87-.27-1.08-1.06-.57-2.29-.98-3.65-1.19-1.48-1.51-3.74-2.5-5.83-2.64-1.62-.1-3.3.43-4.88,1.15-.2.09-.43.2-.5.3-1.94-2.48-4.54-4-7.16-4.17-.74-.05-1.43.01-2.04.2h-.01c-.59.17-.77.91-.33,1.34l.04.04c.21.2.5.27.78.19.1-.03.19-.05.24-.07.41-.12.63-.1,1.18-.06.99.06,3.54.51,5.86,3.36-.16.11-.3.2-.41.3-.34-.25-1.25-.63-2.25-.7-1.04-.07-1.92.23-2.51.85-.99,1.01-1.53,2.3-2.04,3.52-.35.83-.67,1.6-1.11,2.04-.11.14-.22.22-.35.31.06-.43.02-.85-.07-1.26-.07-.29-.26-.51-.54-.59-.06-.02-.13-.04-.21-.04-.21-.01-.42.06-.58.2-.54.49-1.08.85-1.6,1.07-.31.13-.51.43-.5.76v.02c.01.56.58.96,1.1.74.17-.07.33-.15.5-.24-.07.1-.1.22-.11.34-.01.18.04.35.12.51.17.22.39.37.69.39,1.19-.01,2-.33,2.72-1.08.62-.66,1.02-1.56,1.47-2.65.44-1.04.88-2.12,1.68-2.92.32-.34.84-.38,1.24-.35.42.03.8.13,1.01.21-2.56,2.49-4.3,5.95-4.6,9.19-.14.07-.26.12-.4.2-.71.46-1.21,1.17-1.38,2.03-.32,1.54.44,3.1,1.85,3.63-.04.68-.04,1.26.06,1.84.26,1.46.94,2.98,2.1,4.66.5.6.92,1.03,1.32,1.4l1.08.87c.41.3.83.58,1.23.81.4.23.91.05,1.09-.37h0c.16-.37.02-.8-.32-.99-1.2-.69-2.32-1.63-3.16-2.68-.95-1.39-1.54-2.71-1.8-4.03-.09-.53-.08-1.08.02-1.89l.12-.92-.82.02v-.02s-.13,0-.13,0c-.07,0-.13-.04-.2-.07-.68-.3-1.07-1.13-.9-1.93.09-.43.33-.78.69-1.01.28-.18.58-.26.94-.24l.1.05s.1.11.2.19l.19.13c.09.04.16.05.25.06.07,0,.13,0,.32-.05.17-.03.29-.13.37-.26l.1-.11c.71-1.35,1.65-2.68,2.64-3.76.42.43.92.79,1.51,1.05.48.21,1.03.36,1.63.43l.45.03c1.54.1,3.52-.13,6.47-2.58.41-.33,1.1-.5,1.92-.44.55.04,1.12.16,1.69.35,3.21,3.18,3.14,8.57,1.67,12.5-.26.43-.02,1.23.79,1.12.23.19.39.49.45.8.06.44-.02.85-.28,1.19-.39.53-1.04.84-1.63.8-.18-.01-.34-.05-.5-.12-.06-.03-.13-.05-.29-.15l-.57-.6-.55.68c-.57.68-1.02,1.11-1.54,1.45-.3.2-.4.59-.27.92.01.02.03.03.03.05.17.44.69.61,1.08.37.53-.34.97-.73,1.47-1.28.3.14.64.22,1,.24,1.16.07,2.31-.46,3.02-1.41.41-.52.63-1.15.59-1.72.96-.97,1.78-2.15,2.44-3.46.24-.48-.07-1.06-.6-1.14h0ZM52.48,57.54c-1.25-.08-2.29.18-3,.79-2.52,2.07-4.06,2.29-5.35,2.2l-.34-.02c-1.04-.13-1.93-.61-2.37-1.31-.07-.08-.12-.16-.16-.25.18.04.37.08.6.1h.03c.7,0,1.72-.32,2.66-1.84l.15-.26c.6-1.03,1.62-2.76,4.07-2.6.19.01.37.04.58.08,1.44.24,2.66,1.27,3.7,3.16-.19-.03-.38-.04-.56-.05h0Z"/>
    </g>
  </g>
</svg>