<?xml version="1.0" encoding="UTF-8"?>
<svg id="Layer_1" data-name="Layer 1" xmlns="http://www.w3.org/2000/svg" viewBox="0 0 81.57 104.9">
  <defs>
    <style>
      .cls-1 {
        fill: #191818;
      }

      .cls-2 {
        opacity: .4;
      }

      .cls-3 {
        opacity: .3;
      }

      .cls-4 {
        fill: #0ac;
      }
    </style>
  </defs>
  <g>
    <path class="cls-1" d="M34.01,13.7c2.28-1.75,3.78-3.05,4.5-3.91.72-.86,1.08-1.7,1.08-2.51,0-1.06-.59-1.59-1.77-1.59-.95,0-2.07.42-3.36,1.25l-.75-2.36c.59-.39,1.3-.71,2.14-.96.84-.25,1.64-.37,2.4-.37,1.4,0,2.47.33,3.23,1,.75.66,1.13,1.59,1.13,2.77,0,1.02-.32,1.99-.96,2.92-.64.93-1.9,2.18-3.77,3.74v.03h4.8v2.38h-8.67v-2.38Z"/>
    <path class="cls-1" d="M47.9,9.02v7.13h-1.67v-4.6c-.27.45-.52.8-.75,1.04l-.42-2.05c.48-.61.88-1.27,1.19-1.98.31-.71.56-1.55.76-2.52l1.61.27c-.15.95-.38,1.84-.71,2.69ZM48.32,15.88v-1.52h3.56c.69-1.58,1.21-3.34,1.57-5.28l1.7.32c-.34,1.8-.83,3.46-1.47,4.96h1.96v1.52h-7.33ZM52.92,7.19h2.61v1.49h-6.98v-1.49h2.63v-1.26h1.75v1.26ZM48.8,9.47l1.66-.37c.39,1.55.71,3.05.96,4.52l-1.66.29c-.24-1.4-.56-2.88-.96-4.43Z"/>
  </g>
  <g class="cls-3">
    <path class="cls-4" d="M31.98,11.33c-.22,0-.4.18-.4.4,0,.1.03.18.09.25l-1.68,1.2-1.49-1.98c.16-.08.26-.24.26-.43,0-.26-.21-.48-.48-.48s-.48.21-.48.48c0,.19.11.35.26.43l-1.49,1.98-1.64-1.18c.06-.08.1-.17.1-.28,0-.24-.2-.44-.44-.44s-.44.2-.44.44.2.44.44.44c.04,0,.07,0,.11-.01l.86,3.91h5.44l.87-3.95s.06.01.1.01c.22,0,.4-.18.4-.4s-.18-.4-.4-.4Z"/>
  </g>
  <g class="cls-2">
    <rect class="cls-4" x="15.82" y="30.14" width="46.94" height="6.95"/>
  </g>
  <g>
    <path class="cls-1" d="M17.92,27.96c.65-1.01,1.14-2.11,1.5-3.3l1.32.29c-.09.34-.18.66-.26.94h1.52v-1.25h1.5v1.25h3.34v1.21h-3.34v1.65h4v1.24h-2.86v2.78c0,.23.04.37.11.41.07.05.3.07.69.07s.64-.08.72-.23c.07-.15.14-.69.2-1.61l1.29.11c-.03.51-.05.91-.08,1.2-.02.29-.07.56-.14.81s-.15.43-.23.53-.21.19-.4.28c-.19.08-.38.13-.58.14-.2.01-.48.02-.85.02-.52,0-.91-.01-1.17-.04-.26-.03-.48-.09-.65-.2-.17-.11-.28-.25-.32-.42-.04-.17-.06-.43-.06-.76v-3.08h-.99c-.25,2.42-1.6,3.97-4.06,4.65l-.57-1.27c.92-.25,1.67-.67,2.23-1.26.56-.59.89-1.3,1-2.12h-3.1v-1.24h4.33v-1.65h-1.99c-.24.54-.51,1.03-.8,1.48l-1.28-.62Z"/>
    <path class="cls-1" d="M33,24.65h1.51v1.63h3.54v1.25h-3.54v1.92h2.99v1.21h-2.99v2.42h3.91v1.24h-9.68v-1.24h4.27v-2.42h-2.76v-1.21h2.76v-1.92h-2.22c-.28.84-.62,1.66-1.02,2.46l-1.28-.62c.69-1.42,1.21-2.93,1.57-4.53l1.38.23c-.08.43-.17.83-.27,1.2h1.85v-1.63Z"/>
    <path class="cls-1" d="M45.49,32.7c.8-.1,1.42-.41,1.85-.93s.65-1.22.65-2.11c0-.76-.23-1.41-.7-1.93-.47-.52-1.07-.84-1.82-.94-.18,1.39-.38,2.56-.62,3.5s-.5,1.66-.79,2.15c-.29.49-.58.83-.88,1.03-.3.19-.64.29-1.02.29-.59,0-1.14-.34-1.64-1.02-.5-.68-.75-1.51-.75-2.5,0-1.42.48-2.58,1.45-3.46.97-.89,2.23-1.33,3.79-1.33,1.26,0,2.3.4,3.13,1.19s1.24,1.8,1.24,3.02-.32,2.3-.97,3.07c-.65.77-1.52,1.2-2.62,1.3l-.3-1.32ZM44.01,26.85c-.89.17-1.58.55-2.09,1.16-.51.6-.76,1.35-.76,2.23,0,.56.11,1.05.34,1.49s.44.65.65.65c.1,0,.21-.05.32-.15.11-.1.23-.28.37-.54.14-.26.27-.6.4-1s.27-.94.4-1.6c.14-.66.26-1.4.37-2.23Z"/>
    <path class="cls-1" d="M57.33,26.32h3.33v1.03h-1.3v.78h.31v4.69h-1.45c.93.3,1.74.61,2.43.92l-.65,1.03c-1-.49-2.19-.95-3.54-1.36l.26-.59h-2.31l.28.5c-.89.56-2.11,1.02-3.67,1.4l-.52-1.08c.97-.23,1.84-.51,2.62-.81h-1.65v-3.51l-.98-1c.62-.77.93-1.85.93-3.25,1.53-.04,2.87-.19,4.02-.44l.34,1.08c-.89.18-1.92.3-3.07.39,0,.02,0,.06-.01.11,0,.05-.01.09-.01.12h3.06v.92c.21-.52.32-1.25.32-2.18,1.52-.04,2.86-.19,4-.44l.35,1.08c-.89.18-1.92.3-3.07.39,0,.03,0,.07-.01.12,0,.05-.01.09-.01.11ZM52.5,27.36c-.1.34-.18.61-.26.78h1.13v-.78h-.87ZM52.97,29.5h5.21v-.39h-5.21v.39ZM52.97,30.3v.38h5.21v-.38h-5.21ZM52.97,31.49v.4h5.21v-.4h-5.21ZM55.7,27.36h-.98v.78h1.46l-.77-.29c.12-.17.21-.33.29-.5ZM57.15,27.36c-.08.29-.19.55-.33.78h1.2v-.78h-.87Z"/>
  </g>
  <g>
    <path class="cls-1" d="M31.21,53.24c-.02-.06-.05-.11-.09-.16,0,0,0-.02-.02-.03-.02-.03-.04-.05-.07-.08-.01-.02-.03-.04-.05-.05-.03-.03-.06-.05-.1-.08,0,0,0,0,0,0-.04-.02-.07-.04-.11-.06-.03-.01-.06-.03-.08-.03-.03,0-.05-.02-.07-.02-.03,0-.06-.01-.1-.02,0,0,0,0-.01,0-.03,0-.06-.01-.1-.01-1.13,0-2.21-.75-2.56-1.77,0-.02-.01-.04-.03-.05-.02-.05-.05-.1-.07-.14-.03-.05-.07-.1-.11-.13-.04-.04-.07-.07-.12-.1,0,0-.02-.01-.03-.01-.04-.03-.08-.05-.12-.07-.05-.02-.11-.04-.16-.05-.05-.01-.11-.02-.16-.02h0c-2.7,0-4.59,2.17-4.59,5.27s1.89,5.27,4.59,5.27,4.59-2.17,4.59-5.27c0-.86-.15-1.66-.43-2.38h0ZM27.05,59.21c-2.14,0-2.9-1.93-2.9-3.58,0-1.51.64-3.25,2.38-3.54.65,1.2,1.88,2.05,3.27,2.25.11.4.15.83.15,1.28,0,1.65-.76,3.58-2.9,3.58h0ZM27.42,50.44s-.03-.01-.04-.02c.04.02.08.04.12.07-.02-.02-.05-.04-.08-.05ZM34.11,59.66c-.41.53-1.03.84-1.69.86-.12,0-.23.01-.36.03-.03,0-.07,0-.09,0-.43,0-.79-.32-.84-.75-.03-.23.04-.45.18-.62.14-.18.34-.29.56-.31.16-.02.32-.03.48-.04.17,0,.33-.08.43-.22.05-.07.13-.2.09-.38-.23-1.12-.23-2.41-.24-3.34,0-.25,0-.48,0-.67-.07-2.93-1.49-4.5-4.21-4.65l-1.84-.02h0c-1.96,0-4.93,1.24-5.05,4.67v.5c-.04.94-.07,2.23-.3,3.38-.04.17,0,.34.11.46.05.06.17.17.36.17.25,0,.5.01.74.04.46.05.79.47.74.94-.03.23-.14.43-.32.57-.18.14-.39.19-.62.17-.18-.02-.36-.03-.55-.03-.64,0-1.24-.29-1.65-.79-.42-.52-.59-1.19-.46-1.85.2-1.01.23-2.21.25-3.09l.02-.52c.15-4.59,4.19-6.31,6.7-6.31h.05l1.88.02c2.13.12,5.71,1.1,5.83,6.29,0,.21,0,.45,0,.71,0,.93,0,2.07.2,3.02.12.62-.03,1.26-.42,1.75h0ZM39.98,62.27c.34.3.39.8.12,1.15-1.59,2-3.55,3.65-5.73,4.72v.76c0,.52-.46.92-.99.83-.41-.07-.7-.46-.7-.88v-1.25c0-.34.19-.64.5-.77,2.15-.95,4.08-2.51,5.62-4.45.29-.36.82-.42,1.17-.12,0,0,0,0,.01.01h0ZM44.78,75.11c-2.66,0-4.83-2.17-4.83-4.83s2.17-4.83,4.83-4.83,4.83,2.17,4.83,4.83-2.17,4.83-4.83,4.83ZM44.78,67.16c-1.72,0-3.12,1.4-3.12,3.12s1.4,3.12,3.12,3.12,3.13-1.4,3.13-3.12-1.4-3.12-3.13-3.12ZM31.36,73.24c-.37,0-.72-.25-.82-.63l-.67-2.45c-.12-.45.14-.92.6-1.05s.92.14,1.05.6l.67,2.45c.12.45-.14.92-.6,1.05-.07.02-.15.03-.23.03ZM34.83,73.68c-.14,0-.29-.04-.42-.11-.41-.23-.55-.75-.32-1.16l1.26-2.21c.24-.41.76-.55,1.16-.32.41.23.55.75.32,1.16l-1.26,2.21c-.16.28-.44.43-.74.43h0ZM28.6,75.39c-.14,0-.29-.04-.42-.11l-2.21-1.26c-.41-.23-.55-.75-.32-1.16.24-.41.76-.55,1.16-.32l2.21,1.26c.41.23.55.75.32,1.16-.16.28-.44.43-.74.43h0ZM37.82,59.96c-.87,1.16-1.92,2.18-3.14,3.02-2.13,1.47-4.32,1.47-6.84,1.47h-.8c-2.73,0-5.52,0-7.68-1.51-1.73-1.21-3.13-2.79-4.12-4.61-.24-.43-.04-.97.41-1.17h0c.4-.18.87,0,1.08.38.86,1.58,2.09,2.96,3.6,4.02,1.73,1.21,4.24,1.21,6.67,1.21h1.16c2.19,0,3.95-.06,5.57-1.18,1.07-.74,2-1.64,2.76-2.67.24-.31.66-.42,1.01-.24h.01c.47.25.62.85.3,1.27h0ZM68.07,92.22c-.47-.07-.92.23-1.04.69l-.08.32c-.46,1.81-2.28,3.07-4.4,3.07h-7.93c.77-.83,1.24-1.9,1.24-3.06v-2.5c1.06-.56,1.84-1.46,2.17-2.53l1.35-4.4c.38-1.22,1.66-2.07,3.11-2.07h6.33c.28,0,.54.11.71.3.16.17.22.39.16.6l-.43,1.66c-.14.53.22,1.07.76,1.15h0c.47.07.92-.23,1.04-.69l.45-1.73c.19-.75,0-1.51-.55-2.1-.53-.58-1.3-.91-2.14-.91h-.58c-.14-.21-.28-.42-.45-.67-.89-1.32-2.52-2.15-4.27-2.15h-5.14c-2.2,0-4.11,1.25-4.75,3.1l-.67,1.83c-.21-.04-.42-.05-.64-.05h-.37v-.86c0-2.82-2.6-5.11-5.79-5.11h-3.19c-1.04,0-2.03.19-2.94.54,0,0-.01,0-.02-.01l-2.67-1.68c-.55-.34-1.26-.39-1.86-.12-.62.28-1,.83-1,1.45v2.18c0,.44.19.86.56,1.17l.96.82-1,2.02-.64-1.87-.16-.48-.16-.48-.33-.95c-.06-.18-.19-.35-.36-.45l-.35-.22-.16-.11-.16-.1-2.48-1.56c-.55-.34-1.26-.39-1.86-.12-.62.28-1,.83-1,1.46v2.17c0,.44.19.86.54,1.16l2.11,1.85.95,6.29c.24,1.54,1.74,2.71,3.5,2.71.85,0,1.67-.27,2.31-.76l1.63-1.25v2.22h-6.78c-1.22,0-2.36.48-3.13,1.32-.78.85-1.07,1.95-.8,3.03l.43,1.7c.13.52.67.82,1.18.66h0c.47-.15.74-.64.62-1.11l-.41-1.63c-.14-.54.01-1.11.42-1.54.41-.45,1.03-.71,1.69-.71h7.71c.24,0,.47-.08.65-.24.18-.16.29-.38.29-.62v-8.18c0-.47-.42-.86-.94-.86s-.93.38-.93.86v2.88l-2.83,2.18c-.31.23-.7.37-1.11.37-.83,0-1.54-.53-1.65-1.24l-1-6.58c-.03-.19-.13-.37-.28-.5l-2.31-2.03v-2.01l2.82,1.77,1.82,5.32-.2.4c-.1.2-.11.43-.03.64.09.23.27.41.51.5.12.04.24.07.37.07.37,0,.7-.2.85-.5l2.55-5.11c.85-1.81,2.85-2.98,5.09-2.98h3.19c2.16,0,3.92,1.53,3.92,3.4v.86h-4.92c-1.95,0-3.53,1.4-3.53,3.13v5.71c0,3.6-7.04,5.44-7.11,5.45-.04,0-.07.02-.11.04h-.77c-.28,0-.55.12-.72.31-.18.21-.26.49-.18.75l1.93,6.78c.11.37.48.64.91.64.07,0,.14,0,.22-.02.26-.06.48-.21.6-.42.12-.19.14-.42.08-.63l-1.63-5.71h3.6l1.55,6.12c.1.39.47.66.91.66.06,0,.13,0,.19-.02.26-.05.48-.2.61-.41.12-.19.15-.41.1-.63l-1.47-5.8h2.87l1.77,6.21c.11.37.48.64.9.64.07,0,.15,0,.22-.02.26-.06.48-.21.6-.42.12-.19.15-.42.08-.63l-1.64-5.78h5.25c.24,0,.48-.01.71-.04h.64l1.52,6c.1.39.47.66.91.66.06,0,.12,0,.2-.01.26-.05.48-.2.61-.41.12-.19.16-.41.1-.62l-1.42-5.61h2.94l1.71,6.02c.11.37.48.64.91.64.08,0,.15,0,.22-.02.26-.05.47-.21.6-.42.12-.19.15-.42.08-.63l-1.59-5.59h3.99c3,0,5.56-1.81,6.22-4.38l.06-.25c.14-.53-.22-1.07-.76-1.15h0ZM55.41,80.83c.4-1.15,1.59-1.92,2.97-1.92h5.14c1,0,1.94.42,2.52,1.12h-3.54c-2.29,0-4.3,1.36-4.91,3.31l-1.35,4.4c-.08.26-.2.5-.37.72v-3.24c0-.94-.46-1.78-1.2-2.35,0,0,.75-2.03.75-2.03ZM36.93,78.89l-.57-.48v-2.01l1.91,1.2c-.51.37-.96.8-1.34,1.29h0ZM53.99,93.23c0,1.54-1.29,2.82-2.99,3.06-.04,0-.08,0-.12.01-.15.02-.31.03-.47.03h-11.13c2.12-1.15,4.22-2.92,4.22-5.42v-5.71c0-.79.75-1.43,1.67-1.43h7.15c.29,0,.56.06.79.17.52.24.87.72.87,1.25v8.02h0ZM30.96,101.69l.54,2.14c.05.21.02.43-.1.62-.13.21-.36.36-.61.41-.07.01-.13.02-.19.02-.44,0-.81-.27-.91-.66l-.52-2.06c-.12-.48.15-.97.62-1.11h0c.51-.16,1.05.14,1.18.66ZM70.07,88.59l-.24.93c-.12.46-.57.76-1.04.69h0c-.55-.08-.9-.62-.76-1.15l.24-.93c.12-.46.57-.76,1.04-.69h0c.55.08.9.62.76,1.15ZM19.77,77.35l-.03-9.21c-5.07-2.48-8.97-8.09-9.74-14.01-.1-.78.14-1.55.65-2.14.52-.59,1.26-.92,2.04-.92,1.36,0,2.51,1.01,2.68,2.35.02.17.05.34.08.52.07.39-.13.77-.49.92h0c-.5.22-1.07-.09-1.17-.62-.04-.2-.07-.4-.09-.6-.07-.5-.5-.87-1.01-.87-.3,0-.57.12-.77.35-.2.23-.29.52-.25.81.72,5.6,4.43,10.79,9.24,12.92.3.13.5.43.5.77l.03,9.75c0,.47-.38.85-.84.85h0c-.47,0-.84-.38-.84-.84ZM20.63,81.25c.47,0,.84.38.84.84l.02,5.2c0,.46-.37.85-.84.85s-.85-.37-.85-.84v-5.2c-.01-.47.36-.85.83-.85h0ZM63.87,70.17h.01c.49-.5,1.32-.23,1.43.45.07.42.08.86.03,1.31-.24,2.2-2.01,4-4.21,4.26-3.13.37-5.77-2.28-5.38-5.42.27-2.17,2.03-3.9,4.2-4.17.91-.11,1.78.04,2.54.38.54.24.66.96.24,1.37h0c-.24.24-.61.32-.93.18-.55-.24-1.19-.33-1.86-.21-1.26.23-2.26,1.25-2.48,2.51-.37,2.12,1.41,3.95,3.53,3.65,1.2-.17,2.21-1.05,2.54-2.21.13-.47.16-.92.09-1.35-.04-.28.04-.56.23-.75h0ZM61.21,58.32c-.24,1.7-1.57,3.04-3.23,3.26-2.44.32-4.96.48-7.53.48s-5.29-.17-8.01-.5c-1.7-.21-3.05-1.55-3.29-3.27l-.08-.57h-1.44c-.81-.07-1.49-.57-1.79-1.32s-.15-1.59.39-2.18l2.49-2.76c.14-.16.23-.34.24-.55.05-.5.13-1.25.22-2.04.21-1.79,1.66-3.21,3.44-3.35.7-.06,1.41-.11,2.11-.15.49-.03.9.36.9.85h0c0,.45-.35.82-.81.85-.69.04-1.38.09-2.06.14-.98.08-1.77.86-1.89,1.86-.09.77-.17,1.51-.22,2-.06.57-.29,1.09-.67,1.52l-2.49,2.76c-.15.17-.1.34-.07.41.03.07.12.23.34.25l1.55.12c.74.05,1.35.63,1.45,1.37l.08.56c.13.95.88,1.7,1.81,1.82,5.25.64,10.33.65,15.11.02.91-.12,1.63-.86,1.77-1.81.4-2.79.39-5.81-.03-8.99-.13-1-.94-1.79-1.92-1.87-2.95-.24-5.91-.34-8.84-.3-.48,0-.87-.37-.87-.85h0c0-.47.37-.85.84-.85,2.99-.05,6,.05,9.01.3,1.77.15,3.23,1.55,3.47,3.34.44,3.33.45,6.51.03,9.45h0Z"/>
    <path class="cls-1" d="M44.02,56.06h-.7c-.47,0-.85-.38-.85-.85s.38-.85.85-.85h.7c.47,0,.85.38.85.85s-.38.85-.85.85Z"/>
    <path class="cls-1" d="M53.09,56.06h-.7c-.47,0-.85-.38-.85-.85s.38-.85.85-.85h.7c.47,0,.85.38.85.85s-.38.85-.85.85Z"/>
    <path class="cls-1" d="M56.54,56.06h-.7c-.47,0-.85-.38-.85-.85s.38-.85.85-.85h.7c.47,0,.85.38.85.85s-.38.85-.85.85Z"/>
    <path class="cls-1" d="M49.64,56.06h-2.87c-.47,0-.85-.38-.85-.85s.38-.85.85-.85h2.87c.47,0,.85.38.85.85s-.38.85-.85.85Z"/>
  </g>
</svg>