<?xml version="1.0" encoding="UTF-8"?>
<svg id="Layer_1" data-name="Layer 1" xmlns="http://www.w3.org/2000/svg" viewBox="0 0 81.57 104.9">
  <defs>
    <style>
      .cls-1 {
        fill: #191818;
      }

      .cls-2 {
        opacity: .3;
      }

      .cls-3 {
        fill: #a8a8a8;
      }
    </style>
  </defs>
  <g>
    <path class="cls-1" d="M1.5,30.89v3.07c1.65-.28,3.27-.66,4.87-1.13-.47-.32-.7-.77-.7-1.35,0-.45.16-.84.48-1.17.32-.32.71-.48,1.17-.48s.84.16,1.17.48c.32.32.48.71.48,1.17,0,.37-.11.71-.32,1-.22.29-.5.49-.84.59l.2.68c-2.2.73-4.37,1.27-6.5,1.62v1.47c0,.52.08.86.25,1.03.17.17.51.25,1.03.25,1.73,0,3.39-.05,4.98-.17l.04,1.36c-1.78.11-3.49.17-5.14.17-1.01,0-1.71-.19-2.1-.57-.38-.38-.58-1.08-.58-2.11v-5.9h1.5ZM7.82,31.98c.14-.14.21-.31.21-.51s-.07-.37-.21-.51c-.14-.14-.31-.21-.51-.21s-.37.07-.51.21-.21.31-.21.51.07.37.21.51c.14.14.31.21.51.21s.37-.07.51-.21Z"/>
    <path class="cls-1" d="M9.66,32.35v-1.29h8.91v1.29c-.21.72-.58,1.4-1.11,2.05s-1.14,1.17-1.84,1.58l-.86-1.13c1.16-.7,1.9-1.53,2.23-2.5h-7.34ZM12.52,33.23h1.47c0,1.28-.1,2.32-.29,3.11-.19.79-.5,1.44-.93,1.93s-1.03.93-1.81,1.29l-.76-1.18c.9-.42,1.51-.99,1.84-1.7.32-.71.48-1.86.48-3.46Z"/>
    <path class="cls-1" d="M19.7,38.12c2.07-.49,3.57-1.29,4.49-2.38s1.49-2.75,1.68-4.97l1.61.15c-.15,1.73-.5,3.16-1.04,4.3s-1.31,2.05-2.31,2.74c-1,.69-2.3,1.23-3.91,1.61l-.52-1.46Z"/>
    <path class="cls-1" d="M32.76,36.06v-1.91h1.91v1.91h-1.91Z"/>
    <path class="cls-1" d="M38.56,34.41v-1.12h2.54c-.21-.45-.45-.89-.71-1.34h-1.5v-1.13h3.98v-.96h1.5v.96h3.98v1.13h-1.54c-.21.51-.42.96-.65,1.34h2.52v1.12h-10.12ZM39.82,34.95h7.59v5.1h-1.51v-.41h-4.58v.41h-1.51v-5.1ZM41.33,36.77h4.58v-.71h-4.58v.71ZM41.33,37.82v.73h4.58v-.73h-4.58ZM44.58,33.29c.27-.42.51-.87.73-1.34h-3.35c.26.46.48.91.68,1.34h1.95Z"/>
    <path class="cls-1" d="M49.37,34.38c.84-.31,1.61-.65,2.31-1.02l.37.85v-2.16l-.78.92c-.55-.51-1.16-1.02-1.83-1.51l.81-.97c.66.49,1.26.98,1.79,1.46v-1.2h1.57c.04-.12.1-.41.2-.87l1.51.09c-.05.24-.11.5-.19.78h2.04v1.18c.6-.45,1.19-.93,1.76-1.44l.86.93c-.53.51-1.14,1.01-1.84,1.51l-.78-.86v2.02l.37-.76c.87.32,1.64.66,2.31,1.03l-.56,1.16c-.66-.37-1.37-.7-2.12-.99v.84h-1.81v.53h4.09v1.21h-3.49c.99.63,2.28,1.18,3.87,1.66l-.55,1.18c-1.6-.57-2.91-1.22-3.93-1.96v2.09h-1.5v-2.09c-1.02.74-2.33,1.39-3.93,1.96l-.55-1.18c1.59-.48,2.88-1.03,3.87-1.66h-3.49v-1.21h4.09v-.53h-1.81v-.85c-.68.38-1.42.72-2.2,1.01l-.48-1.17ZM53.46,32.59h2.31v-.74h-2.31v.74ZM53.46,33.58v.77h2.31v-.77h-2.31Z"/>
    <path class="cls-1" d="M62.87,36.66v-.52h.55c.22-.17.41-.33.58-.5h-1.63c-.48.32-.95.58-1.39.77l-.59-1.02c.8-.4,1.55-.89,2.24-1.48h-2.15v-1.16h1.71v-.93h-1.32v-1.1h1.32v-.77h1.41v.77h1.2v.73c.27-.42.48-.8.64-1.13l1.13.44c-.29.67-.67,1.33-1.16,2h.52v.76c.46-.99.86-2.19,1.19-3.6l1.29.17c-.07.4-.19.87-.34,1.42h2.79v1.25h-.5c-.18,2.02-.6,3.55-1.27,4.59.43.56,1.02,1.07,1.78,1.51l-.59,1.12c-.86-.49-1.53-1.03-2.01-1.62-.62.6-1.5,1.14-2.64,1.62l-.66-1.09c1.14-.47,1.99-1.02,2.56-1.64-.34-.65-.6-1.45-.8-2.38-.17.32-.35.63-.55.95l-.77-.81v.65c-.31.37-.6.67-.88.92.64-.04,1.24-.1,1.81-.15l.04,1.1c-.67.07-1.38.14-2.13.19v.67c0,.72-.08,1.16-.24,1.33-.16.17-.59.25-1.28.25-.21,0-.66-.02-1.33-.05l-.07-1.18c.6.04.98.06,1.13.06.19,0,.3-.02.34-.07.03-.04.05-.19.05-.45v-.47c-.9.04-1.66.07-2.29.09l-.08-1.13c.65-.01,1.43-.04,2.37-.09ZM64.55,31.82h-.98v.93h.23c.26-.29.51-.6.75-.93ZM63.73,34.61h1.61c.13-.22.26-.45.4-.69h-1.29c-.26.28-.5.51-.71.69ZM68.37,35.97c.36-.8.6-1.87.71-3.21h-1.41c-.11.3-.21.56-.31.77l.44-.08c.13,1.03.32,1.87.56,2.52Z"/>
    <path class="cls-1" d="M77.36,37.71v.93h4.2v1.16h-9.9v-1.16h4.2v-.93h-3.43v-1.1h3.43v-.92c-1.24.07-2.46.13-3.65.17l-.08-1.11c.16,0,.34,0,.52-.01.19,0,.39-.02.62-.03.23-.01.41-.02.54-.03.16-.27.36-.63.58-1.09h-1.94v-.46h-.77v-2.37h4.17v-.9h1.5v.9h4.17v2.37h-.77v.46h-1.01c.64.75,1.17,1.42,1.58,2.01l-1.24.62c-.14-.21-.34-.48-.59-.81-.95.09-1.66.15-2.13.19v1.02h3.29v1.1h-3.29ZM80.14,31.88h-7.04v.62h7.04v-.62ZM78.71,34.36s-.24-.29-.65-.78h-2.16c-.22.45-.39.79-.52,1.01,1.11-.07,2.21-.14,3.32-.23Z"/>
  </g>
  <g>
    <g>
      <path d="M22.43,84.92c-.17-.18-.41-.28-.66-.28h-3.23c-.5,0-.9.4-.9.9v4.73c0,.5.4.9.9.9h0c.5,0,.9-.4.9-.9v-3.83h1.38l-1,16.66h-.38v-8.9c0-.5-.4-.9-.9-.9h0c-.5,0-.9.4-.9.9v9.8c0,.5.4.9.9.9h2.12c.48,0,.87-.37.9-.85l1.11-18.46c.01-.25-.07-.49-.24-.67Z"/>
      <g>
        <path d="M59.29,91.78h0c-.52,0-.93.44-.9.95l.13,2.15c.03.48.42.85.9.85h0c.52,0,.93-.44.9-.95l-.13-2.15c-.03-.48-.42-.85-.9-.85Z"/>
        <path d="M62.09,84.64h-3.23c-.25,0-.49.1-.66.28s-.26.42-.24.67l.15,2.51c.03.48.42.85.9.85h0c.52,0,.93-.44.9-.95l-.09-1.56h1.38v16.66h-.38l-.26-4.28c-.03-.48-.42-.85-.9-.85h0c-.52,0-.93.44-.9.95l.31,5.13c.03.48.42.85.9.85h2.12c.5,0,.9-.4.9-.9v-18.46c0-.5-.4-.9-.9-.9Z"/>
      </g>
      <path d="M64.86,80.45H15.77c-.5,0-.9.4-.9.9v4.19c0,.5.4.9.9.9h14.36c.5,0,.9-.4.9-.9h0c0-.5-.4-.9-.9-.9h-13.46v-2.39h47.3v2.39h-29.53c-.5,0-.9.4-.9.9h0c0,.5.4.9.9.9h30.43c.5,0,.9-.4.9-.9v-4.19c0-.5-.4-.9-.9-.9Z"/>
      <path d="M61.34,71.68h-7.99c-.5,0-.9.4-.9.9h0c0,.5.4.9.9.9h7.99c.19,0,.34.15.34.34v6.63H18.96v-6.63c0-.19.15-.34.34-.34h30.44c.5,0,.9-.4.9-.9h0c0-.5-.4-.9-.9-.9h-11.24s-5.91,0-5.91,0h0s-13.29,0-13.29,0c-1.18,0-2.14.96-2.14,2.14v7.53c0,.5.4.9.9.9h44.52c.5,0,.9-.4.9-.9v-7.53c0-1.18-.96-2.14-2.14-2.14Z"/>
      <path d="M25.75,82.25h-3.64c-.5,0-.9-.4-.9-.9v-2.5c0-.5.4-.9.9-.9h3.64c.5,0,.9.4.9.9v2.5c0,.5-.4.9-.9.9ZM23.01,80.45h1.84v-.7h-1.84v.7Z"/>
      <path d="M29.39,82.25h-3.64c-.5,0-.9-.4-.9-.9v-2.5c0-.5.4-.9.9-.9h3.64c.5,0,.9.4.9.9v2.5c0,.5-.4.9-.9.9ZM26.65,80.45h1.84v-.7h-1.84v.7Z"/>
      <path d="M33.03,82.25h-3.64c-.5,0-.9-.4-.9-.9v-2.5c0-.5.4-.9.9-.9h3.64c.5,0,.9.4.9.9v2.5c0,.5-.4.9-.9.9ZM30.29,80.45h1.84v-.7h-1.84v.7Z"/>
      <path d="M36.67,82.25h-3.64c-.5,0-.9-.4-.9-.9v-2.5c0-.5.4-.9.9-.9h3.64c.5,0,.9.4.9.9v2.5c0,.5-.4.9-.9.9ZM33.93,80.45h1.84v-.7h-1.84v.7Z"/>
      <path d="M40.31,82.25h-3.64c-.5,0-.9-.4-.9-.9v-2.5c0-.5.4-.9.9-.9h3.64c.5,0,.9.4.9.9v2.5c0,.5-.4.9-.9.9ZM37.57,80.45h1.84v-.7h-1.84v.7Z"/>
      <path d="M43.96,82.25h-3.64c-.5,0-.9-.4-.9-.9v-2.5c0-.5.4-.9.9-.9h3.64c.5,0,.9.4.9.9v2.5c0,.5-.4.9-.9.9ZM41.21,80.45h1.84v-.7h-1.84v.7Z"/>
      <path d="M47.6,82.25h-3.64c-.5,0-.9-.4-.9-.9v-2.5c0-.5.4-.9.9-.9h3.64c.5,0,.9.4.9.9v2.5c0,.5-.4.9-.9.9ZM44.86,80.45h1.84v-.7h-1.84v.7Z"/>
      <path d="M51.24,82.25h-3.64c-.5,0-.9-.4-.9-.9v-2.5c0-.5.4-.9.9-.9h3.64c.5,0,.9.4.9.9v2.5c0,.5-.4.9-.9.9ZM48.5,80.45h1.84v-.7h-1.84v.7Z"/>
      <path d="M54.88,82.25h-3.64c-.5,0-.9-.4-.9-.9v-2.5c0-.5.4-.9.9-.9h3.64c.5,0,.9.4.9.9v2.5c0,.5-.4.9-.9.9ZM52.14,80.45h1.84v-.7h-1.84v.7Z"/>
      <path d="M58.52,82.25h-3.64c-.5,0-.9-.4-.9-.9v-2.5c0-.5.4-.9.9-.9h3.64c.5,0,.9.4.9.9v2.5c0,.5-.4.9-.9.9ZM55.78,80.45h1.84v-.7h-1.84v.7Z"/>
      <path d="M58.27,73.48c-.09,0-.19-.01-.28-.05-.47-.16-.73-.67-.57-1.14.42-1.26,1.58-5.64-1.09-9.3-2.47-3.38-7.23-4.73-11.57-3.29-.48.16-1.01.02-1.35-.37-.35-.39-.42-.95-.2-1.43l2.41-4.93c-.96-.36-1.93-.71-2.89-1.06l-.37-.14-1.1,1.04s-.05.06-.08.08l-21.26,20.32c-.36.34-.93.33-1.27-.03-.34-.36-.33-.93.03-1.27l21.19-20.25s.05-.06.08-.09l1.58-1.51c.25-.24.61-.31.93-.2l.81.3c1.37.5,2.65.97,3.92,1.45.24.09.43.27.52.51.09.24.08.5-.03.73l-2.34,4.8c4.76-1.11,9.74.55,12.46,4.26,3.18,4.35,1.83,9.47,1.35,10.93-.13.38-.48.62-.85.62Z"/>
    </g>
    <path d="M42.95,50.09c-.5,0-.89.36-.89.85l-6.08,15.18c-.24.59.2,1.23.84,1.23h0c.37,0,.7-.22.84-.57l6.08-15.2c.07-.19.11-.38.11-.56,0-.5-.4-.95-.89-.95Z"/>
  </g>
  <g class="cls-2">
    <path class="cls-3" d="M51.16,8.92c-.65,0-1.18.53-1.18,1.18,0,.28.1.54.26.74l-4.9,3.51-4.35-5.78c.45-.23.77-.7.77-1.25,0-.77-.63-1.4-1.4-1.4s-1.4.63-1.4,1.4c0,.55.31,1.02.77,1.25l-4.35,5.78-4.8-3.44c.18-.22.29-.5.29-.81,0-.71-.58-1.29-1.29-1.29s-1.29.58-1.29,1.29.58,1.29,1.29,1.29c.11,0,.21-.01.31-.04l2.52,11.43h15.9l2.55-11.55c.09.02.19.04.29.04.65,0,1.18-.53,1.18-1.18s-.53-1.18-1.18-1.18Z"/>
  </g>
  <g>
    <path class="cls-1" d="M36.49,19.2c0,.2,0,.36.02.48.02.12.07.21.15.27.08.06.21.1.39.12.17.02.42.03.73.03.24,0,.45,0,.62-.01.17,0,.31-.03.42-.07s.19-.1.24-.18.08-.2.08-.35c0-.13-.02-.24-.05-.32-.03-.08-.08-.14-.14-.18s-.14-.07-.24-.08-.21-.02-.34-.02h-1.21v-1.29h1.2c.08,0,.16,0,.24,0,.08,0,.15-.02.21-.06.06-.03.11-.08.16-.15.04-.07.06-.17.06-.29s-.02-.23-.05-.3-.1-.13-.2-.17-.23-.07-.41-.08c-.17-.01-.39-.02-.67-.02s-.49.01-.64.04-.26.08-.33.14c-.07.06-.11.14-.12.24-.01.1-.02.21-.02.35h-1.61c0-.43.04-.78.11-1.07.07-.29.21-.52.41-.7.2-.18.48-.3.84-.38s.83-.11,1.42-.11c.36,0,.72.01,1.07.04.35.02.67.09.94.21.27.11.49.29.66.53.17.24.25.57.25,1,0,.26-.03.48-.09.64-.06.17-.14.3-.22.4s-.17.17-.25.22-.16.08-.21.1c.07.03.16.08.25.13.1.05.19.13.28.24.09.11.17.26.23.44.06.18.09.42.09.71,0,.4-.06.73-.19.98s-.31.45-.56.59c-.24.14-.54.24-.89.29-.35.05-.75.08-1.2.08-.48,0-.89-.02-1.23-.06s-.63-.1-.85-.18c-.23-.08-.41-.18-.54-.31-.13-.13-.23-.28-.3-.46s-.11-.38-.13-.61c-.02-.23-.03-.5-.03-.79h1.64Z"/>
    <path class="cls-1" d="M41.62,19.47c-.05.05-.08.09-.1.11l-.07.07-.26-1.3c.11-.11.2-.25.28-.4s.15-.31.21-.47c.06-.16.1-.31.14-.46.04-.15.06-.27.08-.37l.92.04c-.02.11-.04.26-.08.46-.04.2-.1.43-.19.7v3.59h-.92v-1.97ZM44.41,20.4c.12-.36.22-.73.3-1.1.08-.37.14-.75.19-1.13l.92.14c-.03.16-.06.33-.1.52s-.08.37-.12.55c-.04.19-.09.37-.14.54-.05.18-.1.34-.16.48h.71v.92h-3.37v-.92h1.77ZM43.86,16.66h.92v.54h1.16v.88h-3.21v-.88h1.12v-.54ZM43.25,20.32c0-.15-.01-.31-.03-.47s-.04-.33-.06-.5-.06-.34-.09-.5c-.04-.17-.08-.32-.13-.47l.85-.18c.1.28.18.6.24.94.07.34.11.68.12,1.03l-.9.17Z"/>
  </g>
  <path d="M18.07,55.93c.15-.58-.49-4.92.69-4.22.39.38.6,1.07,1.08,1.44,1.4,1.04,3.17,2.15,2.76,4.2-.12.69-.62,2.67-1.56,2.27-.34-.27.07-.84-.11-1.32-.2-.73-1.15-1.85-1.82-1.82-.28,1.03-.03,2.63-.11,3.78-.02.82.14,1.77-.45,2.42-1.18,1.42-4.17.74-4.1-1.13.07-1.09,1.21-1.75,2.23-1.75.54-.07,1.26.42,1.35-.02.08-1.1.01-2.61.03-3.69v-.16Z"/>
  <path d="M71.66,90.31c.15-.58-.49-4.92.69-4.22.39.38.6,1.07,1.08,1.44,1.4,1.04,3.17,2.15,2.76,4.2-.12.69-.62,2.67-1.56,2.27-.34-.27.07-.84-.11-1.32-.2-.73-1.15-1.85-1.82-1.82-.28,1.03-.03,2.63-.11,3.78-.02.82.14,1.77-.45,2.42-1.18,1.42-4.17.74-4.1-1.13.07-1.09,1.21-1.75,2.23-1.75.54-.07,1.26.42,1.35-.02.08-1.1.01-2.61.03-3.69v-.16Z"/>
</svg>