<?xml version="1.0" encoding="UTF-8"?>
<svg id="Layer_1" data-name="Layer 1" xmlns="http://www.w3.org/2000/svg" viewBox="0 0 81.57 104.9">
  <defs>
    <style>
      .cls-1 {
        fill: #191818;
      }

      .cls-2 {
        opacity: .3;
      }

      .cls-3 {
        fill: #a8a8a8;
      }

      .cls-4 {
        fill: #181818;
      }
    </style>
  </defs>
  <g>
    <path class="cls-1" d="M19.01,36.05v-1.35h7.04v1.35c-.51,1.14-1.22,2.22-2.13,3.23,1.17,1.06,2.2,2.02,3.08,2.9l-1.01,1c-1.07-1.07-2.09-2.04-3.05-2.92-1.27,1.17-2.68,2.12-4.24,2.85l-.66-1.21c1.47-.73,2.75-1.59,3.83-2.58,1.08-1,1.93-2.09,2.54-3.28h-5.4Z"/>
    <path class="cls-1" d="M27.87,38.36c1.55-.21,3.07-.67,4.54-1.37s2.7-1.55,3.69-2.54l.9,1.03c-.87.86-1.93,1.63-3.18,2.31v5.51h-1.58v-4.75c-1.36.57-2.74.96-4.14,1.16l-.23-1.35Z"/>
    <path class="cls-1" d="M38.07,42.35l.08-1.45c2.76.1,5.58.39,8.44.88l-.15,1.45c-2.87-.49-5.66-.78-8.36-.88ZM38.55,35.89l.07-1.42c2.57.1,5.1.32,7.6.66l-.17,1.42c-2.54-.35-5.05-.57-7.5-.66ZM39.03,39.02l.11-1.46c2.01.08,4.15.32,6.42.7l-.2,1.45c-2.16-.37-4.27-.61-6.34-.69Z"/>
    <path class="cls-1" d="M48.14,35.83l.7-1.32c1.11.53,2.24,1.12,3.41,1.77l-.74,1.3c-.98-.55-2.11-1.13-3.38-1.75ZM55.56,35.56l1.4.31c-.39,2.18-1.27,3.85-2.64,5.03-1.37,1.17-3.28,1.87-5.72,2.08l-.22-1.43c2.13-.21,3.76-.79,4.9-1.74,1.14-.96,1.9-2.37,2.28-4.24Z"/>
    <path class="cls-1" d="M63.95,36.71h-3.59c-.46,1.13-1.17,2.15-2.13,3.07l-1.04-.89c.64-.63,1.16-1.35,1.57-2.17.41-.82.66-1.65.76-2.5l1.43.08c-.03.33-.09.7-.18,1.1h3.86c-.22-.43-.43-.83-.64-1.21l1.03-.52c.3.57.58,1.1.84,1.62l-.33.15v.1c0,2.56-.58,4.45-1.75,5.67-1.17,1.22-3.04,1.93-5.62,2.15l-.22-1.32c2.04-.2,3.51-.69,4.43-1.49s1.44-2.07,1.58-3.83ZM67.56,35.15l-1.06.51c-.4-.76-.68-1.3-.86-1.63l1.06-.53c.34.62.62,1.17.86,1.65Z"/>
  </g>
  <path class="cls-4" d="M27.29,80.88c-.26,0-.51-.11-.69-.31-.33-.38-.29-.96.09-1.29l8.53-7.44c.38-.33.96-.29,1.29.09.33.38.29.96-.09,1.29l-8.53,7.44c-.17.15-.39.23-.6.23Z"/>
  <path class="cls-4" d="M49.06,77.22c-.26,0-.51-.11-.69-.31l-8.18-9.38c-.33-.38-.29-.96.09-1.29s.96-.29,1.29.09l8.18,9.38c.33.38.29.96-.09,1.29-.17.15-.39.23-.6.23Z"/>
  <path class="cls-4" d="M35.73,70.65c-.26,0-.51-.11-.69-.31l-.91-1.05c-.33-.38-.29-.96.09-1.29s.96-.29,1.29.09l.91,1.05c.33.38.29.96-.09,1.29-.17.15-.39.23-.6.23Z"/>
  <path class="cls-4" d="M41.88,68.96c-.26,0-.51-.11-.69-.31l-2.73-3.13c-1.75-2.01-4.81-2.22-6.82-.47-.38.33-.96.29-1.29-.09-.33-.38-.29-.96.09-1.29,2.77-2.41,6.98-2.13,9.4.64l2.73,3.13c.33.38.29.96-.09,1.29-.17.15-.39.23-.6.23Z"/>
  <path class="cls-4" d="M28,74.61c-1.06,0-2.11-.44-2.86-1.3-.66-.76-.99-1.74-.92-2.75.07-1.01.53-1.93,1.29-2.6l4.93-4.3c.38-.33.96-.29,1.29.09.33.38.29.96-.09,1.29l-4.93,4.3c-.39.34-.63.82-.67,1.34s.13,1.03.48,1.42c.71.81,1.95.9,2.76.19l4.93-4.3c.38-.33.96-.29,1.29.09.33.38.29.96-.09,1.29l-4.93,4.3c-.72.62-1.6.93-2.49.93Z"/>
  <path class="cls-4" d="M59.33,60.68c-1.26-1.44-3-2.31-4.91-2.44-.7-.05-1.4.01-2.07.16-.57.13-.84.8-.55,1.31l.02.04c.19.33.56.52.93.43s.77-.14,1.17-.14c.12,0,.25,0,.37.01,1.42.1,2.72.74,3.65,1.82.94,1.07,1.4,2.45,1.3,3.87-.1,1.42-.74,2.72-1.81,3.65h0c-2.21,1.93-5.59,1.7-7.52-.52-.94-1.07-1.4-2.45-1.3-3.87.07-.95.39-1.84.91-2.61.19-.28.23-.64.06-.93l-.05-.08c-.33-.58-1.15-.59-1.53-.04-.71,1.04-1.13,2.24-1.22,3.53-.13,1.91.49,3.75,1.75,5.19,1.41,1.62,3.4,2.45,5.4,2.45,1.67,0,3.35-.58,4.7-1.76,1.44-1.26,2.31-3,2.44-4.91.13-1.91-.49-3.75-1.75-5.19Z"/>
  <g class="cls-2">
    <path class="cls-3" d="M53.17,12.61c-.65,0-1.18.53-1.18,1.18,0,.28.1.54.26.74l-4.9,3.51-4.35-5.78c.45-.23.77-.7.77-1.25,0-.77-.63-1.4-1.4-1.4s-1.4.63-1.4,1.4c0,.55.31,1.02.77,1.25l-4.35,5.78-4.8-3.44c.18-.22.29-.5.29-.81,0-.71-.58-1.29-1.29-1.29s-1.29.58-1.29,1.29.58,1.29,1.29,1.29c.11,0,.21-.01.31-.04l2.52,11.43h15.9l2.55-11.55c.09.02.19.04.29.04.65,0,1.18-.53,1.18-1.18s-.53-1.18-1.18-1.18Z"/>
  </g>
  <g>
    <path class="cls-1" d="M40.92,18.78v6.46h-1.65v-4.96h-1.35v-1.5h3Z"/>
    <path class="cls-1" d="M43.63,23.16c-.05.05-.08.09-.1.11l-.07.07-.26-1.3c.11-.11.2-.25.28-.4s.15-.31.21-.47c.06-.16.1-.31.14-.46.04-.15.06-.27.08-.37l.92.04c-.02.11-.04.26-.08.46-.04.2-.1.43-.19.7v3.59h-.92v-1.97ZM46.42,24.1c.12-.36.22-.73.3-1.1.08-.37.14-.75.19-1.13l.92.14c-.03.16-.06.33-.1.52s-.08.37-.12.55c-.04.19-.09.37-.14.54-.05.18-.1.34-.16.48h.71v.92h-3.37v-.92h1.77ZM45.87,20.36h.92v.54h1.16v.88h-3.21v-.88h1.12v-.54ZM45.26,24.02c0-.15-.01-.31-.03-.47s-.04-.33-.06-.5-.06-.34-.09-.5c-.04-.17-.08-.32-.13-.47l.85-.18c.1.28.18.6.24.94.07.34.11.68.12,1.03l-.9.17Z"/>
  </g>
  <g>
    <path class="cls-4" d="M39.6,83.87c.43-.39.38-1.08-.09-1.42-1.04-.76-2.34-1.33-4.17-1.33-3.06,0-4.62,1.59-6,2.99-1.29,1.31-2.41,2.44-4.7,2.44s-3.41-1.13-4.7-2.44c-1.38-1.4-2.95-2.99-6-2.99-.51,0-.92.41-.92.92s.41.92.92.92c2.29,0,3.41,1.13,4.7,2.44,1.38,1.4,2.94,2.99,6,2.99s4.62-1.59,6-2.99c1.29-1.31,2.41-2.44,4.7-2.44,1.34,0,2.28.39,3.09.98.36.26.85.24,1.17-.06h0Z"/>
    <path class="cls-4" d="M67.45,86.55c-2.29,0-3.41-1.13-4.7-2.45-1.38-1.4-2.95-2.99-6-2.99s-4.62,1.59-6,2.99c-1.29,1.31-2.41,2.45-4.7,2.45-1.17,0-2.04-.3-2.77-.76-.35-.22-.81-.19-1.12.09h0c-.44.41-.38,1.12.12,1.44.97.62,2.16,1.06,3.77,1.06,3.06,0,4.62-1.59,6-2.99,1.29-1.31,2.41-2.44,4.7-2.44s3.41,1.13,4.7,2.44c1.38,1.4,2.95,2.99,6,2.99.51,0,.92-.41.92-.92s-.41-.92-.92-.92Z"/>
  </g>
  <g>
    <path class="cls-4" d="M28.87,94.23c-.29-.4-.83-.48-1.25-.21-.74.48-1.62.79-2.81.79-2.29,0-3.41-1.13-4.7-2.44-1.38-1.4-2.95-2.99-6-2.99-.51,0-.92.41-.92.92s.41.92.92.92c2.29,0,3.41,1.13,4.7,2.45,1.38,1.4,2.94,2.99,6,2.99,1.65,0,2.87-.47,3.85-1.12.42-.28.51-.87.21-1.28v-.02Z"/>
    <path class="cls-4" d="M50.27,94.24c-.29-.4-.83-.47-1.25-.21-.74.48-1.61.78-2.8.78-2.29,0-3.41-1.13-4.7-2.44-1.38-1.4-2.94-2.99-6-2.99-1.82,0-3.11.56-4.15,1.32-.4.29-.48.86-.18,1.27h0c.29.4.85.51,1.25.22.81-.58,1.74-.97,3.08-.97,2.29,0,3.41,1.13,4.7,2.45,1.38,1.4,2.95,2.99,6,2.99,1.65,0,2.86-.46,3.84-1.11.42-.28.51-.87.21-1.28v-.02Z"/>
    <path class="cls-4" d="M67.64,94.81c-2.29,0-3.41-1.13-4.7-2.44-1.38-1.4-2.95-2.99-6-2.99-1.83,0-3.12.57-4.16,1.32-.4.29-.48.86-.18,1.27h0c.29.4.85.51,1.25.22.81-.59,1.75-.98,3.09-.98,2.29,0,3.41,1.13,4.7,2.45,1.38,1.4,2.95,2.99,6,2.99.51,0,.92-.41.92-.92s-.41-.92-.92-.92Z"/>
  </g>
  <g>
    <path class="cls-4" d="M32.61,98.24c-.67.3-1.24.69-1.75,1.12-.39.32-.42.91-.1,1.29h0c.33.38.9.42,1.29.1.41-.34.85-.64,1.36-.86.32-.14.5-.47.5-.81h0c0-.67-.69-1.1-1.3-.83Z"/>
    <path class="cls-4" d="M28.32,102.74c-.28-.33-.75-.4-1.13-.21-.65.33-1.4.54-2.37.54-2.29,0-3.41-1.13-4.7-2.44-1.38-1.4-2.95-2.99-6-2.99-.51,0-.92.41-.92.92s.41.92.92.92c2.29,0,3.41,1.13,4.7,2.44,1.38,1.4,2.94,2.99,6,2.99,1.31,0,2.35-.29,3.21-.74.53-.27.67-.97.28-1.42h0Z"/>
    <path class="cls-4" d="M67.64,103.07c-2.29,0-3.41-1.13-4.7-2.44-.42-.42-.85-.86-1.33-1.26-.52-.44-1.32-.2-1.49.46h0c-.09.33.02.7.28.92.42.35.82.75,1.24,1.17,1.38,1.4,2.95,2.99,6,2.99.51,0,.92-.41.92-.92s-.41-.92-.92-.92Z"/>
    <path class="cls-4" d="M57.06,98.8c.15-.6-.33-1.19-.94-1.13-2.53.26-3.93,1.68-5.18,2.95-1.29,1.31-2.41,2.44-4.7,2.44s-3.41-1.13-4.7-2.44c-.87-.88-1.82-1.83-3.16-2.41-.59-.26-1.26.16-1.26.8v.1c0,.34.22.63.53.76,1.02.44,1.76,1.2,2.58,2.03,1.38,1.4,2.95,2.99,6,2.99s4.62-1.59,6-2.99c1.17-1.18,2.19-2.22,4.06-2.41.37-.04.66-.31.75-.67,0,0,0-.02,0-.03Z"/>
  </g>
</svg>