<?xml version="1.0" encoding="UTF-8"?>
<svg id="Layer_1" data-name="Layer 1" xmlns="http://www.w3.org/2000/svg" viewBox="0 0 81.57 104.9">
  <defs>
    <style>
      .cls-1 {
        fill: #231f20;
      }

      .cls-2 {
        fill: #191818;
      }

      .cls-3 {
        opacity: .4;
      }

      .cls-4 {
        fill: #0ac;
      }
    </style>
  </defs>
  <g class="cls-3">
    <rect class="cls-4" x="6.18" y="34.63" width="69.21" height="6.95"/>
  </g>
  <g>
    <path class="cls-2" d="M13.02,31.99h1.5v.75h3.21v2.61h1.1v1.18h-3.95c.57.82,1.86,1.43,3.86,1.81l-.44,1.28c-.97-.18-1.84-.49-2.62-.92s-1.39-.93-1.83-1.49c-.46.56-1.09,1.05-1.9,1.49-.81.43-1.71.74-2.71.92l-.44-1.28c2-.39,3.29-.99,3.86-1.81h-3.95v-1.18h1.1v-2.61h3.21v-.75ZM8.82,30.34h2v-.85h1.39v.85h3.12v-.85h1.39v.85h2v1.21h-2v.88h-1.39v-.88h-3.12v.88h-1.39v-.88h-2v-1.21ZM13.02,33.84h-1.84v1.51h1.84v-1.51ZM14.52,33.84v1.51h1.84v-1.51h-1.84Z"/>
    <path class="cls-2" d="M19.74,32.72v-1.19h4.26v1.19h-4.26ZM20.04,31.07v-1.11h3.66v1.11h-3.66ZM21.34,39.28v.4h-1.3v-3.35h3.71v2.96h-2.41ZM20.13,34.28v-1.08h3.56v1.08h-3.56ZM20.13,35.83v-1.07h3.56v1.07h-3.56ZM21.34,38.22h1.21v-.85h-1.21v.85ZM24.03,33.78h1.08l.17-.87h-.84v-1.08h1.06l.14-.73h-1.5v-1.17h5.54v1.17h-2.65l-.14.73h2.31v1.95h.74v1.17h-5.91v-1.17ZM25.74,39.09v.41h-1.38v-4h5.1v4h-1.43v-.41h-2.3ZM28.04,37.98v-1.34h-2.3v1.34h2.3ZM26.67,32.91l-.18.87h1.33v-.87h-1.16Z"/>
    <path class="cls-2" d="M34.81,35.59v-1.91h1.91v1.91h-1.91Z"/>
    <path class="cls-2" d="M44.92,31.99h1.5v.75h3.21v2.61h1.1v1.18h-3.95c.57.82,1.86,1.43,3.86,1.81l-.44,1.28c-.97-.18-1.84-.49-2.62-.92-.78-.43-1.39-.93-1.83-1.49-.46.56-1.09,1.05-1.9,1.49s-1.71.74-2.71.92l-.44-1.28c2-.39,3.29-.99,3.86-1.81h-3.95v-1.18h1.1v-2.61h3.21v-.75ZM40.72,30.34h2v-.85h1.39v.85h3.12v-.85h1.39v.85h2v1.21h-2v.88h-1.39v-.88h-3.12v.88h-1.39v-.88h-2v-1.21ZM44.92,33.84h-1.84v1.51h1.84v-1.51ZM46.42,33.84v1.51h1.84v-1.51h-1.84Z"/>
    <path class="cls-2" d="M59.78,33.04v.79h-6.23v-.79c-.37.23-.91.53-1.6.89l-.57-1.2c1.65-.87,3.1-1.9,4.36-3.08h1.85c1.25,1.18,2.71,2.21,4.36,3.08l-.57,1.2c-.69-.36-1.22-.66-1.59-.89ZM59.87,36.08c.53.98,1.07,2.05,1.63,3.2l-1.29.47c-.19-.41-.35-.74-.47-.99-2.64.33-5.12.53-7.44.6l-.07-1.21c.12,0,.28-.01.49-.02s.4-.01.57-.02c.17,0,.33-.01.49-.02.32-.56.66-1.28,1.03-2.13h-2.88v-1.21h9.46v1.21h-5.02c-.3.7-.62,1.38-.95,2.02,1.33-.1,2.58-.21,3.74-.34-.14-.28-.33-.64-.56-1.08l1.25-.48ZM59.2,32.65c-.92-.62-1.76-1.31-2.53-2.07-.77.76-1.61,1.45-2.53,2.07h5.06Z"/>
    <path class="cls-2" d="M62.64,32.72v-1.19h4.22v1.07h2.2v-1.06c-.65.07-1.29.12-1.9.15l-.09-1.21c2.04-.12,3.75-.39,5.13-.8l.29,1.21c-.54.17-1.21.32-1.99.45v1.25h2.23v1.21h-2.23v1.19h1.9v4.55h-1.43v-.52h-2.47v.52h-1.34v-4.55h1.91v-1.19h-2.25v-1.09h-4.17ZM62.94,31.07v-1.11h3.66v1.11h-3.66ZM64.24,39.28v.4h-1.3v-3.35h3.71v2.96h-2.41ZM63.03,34.28v-1.08h3.56v1.08h-3.56ZM63.03,35.83v-1.07h3.56v1.07h-3.56ZM64.24,38.22h1.21v-.85h-1.21v.85ZM70.97,37.95v-1.86h-2.47v1.86h2.47Z"/>
  </g>
  <g>
    <path class="cls-2" d="M18,95.42c-2.73,0-4.95-2.22-4.95-4.95s2.22-4.95,4.95-4.95,4.95,2.22,4.95,4.95-2.22,4.95-4.95,4.95ZM18,87.27c-1.77,0-3.2,1.44-3.2,3.2s1.44,3.2,3.2,3.2,3.21-1.44,3.21-3.2-1.44-3.2-3.21-3.2Z"/>
    <path class="cls-2" d="M33.65,95.42c-2.73,0-4.95-2.22-4.95-4.95s2.22-4.95,4.95-4.95,4.95,2.22,4.95,4.95-2.22,4.95-4.95,4.95ZM33.65,87.27c-1.77,0-3.2,1.44-3.2,3.2s1.44,3.2,3.2,3.2,3.21-1.44,3.21-3.2-1.44-3.2-3.21-3.2Z"/>
    <path class="cls-2" d="M49.29,95.42c-2.73,0-4.95-2.22-4.95-4.95s2.22-4.95,4.95-4.95,4.95,2.22,4.95,4.95-2.22,4.95-4.95,4.95ZM49.29,87.27c-1.77,0-3.2,1.44-3.2,3.2s1.44,3.2,3.2,3.2,3.21-1.44,3.21-3.2-1.44-3.2-3.21-3.2Z"/>
    <path class="cls-2" d="M42.47,64.95c-.17,0-.32-.1-.38-.26l-.49-1.29c-.05-.13-.14-.24-.27-.31l-.71-.41c-.14-.08-.22-.22-.22-.38s.08-.3.22-.38l.71-.41c.12-.07.22-.18.27-.31l.49-1.29c.06-.16.21-.26.38-.26s.32.1.38.26l.49,1.29c.05.13.14.24.27.31l.71.41c.14.08.22.22.22.38s-.08.3-.22.38l-.71.41c-.12.07-.22.18-.27.31l-.49,1.29c-.06.16-.21.26-.38.26h0Z"/>
    <path class="cls-2" d="M19.13,76.88c-.17,0-.32-.1-.38-.26l-.49-1.29c-.05-.13-.14-.24-.27-.31l-.71-.41c-.14-.08-.22-.22-.22-.38s.08-.3.22-.38l.71-.41c.12-.07.22-.18.27-.31l.49-1.29c.06-.16.21-.26.38-.26s.32.1.38.26l.49,1.29c.05.13.14.24.27.31l.71.41c.14.08.22.22.22.38s-.08.3-.22.38l-.71.41c-.12.07-.22.18-.27.31l-.49,1.29c-.06.16-.21.26-.38.26h0Z"/>
    <path class="cls-2" d="M18.84,61.01c-.17,0-.32-.1-.38-.26l-.49-1.29c-.05-.13-.14-.24-.27-.31l-.71-.41c-.14-.08-.22-.22-.22-.38s.08-.3.22-.38l.71-.41c.12-.07.22-.18.27-.31l.49-1.29c.06-.16.21-.26.38-.26s.32.1.38.26l.49,1.29c.05.13.14.24.27.31l.71.41c.14.08.22.22.22.38s-.08.3-.22.38l-.71.41c-.12.07-.22.18-.27.31l-.49,1.29c-.06.16-.21.26-.38.26h0Z"/>
    <path class="cls-2" d="M56.41,82.14h-12.51c-.73,0-1.39-.46-1.65-1.14l-.31-.84c-.17-.45.06-.95.51-1.12.45-.16.95.06,1.12.51l.31.84h12.52s-2.6-7.02-2.6-7.02h-12.51s.46,1.26.46,1.26c.17.45-.06.95-.51,1.12-.45.17-.95-.06-1.12-.51l-.47-1.25c-.2-.54-.12-1.14.2-1.62.33-.47.87-.76,1.44-.76h12.51c.73,0,1.39.46,1.65,1.14l2.61,7.01c.2.54.12,1.14-.2,1.62-.33.47-.87.76-1.44.76h0Z"/>
    <path class="cls-2" d="M42.79,80.72h-1.59c-.88,0-1.66-.53-1.98-1.34l-.95-2.38c-.26-.66-.18-1.4.21-1.99s1.06-.94,1.77-.94h1.59c.88,0,1.66.53,1.98,1.34l.95,2.38c.26.66.18,1.4-.21,1.99s-1.06.94-1.77.94h0ZM40.25,75.81c-.18,0-.28.11-.32.17-.04.06-.11.2-.04.36l.95,2.38c.06.15.2.24.36.24h1.59c.18,0,.28-.11.32-.17.04-.06.11-.2.04-.36l-.95-2.38c-.06-.15-.2-.24-.36-.24h-1.59Z"/>
    <path class="cls-2" d="M64.5,75.81c-.48,0-.87-.39-.87-.87v-2.61c0-.48.39-.87.87-.87s.87.39.87.87v2.61c0,.48-.39.87-.87.87Z"/>
    <path class="cls-2" d="M63.61,93.82v10.13c0,.44.3.84.73.91.55.09,1.02-.33,1.02-.86v-10.18c0-.48-.4-.86-.88-.85h-.03c-.46,0-.84.38-.84.85Z"/>
    <path class="cls-2" d="M65.36,86.65v-6.76c0-.44-.3-.84-.73-.91-.55-.09-1.02.33-1.02.86v6.8c0,.44.33.81.77.86,0,0,.01,0,.02,0,.51.06.96-.34.96-.86h0Z"/>
    <path class="cls-2" d="M63.61,89.89v.69c0,.46.37.84.84.85h.03c.48.01.88-.37.88-.85v-.69c0-.51-.44-.9-.94-.84-.02,0-.04,0-.05,0-.43.05-.75.41-.75.84Z"/>
    <g>
      <path class="cls-2" d="M57.09,104.83c-.48,0-.87-.39-.87-.87v-8.28c0-.48.39-.87.87-.87s.87.39.87.87v8.28c0,.48-.39.87-.87.87Z"/>
      <g>
        <path class="cls-2" d="M57.05,104.9h-15.53c-.48,0-.87-.39-.87-.87,0-3.69,3-6.7,6.7-6.7h3.88c3.69,0,6.7,3,6.7,6.7,0,.48-.39.87-.87.87h0ZM42.47,103.15h13.63c-.41-2.31-2.44-4.08-4.87-4.08h-3.88c-2.43,0-4.46,1.76-4.87,4.08Z"/>
        <path class="cls-2" d="M35.59,97.32h-3.88c-3.7,0-6.71,3.02-6.7,6.73,0,.47.4.85.87.85h2.74c.46,0,.81-.39.81-.85v-.03c0-.47-.34-.87-.81-.87h-1.79c.41-2.31,2.44-4.08,4.87-4.08h3.88c2.43,0,4.46,1.76,4.87,4.08h-8.05c-.47,0-.81.4-.81.87v.03c0,.46.34.85.81.85h9.01c.47,0,.87-.37.87-.85.01-3.71-2.99-6.73-6.7-6.73h0Z"/>
        <path class="cls-2" d="M25.88,104.9h-15.53c-.48,0-.87-.39-.87-.87,0-3.69,3-6.7,6.7-6.7h3.88c3.69,0,6.7,3,6.7,6.7,0,.48-.39.87-.87.87h0ZM11.3,103.15h13.63c-.41-2.31-2.44-4.08-4.87-4.08h-3.88c-2.43,0-4.46,1.76-4.87,4.08Z"/>
      </g>
      <path class="cls-2" d="M36.88,80.43h-12.74c-.47,0-.81.4-.81.87v.03c0,.46.34.85.81.85h12.79c.53,0,.95-.47.86-1.02-.07-.43-.47-.73-.91-.73Z"/>
      <path class="cls-2" d="M20.81,80.43h-6.58c-.48,0-.87-.39-.87-.87v-27.91c0-.44-.3-.84-.73-.91-.55-.09-1.02.33-1.02.86v27.96c0,1.45,1.17,2.62,2.62,2.62h6.58c.46,0,.81-.38.81-.85v-.03c0-.47-.33-.87-.81-.87Z"/>
      <path class="cls-2" d="M50.35,52.47H10.74c-.48,0-.87-.39-.87-.87s.39-.87.87-.87h39.61c.48,0,.87.39.87.87s-.39.87-.87.87Z"/>
    </g>
    <g>
      <path class="cls-2" d="M46.93,69.84l-.83,1.87c-.18.4-.06.89.3,1.12.47.3,1.06.1,1.28-.38l.84-1.9c.2-.46-.02-.99-.48-1.17h0c-.44-.17-.93.03-1.11.46h0Z"/>
      <path class="cls-2" d="M73.42,75.97l-.05-.1-4.96-9.21c-.95-2.33-3.18-3.83-5.69-3.83h-9.64c-1.85,0-3.53,1.09-4.28,2.79l-.42.95c-.2.46.02.99.48,1.17h0c.44.17.93-.03,1.11-.46l.42-.95c.47-1.06,1.52-1.75,2.68-1.75h9.56c1.8,0,3.58,1.01,4.15,2.72.02.05.04.1.06.14l4.96,9.2c.34.89.26,1.83-.21,2.42-.35.44-.88.62-1.56.52l-8.92-1.06c-.53-.06-.92-.53-.89-1.06l.05-.77c.02-.27.14-.53.35-.71.21-.18.48-.26.75-.24l5.15.48c.5.05.91-.31.95-.79.04-.48-.37-.91-.85-.95l-5.09-.47c-.83-.07-1.63.21-2.22.81-.49.49-.75,1.17-.79,1.86-.01.2-.02.43-.04.67-.09,1.46.98,2.73,2.43,2.9l8.89,1.06c.2.03.4.05.6.05,1.03,0,1.94-.42,2.56-1.2.87-1.09,1.04-2.7.45-4.19h0Z"/>
    </g>
    <path class="cls-2" d="M58.84,60.66c-1.72,0-3.35-.74-4.49-2.03-1.15-1.31-1.67-2.99-1.45-4.73.34-2.67,2.53-4.84,5.2-5.17.25-.03.5-.04.74-.04.84,0,1.65.17,2.42.51.25.11.42.33.47.61.05.28-.04.56-.24.76-.16.16-.38.25-.6.25-.11,0-.22-.02-.33-.07-.55-.24-1.13-.36-1.73-.36-.27,0-.54.02-.81.07-1.73.32-3.1,1.71-3.4,3.44-.22,1.27.12,2.55.94,3.52.82.97,2.01,1.53,3.28,1.53.2,0,.41-.01.62-.04,1.66-.23,3.03-1.43,3.5-3.04.17-.61.22-1.23.12-1.85-.04-.29.04-.57.23-.76.22-.22.45-.26.61-.26.36,0,.76.24.84.71.09.53.1,1.07.04,1.62-.3,2.74-2.49,4.96-5.22,5.29-.25.03-.49.04-.73.04h0Z"/>
  </g>
  <g class="cls-3">
    <path class="cls-4" d="M54.76,3.89c-.84,0-1.52.68-1.52,1.52,0,.36.13.7.34.96l-6.34,4.54-5.63-7.48c.59-.3.99-.91.99-1.62C42.61.81,41.8,0,40.8,0s-1.81.81-1.81,1.81c0,.71.4,1.32.99,1.62l-5.63,7.48-6.21-4.45c.23-.29.37-.65.37-1.05,0-.92-.75-1.67-1.67-1.67s-1.67.75-1.67,1.67.75,1.67,1.67,1.67c.14,0,.28-.02.41-.05l3.26,14.8h20.58l3.3-14.95c.12.03.25.05.37.05.84,0,1.52-.68,1.52-1.52s-.68-1.52-1.52-1.52Z"/>
  </g>
  <g>
    <path class="cls-2" d="M36.77,17.19c-.29.04-.49.08-.59.14-.1.06-.15.19-.15.38v.28h5.4v1.94h-7.51v-1.91c0-.2.01-.44.03-.72.02-.28.1-.55.22-.82s.33-.51.61-.72c.28-.21.67-.35,1.18-.41l2.71-.32c.12-.01.23-.03.32-.05s.17-.05.23-.1.11-.11.14-.21c.03-.09.05-.22.05-.38,0-.14-.01-.26-.04-.37-.03-.11-.09-.2-.2-.27s-.26-.13-.46-.17c-.21-.04-.49-.06-.85-.06-.42,0-.75.01-.98.04-.23.02-.39.08-.5.15-.11.08-.17.19-.19.33-.02.15-.04.34-.04.58h-2.08c0-.3,0-.59.02-.86.01-.27.05-.51.12-.74.07-.22.17-.42.31-.6.14-.18.34-.33.61-.46.27-.12.6-.22,1-.29.4-.07.9-.1,1.48-.1.18,0,.4,0,.66.01.26,0,.53.02.81.05s.54.07.8.12c.25.05.46.13.63.23.3.17.54.44.72.82.18.38.28.86.28,1.46,0,.1,0,.23-.01.39,0,.16-.03.34-.07.52-.04.19-.1.38-.19.57-.09.19-.21.37-.38.54s-.37.31-.62.44-.56.21-.92.25l-2.56.31Z"/>
    <path class="cls-2" d="M42.6,17.56c-.06.06-.1.11-.12.13l-.09.08-.31-1.57c.13-.14.24-.3.34-.48.1-.18.18-.37.25-.56.07-.19.12-.37.17-.55s.07-.33.1-.45l1.1.05c-.02.13-.05.31-.1.55s-.12.52-.23.84v4.31h-1.1v-2.36ZM45.95,18.68c.14-.44.26-.88.36-1.32.1-.44.17-.9.22-1.36l1.1.17c-.04.19-.08.4-.12.62-.04.22-.09.44-.15.66-.05.22-.11.44-.17.65-.06.21-.12.4-.19.58h.86v1.1h-4.04v-1.1h2.12ZM45.29,14.2h1.11v.65h1.39v1.06h-3.85v-1.06h1.34v-.65ZM44.55,18.59c0-.18-.01-.37-.03-.57s-.04-.4-.07-.61c-.03-.2-.07-.41-.11-.61-.05-.2-.1-.39-.16-.56l1.01-.22c.12.34.21.71.29,1.12.08.41.13.82.15,1.24l-1.07.2Z"/>
  </g>
  <path class="cls-1" d="M26.88,71.04c-.07.22-.28.58-.72.58s-1.06-.31-1.06-.8c0-.19.03-.28.07-.41l3.62-10.02c.44-1.23,1.4-1.26,1.77-1.26s1.36,0,1.82,1.26l3.61,10.02c.03.1.07.24.07.38,0,.58-.68.83-1.08.83s-.62-.35-.69-.58l-.99-2.75h-5.43l-.99,2.75ZM28.43,66.72h4.3l-1.8-5c-.07-.19-.16-.35-.35-.35-.13,0-.25.09-.35.35l-1.79,5Z"/>
</svg>