<?xml version="1.0" encoding="UTF-8"?>
<svg id="_1" data-name="1" xmlns="http://www.w3.org/2000/svg" viewBox="0 0 58.07 31.46">
  <defs>
    <style>
      .cls-1 {
        fill: #fff;
        stroke-width: 0px;
      }
    </style>
  </defs>
  <g id="_319_Email_Mail_Message" data-name="319, Email, Mail, Message">
    <path class="cls-1" d="M1.81,18.85h6.45c.3,0,.6-.3.6-.61s-.3-.6-.6-.6H1.92c-.3,0-.6.3-.6.6s.2.61.5.61Z"/>
    <path class="cls-1" d="M4.54,15.12h13.81c.3,0,.61-.3.61-.6s-.3-.6-.61-.6H4.44c-.3,0-.61.3-.61.6s.3.6.61.6h.1Z"/>
    <path class="cls-1" d="M54.65,0H14.82c-1.92,0-3.43,1.51-3.43,3.43v2.92h-6.96c-.3,0-.61.3-.61.61s.3.6.61.6h6.96v3.13c0,.3.3.61.6.61s.61-.3.61-.61V3.43c0-.81.4-1.51,1.11-1.92l20.87,17.74L55.45,1.51c-.3-.1-.6-.2-1.01-.2h.2c.81,0,1.61.5,1.92,1.21l-13.81,11.59.1.1,13.71,14.72c-.3.71-1.11,1.21-1.92,1.21h-.1c.4,0,.71-.1,1.01-.3l-13.81-14.72-.1-.1-6.55,5.65c-.1.1-.3.1-.4.1s-.3,0-.4-.1l-6.55-5.65c0,.1-.1.1-.1.1l-13.91,14.82c-.6-.4-1.01-1.01-1.01-1.82v-9.88c0-.3-.3-.6-.61-.6s-.6.3-.6.6v8.17h-4.44c-.3,0-.6.3-.6.61s.3.6.6.6h4.44v.4c0,1.92,1.51,3.43,3.43,3.43h39.72c1.92,0,3.43-1.51,3.43-3.43V3.43c0-1.92-1.51-3.43-3.43-3.43Z"/>
    <path class="cls-1" d="M5.75,21.37H.6c-.3,0-.6.3-.6.61s.3.6.6.6h5.14c.3,0,.61-.3.61-.6s-.3-.61-.61-.61Z"/>
  </g>
</svg>