<?xml version="1.0" encoding="UTF-8"?>
<svg id="Layer_1" data-name="Layer 1" xmlns="http://www.w3.org/2000/svg" viewBox="0 0 93.52 43.8">
  <defs>
    <style>
      .cls-1 {
        fill: #181818;
      }
    </style>
  </defs>
  <g>
    <path class="cls-1" d="M29.87,41.37h-2.55c-.77,0-1.4-.63-1.4-1.4v-10.64c0-.77.63-1.4,1.4-1.4h2.55c.77,0,1.4.63,1.4,1.4v10.64c0,.77-.63,1.4-1.4,1.4ZM27.63,39.67h1.94v-10.03h-1.94v10.03Z"/>
    <path class="cls-1" d="M43.28,41.35h-7.63c-.25-.01-2.06-.14-3.19-.84-.4-.25-.52-.77-.27-1.17s.77-.52,1.17-.27c.64.4,1.93.56,2.33.58h7.58c1.4,0,2.61-.95,2.94-2.31l1.32-5.41c.12-.47,0-.96-.29-1.35-.3-.38-.75-.6-1.24-.6h-6.02c-.29,0-.55-.14-.71-.38-.16-.24-.18-.54-.07-.8l.6-1.39c.63-1.46.94-3.01.93-4.6,0-.41-.33-.74-.74-.74-.29,0-.43.06-.58.25-.17.21-.37.66-.59,1.14-.94,2.09-2.52,5.58-7.91,7.35-.44.15-.93-.1-1.07-.54-.15-.45.1-.93.54-1.07,4.69-1.54,6.02-4.49,6.89-6.44.29-.63.51-1.13.81-1.51.48-.59,1.1-.88,1.9-.88,1.34,0,2.43,1.09,2.44,2.42.01,1.82-.35,3.6-1.06,5.28l-.09.21h4.73c1.01,0,1.95.46,2.58,1.25.62.8.85,1.82.61,2.8l-1.32,5.41c-.52,2.12-2.41,3.61-4.6,3.61Z"/>
  </g>
  <g>
    <path class="cls-1" d="M53.14,39.15c-.13,0-.26-.03-.38-.09l-3.18-1.57c-.42-.21-.59-.72-.39-1.14.21-.42.72-.59,1.14-.39l2.81,1.38,5.87-2.89c4.24-2.09,6.88-6.33,6.88-11.06v-13.36c-5.86-1.2-9.95-2.98-12.75-5.58-2.8,2.59-6.9,4.38-12.75,5.58v8.61c0,.47-.38.85-.85.85s-.85-.38-.85-.85v-9.31c0-.41.29-.76.69-.83,6.32-1.21,10.49-3.06,13.15-5.82.32-.33.91-.33,1.23,0,2.65,2.76,6.83,4.61,13.15,5.82.4.08.69.43.69.83v14.06c0,5.38-3,10.2-7.83,12.58l-6.25,3.08c-.12.06-.25.09-.38.09Z"/>
    <path class="cls-1" d="M51.88,27.76c-.22,0-.44-.08-.6-.25l-5.98-5.98c-.33-.33-.33-.87,0-1.2l2.14-2.14c.16-.16.38-.25.6-.25h0c.23,0,.44.09.6.25l3.24,3.24,6.51-6.51c.32-.32.88-.32,1.2,0l2.14,2.14c.33.33.33.87,0,1.2l-9.25,9.25c-.17.17-.38.25-.6.25ZM47.1,20.93l4.78,4.78,8.05-8.05-.94-.94-6.51,6.51c-.32.32-.88.32-1.2,0l-3.24-3.24-.94.94Z"/>
  </g>
</svg>