<?xml version="1.0" encoding="UTF-8"?>
<svg id="Layer_1" data-name="Layer 1" xmlns="http://www.w3.org/2000/svg" viewBox="0 0 93.52 43.8">
  <defs>
    <style>
      .cls-1 {
        fill: #231f20;
      }

      .cls-2 {
        fill: #191818;
      }
    </style>
  </defs>
  <g>
    <path class="cls-2" d="M18.62,33.78c.04-.58-.13-1.14-.5-1.58-.27-.32-.62-.56-1.01-.69,0-.04.01-.09.01-.13.06-.58-.12-1.15-.49-1.61-.38-.46-.91-.75-1.49-.8-.07-.01-.15-.01-.22-.01h-.09c-.06-.36-.21-.7-.45-1-.38-.45-.9-.73-1.49-.79-.08-.01-.15-.01-.22-.01-.51,0-.99.17-1.4.49l-1.39,1.15c-.94.77-1.08,2.16-.31,3.1.24.3.55.52.9.65-.16.66,0,1.37.44,1.91.4.49.98.77,1.61.8.05.42.22.81.49,1.14.37.45.89.73,1.45.79.03.46.2.9.5,1.26.37.46.89.74,1.51.8h.19c.51,0,.99-.17,1.4-.49l1.39-1.14c.46-.38.75-.91.8-1.49.06-.58-.12-1.15-.49-1.62-.31-.36-.71-.62-1.14-.73ZM11.28,31.12c-.19,0-.36-.08-.48-.22-.22-.26-.18-.66.08-.88l1.41-1.15c.1-.09.23-.14.38-.14v-.28l.07.29c.16.02.31.1.41.22.11.13.16.3.14.47-.01.15-.09.29-.21.4l-1.41,1.15c-.11.09-.25.14-.39.14ZM13.01,33.54c-.11.09-.25.14-.4.14-.19,0-.36-.08-.48-.22-.21-.27-.17-.66.09-.88l1.85-1.52.47-.38c.1-.09.23-.14.38-.14h.05c.18.02.33.1.43.23.11.13.16.29.15.45-.02.17-.1.32-.23.42l-2.31,1.9ZM15.26,35.35s-.04.03-.05.05l-.1.08c-.11.09-.25.14-.45.14h-.02c-.19-.02-.33-.14-.41-.23-.11-.13-.16-.29-.14-.45.02-.17.1-.32.23-.42l1.71-1.41c.1-.09.23-.14.38-.14v-.28l.07.29c.16.02.31.1.41.22.09.11.15.26.15.4,0,.19-.09.36-.23.48l-.12.1s-.03.02-.04.03l-1.39,1.14ZM18.45,36.39l-1.39,1.14c-.12.1-.25.15-.45.15-.18-.02-.32-.1-.43-.23-.1-.13-.15-.29-.14-.46.02-.16.09-.31.23-.42l1.39-1.14c.11-.09.24-.14.39-.14.19,0,.36.09.49.24.1.11.15.27.13.45-.02.16-.1.31-.22.41Z"/>
    <path class="cls-2" d="M14.93,17.87h-.17c-.93,0-1.9.08-2.95.24-.43.07-.83.1-1.21.1-.5,0-.94-.06-1.3-.17.09-.34.09-.68-.02-1.01-.16-.45-.47-.8-.88-1l-1.53-.76c-.25-.13-.51-.19-.78-.19-.67,0-1.27.37-1.56.96L.17,24.79c-.11.24-.17.5-.17.76,0,.66.37,1.26.96,1.56l1.54.78c.25.11.51.17.77.17.18,0,.35-.03.56-.09.33-.11.61-.31.82-.58.37.25.99.72,1.32,1.27.27.44.69.88,1.24,1.32.15.12.32.18.5.18.24,0,.48-.11.62-.3.27-.34.22-.83-.12-1.11-.42-.34-.73-.65-.89-.92-.55-.91-1.49-1.57-1.93-1.85l3.24-6.51c.55.21,1.2.32,1.95.32.47,0,.98-.04,1.46-.12,1.03-.15,1.95-.23,2.89-.23.44,0,.79-.35.79-.78s-.35-.79-.79-.79ZM1.58,25.6s-.01-.07,0-.11l4.35-8.74c.03-.05.09-.09.16-.09h.06s1.53.78,1.53.78c.01,0,.08.11.08.11.02.03,0,.07,0,.1l-4.35,8.74s-.05.07-.1.08h-.11l-1.54-.77s-.07-.06-.09-.1Z"/>
    <path class="cls-2" d="M22.94,12.65l-6.75-6.75c-.31-.31-.3-.81,0-1.12s.81-.31,1.12,0l6.75,6.75c.31.31.31.81,0,1.12s-.81.31-1.12,0Z"/>
    <path class="cls-2" d="M24.06,5.9l-6.75,6.75c-.31.31-.81.3-1.12,0s-.31-.81,0-1.12l6.75-6.75c.31-.31.81-.31,1.12,0s.31.81,0,1.12Z"/>
    <path class="cls-2" d="M39.5,24.3l-5.04-8.34c-.23-.4-.61-.68-1.07-.81-.14-.03-.28-.04-.42-.04-.31,0-.62.08-.9.25l-1.46.89c-.41.23-.69.62-.79,1.06-.09.33-.08.69.04,1.02-.46.19-1.06.29-1.81.29-.38,0-.99-.02-1.76-.16l-5.22-1.03c-.15-.03-.31-.04-.47-.04-.37,0-.72.08-1.05.23l-5.12,2.36c-.45.22-.8.61-.95,1.09-.15.48-.08,1,.18,1.43.55.91,1.57,1.48,2.65,1.48.41,0,.81-.08,1.18-.24l2.29-.97.46.15c-.06.06-.11.13-.12.16-.04.08-.06.15-.08.21-.04.18-.01.37.09.56.05.11.12.17.14.18.03.03.07.07.13.11.03.01.05.03.06.03l6.87,3.43c.15.06.25.19.3.35.06.16.05.32-.02.47-.11.21-.33.35-.57.35-.09,0-.18-.02-.25-.05l-6.3-3.14c-.11-.06-.23-.09-.35-.09-.31,0-.59.18-.71.44-.2.38-.04.86.35,1.06l7.51,3.74c.16.08.27.2.32.35.05.17.04.34-.03.49-.11.21-.32.34-.57.34-.09,0-.19-.02-.27-.06l-7.51-3.74c-.11-.06-.23-.09-.36-.09-.3,0-.58.18-.7.44-.1.19-.12.41-.05.61.07.19.21.35.4.45l7.51,3.74c.16.08.27.2.32.35.05.17.04.34-.03.49-.11.21-.32.34-.57.34-.09,0-.19-.02-.28-.07l-1.97-.95h-.02s-.01-.01-.02-.01c-.08-.08-.17-.11-.24-.16l-2.99-1.4h-.02c-.1-.05-.2-.08-.31-.08-.31,0-.59.18-.73.46-.09.19-.1.41-.02.61.07.2.22.36.4.44l3.14,1.51h.01c.18.2.23.49.11.72-.08.15-.21.26-.36.31-.07.02-.13.04-.2.04-.09,0-.19-.03-.27-.07l-.25-.13c-.1-.05-.22-.07-.34-.07-.31,0-.59.17-.71.43-.1.19-.12.4-.05.6.07.21.22.37.4.46l.24.12c.3.16.63.23.98.23.25,0,.48-.03.7-.11.56-.18,1.01-.57,1.28-1.11.09-.19.15-.39.19-.59l.35.17c.31.16.64.23.98.23.84,0,1.6-.46,1.98-1.21.24-.47.29-.99.17-1.5.47-.21.86-.57,1.09-1.04.42-.86.24-1.89-.42-2.54.19-.17.33-.38.44-.6.27-.53.31-1.13.13-1.68-.2-.56-.59-1.01-1.11-1.27l-5.57-2.78.07-.05s.05-.03.07-.04c.07-.06.11-.11.12-.13.05-.05.08-.09.1-.16.02-.02.02-.04.03-.07,0-.01.01-.03.01-.04.01-.04.02-.08.02-.11.02-.06.02-.11.02-.15,0-.06,0-.11,0-.11t-.01.01s0-.02-.01-.03c.01-.02,0-.06-.01-.08,0-.02-.01-.03-.01-.04h-.01v-.04s0-.05-.03-.08c-.01-.02-.03-.05-.07-.08,0,0,0-.01-.02-.02,0-.01,0-.03-.03-.04-.01-.02-.02-.03-.04-.04h0s-.01,0-.01,0c-.01-.01-.02-.01-.02-.01-.01-.03-.02-.03-.04-.04-.07-.05-.14-.08-.22-.11l-2.36-.75c-.08-.02-.16-.04-.25-.04-.11,0-.22.03-.31.07l-2.55,1.08c-.18.08-.38.11-.58.11-.53,0-1.02-.27-1.29-.71-.01-.03-.04-.09-.02-.16.02-.05.05-.09.1-.11l5.13-2.36c.12-.06.25-.09.37-.09.06,0,.12.01.18.02l5.21,1.02s.89.19,2.02.19c1.07,0,1.95-.17,2.65-.5l3.76,6.21c-.43.33-1.31,1.07-1.77,2.01-.35.69-1.36,1.48-1.68,1.7l-.51.32c-.19.1-.32.28-.37.48-.05.21-.01.42.09.59.14.24.4.39.68.39.12,0,.25-.03.41-.11l.57-.34s1.6-1.09,2.21-2.31c.29-.57.85-1.08,1.22-1.38.33.36.79.57,1.29.57.3,0,.61-.08.9-.25l1.47-.89c.39-.24.67-.62.78-1.07.11-.45.04-.92-.2-1.32ZM38.17,25.24s-.03.07-.08.1l-1.55.91s-.09-.01-.13-.08l-5.05-8.36s-.03-.07-.01-.11c.01-.04.03-.07.07-.1l1.46-.88s.06-.03.09-.03h.04s.08.04.1.08l5.04,8.35c.03.05.02.1.02.12Z"/>
  </g>
  <g>
    <g>
      <path class="cls-2" d="M50.05,34.65c-3.44,0-6.25-2.8-6.25-6.25s2.8-6.25,6.25-6.25,6.25,2.8,6.25,6.25-2.8,6.25-6.25,6.25ZM50.05,23.8c-2.54,0-4.6,2.06-4.6,4.6s2.06,4.6,4.6,4.6,4.6-2.06,4.6-4.6-2.06-4.6-4.6-4.6Z"/>
      <path class="cls-2" d="M50.04,34.23c-3.21,0-5.82-2.61-5.82-5.82s2.61-5.82,5.82-5.82,5.82,2.61,5.82,5.82-2.61,5.82-5.82,5.82ZM50.04,23.38c-2.77,0-5.03,2.26-5.03,5.03s2.26,5.03,5.03,5.03,5.03-2.26,5.03-5.03-2.26-5.03-5.03-5.03Z"/>
    </g>
    <g>
      <path class="cls-2" d="M49.68,31.13c-.23,0-.44-.09-.6-.26l-1.75-1.85c-.31-.33-.3-.85.03-1.16.15-.14.35-.22.56-.22.22,0,.44.09.6.26l1.15,1.22,2.53-2.67c.16-.16.37-.26.6-.26.21,0,.41.08.56.22.33.31.34.83.03,1.16l-3.12,3.31c-.15.16-.37.26-.6.26Z"/>
      <path class="cls-2" d="M49.68,30.7h0c-.11,0-.21-.04-.29-.12l-1.75-1.85c-.15-.16-.14-.41.02-.56.16-.15.41-.14.56.02l1.46,1.55,2.83-3c.15-.16.4-.17.56-.02.16.15.17.4.02.56l-3.12,3.31c-.07.08-.18.12-.29.12Z"/>
    </g>
  </g>
  <path class="cls-1" d="M83.74,30.13v3.94c0,.41-.07,1.15-1.09,1.15-.92,0-1.29-.32-1.29-1.15v-10.03c0-1.11.5-1.83,1.83-1.83h8.38c1.2,0,1.95.41,1.95,1.95v9.06c0,1.96-1.18,1.96-2.68,1.96-1.39,0-2.24,0-2.24-1.22,0-.27.06-.67.32-.94.22-.22.53-.28.85-.28.14,0,.77.01.9.01.36,0,.48-.07.48-.43v-2.19h-7.41ZM86.28,27.9v-3.42h-2.14c-.25,0-.39.15-.39.38v3.04h2.54ZM88.59,27.9h2.56v-3.04c0-.22-.14-.38-.38-.38h-2.19v3.42Z"/>
  <path class="cls-1" d="M79.31,20.55c0,2.63-.25,8.3-2.77,11.62-1.5,2-4.1,3.15-6.76,3.15-2.91,0-5.43-1.37-6.76-3.15-2.42-3.29-2.77-8.47-2.77-11.62,0-5.39.91-14.81,9.52-14.81s9.49,9.45,9.52,14.81ZM64.47,20.55c0,5.25.56,11.24,5.32,11.24s5.32-6.3,5.32-11.24-.56-11.24-5.32-11.24-5.32,5.99-5.32,11.24Z"/>
</svg>