<?xml version="1.0" encoding="UTF-8"?>
<svg id="Layer_1" data-name="Layer 1" xmlns="http://www.w3.org/2000/svg" viewBox="0 0 93.52 43.8">
  <defs>
    <style>
      .cls-1 {
        fill: #181818;
      }
    </style>
  </defs>
  <g>
    <path class="cls-1" d="M51.06,41.58c-.33,0-.67-.01-1-.04l-14.7-1.33c-.49-.04-.85-.48-.81-.97.04-.49.48-.85.97-.81l14.7,1.33c2.16.19,4.33-.36,6.13-1.57l9.33-6.25c.58-.39.75-1.15.4-1.75-.31-.52-.97-.74-1.53-.5l-11.94,5.12c-.45.19-.98-.01-1.17-.47-.19-.45.02-.98.47-1.17l11.94-5.12c1.38-.59,3-.06,3.76,1.23.83,1.41.42,3.23-.94,4.14l-9.33,6.25c-1.86,1.24-4.05,1.91-6.28,1.91Z"/>
    <path class="cls-1" d="M50.57,35.65c-.13,0-.26,0-.4-.03l-8.54-1.08c-.49-.06-.83-.51-.77-1,.06-.49.5-.83,1-.77l8.54,1.08c.75.1,1.43-.44,1.53-1.18.09-.72-.4-1.39-1.11-1.52l-12.6-2.33c-.85-.16-1.71-.05-2.49.32l-3.36,1.56c-.45.21-.98.01-1.18-.43s-.01-.98.43-1.18l3.36-1.56c1.12-.52,2.35-.68,3.57-.45l12.6,2.33c1.64.3,2.76,1.84,2.55,3.49-.2,1.59-1.56,2.75-3.12,2.75Z"/>
    <path class="cls-1" d="M31.14,43.8c-.36,0-.7-.22-.84-.58l-4.77-13.05c-.08-.22-.07-.47.03-.68s.28-.38.5-.46l4.94-1.81c.46-.17.97.07,1.14.53l4.77,13.05c.08.22.07.47-.03.68-.1.21-.28.38-.5.46l-4.95,1.81c-.1.04-.2.05-.31.05ZM27.51,30.39l4.16,11.38,3.27-1.2-4.16-11.38-3.27,1.2Z"/>
  </g>
  <g>
    <g>
      <path class="cls-1" d="M45.41,24.97c-.49,0-.89-.4-.89-.89v-3.38h-6.07v2.07c0,.49-.4.89-.89.89s-.89-.4-.89-.89v-2.96c0-.49.4-.89.89-.89h7.85c.49,0,.89.4.89.89v4.27c0,.49-.4.89-.89.89Z"/>
      <path class="cls-1" d="M53.26,26.71c-.49,0-.89-.4-.89-.89v-9.97h-6.07v8.23c0,.49-.4.89-.89.89s-.89-.4-.89-.89v-9.12c0-.49.4-.89.89-.89h7.85c.49,0,.89.4.89.89v10.86c0,.49-.4.89-.89.89Z"/>
    </g>
    <path class="cls-1" d="M53.26,26.71c-.49,0-.89-.4-.89-.89v-15.02h-2.99c-.35,0-.66-.2-.81-.52-.15-.32-.09-.69.14-.95L56.52.29c.34-.39,1.01-.39,1.35,0l7.8,9.04c.23.26.28.64.14.95-.14.32-.46.52-.81.52h-2.99v14c0,.49-.4.89-.89.89s-.89-.4-.89-.89v-14.89c0-.49.4-.89.89-.89h1.93l-5.86-6.79-5.86,6.79h1.93c.49,0,.89.4.89.89v15.91c0,.49-.4.89-.89.89Z"/>
  </g>
</svg>