<?xml version="1.0" encoding="UTF-8"?>
<svg id="Layer_1" data-name="Layer 1" xmlns="http://www.w3.org/2000/svg" xmlns:xlink="http://www.w3.org/1999/xlink" viewBox="0 0 1130 1117.37">
  <defs>
    <style>
      .cls-1 {
        clip-path: url(#clippath);
      }

      .cls-2 {
        fill: none;
      }

      .cls-2, .cls-3 {
        stroke-width: 0px;
      }

      .cls-3 {
        fill: #0a0a0a;
        opacity: .3;
      }
    </style>
    <clipPath id="clippath">
      <rect class="cls-2" y=".37" width="1130" height="1117"/>
    </clipPath>
  </defs>
  <g class="cls-1">
    <path id="aGb4fj.tif" class="cls-3" d="M538.14,1117.15c-4.88-.93-9.86-.55-14.78-.88-15.4-1.04-30.72-2.67-46.01-4.85-22.81-3.25-45.29-8-67.47-14.16-39.37-10.94-77.12-25.95-113.17-45.25-26.97-14.44-52.62-30.89-76.9-49.5-12.43-9.53-24.4-19.61-36.05-30.1-12.27-11.05-24.03-22.6-35.19-34.75-16.62-18.1-32.1-37.13-46.27-57.22-17.86-25.32-33.55-51.93-47.03-79.83-11.14-23.06-20.59-46.79-28.47-71.16-1.65-5.1,1.52-9.19,6.9-9.17,14.98.05,29.96.03,44.95.02,5.16,0,9.49,2.93,11.27,7.89,7.83,21.72,17.26,42.73,28.03,63.14,13.67,25.88,29.54,50.34,47.53,73.43,14.81,19.01,30.81,36.97,48.23,53.61,18.14,17.33,37.41,33.32,57.93,47.8,21.27,15.01,43.49,28.42,66.84,39.92,39.9,19.65,81.62,33.95,125.36,42.29,15.36,2.93,30.82,5.06,46.37,6.73,21.87,2.35,43.79,2.79,65.71,2.18,15.81-.44,31.59-1.92,47.32-3.97,45.74-5.97,89.77-18.07,132.11-36.32,38.08-16.42,73.47-37.41,106.4-62.58,22.22-16.99,42.72-35.92,61.79-56.35,15.31-16.4,29.36-33.88,42.3-52.24,18.46-26.2,34.25-53.91,47.46-83.09,5-11.04,9.61-22.26,13.69-33.69,2.14-6,5.97-8.73,12.18-8.74,15.28-.02,30.57-.04,45.85-.09,3.41-.01,6.71,4.98,5.57,8.57-4.27,13.49-9.12,26.77-14.45,39.87-19.23,47.29-44.6,91.05-75.75,131.47-17.94,23.28-37.64,44.99-59.03,65.1-37.47,35.21-78.9,64.92-124.51,88.78-41.13,21.51-84.23,37.71-129.4,48.39-19.93,4.71-40.05,8.41-60.41,10.78-15.14,1.76-30.28,3.39-45.54,3.59-.69,0-1.38.25-2.07.38h-41.3ZM0,577.8c.83,4.89.55,9.86.91,14.78.69,9.56,1.66,19.09,2.74,28.61,1.15,10.11,2.8,20.16,4.05,30.26.97,7.85,4.31,11,12.28,10.97,17.3-.07,34.6.03,51.9-.46,7.12-.2,11.62-3.11,14.67-9.14,5.8-11.45,11.63-22.88,17.44-34.33,11.66-22.99,23.28-45.99,34.95-68.97,21.57-42.44,43.17-84.88,64.81-127.29,1.04-2.04.71-3.71-.42-5.35-1.51-2.19-3.53-3.35-6.39-3.33-14.07.1-28.14.19-42.2-.02-6.27-.1-10.47,2.82-13.18,7.96-17.94,33.96-35.76,67.99-53.62,101.99-6.77,12.88-13.54,25.77-20.31,38.65-.66,1.25-1.18,2.41-3.09,2.25-3.02-.25-4.24-1.43-4.17-5.38.17-10.21-.03-20.41.36-30.63.55-14.46,2.32-28.73,4.41-43,3.14-21.49,7.97-42.62,13.71-63.55,1.6-5.81-1.42-10.02-7.41-10.03-13.97-.02-27.93,0-41.9,0-6.72,0-10.47,3.13-12.12,9.77-4.83,19.39-8.86,38.93-11.71,58.71-2.13,14.78-3.76,29.59-4.81,44.49-.33,4.72.01,9.5-.89,14.18v38.87ZM1066.95,352.05c5.52-.03,8.46-4.67,6.32-9.71-11.53-27.12-25.03-53.21-40.6-78.23-17.39-27.96-37.1-54.19-59.13-78.65-9.88-10.97-20.11-21.61-30.88-31.75-14.37-13.53-29.24-26.43-44.88-38.43-32.91-25.26-68.16-46.69-105.84-64.09-36.73-16.96-74.81-29.85-114.34-38.44-22.49-4.89-45.18-8.38-68.12-10.43-13.59-1.21-27.19-2.15-40.82-2.26-11.02-.09-22.04-.09-33.07.4-12.41.56-24.8,1.41-37.13,2.71-16.54,1.75-32.96,4.39-49.29,7.63-47.84,9.5-93.55,25.21-137.25,46.8-27.34,13.5-53.33,29.26-78.11,47.03-20.4,14.63-39.74,30.55-57.94,47.81-14.46,13.71-28.22,28.11-41.16,43.31-13.25,15.56-25.7,31.7-37.23,48.56-21,30.72-38.72,63.23-53.26,97.49-2.46,5.79.4,10.26,6.73,10.27,15.39.01,30.77-.08,46.16.06,4.3.04,7.26-2.01,9.93-4.91,1.68-1.82,2.42-4.19,3.49-6.36,21.35-43.69,48.56-83.4,81.23-119.38,16.42-18.08,34.29-34.65,53.2-50.06,21.82-17.78,45.02-33.57,69.53-47.44,39.82-22.53,81.96-39.2,126.39-50.06,22.85-5.58,45.99-9.5,69.43-11.71,10.76-1.01,21.54-1.93,32.31-2.16,12.93-.27,25.88-.42,38.83.34,12.39.73,24.74,1.67,37.08,3.07,17.26,1.96,34.33,4.99,51.24,8.87,44.38,10.18,86.53,26.25,126.52,48.03,37.03,20.18,70.9,44.75,101.74,73.44,14,13.02,27.29,26.79,39.64,41.41,14.75,17.47,28.4,35.75,40.73,55.01,11.02,17.22,20.93,35.07,29.84,53.48,2.68,5.54,6.89,8.66,13.44,8.42,7.08-.27,14.17-.06,21.26-.06,8,0,15.99.04,23.99-.01ZM910.26,651.59c0,5.97,3.64,9.62,9.59,9.62,12.75.01,25.51.03,38.26,0,5.31-.01,9.04-3.89,9.04-9.18,0-43.42,0-86.84-.02-130.26,0-2.04.12-4,2.54-4.48,2.43-.47,4.27-.08,5.46,2.8,3.16,7.65,6.49,15.26,10.23,22.65,12.23,24.17,24.67,48.23,37.02,72.34,6.36,12.41,12.63,24.88,19.11,37.23,2.99,5.71,7.31,9.18,14.43,9.01,14.06-.35,28.15-.41,42.2.06,5.2.17,10.66-5.27,11.21-9.87,1.08-9,2.49-17.96,3.73-26.95,2.28-16.52,3.46-33.13,3.96-49.76.5-16.87.24-33.75-.96-50.63-1.07-15.1-2.74-30.11-4.89-45.08-2.9-20.1-7.12-39.91-12.23-59.54-.98-3.76-5.84-7.74-9.5-7.75-14.88-.03-29.76-.04-44.64,0-4.99.01-8.32,4.56-6.9,9.27,9.82,32.59,15.3,65.98,18.02,99.84.99,12.28,1.66,24.61,1.31,36.95-.03,1.2-.02,2.39-.34,3.6-.48,1.83-1.6,2.32-3.32,2.39-1.68.07-2.67-.22-3.49-2-21.57-46.81-43.17-93.61-64.93-140.33-2.25-4.83-6.18-8.01-12.17-7.96-17.51.13-35.02.25-52.53-.07-5.7-.11-10.35,4.46-10.31,10.36.23,37.85.12,75.71.12,113.56,0,38.06,0,76.11,0,114.17ZM792.39,663.67c21.12-3.64,39.58-12.66,54.91-27.64,12.95-12.66,21.91-27.93,27.57-45.07,7.16-21.65,9.49-43.88,7.96-66.62-.89-13.26-2.86-26.27-6.84-38.95-6.61-21.07-17.9-39.09-35.2-53.02-18.81-15.15-40.84-21.63-64.57-22.95-11.74-.65-23.41.42-34.91,2.99-25.19,5.63-45.67,18.58-60.89,39.49-15.18,20.86-21.31,44.82-23.38,70.06-.9,10.99-.61,21.98.48,32.98,1.49,15.07,4.57,29.71,10.34,43.73,8.16,19.81,20.48,36.35,38.34,48.52,19.2,13.08,40.62,18.4,66.55,18.38,4.67.26,12.17-.61,19.66-1.9ZM726,491.36c6.44-14.58,16.56-25.3,32.49-29.31,20.38-5.14,40.94,3.72,51.72,21.93,6.13,10.35,9.12,21.64,10.85,33.43,1.32,8.96,1.54,17.96,1.02,26.9-1.07,18.22-4.38,35.92-15.76,50.98-9.97,13.18-23.3,19.84-39.87,18.65-16.55-1.18-28.31-10.25-36.54-24.22-6.9-11.71-9.83-24.61-11.26-37.99-.55-5.15-.41-10.29-.62-14.18-.2-16.73,1.65-31.88,7.98-46.19ZM440.19,663.62c20.4-3.74,38.52-11.91,52.59-27.69,17.76-19.91,22.02-43.13,15.77-68.4-5.45-22.05-20.86-35.73-40.79-44.68-13.07-5.87-26.53-10.88-39.81-16.3-7.29-2.97-14.73-5.59-21.51-9.71-3.87-2.35-7.28-5.18-9.45-9.19-5.32-9.83.4-20.14,10.83-24.33,9.09-3.65,18.61-3.06,28.07-1.57,11.18,1.76,21.22,6.39,30.68,12.43,5.7,3.64,9.78,3.02,13.96-2.24,6.1-7.66,12.15-15.37,18.22-23.06,3.61-4.57,3.3-9.01-1.22-12.79-20.19-16.84-43.67-25.24-69.74-26.71-8.19-.46-16.35.28-24.42,1.76-20.56,3.79-38.66,12.19-52.49,28.37-16.44,19.24-21,41.22-13.95,65.37,5.48,18.79,18.44,31.69,34.94,41.3,11.31,6.58,23.78,10.62,35.7,15.89,10.07,4.45,20.55,7.98,30.15,13.47,4.83,2.76,8.98,6.29,10.94,11.71,3.43,9.47-1.78,20-11.74,23.75-9.53,3.59-19.34,3.75-29.25,2.08-15.14-2.56-28.61-9-41.02-17.85-6.26-4.46-9.49-4.26-14.56,1.64-7.04,8.19-13.77,16.66-20.75,24.9-5.24,6.18-4.85,10.56,1.65,15.47,24.86,18.79,52.91,28.05,83.99,28.27,7.84.37,15.57-.49,23.22-1.9ZM283.85,423.31c0-6.02-3.59-9.69-9.52-9.69-13.66-.02-27.32-.02-40.98,0-5.77,0-9.42,3.68-9.42,9.48,0,76.19,0,152.38,0,228.57,0,5.91,3.69,9.54,9.67,9.55,13.36.01,26.72-.24,40.06.12,5.64.15,10.34-4.4,10.3-10.37-.23-37.84-.12-75.68-.12-113.53,0-38.04,0-76.09,0-114.13ZM611.83,423.23c0-5.98-3.63-9.61-9.59-9.62-13.46-.01-26.91-.01-40.37,0-6.41,0-9.96,3.51-9.96,9.86,0,75.99,0,151.98,0,227.97,0,6.19,3.58,9.77,9.75,9.77,13.25.01,26.52-.27,39.76.12,6.19.18,10.57-4.65,10.54-10.44-.23-37.84-.12-75.68-.12-113.53,0-38.04,0-76.09,0-114.13Z"/>
  </g>
</svg>