<?xml version="1.0" encoding="UTF-8"?>
<svg id="Layer_6" data-name="Layer 6" xmlns="http://www.w3.org/2000/svg" viewBox="0 0 60.07 12.83">
  <defs>
    <style>
      .cls-1 {
        fill: #191919;
        stroke-width: 0px;
      }
    </style>
  </defs>
  <path class="cls-1" d="M0,6.74c.03-.3.03-.45.04-.67.05-.71.13-1.41.23-2.11.14-.94.33-1.87.56-2.79.08-.32.26-.46.57-.46.66,0,1.33,0,1.99,0,.28,0,.43.2.35.48-.27.99-.5,2-.65,3.02-.1.68-.18,1.35-.21,2.04-.02.49,0,.97-.02,1.45,0,.19.05.24.2.26.09,0,.12-.05.15-.11.32-.61.64-1.22.96-1.83.85-1.61,1.69-3.23,2.54-4.84.13-.24.33-.38.63-.38.67,0,1.33,0,2,0,.14,0,.23.05.3.16.05.08.07.16.02.25-1.03,2.01-2.05,4.03-3.08,6.04-.55,1.09-1.11,2.18-1.66,3.27-.28.54-.55,1.09-.83,1.63-.14.29-.36.42-.7.43-.82.02-1.64.02-2.46.02-.38,0-.54-.15-.58-.52-.06-.48-.14-.96-.19-1.44-.05-.45-.1-.9-.13-1.36-.02-.23,0-.47-.04-.7v-1.84ZM13.47,1.25c0-.29-.17-.46-.45-.46-.65,0-1.3,0-1.94,0-.27,0-.45.17-.45.45v10.85c0,.28.18.45.46.45.63,0,1.27-.01,1.9,0,.27,0,.49-.21.49-.49-.01-1.8,0-3.59,0-5.39V1.25ZM19.6.61c1.22.02,2.33.38,3.31,1.11.37.28.41.57.12.94-.2.26-.41.52-.62.78-.28.34-.56.39-.93.17-.59-.36-1.22-.56-1.91-.55-.45,0-.87.1-1.15.5-.18.26-.19.52-.02.79.22.35.57.52.93.67.73.3,1.47.59,2.2.9.61.25,1.15.61,1.57,1.13.42.53.61,1.13.65,1.8.05.87-.17,1.65-.71,2.33-.64.81-1.49,1.28-2.49,1.47-1.84.36-3.53-.03-5.08-1.09-.06-.04-.11-.09-.17-.14-.26-.26-.27-.51-.04-.79.24-.29.48-.58.72-.87.06-.07.12-.15.19-.22.25-.24.5-.26.79-.07.44.29.9.53,1.41.68.54.16,1.08.22,1.63.08.29-.07.52-.25.69-.49.17-.25.17-.57-.01-.83-.14-.21-.32-.37-.55-.48-.67-.34-1.37-.6-2.06-.89-.53-.23-1.05-.47-1.51-.84-1.6-1.31-1.65-3.63-.1-4.99.67-.6,1.46-.92,2.34-1.05.26-.04.52-.07.79-.06ZM25.44,6.69V1.48c0-.38.28-.66.66-.66.54,0,1.08,0,1.61,0,.31,0,.59.29.6.6v10.55c0,.31-.29.6-.61.6-.55,0-1.09,0-1.64,0-.32,0-.61-.29-.61-.61,0-1.75,0-3.51,0-5.26ZM35.79,12.83c-3.37,0-6.11-2.74-6.11-6.11s2.74-6.11,6.11-6.11,6.11,2.74,6.11,6.11-2.74,6.11-6.11,6.11ZM35.79,3.38c-1.84,0-3.34,1.5-3.34,3.34s1.5,3.34,3.34,3.34,3.34-1.5,3.34-3.34-1.5-3.34-3.34-3.34ZM58.22,2.56h-.23c-.15,0-.28.12-.28.28v.23c0,.15.12.28.28.28h.23c.13,0,.23-.03.3-.1.07-.06.11-.17.11-.31s-.04-.24-.11-.3c-.07-.06-.17-.09-.3-.09ZM59.09,5.72c-1.29,1.29-3.39,1.31-4.71.05-.31-.3-.55-.64-.72-1-.08-.18-.27-.29-.47-.28h0c-.21.01-.36.21-.34.42.04.38.08.76.1,1.14.06.8.07,1.6.04,2.4-.02.79-.08,1.58-.19,2.36-.06.43-.13.85-.18,1.28-.03.22-.28.48-.53.47-.67-.02-1.34-.02-2,0-.34,0-.54-.16-.68-.43-.31-.59-.61-1.18-.91-1.77-.59-1.14-1.18-2.28-1.76-3.43-.18-.35-.34-.71-.49-1.08-.06-.14-.14-.16-.26-.13-.11.02-.12.11-.12.21,0,2.06,0,4.12,0,6.18,0,.25-.18.44-.43.44-.61,0-1.21,0-1.82,0-.28,0-.45-.17-.45-.46v-5.42c0-1.8,0-3.59,0-5.39,0-.28.22-.5.49-.49.83.02,1.66,0,2.49,0,.28,0,.47.15.58.38,1.03,2.22,2.06,4.44,3.08,6.66.04.08.09.1.17.1.08,0,.13-.03.16-.11.01-.06.01-.11.02-.17.02-.59-.01-1.17-.06-1.75-.13-1.61-.39-3.19-.86-4.74-.07-.22.09-.44.33-.44.71,0,1.41,0,2.12,0,.17,0,.4.19.45.37.12.47.23.94.33,1.42,0,.04.02.07.03.11.05.23.26.38.49.37.22-.01.39-.17.44-.38.14-.59.44-1.16.9-1.62,1.31-1.31,3.46-1.29,4.76.03,1.29,1.31,1.28,3.42-.02,4.72ZM56.73,2.39c0-.16-.13-.28-.28-.28s-.28.13-.28.28v1.34c0,.18-.02.32-.06.4-.07.15-.21.22-.44.22s-.37-.07-.44-.22c-.04-.08-.06-.22-.06-.4v-1.34c0-.08-.03-.15-.08-.2-.05-.05-.12-.08-.2-.08-.16,0-.28.13-.28.28v1.35c0,.28.04.5.13.66.16.29.47.43.93.43s.77-.14.93-.43c.09-.16.13-.38.13-.66v-1.35h0ZM59.18,2.95c0-.29-.08-.5-.24-.64s-.37-.21-.64-.21h-.87c-.15,0-.28.12-.28.28v2.13c0,.15.12.28.28.28s.28-.12.28-.28v-.41c0-.15.12-.28.28-.28h.28c.29,0,.52-.07.67-.2.16-.13.23-.36.23-.67Z"/>
</svg>