<?xml version="1.0" encoding="UTF-8"?>
<svg id="Layer_1" data-name="Layer 1" xmlns="http://www.w3.org/2000/svg" viewBox="0 0 14.65 14.65">
  <defs>
    <style>
      .cls-1 {
        fill: #f6f6f6;
        stroke-width: 0px;
      }
    </style>
  </defs>
  <path class="cls-1" d="M12.81,14.65h-3.77s-.01-.09-.01-.13c0-1.63,0-3.26,0-4.89,0-.13.04-.17.17-.17.6,0,1.21,0,1.81,0,.15,0,.2-.06.22-.19.12-.73.24-1.46.36-2.18.03-.17.02-.18-.15-.18-.74,0-1.48,0-2.22,0-.2,0-.2,0-.2-.19,0-.45,0-.9,0-1.34q0-.23.22-.23c.74,0,1.48,0,2.22,0,.11,0,.17-.03.16-.15,0-.75,0-1.51,0-2.26,0-.1-.04-.14-.14-.14-.89.01-1.77-.03-2.66.03-.73.05-1.33.38-1.79.95-.42.52-.57,1.12-.56,1.77,0,.47,0,.93,0,1.4,0,.13-.04.17-.17.17-.45,0-.91,0-1.36,0-.18,0-.19,0-.19.18,0,.73,0,1.46,0,2.19,0,.18,0,.18.19.18.44,0,.88,0,1.31,0,.21,0,.21,0,.21.21,0,1.6,0,3.2,0,4.8,0,.06,0,.11-.01.17H1.83c-.33-.07-.65-.18-.93-.38C.4,13.91.11,13.42,0,12.82,0,9.16,0,5.5,0,1.84c0-.04.02-.07.02-.11C.26.69,1.11,0,2.18,0c3.45,0,6.9,0,10.34,0,1.16,0,2.12.96,2.12,2.12,0,3.47,0,6.94,0,10.41,0,.45-.14.85-.4,1.21-.35.5-.85.78-1.44.89Z"/>
</svg>