<?xml version="1.0" encoding="UTF-8"?>
<svg id="Layer_1" data-name="Layer 1" xmlns="http://www.w3.org/2000/svg" xmlns:xlink="http://www.w3.org/1999/xlink" viewBox="0 0 228.32 123.89">
  <defs>
    <style>
      .cls-1 {
        opacity: .16;
      }

      .cls-1, .cls-2, .cls-3, .cls-4, .cls-5, .cls-6, .cls-7, .cls-8, .cls-9, .cls-10 {
        fill: none;
      }

      .cls-1, .cls-2, .cls-4, .cls-5, .cls-6, .cls-7, .cls-8, .cls-9, .cls-10 {
        stroke: #fff;
        stroke-miterlimit: 10;
        stroke-width: 2px;
      }

      .cls-2 {
        opacity: .32;
      }

      .cls-11 {
        clip-path: url(#clippath);
      }

      .cls-3 {
        stroke-width: 0px;
      }

      .cls-4 {
        opacity: .24;
      }

      .cls-5 {
        opacity: .04;
      }

      .cls-6 {
        opacity: .12;
      }

      .cls-7 {
        opacity: .3;
      }

      .cls-8 {
        opacity: .26;
      }

      .cls-9 {
        opacity: .28;
      }

      .cls-10 {
        opacity: .08;
      }
    </style>
    <clipPath id="clippath">
      <rect class="cls-3" width="228.32" height="123.89"/>
    </clipPath>
  </defs>
  <g class="cls-11">
    <path class="cls-5" d="M-10.96,150.19c2.77-15.75,13.66-29.84,28.2-36.5,19.66-9,42.46-4.36,63.97-2.1,21.51,2.26,46.48.46,59.77-16.6,16.21-20.8,6.58-53.51,21.87-75C175.04,2.85,198.52-1.06,219.49-2.54c20.98-1.48,44.04-2.77,59.27-17.28,10.51-10.02,15.19-24.55,19.22-38.5,4.03-13.95,8.11-28.53,17.88-39.28,9.77-10.75,27.17-16.13,39.09-7.84"/>
    <path class="cls-10" d="M-5.28,155.86c2.77-15.75,13.66-29.84,28.2-36.5,19.66-9,42.46-4.36,63.97-2.1,21.51,2.26,46.48.46,59.77-16.6,16.21-20.8,6.58-53.51,21.87-75,12.19-17.13,35.67-21.05,56.65-22.52,20.98-1.48,44.04-2.77,59.27-17.28,10.51-10.02,15.19-24.55,19.22-38.5,4.03-13.95,8.11-28.53,17.88-39.28,9.77-10.75,27.17-16.13,39.09-7.84"/>
    <path class="cls-6" d="M.39,161.54c2.77-15.75,13.66-29.84,28.2-36.5,19.66-9,42.46-4.36,63.97-2.1,21.51,2.26,46.48.46,59.77-16.6,16.21-20.8,6.58-53.51,21.87-75,12.19-17.13,35.67-21.05,56.65-22.52,20.98-1.48,44.04-2.77,59.27-17.28,10.51-10.02,15.19-24.55,19.22-38.5,4.03-13.95,8.11-28.53,17.88-39.28,9.77-10.75,27.17-16.13,39.09-7.84"/>
    <path class="cls-1" d="M6.07,167.22c2.77-15.75,13.66-29.84,28.2-36.5,19.66-9,42.46-4.36,63.97-2.1,21.51,2.26,46.48.46,59.77-16.6,16.21-20.8,6.58-53.51,21.87-75,12.19-17.13,35.67-21.05,56.65-22.52,20.98-1.48,44.04-2.77,59.27-17.28,10.51-10.02,15.19-24.55,19.22-38.5,4.03-13.95,8.11-28.53,17.88-39.28,9.77-10.75,27.17-16.13,39.09-7.84"/>
    <path class="cls-1" d="M11.75,172.89c2.77-15.75,13.66-29.84,28.2-36.5,19.66-9,42.46-4.36,63.97-2.1,21.51,2.26,46.48.46,59.77-16.6,16.21-20.8,6.58-53.51,21.87-75,12.19-17.13,35.67-21.05,56.65-22.52,20.98-1.48,44.04-2.77,59.27-17.28,10.51-10.02,15.19-24.55,19.22-38.5,4.03-13.95,8.11-28.53,17.88-39.28,9.77-10.75,27.17-16.13,39.09-7.84"/>
    <path class="cls-4" d="M17.42,178.57c2.77-15.75,13.66-29.84,28.2-36.5,19.66-9,42.46-4.36,63.97-2.1,21.51,2.26,46.48.46,59.77-16.6,16.21-20.8,6.58-53.51,21.87-75,12.19-17.13,35.67-21.05,56.65-22.52,20.98-1.48,44.04-2.77,59.27-17.28,10.51-10.02,15.19-24.55,19.22-38.5,4.03-13.95,8.11-28.53,17.88-39.28,9.77-10.75,27.17-16.13,39.09-7.84"/>
    <path class="cls-9" d="M23.1,184.24c2.77-15.75,13.66-29.84,28.2-36.5,19.66-9,42.46-4.36,63.97-2.1,21.51,2.26,46.48.46,59.77-16.6,16.21-20.8,6.58-53.51,21.87-75,12.19-17.13,35.67-21.05,56.65-22.52,20.98-1.48,44.04-2.77,59.27-17.28,10.51-10.02,15.19-24.55,19.22-38.5,4.03-13.95,8.11-28.53,17.88-39.28,9.77-10.75,27.17-16.13,39.09-7.84"/>
    <path class="cls-2" d="M28.78,189.92c2.77-15.75,13.66-29.84,28.2-36.5,19.66-9,42.46-4.36,63.97-2.1,21.51,2.26,46.48.46,59.77-16.6,16.21-20.8,6.58-53.51,21.87-75,12.19-17.13,35.67-21.05,56.65-22.52,20.98-1.48,44.04-2.77,59.27-17.28,10.51-10.02,15.19-24.55,19.22-38.5,4.03-13.95,8.11-28.53,17.88-39.28,9.77-10.75,27.17-16.13,39.09-7.84"/>
    <path class="cls-8" d="M34.45,195.6c2.77-15.75,13.66-29.84,28.2-36.5,19.66-9,42.46-4.36,63.97-2.1,21.51,2.26,46.48.46,59.77-16.6,16.21-20.8,6.58-53.51,21.87-75,12.19-17.13,35.67-21.05,56.65-22.52,20.98-1.48,44.04-2.77,59.27-17.28,10.51-10.02,15.19-24.55,19.22-38.5,4.03-13.95,8.11-28.53,17.88-39.28,9.77-10.75,27.17-16.13,39.09-7.84"/>
    <path class="cls-7" d="M40.13,201.27c2.77-15.75,13.66-29.84,28.2-36.5,19.66-9,42.46-4.36,63.97-2.1,21.51,2.26,46.48.46,59.77-16.6,16.21-20.8,6.58-53.51,21.87-75,12.19-17.13,35.67-21.05,56.65-22.52,20.98-1.48,44.04-2.77,59.27-17.28,10.51-10.02,15.19-24.55,19.22-38.5,4.03-13.95,8.11-28.53,17.88-39.28,9.77-10.75,27.17-16.13,39.09-7.84"/>
  </g>
</svg>