<?xml version="1.0" encoding="UTF-8"?>
<svg id="Layer_1" data-name="Layer 1" xmlns="http://www.w3.org/2000/svg" xmlns:xlink="http://www.w3.org/1999/xlink" viewBox="0 0 84.36 58.96">
  <defs>
    <style>
      .cls-1 {
        clip-path: url(#clippath);
      }

      .cls-2, .cls-3, .cls-4 {
        stroke-width: 0px;
      }

      .cls-2, .cls-5 {
        fill: none;
      }

      .cls-3 {
        fill: #00adcf;
      }

      .cls-6 {
        clip-path: url(#clippath-1);
      }

      .cls-4 {
        fill: #007695;
      }

      .cls-5 {
        stroke: #191919;
        stroke-miterlimit: 10;
        stroke-width: 3px;
      }
    </style>
    <clipPath id="clippath">
      <rect class="cls-2" x="-.32" y="-.26" width="85" height="59.47"/>
    </clipPath>
    <clipPath id="clippath-1">
      <path class="cls-2" d="M42.18,29.48V3.78c14.72.54,29.44,14.19,24.49,33.32l-24.49-7.63Z"/>
    </clipPath>
  </defs>
  <g class="cls-1">
    <g>
      <path class="cls-3" d="M42.18,29.48V3.78c14.72.54,29.44,14.19,24.49,33.32l-24.49-7.63Z"/>
      <g class="cls-6">
        <path class="cls-4" d="M39.69,46.27v-.76c.24-.06.45-.22.72-.19.22.03.45.04.67.07.39.05.71.24,1,.52.29.27.64.5,1,.7.08.05.19.04.28,0,.09-.04.15-.02.23.02.22.1.49.07.65-.04.22-.15.54-.17.65-.47.34-.14.54-.47.9-.6.29-.1.57-.15.87-.18.09,0,.17-.05.28-.03.38.08.75.21,1.12.33.08.02.15.07.2.14.22.31.56.47.85.68.09.07.2.06.3.1.23.09.47.19.72.1.22-.09.46-.13.68-.22.09-.04.18-.08.25-.16.26-.28.55-.53.9-.7.17-.09.34-.16.53-.21.45-.11.86-.03,1.29.09.21.06.38.18.57.26.15.07.35.09.45.26.14.24.41.32.6.51.13.13.38.18.63.15.21-.02.41-.11.62-.09.22.02.39-.1.55-.22.24-.18.36-.52.72-.52.03,0,.06-.06.1-.09.13-.13.28-.22.47-.29.42-.14.82-.18,1.24-.06.1.03.18.11.29.12.3.04.54.21.81.33.05.02.09.08.11.12.06.15.17.23.32.26.05.01.08.04.11.09.08.14.21.21.37.23.2.03.41.03.61.09.19.06.41.03.59-.02.29-.08.51-.3.75-.48.26-.2.43-.51.8-.59.28-.06.55-.2.82-.23.28-.03.6.06.89.11.52.11.89.49,1.29.81.25.2.49.3.79.34v.76c-.17-.07-.37-.01-.54-.11-.2-.12-.45-.16-.56-.41-.03-.06-.1-.07-.16-.09-.2-.07-.37-.19-.5-.35-.08-.1-.17-.17-.28-.21-.31-.11-.63-.07-.95-.11-.32-.04-.53.19-.78.31-.27.12-.49.34-.71.55-.15.15-.3.25-.51.27,0,0-.01,0-.02,0-.42.19-.84.24-1.3.17-.56-.09-.97-.44-1.4-.74-.2-.14-.41-.28-.61-.43-.09-.07-.21-.08-.32-.1-.26-.06-.51,0-.77,0-.15,0-.27.06-.39.15-.28.21-.57.42-.83.67-.05.05-.11.11-.19.12-.18.03-.33.12-.48.2-.27.14-.56.16-.85.15-.2,0-.4-.06-.6-.1-.41-.08-.74-.3-1.04-.55-.31-.25-.58-.56-1.02-.58-.02,0-.04-.01-.05-.02-.47-.2-.92-.09-1.33.16-.25.15-.47.37-.69.58-.14.13-.27.26-.48.25-.06,0-.13.03-.17.06-.34.23-.71.2-1.09.17-.22-.02-.4-.18-.63-.14-.03,0-.07-.02-.1-.05-.48-.32-.96-.63-1.39-1.02-.06-.05-.13-.09-.2-.09-.33.03-.67-.08-.99.04-.26.09-.49.24-.72.41-.19.14-.37.29-.55.44-.1.08-.23.13-.32.23-.06.06-.13.1-.22.07-.06-.02-.11,0-.16.02-.25.09-.49.19-.76.08-.11-.04-.23-.08-.36-.02-.07.03-.15.01-.21-.04-.18-.16-.49-.08-.62-.33,0-.02-.04-.03-.07-.03-.13,0-.22-.08-.3-.18-.26-.33-.6-.52-.99-.65-.3-.1-.61-.07-.91.02-.14.04-.34-.05-.43.15ZM40.13,51.31s.06-.03.09-.02c.26.08.53,0,.78.06.31.06.57.22.81.43.25.21.5.44.77.63.12.08.25.13.38.14.45.04.91.03,1.36,0,.29-.02.5-.22.73-.37.12-.08.22-.18.34-.26.03-.02.08-.03.09-.06.16-.29.44-.42.74-.47.34-.06.68-.19,1.05-.08.35.11.58.36.85.57.23.18.45.38.75.45.02,0,.04,0,.05.02.23.24.54.17.83.22.38.06.72-.03,1.06-.14.25-.08.43-.27.64-.42.02-.01.03-.03.04-.04.36-.2.65-.53,1.07-.63.19-.04.39-.04.59-.02,0,0,.01,0,.02,0,.42-.07.69.22,1,.42.27.17.49.41.78.56.17.09.39.1.51.29.01.02.06.03.09.03.43.05.88.08,1.27-.09.35-.15.69-.34,1-.59.28-.24.54-.53.95-.58.07,0,.14-.03.2,0,.11.04.21.01.29-.04.1-.07.2-.06.31-.04.37.1.72.27.97.53.15.15.36.23.47.41,0,.02.03.03.04.04.31.04.55.26.87.29.16.01.32,0,.46.07.02,0,.04.01.06,0,.37-.09.76-.1,1.08-.32.03-.02.05-.05.08-.06.34-.06.5-.35.75-.54.2-.15.4-.27.65-.35.27-.09.55-.09.8-.07.31.03.64.1.82.42.1.18.32.2.46.34.1.1.24.18.36.26.25.16.57.17.83.31v-.79c-.27.04-.47-.07-.63-.29-.03-.05-.1-.09-.15-.1-.17-.03-.26-.16-.38-.26-.31-.26-.66-.46-1.08-.5-.21-.02-.42-.06-.63-.1-.2-.03-.4,0-.57.08-.32.14-.68.23-.95.48-.01.01-.04.02-.05.03-.08.26-.37.29-.53.46-.09.1-.19.18-.33.21-.23.04-.47.07-.7.11-.03,0-.07,0-.09,0-.39-.16-.85-.2-1.08-.64-.01-.02-.03-.04-.06-.05-.4-.18-.77-.41-1.14-.63-.03-.02-.06-.04-.09-.03-.33.09-.68-.1-1.01.03-.3.12-.61.2-.9.39-.26.17-.44.44-.73.58-.25.12-.47.32-.78.29-.17-.02-.35,0-.53,0-.14,0-.27-.03-.38-.13-.07-.06-.16-.07-.24-.1-.15-.06-.26-.15-.38-.26-.21-.21-.43-.42-.74-.51-.2-.05-.38-.14-.58-.21-.47-.16-.92-.09-1.36.08-.3.11-.56.29-.82.49-.27.22-.59.4-.89.59-.07.04-.15.03-.22.04-.24.02-.49.04-.73.06,0,0-.01,0-.02,0-.23-.13-.54-.13-.72-.32-.22-.23-.43-.46-.73-.61-.25-.13-.46-.33-.75-.37-.37-.04-.74-.12-1.1,0-.22.07-.42.17-.63.28-.39.21-.72.5-1.07.76-.12.09-.25.16-.41.16-.22.01-.43.14-.66.04-.03-.01-.09.01-.13.03-.04.02-.08.04-.13.01-.3-.18-.65-.28-.86-.6-.01-.02-.03-.04-.05-.05-.28-.14-.53-.34-.8-.49-.29-.17-.6-.18-.93-.16-.18,0-.36-.02-.54.02-.12.02-.25.05-.34.15v.79c.13-.11.29-.18.44-.25ZM67.54,30.53c-.29-.19-.54-.45-.85-.62-.41-.22-.85-.25-1.3-.3-.39-.04-.71.12-1.01.27-.26.13-.52.31-.73.51-.25.23-.57.34-.83.56-.04.04-.12.04-.16,0-.13-.09-.27-.06-.42-.05-.43.03-.77-.15-1.06-.46-.19-.2-.39-.41-.68-.49-.09-.02-.14-.12-.23-.15-.46-.15-.94-.23-1.42-.18-.38.04-.71.24-1.02.46-.14.09-.24.23-.38.31-.25.14-.42.39-.69.47-.27.08-.55.13-.84.03-.08-.03-.16-.01-.24-.04-.2-.06-.42-.09-.53-.32-.05-.1-.18-.07-.27-.12-.21-.14-.42-.27-.61-.43-.19-.16-.4-.23-.63-.29-.28-.07-.55-.06-.82-.07-.19,0-.38,0-.53.13-.04.04-.1.07-.16.05-.17-.07-.27,0-.35.14-.01.03-.04.05-.07.06-.36.15-.62.44-.92.67-.12.09-.26.13-.4.16-.41.07-.85.21-1.24-.05-.25-.17-.51-.3-.71-.55-.3-.36-.74-.45-1.17-.56-.34-.09-.69-.08-1,0-.32.08-.68.09-.95.39-.31.35-.72.62-1.15.81-.14.06-.31.14-.49.06-.03-.01-.07-.02-.09,0-.32.13-.55-.09-.79-.23-.25-.14-.44-.37-.71-.49-.02,0-.04-.02-.04-.03-.15-.35-.53-.3-.79-.47-.21-.13-.45-.08-.68-.1-.31-.03-.61,0-.9.13,0,.29,0,.58,0,.87.03-.01.06-.02.08-.04.32-.31.7-.34,1.11-.22.05.01.09.03.15.03.15-.02.31.02.4.12.19.21.43.36.61.58.01.01.02.04.03.04.32.19.62.44,1.02.44.16,0,.29.06.44.08.44.06.83-.11,1.24-.21.13-.03.24-.15.35-.25.24-.22.49-.43.75-.63.29-.22.61-.26.97-.25.35.01.64.16.93.3.21.1.34.31.53.44.55.37,1.09.73,1.81.54.27.11.49-.09.73-.12.22-.03.37-.2.56-.31.22-.12.34-.35.54-.49.4-.28.82-.45,1.32-.28.12.04.24.08.37.08.21,0,.33.2.51.26.19.07.34.21.49.37.23.25.54.4.88.46.26.04.52.09.79.09.48,0,.88-.15,1.25-.45.22-.18.42-.37.64-.55.26-.21.57-.27.89-.31.29-.04.57.04.86.08.25.03.42.23.58.39.32.31.69.52,1.1.69.29.12.56.14.86.15.21,0,.4-.09.6-.13.45-.09.75-.41,1.12-.62.2-.11.41-.26.56-.46.02-.03.06-.05.1-.06.27-.07.54-.16.83-.07.25.08.49.21.77.24.08,0,.17.11.23.18.26.31.59.5.93.68.21.11.43.17.67.14v-.68c-.32.05-.51-.19-.73-.34ZM40.14,27.71s.11-.04.16-.03c.34.09.71.06,1.04.22.27.13.51.3.68.55.05.07.11.14.19.15.16.02.29.1.43.18.26.15.55.21.82.24.34.04.7.06,1.05-.13.12-.07.29-.12.43-.17.15-.06.27-.2.38-.32.19-.21.41-.4.66-.52.3-.14.61-.26.96-.17.11.03.22.04.33.06.42.08.71.36,1,.64.08.07.17.11.26.15.23.11.41.33.67.38.29.06.59.11.88.07.48-.06.95-.22,1.35-.52.1-.07.18-.17.27-.26.22-.21.46-.38.76-.44.04,0,.08-.03.11-.06.09-.1.18-.12.3-.03.11.08.23.04.35.01.05-.01.1-.05.15-.02.27.15.6.18.82.41.2.21.47.31.67.5.52.49,1.18.45,1.81.35.35-.06.68-.21.98-.47.32-.28.65-.58,1.08-.72.02,0,.03-.02.05-.02.29-.02.57-.07.86-.06.15,0,.31.1.44.19.29.2.57.43.88.6.07.27.42.17.52.4,0,.02.06.03.08.03.25-.02.48.07.72.11.11.02.21-.01.32-.03.29-.06.6-.08.87-.2.24-.1.44-.27.62-.46.06-.07.12-.12.21-.14.1-.02.16-.1.23-.16.26-.25.56-.36.92-.28.11.02.21-.02.31-.03.23-.02.42.11.62.16.06.02.11.07.15.11.25.25.53.47.82.65.21.13.45.2.68.29.08.03.16.07.24.1v-.76c-.32-.02-.55-.25-.81-.4-.2-.11-.3-.34-.5-.45-.32-.16-.64-.31-.99-.38-.19-.04-.39-.02-.58-.05-.13-.02-.27.04-.4.08-.07.03-.14.06-.21.03-.27-.09-.39.14-.55.27-.07.06-.11.13-.21.14-.03,0-.08.03-.1.05-.16.26-.42.39-.68.52-.22.11-.45.23-.71.18-.18-.03-.36.04-.55-.02-.35-.1-.67-.24-.91-.53-.07-.08-.17-.11-.26-.15-.15-.07-.21-.23-.34-.33-.18-.15-.38-.15-.58-.19-.14-.02-.29.02-.41-.09,0,0-.02-.01-.04-.01-.47.1-.98.07-1.39.39-.12.09-.27.09-.38.2-.2.2-.38.41-.63.54-.37.19-.72.29-1.17.21-.38-.07-.65-.28-.96-.46-.13-.08-.25-.17-.35-.28-.15-.16-.36-.22-.52-.38-.02-.02-.05-.04-.08-.04-.28-.06-.57-.09-.83-.21-.04-.02-.1,0-.14.03-.1.07-.2.05-.31.04-.17,0-.36.04-.52.11-.39.17-.77.4-1.05.71-.24.26-.52.39-.83.47-.21.05-.43.04-.66-.01-.63-.14-1.04-.63-1.57-.93-.25-.14-.51-.32-.83-.31-.15,0-.3,0-.45-.05-.1-.04-.21-.03-.32,0-.32.12-.66.14-.96.32-.15.09-.29.2-.42.33-.29.29-.58.6-1.04.61-.2,0-.41.1-.59.05-.27-.07-.58-.08-.8-.3-.16-.16-.32-.34-.52-.45-.33-.17-.6-.44-.98-.54-.35-.09-.7-.09-1.06,0-.13.04-.27.07-.4.1v.76c.16-.05.32-.07.45-.18ZM41.35,54.07c.16.05.25.17.34.28.21.27.5.44.77.63.27.19.6.2.92.22.38.02.77.05,1.14-.1.15-.06.31-.12.44-.22.32-.25.63-.53.96-.76.3-.21.67-.27,1.04-.17.17.04.33.09.5.09.09,0,.16.03.22.09.23.28.54.44.82.66.27.22.58.44.98.42.13,0,.24.05.37.07.23.04.43-.09.64-.12.37-.06.7-.21.99-.45.17-.14.33-.3.5-.45.54-.45,1.11-.43,1.73-.22.35.12.56.39.82.61.23.2.51.33.79.45.39.16.81.09,1.21.16.2.04.41-.13.6-.23.05-.03.09-.07.15-.08.36-.05.59-.32.83-.54.29-.26.55-.5.98-.5.28,0,.55.05.82.09.06.01.12.05.17.08.33.2.59.48.9.69.06.04.11.1.19.13.29.08.51.31.84.36.24.04.46-.04.68-.03.1,0,.2-.01.3-.01.11,0,.22-.03.29-.11.09-.09.2-.15.33-.17.08-.02.15-.05.18-.12.04-.08.1-.12.18-.15.05-.02.11-.06.13-.1.06-.19.23-.25.39-.3.18-.05.31-.19.5-.25.27-.09.53-.09.8-.1.12,0,.23.04.32.09.21.09.44.16.62.33.25.24.5.48.82.6.26.1.49.27.76.35v-.76c-.24-.1-.46-.22-.68-.36-.31-.2-.58-.43-.88-.63-.24-.16-.54-.27-.86-.33-.41-.08-.77.03-1.13.14-.27.09-.53.22-.77.37-.19.12-.34.3-.49.46-.09.09-.18.17-.3.22-.19.08-.4.1-.58.21-.07.04-.13.01-.2-.03-.14-.09-.29-.15-.46-.11-.03,0-.08,0-.11-.01-.26-.2-.6-.28-.83-.54-.21-.24-.49-.36-.77-.49-.39-.19-.81-.2-1.23-.16-.07,0-.15,0-.22,0-.25-.02-.43.13-.62.25-.26.16-.5.34-.74.53-.26.2-.54.45-.89.45-.27,0-.55.18-.82.02-.3-.18-.64-.31-.91-.55-.23-.19-.5-.33-.75-.5-.44-.31-.92-.22-1.39-.22-.06,0-.12.04-.18.06-.06.03-.13.09-.18.09-.36-.04-.53.29-.8.41-.33.14-.53.42-.8.62-.12.09-.27.1-.41.1-.21,0-.42-.02-.62,0-.33.04-.56-.13-.76-.35-.07-.07-.16-.1-.24-.14-.18-.09-.31-.23-.44-.37-.02-.02-.04-.06-.06-.07-.33-.09-.61-.28-.95-.36-.34-.07-.66.09-.98.02-.05-.01-.08.03-.11.06-.08.11-.19.13-.3.11-.1-.02-.17,0-.23.09-.09.13-.21.2-.35.25-.12.04-.21.11-.27.22-.13.25-.41.28-.62.39-.13.06-.29.11-.43.16-.12.04-.25.05-.34.01-.21-.07-.44-.07-.64-.16-.13-.06-.22-.14-.32-.24-.16-.15-.33-.32-.56-.39-.05-.01-.12-.01-.16-.06-.27-.33-.65-.4-1.04-.46-.41-.06-.78.02-1.15.17v.76c.53-.43,1.09-.3,1.66-.1ZM39.98,40.9c.19-.12.4-.06.61-.06.53,0,.96.24,1.35.57.42.35.87.62,1.42.71.31.05.62,0,.92-.11.09-.04.19-.08.29-.08.2,0,.33-.09.45-.23.06-.07.13-.12.21-.15.09-.04.19-.09.24-.17.27-.39.68-.57,1.1-.6.45-.03.92,0,1.28.38.22.23.51.4.77.59.26.18.55.24.83.31.46.1.92.06,1.37-.1.38-.13.7-.36.96-.65.45-.49,1-.61,1.62-.51.2.03.4.14.57.25.22.15.42.32.6.51.24.26.55.38.87.45.25.05.49.15.76.14.37-.01.7-.08,1.02-.31.21-.15.46-.26.64-.45.29-.33.71-.41,1.09-.59.19-.09.39-.08.59,0,.26.1.53.2.79.3.07.03.11.07.16.13.26.33.64.52.99.71.16.09.38.16.62.17.44.02.87-.03,1.26-.2.2-.09.4-.22.59-.35.46-.32.87-.75,1.49-.77.24,0,.48,0,.7.15.21.14.46.23.66.4.03.03.09.04.1.08.17.35.55.35.82.52.17.1.35.16.56.11v-.64c-.34-.05-.6-.21-.84-.46-.14-.14-.3-.27-.47-.38-.32-.21-.68-.33-1.06-.4-.25-.04-.5-.11-.74-.06-.28.06-.6.05-.83.26-.21.19-.43.36-.66.52-.2.14-.38.33-.6.41-.21.07-.42.23-.67.09-.17-.09-.37.02-.55-.04-.05-.02-.1,0-.14-.04-.22-.18-.48-.3-.69-.49-.35-.33-.75-.6-1.24-.7-.21-.04-.43-.02-.64-.01-.46.02-.88.16-1.26.42-.02.01-.04.02-.04.04-.17.35-.58.41-.84.64-.17.15-.42.1-.62.18-.27.11-.51.03-.79-.08-.28-.11-.51-.25-.75-.43-.31-.23-.63-.47-.99-.64-.17-.08-.36-.11-.54-.14-.12-.02-.25,0-.37-.05-.03-.01-.08-.02-.11,0-.39.16-.82.2-1.19.44-.09.06-.15.14-.23.21-.29.27-.62.48-.97.67-.02.01-.05.04-.06.04-.35-.06-.71.02-1.07-.07-.42-.11-.65-.46-.98-.68-.32-.22-.63-.49-1.06-.48-.05,0-.1-.02-.13-.06-.03-.03-.07-.07-.11-.05-.31.09-.66,0-.95.2-.11.08-.26,0-.38.09-.26.19-.54.35-.79.56-.29.24-.59.48-.97.53-.22.03-.46-.02-.68-.07-.52-.12-.9-.48-1.31-.8-.21-.16-.44-.36-.75-.34-.02,0-.04,0-.06,0-.5-.25-.97-.09-1.44.09v.64c.1,0,.2.02.29-.04ZM67.69,35.9c-.19-.05-.34-.2-.47-.33-.34-.34-.73-.59-1.21-.67-.23-.04-.48-.07-.7-.07-.23,0-.48.1-.71.22-.09.05-.18.09-.28.11-.04,0-.09.02-.1.04-.07.15-.22.2-.35.27-.12.06-.2.15-.27.28-.07.15-.24.19-.37.22-.2.04-.39.11-.57.18-.22.08-.44.1-.65-.04-.08-.05-.17-.05-.25-.08-.36-.16-.67-.4-.97-.65-.22-.19-.43-.38-.74-.4-.12,0-.22-.1-.35-.11-.4-.04-.78.09-1.17.06-.13,0-.23.1-.33.17-.18.11-.36.22-.53.35-.33.25-.6.59-1.03.68-.25.05-.51.07-.76.02-.26-.05-.5-.16-.73-.28-.25-.13-.43-.35-.61-.54-.19-.2-.41-.32-.65-.38-.41-.11-.86-.12-1.27-.05-.39.06-.78.16-1.06.5-.05.07-.12.13-.22.13-.14,0-.19.15-.29.23-.24.18-.47.39-.79.43-.03,0-.07.02-.09,0-.21-.13-.44,0-.66-.03-.03,0-.08,0-.09-.01-.15-.24-.47-.19-.66-.36-.2-.19-.44-.33-.62-.54-.13-.15-.34-.14-.51-.23-.14-.07-.29-.11-.44-.16-.03-.01-.06-.03-.09-.03-.43.06-.87.02-1.29.24-.44.23-.8.54-1.17.85-.16.13-.34.21-.5.23-.29.04-.61.18-.89-.05-.02-.01-.05-.03-.07-.03-.28.02-.44-.17-.64-.33-.24-.19-.47-.4-.72-.57-.25-.16-.57-.21-.87-.29-.36-.09-.72-.05-1.07.1-.06.02-.12.02-.19.03,0,.24,0,.48,0,.72.3-.13.62-.21.94-.18.34.02.66.1.94.35.33.29.66.62,1.07.79.57.24,1.17.22,1.77.1.16-.03.3-.08.38-.21.15-.23.44-.22.62-.4.12-.12.27-.2.4-.32.13-.12.29-.17.46-.21.15-.04.3-.03.45-.05.4-.06.74.11,1.06.32.15.1.28.2.42.31.17.13.34.3.57.36.12.04.25.07.35.17.19.17.43.09.64.12.05,0,.1-.01.15,0,.4.06.73-.09,1.09-.24.24-.1.42-.24.61-.42.12-.12.3-.2.44-.32.27-.24.62-.33.94-.33.27,0,.63-.08.85.22.01.01.03.03.05.03.28.05.46.26.65.44.16.15.33.28.51.4.17.11.35.09.52.11.05,0,.11-.02.15.01.29.24.63.11.92.07.36-.06.72-.21,1.01-.47.11-.1.2-.23.31-.31.25-.19.53-.37.84-.44.22-.05.46-.11.68-.07.17.03.35.05.53.15.22.13.4.32.64.42.11.05.19.17.29.26.34.3.74.47,1.19.48.11,0,.21,0,.32.05.07.03.16.04.22,0,.17-.1.37-.07.54-.15.21-.1.42-.18.58-.35.04-.04.08-.06.13-.08.05-.01.11-.03.13-.07.14-.28.42-.36.65-.51.26-.17.55-.21.86-.18.02,0,.05.02.07.02.59,0,1.01.34,1.43.7.15.13.32.24.51.32.23.1.45.26.73.21v-.64c-.21-.06-.38-.21-.59-.27ZM67.76,62.12c-.25-.12-.43-.29-.63-.46-.21-.19-.43-.37-.72-.48-.41-.14-.8-.11-1.2-.08-.32.02-.66.1-.9.29-.21.17-.54.18-.64.5-.03.11-.19.12-.28.2-.31.27-.67.39-1.09.26-.02,0-.04-.01-.06,0-.37.15-.59-.11-.84-.29-.29-.22-.55-.47-.86-.65-.28-.17-.58-.32-.93-.33-.4,0-.83-.06-1.19.13-.33.17-.66.38-.97.63-.28.23-.53.54-.99.53-.29,0-.58,0-.87-.04-.13-.02-.24-.09-.31-.17-.25-.32-.64-.45-.93-.72-.06-.06-.16-.07-.24-.1-.33-.14-.67-.27-1.03-.34,0,0-.01,0-.02,0-.37.14-.78.12-1.12.34-.14.09-.3.14-.43.26-.09.08-.18.14-.25.25-.11.18-.34.15-.49.24-.15.1-.24.28-.46.27-.19,0-.37.08-.57.08-.17,0-.31-.06-.45-.12-.16-.07-.32-.15-.48-.2-.02,0-.06-.02-.07-.03-.09-.22-.31-.29-.46-.45-.02-.02-.03-.05-.05-.05-.33-.09-.52-.46-.91-.43-.01,0-.03-.01-.04,0-.42.11-.84-.12-1.27.01-.24.07-.4.24-.59.38-.01,0-.02.04-.03.04-.4.13-.6.54-1,.67-.42.14-.84.24-1.29.1-.33-.11-.64-.26-.86-.56-.02-.03-.07-.06-.1-.08-.35-.21-.67-.47-1.1-.52-.27-.03-.53-.13-.81-.1-.03,0-.06,0-.09.01-.12.05-.23.11-.36.04-.04-.02-.08.03-.11.06v.79c.46-.2.92-.35,1.42-.09.07.04.15.07.23.09.08.02.14.05.18.14.04.09.14.13.22.18.25.15.54.24.72.49.11.16.29.2.46.21.12.01.24.02.35.08.12.07.24,0,.36.02.72.09,1.3-.23,1.81-.68.16-.14.34-.3.5-.45.19-.17.45-.18.69-.17.16,0,.31.05.46-.02.08-.03.15-.02.21.04.12.13.28.18.44.24.11.04.2.1.27.2.21.26.44.48.8.59.36.1.72.23,1.09.23.33,0,.68-.03.99-.19.07-.04.14-.07.23-.08.14,0,.24-.09.31-.19.18-.24.4-.43.64-.58.18-.12.39-.25.64-.22.19.02.37-.07.57-.04.1.02.2.02.28.07.08.05.15.08.24.09.04,0,.09,0,.11.03.23.27.56.41.84.62.05.03.08.08.11.12.09.14.2.22.39.23.18.01.35.08.53.13.23.06.45.08.68,0,.1-.04.2-.06.31-.06.14,0,.28,0,.36-.14.03-.05.09-.03.14-.05.15-.05.3-.09.36-.27.03-.1.13-.15.23-.18.15-.05.28-.14.4-.25.18-.16.4-.22.61-.31.37-.15.66.04.98.12.04,0,.07.04.11.03.26-.02.37.19.54.33.41.34.78.74,1.38.77.21.01.45.06.65.05.36-.02.78,0,1.05-.36.01-.02.04-.04.06-.04.29.02.39-.24.57-.38.38-.28.76-.56,1.25-.58.14,0,.28-.03.4.07.03.02.07.03.11.02.16-.02.29.02.38.18.03.05.09.1.14.12.2.08.36.2.53.34.21.18.5.28.74.44.17.11.34.09.52.1v-.61c-.15-.14-.34-.21-.52-.3ZM67.69,64.79c-.09-.01-.13-.1-.18-.15-.16-.16-.34-.31-.52-.43-.26-.16-.47-.44-.85-.42-.19.01-.42-.05-.62-.12-.15-.05-.28-.04-.42.02-.14.07-.29.12-.45.13-.12,0-.21.1-.31.17-.23.17-.46.32-.67.52-.27.26-.64.37-1.01.47-.38.1-.72-.05-1.06-.13-.13-.03-.29-.1-.36-.27-.03-.07-.12-.13-.19-.17-.38-.25-.71-.6-1.22-.6-.09,0-.18-.07-.28-.1-.17-.05-.35-.03-.52.01-.32.08-.65.14-.95.28-.03.02-.08.02-.1.05-.25.28-.6.44-.86.72-.16.16-.39.18-.59.21-.59.11-1.15.03-1.56-.43-.46-.5-1.04-.75-1.67-.82-.4-.04-.82,0-1.23.17-.24.1-.41.25-.61.38-.24.15-.42.36-.62.54-.19.16-.41.14-.61.19-.09.02-.2,0-.29.02-.19.04-.37-.02-.53-.11-.04-.03-.1-.08-.13-.07-.23.08-.36-.07-.48-.21-.23-.27-.59-.36-.8-.63-.13-.17-.3-.23-.47-.23-.13,0-.25,0-.38-.02-.56-.06-1.1-.02-1.61.26-.04.02-.08.04-.11.07-.26.33-.62.56-.96.8-.15.11-.26.23-.46.12-.03-.02-.09,0-.13.01-.37.11-.7.07-.98-.22-.05-.05-.12-.08-.18-.1-.25-.1-.45-.24-.58-.49-.05-.1-.16-.08-.24-.14-.25-.19-.55-.25-.86-.3-.45-.09-.89-.03-1.32.1v.64c.15.01.29-.04.43-.06.23-.03.48-.08.72-.03.44.09.79.31,1.1.63.21.22.46.39.77.42.03,0,.07.02.1.05.22.21.49.16.75.15.09,0,.18-.02.28.01.07.03.14.03.22.02.34-.05.62-.23.92-.37.04-.02.08-.07.1-.11.07-.1.14-.18.28-.2.07-.01.17-.06.21-.12.08-.12.19-.16.3-.21.18-.07.36-.13.51-.26.15-.13.37-.03.55-.02.38.02.73.15,1,.44.04.05.11.07.16.09.1.04.2.08.26.18.14.25.41.33.63.45.29.16.62.13.94.17.26.03.55,0,.79-.17.1-.07.21-.05.32-.1.32-.14.52-.43.81-.6.13-.07.24-.2.37-.25.28-.12.58-.28.9-.26.41.03.76.2,1.08.49.3.27.7.43,1.03.68.29.23.64.17.95.21.44.05.89-.06,1.25-.38.12-.11.27-.19.41-.26.21-.11.35-.31.53-.46.26-.23.55-.23.86-.22.07,0,.15.03.22.03.46,0,.84.19,1.15.54.18.2.42.32.62.49.06.05.13.05.2.05.1,0,.19,0,.27.1.08.1.21.04.3.04.11,0,.22.01.33.03.28.05.54.04.79-.12.05-.03.12-.06.18-.06.16,0,.27-.04.36-.19.07-.11.23-.08.34-.18.18-.16.33-.38.55-.47.39-.17.77-.34,1.25-.26.49.08.83.37,1.19.64.16.12.31.29.5.38.26.12.49.35.82.2v-.64c-.19-.08-.38-.17-.59-.2ZM41.05,56.59c.3.05.47.25.68.41.5.38.95.83,1.64.87.22.01.44-.09.66.03.04.02.08-.02.12-.05.19-.11.38-.22.6-.24.08,0,.16-.04.2-.09.22-.28.54-.44.81-.66.25-.2.55-.33.89-.35.36-.02.67.08.99.22.08.03.14.08.19.15.15.18.32.34.54.43.07.03.1.09.16.13.38.31.83.4,1.32.41.3,0,.58-.04.85-.15.39-.16.77-.32,1.06-.66.2-.23.46-.46.83-.46.2,0,.4-.02.6-.05.27-.04.51.08.71.26.2.17.39.34.65.44.13.05.23.19.33.3.09.09.2.16.32.18.33.06.67.16,1,.15.42-.02.84-.09,1.21-.34.35-.24.66-.51.99-.76.15-.11.37-.16.57-.17.39-.03.78-.04,1.13.19.09.06.2.1.26.21.03.05.07.08.12.08.21.04.31.18.42.34.08.12.21.18.35.21.14.02.27.07.39.12.13.05.27.12.41.03.03-.02.09-.01.13,0,.38.17.74.08,1.08-.09.06-.03.13-.04.2-.05.14-.02.26-.07.33-.19.08-.13.18-.23.31-.3.13-.07.24-.18.35-.28.19-.16.4-.29.67-.28.09,0,.19-.01.28-.02.34-.03.66.05.96.21.18.1.31.23.45.37.14.13.31.29.5.36.09.03.18.07.25.13.2.16.47.12.68.23v-.68c-.17-.02-.31-.08-.43-.22-.13-.15-.28-.3-.51-.33-.04,0-.08-.02-.1-.05-.21-.25-.5-.38-.76-.56-.12-.09-.26-.1-.39-.12-.2-.03-.41-.05-.61-.08-.25-.04-.48.07-.69.15-.23.08-.47.16-.69.3-.18.12-.3.3-.47.43-.14.11-.3.24-.44.3-.31.12-.65.25-1,.17-.11-.02-.21-.04-.32-.04-.05,0-.1,0-.14-.04-.37-.31-.79-.55-1.17-.84-.29-.22-.62-.31-.98-.37-.25-.04-.51.05-.76-.03-.09-.03-.21.07-.31.12-.29.12-.58.25-.82.48-.19.19-.41.36-.64.49-.21.13-.47.2-.7.29-.08.03-.16-.03-.24-.04-.24-.03-.53-.02-.7-.15-.24-.18-.57-.25-.73-.52-.12-.2-.34-.26-.51-.4-.15-.11-.32-.2-.52-.12-.07.03-.13-.04-.18-.09-.11-.1-.22-.13-.36-.08-.11.04-.21.09-.32.03,0,0-.03,0-.04,0-.23.25-.59.05-.84.23-.24.18-.5.34-.7.56-.15.17-.31.33-.57.33-.13,0-.17.19-.34.2-.12,0-.24.04-.37.02-.15-.02-.3-.07-.45-.01-.02,0-.06,0-.07,0-.14-.15-.37-.16-.5-.31-.15-.17-.34-.31-.52-.45-.33-.27-.72-.43-1.15-.52-.26-.05-.51-.02-.77-.03-.46,0-.8.24-1.13.46-.25.17-.52.34-.73.57-.12.13-.29.25-.49.23-.11,0-.21,0-.32.03-.23.07-.47,0-.7,0-.13,0-.29-.12-.39-.23-.2-.21-.43-.39-.64-.6-.03-.03-.07-.06-.11-.08-.15-.05-.29-.11-.43-.21-.12-.09-.32-.11-.48-.13-.45-.06-.9-.05-1.35.03v.87c.42-.33.88-.28,1.36-.19ZM67.13,59.05c-.33-.2-.63-.46-1.03-.51-.15-.02-.3-.13-.45-.13-.37,0-.75,0-1.08.23-.15.11-.37.13-.49.29-.2.26-.5.39-.76.57-.37.26-.81.32-1.28.25-.29-.05-.47-.27-.75-.33-.11-.02-.22-.18-.32-.28-.23-.24-.55-.35-.79-.57-.04-.04-.12-.06-.18-.05-.32.02-.64-.06-.95-.1-.09,0-.16.02-.24.05-.11.06-.22.09-.34.09-.04,0-.1,0-.13.03-.27.23-.62.33-.86.59-.11.12-.26.21-.38.33-.01.01-.03.03-.05.03-.54.21-1.06.33-1.65.09-.3-.12-.47-.33-.68-.52-.5-.44-1.05-.76-1.75-.65-.14.02-.29,0-.44.03-.56.11-.99.43-1.4.8-.05.05-.11.09-.17.12-.19.11-.38.22-.58.31-.09.04-.19.07-.29.04-.21-.07-.43-.05-.64-.07-.24-.03-.51-.11-.68-.29-.25-.27-.53-.51-.84-.65-.51-.24-1.05-.48-1.65-.32-.24.07-.46.16-.68.31-.25.17-.52.32-.76.52-.03.03-.07.05-.1.08-.37.39-.82.5-1.35.43-.36-.05-.63-.23-.9-.44-.22-.17-.42-.38-.64-.51-.24-.14-.48-.35-.82-.35-.2,0-.42-.04-.63-.05-.26-.01-.51.07-.73.2v.72c.24-.13.5-.17.78-.19.28-.02.54-.01.8.1.14.06.27.14.38.24.29.29.59.62.96.75.35.12.68.39,1.12.23.3-.11.65-.09.95-.22.25-.11.48-.26.67-.47.2-.23.47-.35.74-.49.27-.14.53-.11.8-.16.26-.04.46.06.63.18.19.14.41.23.6.39.22.19.43.38.69.52.08.04.14.09.23.1.15.02.3.07.45.12.3.09.61.05.91-.04.03,0,.06-.03.09-.03.41-.01.71-.27,1.04-.48.02-.01.04-.02.05-.03.09-.24.36-.29.51-.46.12-.13.3-.16.46-.2.1-.02.21-.03.32-.05.59-.09,1.06.12,1.5.51.21.19.42.4.73.51.2.07.41.16.62.21.31.08.62.08.93,0,.04,0,.07-.02.11-.02.28.01.47-.17.68-.31.41-.26.78-.6,1.22-.81.27-.13.57-.21.91-.11.46.14.87.33,1.22.67.15.15.36.23.5.39.07.08.2.01.27.07.27.23.6.15.9.2.11.02.21-.03.32-.04.54-.06.98-.31,1.38-.66.22-.19.44-.37.67-.55.03-.02.07-.04.1-.04.34.05.66-.06,1-.04.07,0,.14,0,.19.06.13.13.32.15.46.24.19.13.37.28.56.42.27.2.54.4.86.53.1.04.22.02.33.03v-.64c-.51-.06-.76-.52-1.15-.76ZM40.38,48.66c.15-.03.29-.01.44,0,.4.02.67.27.96.49.21.16.36.41.62.51.34.14.67.35,1.06.32.19-.01.37.06.56,0,.46-.12.93-.23,1.27-.58.21-.21.45-.39.69-.53.26-.15.55-.3.9-.21.21.06.45.04.66.14.13.06.26.12.33.26.04.07.11.12.19.16.15.07.28.17.4.28.34.29.72.48,1.18.5.06,0,.12,0,.18-.02.24-.06.49-.05.73-.09.3-.06.56-.22.81-.4.29-.21.54-.48.86-.64.24-.12.49-.26.75-.21.46.09.97.12,1.28.56.06.09.19.11.27.18.26.22.57.36.85.53.06.03.13.07.19.07.48.01.98.07,1.44-.12.25-.1.5-.24.71-.42.23-.21.51-.34.75-.54.33-.27.76-.24,1.16-.17.5.08.89.37,1.25.71.22.21.47.36.77.45.47.14.93.23,1.4.04.44-.18.86-.38,1.22-.72.2-.19.48-.31.72-.47.13-.09.34.03.51-.03.46-.16.8.13,1.15.35.12.08.22.21.35.3.07.05.14.11.23.12.05,0,.1.04.12.09.09.23.31.27.51.3.15.03.27.18.44.08v-.72c-.18,0-.36-.02-.49-.17-.09-.1-.26-.06-.35-.17-.12-.15-.29-.24-.42-.37-.17-.18-.4-.25-.61-.35-.09-.04-.2-.06-.29-.11-.24-.16-.51-.07-.75-.05-.27.03-.55.03-.81.15-.25.12-.46.3-.67.47-.2.16-.37.38-.64.43-.09.02-.13.1-.22.14-.29.13-.62.14-.91.1-.25-.04-.51-.16-.74-.32-.28-.2-.55-.41-.8-.65-.18-.17-.44-.19-.68-.27-.42-.14-.84-.04-1.25.02-.38.06-.75.26-1.03.55-.17.17-.37.3-.53.48-.08.09-.2.1-.31.12-.21.03-.44.07-.64.07-.31,0-.66.02-.94-.26-.38-.36-.82-.67-1.27-.93-.14-.08-.32-.11-.49-.11-.29,0-.57.02-.85.1-.29.08-.59.12-.86.26-.16.08-.29.18-.41.31-.18.19-.36.39-.63.45-.14.03-.28.09-.41.14-.3.11-.58.07-.88-.03-.3-.11-.55-.27-.77-.5-.04-.04-.08-.05-.13-.07-.16-.08-.32-.14-.42-.31-.06-.1-.17-.14-.29-.17-.27-.06-.54-.1-.8-.18-.3-.09-.57.02-.84.1-.46.13-.86.38-1.21.69-.22.2-.45.37-.73.47-.31.1-.61.11-.94.02-.43-.12-.72-.42-1.05-.66-.28-.2-.52-.49-.92-.48-.1,0-.2-.07-.3-.11-.34-.15-.66-.05-.98.05-.1.03-.2.06-.31.09,0,.24,0,.48,0,.72.22-.08.45-.13.69-.18ZM39.97,43.49c.07-.06.17-.08.26-.09.04,0,.09,0,.13,0,.52-.1.9.18,1.29.44.14.09.2.27.36.35.21.11.41.23.62.33.39.17.78.27,1.2.24.22-.02.46-.04.66-.09.19-.05.45-.15.53-.4.02-.08.09-.11.15-.13.34-.16.65-.37.94-.62.03-.03.06-.06.1-.05.21.1.39-.01.56-.1.03-.01.07-.02.09-.01.29.2.66.21.95.43.23.18.49.31.67.56.03.04.09.06.15.08.35.12.69.25,1.06.32.25.05.5-.04.74-.07.51-.07.88-.42,1.3-.66.11-.06.21-.17.31-.26.19-.17.44-.21.65-.32.04-.02.1,0,.15,0,.18.03.35.1.54.03.06-.02.12.02.18.05.17.09.34.18.52.26.14.06.21.23.35.3.02.01.03.04.06.05.18.11.35.21.52.34.17.13.39.2.59.28.05.02.11,0,.17-.01.14-.04.28-.07.41.04.02.02.06.03.09.02.24-.1.51-.08.76-.19.36-.15.66-.37.94-.61.26-.23.56-.35.85-.51.14-.08.31-.11.48-.04.14.06.28,0,.44.04.2.06.37.18.57.23.06.02.13.04.16.09.11.19.32.28.42.47.07.14.24.16.37.21.21.08.41.25.68.16.04-.01.11.03.16.05.32.11.63.09.94-.03.05-.02.1-.02.15,0,.07.03.13.01.17-.04.22-.28.64-.31.81-.64.41-.16.73-.52,1.2-.56.15-.01.3.01.43.05.46.13.92.29,1.29.61.11.1.16.25.31.32.3.14.6.27.91.37v-.76c-.33-.03-.6-.16-.84-.4-.27-.28-.59-.49-.94-.65-.35-.16-.73-.25-1.11-.25-.22,0-.48.01-.68.16-.13.09-.28.13-.42.2-.25.13-.46.3-.67.48-.36.32-.79.47-1.27.48-.21,0-.41,0-.63-.08-.26-.11-.42-.35-.65-.49-.3-.19-.54-.46-.92-.53-.21-.04-.39-.19-.62-.18-.33,0-.64.07-.97.08-.21,0-.41.12-.58.25-.24.19-.49.36-.71.59-.35.36-.83.46-1.3.36-.36-.08-.75-.17-1.06-.41-.12-.1-.16-.25-.29-.34-.3-.19-.63-.31-.95-.44-.63-.27-1.22-.1-1.81.13-.08.03-.14.08-.19.15-.04.06-.08.12-.14.15-.35.16-.57.49-.91.67-.17.09-.35.14-.56.14-.3,0-.58-.1-.87-.14-.15-.02-.26-.08-.35-.24-.08-.14-.25-.25-.41-.31-.23-.09-.36-.27-.53-.43-.03-.02-.06-.06-.09-.07-.44-.04-.87-.25-1.33-.1-.07.02-.15.02-.22.02-.32,0-.55.25-.86.29-.08,0-.12.09-.16.15-.07.1-.14.21-.28.23-.03,0-.06.03-.08.05-.31.36-.73.47-1.18.49-.11,0-.23.03-.34.03-.21,0-.4-.04-.57-.21-.23-.24-.53-.4-.78-.61-.13-.1-.25-.2-.39-.29-.2-.15-.44-.17-.66-.16-.16,0-.32.03-.45-.03-.31-.12-.55.09-.83.13v.68c.1.03.2.01.28-.06ZM67.86,33.38c-.2-.15-.48-.2-.6-.44,0-.02-.02-.04-.03-.04-.37-.15-.59-.56-1.04-.55-.14,0-.25-.11-.4-.11-.5,0-.99.1-1.46.26-.08.03-.15.08-.2.14-.31.43-.77.65-1.21.89-.12.07-.25,0-.37.02-.4.04-.81.02-1.13-.27-.19-.17-.38-.35-.59-.49-.27-.19-.53-.41-.86-.48-.29-.06-.59-.08-.89-.07-.28.01-.51.15-.78.18-.26.03-.38.27-.58.4-.31.19-.55.48-.91.62-.15.06-.26.23-.45.19-.44-.1-.88-.15-1.27-.45-.34-.26-.65-.59-1.08-.74-.04-.01-.07-.04-.1-.04-.28-.05-.55-.19-.82-.19-.43,0-.87.02-1.24.33-.27.23-.56.45-.87.64-.19.12-.44.16-.58.36-.03.04-.06.03-.1,0-.05-.03-.11-.03-.16,0-.17.11-.32.03-.46-.05-.09-.05-.16-.07-.26-.07-.27,0-.48-.17-.68-.32-.27-.2-.53-.41-.8-.62-.18-.14-.4-.16-.6-.2-.53-.12-1.05-.03-1.57.15-.31.1-.5.34-.73.54-.36.3-.73.64-1.28.6-.29-.02-.56-.08-.83-.18-.29-.1-.43-.35-.67-.48-.28-.16-.47-.46-.84-.46-.02,0-.04-.01-.05-.02-.33-.32-.73-.2-1.11-.17-.19.02-.41-.05-.57.13v.72c.32-.15.66-.17,1.01-.15.03,0,.06.01.09,0,.51-.03.84.3,1.18.61.2.18.37.4.66.43.04,0,.08.01.11.03.26.19.57.18.87.18.11,0,.22-.02.3.07.02.02.06.03.09.01.19-.14.45-.1.64-.26.09-.08.22-.08.32-.14.39-.24.67-.63,1.1-.83.36-.17.72-.2,1.08-.07.25.09.51.11.74.28.11.08.22.15.28.27.04.08.09.15.2.15,0,0,.01,0,.02,0,.26.28.62.34.95.46.24.09.48.24.78.09.21-.1.48-.07.71-.15.39-.12.7-.34.93-.68.08-.11.24-.19.37-.24.14-.06.27-.13.4-.2.19-.09.41-.04.61-.04.4,0,.67.23.98.46.27.2.53.43.87.56.28.11.55.29.85.27.32-.01.63.12.96-.05.24-.12.5-.22.75-.33.03-.02.07-.04.09-.07.16-.22.39-.36.57-.55.2-.22.49-.26.78-.27.12,0,.22,0,.32-.07.05-.04.11-.04.16-.01.37.22.82.29,1.14.63.15.16.33.3.51.44.02.02.05.04.08.05.26.02.49.19.76.18.06,0,.13,0,.19.01.46.1.9.05,1.33-.17.15-.08.24-.21.37-.31.08-.06.15-.15.24-.17.26-.06.42-.24.59-.42.08-.08.16-.13.28-.13.14,0,.29.04.4-.1.02-.02.09-.02.13-.01.46.14.97.2,1.27.66,0,.02.03.04.04.04.32,0,.41.29.6.44.16.13.37.12.55.16.11.02.22.04.33.08v-.68c-.14-.07-.31-.11-.42-.19ZM40.47,38.19c.19,0,.39-.05.56.04.24.12.52.15.72.38.38.46.92.7,1.45.93.13.06.26-.04.4-.05.23,0,.45-.05.68-.07.26-.02.54-.13.74-.33.28-.27.64-.46.91-.75.05-.05.13-.07.2-.09.31-.08.62-.08.93-.08.15,0,.28.04.4.11.33.19.62.41.87.7.09.11.27.16.42.21.19.06.4.09.58.21.2.14.43.11.66.08.07-.01.15-.03.22-.03.42,0,.77-.19,1.1-.41.33-.22.62-.5.94-.75.13-.1.29-.21.49-.12.02,0,.04.01.05,0,.52-.19.88.14,1.28.36.35.19.63.47.97.67.39.24.79.3,1.23.25.14-.02.27-.04.41.02.06.03.13.02.17-.03.09-.1.22-.16.34-.2.17-.07.29-.15.41-.31.11-.14.32-.22.46-.36.23-.22.54-.32.83-.42.05-.02.1-.01.15-.02.27-.02.54.04.8.11.24.06.46.2.63.41.11.13.22.27.4.33.07.02.14.07.19.12.11.12.24.2.41.24.5.1,1.01.23,1.52.09.25-.07.52-.13.72-.34.12-.12.25-.23.43-.25.13-.02.18-.15.22-.24.06-.14.17-.2.29-.25.11-.05.23-.09.34-.17.02-.02.07-.04.08-.03.14.09.27,0,.4-.02.34-.04.66.01.91.27.04.04.09.06.14.09.15.08.29.16.39.31.12.17.34.21.51.32.17.11.37.18.55.28.1.05.2,0,.3.04v-.68c-.32-.1-.65-.22-.88-.47-.16-.18-.36-.33-.55-.43-.24-.13-.44-.4-.78-.33-.1.02-.23,0-.33-.04-.22-.09-.46.07-.68-.04-.02-.01-.07.01-.1.03-.37.18-.77.31-1.09.58-.11.09-.18.21-.3.3-.22.16-.45.28-.69.38-.19.07-.39.1-.6,0-.09-.04-.21-.06-.31-.06-.28,0-.49-.14-.7-.32-.28-.24-.57-.47-.88-.67-.12-.08-.29-.15-.46-.14-.02,0-.06,0-.07-.01-.19-.18-.43-.07-.64-.12-.2-.05-.37.07-.54.12-.21.06-.44.04-.61.22-.28.29-.65.47-.95.73-.15.12-.34.18-.53.23-.24.07-.48,0-.71.04-.21.03-.43-.13-.61-.25-.28-.19-.54-.4-.8-.62-.16-.14-.31-.25-.53-.25-.06,0-.12-.04-.17-.08-.21-.2-.46-.18-.7-.1-.09.03-.17.04-.26.03-.57-.03-1,.25-1.4.62-.21.19-.44.35-.72.47-.24.1-.47.19-.72.22-.3.03-.56-.06-.83-.22-.35-.21-.59-.54-.93-.75-.33-.21-.7-.35-1.11-.34-.19,0-.38.02-.56-.05-.12-.05-.23.02-.35.06-.33.12-.64.27-.92.47-.23.16-.46.34-.67.53-.1.09-.24.14-.37.18-.15.04-.29.06-.44.1-.4.11-.74-.07-1.07-.26-.32-.19-.56-.49-.87-.68-.3-.18-.6-.37-.99-.31-.17.03-.35-.03-.52-.07-.1-.02-.18-.03-.27.03-.11.08-.23.13-.37.13v.76c.24-.16.49-.22.78-.21ZM40.12,9.43c.3-.09.61-.12.91-.02.39.13.73.33.99.65.08.1.16.17.3.18.02,0,.06,0,.07.03.14.25.44.17.62.33.06.05.15.07.21.04.13-.06.25-.03.36.02.27.11.52.01.76-.08.06-.02.11-.04.16-.02.09.03.16,0,.22-.07.09-.1.22-.15.32-.23.18-.15.36-.3.55-.44.23-.16.46-.31.72-.41.32-.11.66,0,.99-.04.07,0,.15.03.2.09.43.39.92.7,1.39,1.02.03.02.07.05.1.05.23-.03.41.13.63.14.38.03.75.06,1.09-.17.05-.03.12-.07.17-.06.22.02.34-.11.48-.25.22-.21.43-.42.69-.58.41-.25.85-.36,1.33-.16.02,0,.03.02.05.02.44.02.71.33,1.02.58.31.25.63.48,1.04.55.2.04.4.09.6.1.29.01.58,0,.85-.15.15-.08.3-.18.48-.2.08-.01.14-.07.19-.12.25-.25.54-.46.83-.67.12-.09.24-.15.39-.15.26,0,.51-.06.77,0,.11.02.23.03.32.1.2.15.41.29.61.43.43.3.84.66,1.4.74.46.07.89.02,1.3-.17,0,0,.01,0,.02,0,.21-.02.36-.12.51-.27.21-.21.44-.43.71-.55.25-.11.46-.35.78-.31.32.04.64,0,.95.11.11.04.2.12.28.21.13.16.3.29.5.35.06.02.13.04.16.09.11.24.36.29.56.41.17.1.37.04.54.11v-.76c-.3-.04-.54-.14-.79-.34-.39-.32-.77-.7-1.29-.81-.29-.06-.6-.15-.89-.11-.27.03-.54.18-.82.23-.37.08-.54.39-.8.59-.24.18-.47.39-.75.48-.18.05-.4.08-.59.02-.2-.06-.41-.05-.61-.09-.16-.03-.28-.1-.37-.23-.03-.05-.06-.08-.11-.09-.15-.03-.26-.11-.32-.26-.02-.05-.06-.1-.11-.12-.27-.12-.51-.3-.81-.33-.11-.01-.19-.09-.29-.12-.42-.12-.82-.08-1.24.06-.19.06-.33.15-.47.29-.03.03-.06.09-.1.09-.37,0-.49.34-.72.52-.16.12-.33.24-.55.22-.21-.02-.41.07-.62.09-.25.02-.5-.02-.63-.15-.19-.19-.46-.27-.6-.51-.1-.17-.29-.2-.45-.26-.19-.08-.36-.2-.57-.26-.43-.12-.84-.2-1.29-.09-.19.05-.36.12-.53.21-.35.17-.64.42-.9.7-.07.08-.16.12-.25.16-.22.09-.46.13-.68.22-.25.1-.49,0-.72-.1-.1-.04-.21-.04-.3-.1-.29-.22-.63-.38-.85-.68-.05-.07-.12-.12-.2-.14-.37-.11-.73-.25-1.12-.33-.1-.02-.19.02-.28.03-.29.03-.58.08-.87.18-.36.13-.56.46-.9.6-.11.3-.43.32-.65.47-.16.11-.43.14-.65.04-.08-.04-.15-.05-.23-.02-.09.04-.19.04-.28,0-.36-.2-.7-.42-1-.7-.3-.28-.62-.47-1-.52-.22-.03-.45-.04-.67-.07-.26-.03-.48.12-.72.19v.76c.09-.2.28-.1.43-.15ZM40.13,14.62s.06-.03.09-.02c.26.08.53,0,.78.06.31.06.57.22.81.43.25.21.5.44.77.63.12.08.25.13.38.14.45.04.91.03,1.36,0,.29-.02.5-.22.73-.37.12-.08.22-.18.34-.26.03-.02.08-.03.09-.06.16-.29.44-.42.74-.47.34-.06.68-.19,1.05-.08.35.11.58.36.85.57.23.18.45.38.75.45.02,0,.04,0,.05.02.23.24.54.17.83.22.38.06.72-.03,1.06-.14.25-.08.43-.27.64-.42.02-.01.03-.03.04-.04.36-.2.65-.53,1.07-.63.19-.04.39-.04.59-.02,0,0,.01,0,.02,0,.42-.07.69.22,1,.42.27.17.49.41.78.56.17.09.39.1.51.29.01.02.06.03.09.03.43.05.88.08,1.27-.09.35-.15.69-.34,1-.59.28-.24.54-.53.95-.58.07,0,.14-.03.2,0,.11.04.21.01.29-.04.1-.07.2-.06.31-.04.37.1.72.27.97.53.15.15.36.23.47.41,0,.02.03.03.04.04.31.04.55.26.87.29.16.01.32,0,.46.07.02,0,.04.01.06,0,.37-.09.76-.1,1.08-.32.03-.02.05-.05.08-.06.34-.06.5-.35.75-.54.2-.15.4-.27.65-.35.27-.09.55-.09.8-.07.31.03.64.1.82.42.1.18.32.2.46.34.1.1.24.18.36.26.25.16.57.17.83.31v-.79c-.27.04-.47-.07-.63-.29-.03-.05-.1-.09-.15-.1-.17-.03-.26-.16-.38-.26-.31-.26-.66-.46-1.08-.5-.21-.02-.42-.06-.63-.1-.2-.03-.4,0-.57.08-.32.14-.68.23-.95.48-.01.01-.04.02-.05.03-.08.26-.37.29-.53.46-.09.1-.19.18-.33.21-.23.04-.47.07-.7.11-.03,0-.07,0-.09,0-.39-.16-.85-.2-1.08-.64-.01-.02-.03-.04-.06-.05-.4-.18-.77-.41-1.14-.63-.03-.02-.06-.04-.09-.03-.33.09-.68-.1-1.01.03-.3.12-.61.2-.9.39-.26.17-.44.44-.73.58-.25.12-.47.32-.78.29-.17-.02-.35,0-.53,0-.14,0-.27-.03-.38-.13-.07-.06-.16-.07-.24-.1-.15-.06-.26-.15-.38-.26-.21-.21-.43-.42-.74-.51-.2-.05-.38-.14-.58-.21-.47-.16-.92-.09-1.36.08-.3.11-.56.29-.82.49-.27.22-.59.4-.89.59-.07.04-.15.03-.22.04-.24.02-.49.04-.73.06,0,0-.01,0-.02,0-.23-.13-.54-.13-.72-.32-.22-.23-.43-.46-.73-.61-.25-.13-.46-.33-.75-.37-.37-.04-.74-.12-1.1,0-.22.07-.42.17-.63.28-.39.21-.72.5-1.07.76-.12.09-.25.16-.41.16-.22.01-.43.14-.66.04-.03-.01-.09.01-.13.03-.04.02-.08.04-.13.01-.3-.18-.65-.28-.86-.6-.01-.02-.03-.04-.05-.05-.28-.14-.53-.34-.8-.49-.29-.17-.6-.18-.93-.16-.18,0-.36-.02-.54.02-.12.02-.25.05-.34.15v.79c.13-.11.29-.18.44-.25ZM67.54-6.15c-.29-.19-.54-.45-.85-.62-.41-.22-.85-.25-1.3-.3-.39-.04-.71.12-1.01.27-.26.13-.52.31-.73.51-.25.23-.57.34-.83.56-.04.04-.12.04-.16,0-.13-.09-.27-.06-.42-.05-.43.03-.77-.15-1.06-.46-.19-.2-.39-.41-.68-.49-.09-.02-.14-.12-.23-.15-.46-.15-.94-.23-1.42-.18-.38.04-.71.24-1.02.46-.14.09-.24.23-.38.31-.25.14-.42.39-.69.47-.27.08-.55.13-.84.03-.08-.03-.16-.01-.24-.04-.2-.06-.42-.09-.53-.32-.05-.1-.18-.07-.27-.12-.21-.14-.42-.27-.61-.43-.19-.16-.4-.23-.63-.29-.28-.07-.55-.06-.82-.07-.19,0-.38,0-.53.13-.04.04-.1.07-.16.05-.17-.07-.27,0-.35.14-.01.03-.04.05-.07.06-.36.15-.62.44-.92.67-.12.09-.26.13-.4.16-.41.07-.85.21-1.24-.05-.25-.17-.51-.3-.71-.55-.3-.36-.74-.45-1.17-.56-.34-.09-.69-.08-1,0-.32.08-.68.09-.95.39-.31.35-.72.62-1.15.81-.14.06-.31.14-.49.06-.03-.01-.07-.02-.09,0-.32.13-.55-.09-.79-.23-.25-.14-.44-.37-.71-.49-.02,0-.04-.02-.04-.03-.15-.35-.53-.3-.79-.47-.21-.13-.45-.08-.68-.1-.31-.03-.61,0-.9.13,0,.29,0,.58,0,.87.03-.01.06-.02.08-.04.32-.31.7-.34,1.11-.22.05.01.09.03.15.03.15-.02.31.02.4.12.19.21.43.36.61.58.01.01.02.04.03.04.32.19.62.44,1.02.44.16,0,.29.06.44.08.44.06.83-.11,1.24-.21.13-.03.24-.15.35-.25.24-.22.49-.43.75-.63.29-.22.61-.26.97-.25.35.01.64.16.93.3.21.1.34.31.53.44.55.37,1.09.73,1.81.54.27.11.49-.09.73-.12.22-.03.37-.2.56-.31.22-.12.34-.35.54-.49.4-.28.82-.45,1.32-.28.12.04.24.08.37.08.21,0,.33.2.51.26.19.07.34.21.49.37.23.25.54.4.88.46.26.04.52.09.79.09.48,0,.88-.15,1.25-.45.22-.18.42-.37.64-.55.26-.21.57-.27.89-.31.29-.04.57.04.86.08.25.03.42.23.58.39.32.31.69.52,1.1.69.29.12.56.14.86.15.21,0,.4-.09.6-.13.45-.09.75-.41,1.12-.62.2-.11.41-.26.56-.46.02-.03.06-.05.1-.06.27-.07.54-.16.83-.07.25.08.49.21.77.24.08,0,.17.11.23.18.26.31.59.5.93.68.21.11.43.17.67.14v-.68c-.32.05-.51-.19-.73-.34ZM40.14-8.98s.11-.04.16-.03c.34.09.71.06,1.04.22.27.13.51.3.68.55.05.07.11.14.19.15.16.02.29.1.43.18.26.15.55.21.82.24.34.04.7.06,1.05-.13.12-.07.29-.12.43-.17.15-.06.27-.2.38-.32.19-.21.41-.4.66-.52.3-.14.61-.26.96-.17.11.03.22.04.33.06.42.08.71.36,1,.64.08.07.17.11.26.15.23.11.41.33.67.38.29.06.59.11.88.07.48-.06.95-.22,1.35-.52.1-.07.18-.17.27-.26.22-.21.46-.38.76-.44.04,0,.08-.03.11-.06.09-.1.18-.12.3-.03.11.08.23.04.35.01.05-.01.1-.05.15-.02.27.15.6.18.82.41.2.21.47.31.67.5.52.49,1.18.45,1.81.35.35-.06.68-.21.98-.47.32-.28.65-.58,1.08-.72.02,0,.03-.02.05-.02.29-.02.57-.07.86-.06.15,0,.31.1.44.19.29.2.57.43.88.6.07.27.42.17.52.4,0,.02.06.03.08.03.25-.02.48.07.72.11.11.02.21-.01.32-.03.29-.06.6-.08.87-.2.24-.1.44-.27.62-.46.06-.07.12-.12.21-.14.1-.02.16-.1.23-.16.26-.25.56-.36.92-.28.11.02.21-.02.31-.03.23-.02.42.11.62.16.06.02.11.07.15.11.25.25.53.47.82.65.21.13.45.2.68.29.08.03.16.07.24.1v-.76c-.32-.02-.55-.25-.81-.4-.2-.11-.3-.34-.5-.45-.32-.16-.64-.31-.99-.38-.19-.04-.39-.02-.58-.05-.13-.02-.27.04-.4.08-.07.03-.14.06-.21.03-.27-.09-.39.14-.55.27-.07.06-.11.13-.21.14-.03,0-.08.03-.1.05-.16.26-.42.39-.68.52-.22.11-.45.23-.71.18-.18-.03-.36.04-.55-.02-.35-.1-.67-.24-.91-.53-.07-.08-.17-.11-.26-.15-.15-.07-.21-.23-.34-.33-.18-.15-.38-.15-.58-.19-.14-.02-.29.02-.41-.09,0,0-.02-.01-.04-.01-.47.1-.98.07-1.39.39-.12.09-.27.09-.38.2-.2.2-.38.41-.63.54-.37.19-.72.29-1.17.21-.38-.07-.65-.28-.96-.46-.13-.08-.25-.17-.35-.28-.15-.16-.36-.22-.52-.38-.02-.02-.05-.04-.08-.04-.28-.06-.57-.09-.83-.21-.04-.02-.1,0-.14.03-.1.07-.2.05-.31.04-.17,0-.36.04-.52.11-.39.17-.77.4-1.05.71-.24.26-.52.39-.83.47-.21.05-.43.04-.66-.01-.63-.14-1.04-.63-1.57-.93-.25-.14-.51-.32-.83-.31-.15,0-.3,0-.45-.05-.1-.04-.21-.03-.32,0-.32.12-.66.14-.96.32-.15.09-.29.2-.42.33-.29.29-.58.6-1.04.61-.2,0-.41.1-.59.05-.27-.07-.58-.08-.8-.3-.16-.16-.32-.34-.52-.45-.33-.17-.6-.44-.98-.54-.35-.09-.7-.09-1.06,0-.13.04-.27.07-.4.1v.76c.16-.05.32-.07.45-.18ZM41.35,17.38c.16.05.25.17.34.28.21.27.5.44.77.63.27.19.6.2.92.22.38.02.77.05,1.14-.1.15-.06.31-.12.44-.22.32-.25.63-.53.96-.76.3-.21.67-.27,1.04-.17.17.04.33.09.5.09.09,0,.16.03.22.09.23.28.54.44.82.66.27.22.58.44.98.42.13,0,.24.05.37.07.23.04.43-.09.64-.12.37-.06.7-.21.99-.45.17-.14.33-.3.5-.45.54-.45,1.11-.43,1.73-.22.35.12.56.39.82.61.23.2.51.33.79.45.39.16.81.09,1.21.16.2.04.41-.13.6-.23.05-.03.09-.07.15-.08.36-.05.59-.32.83-.54.29-.26.55-.5.98-.5.28,0,.55.05.82.09.06.01.12.05.17.08.33.2.59.48.9.69.06.04.11.1.19.13.29.08.51.31.84.36.24.04.46-.04.68-.03.1,0,.2-.01.3-.01.11,0,.22-.03.29-.11.09-.09.2-.15.33-.17.08-.02.15-.05.18-.12.04-.08.1-.12.18-.15.05-.02.11-.06.13-.1.06-.19.23-.25.39-.3.18-.05.31-.19.5-.25.27-.09.53-.09.8-.1.12,0,.23.04.32.09.21.09.44.16.62.33.25.24.5.48.82.6.26.1.49.27.76.35v-.76c-.24-.1-.46-.22-.68-.36-.31-.2-.58-.43-.88-.63-.24-.16-.54-.27-.86-.33-.41-.08-.77.03-1.13.14-.27.09-.53.22-.77.37-.19.12-.34.3-.49.46-.09.09-.18.17-.3.22-.19.08-.4.1-.58.21-.07.04-.13.01-.2-.03-.14-.09-.29-.15-.46-.11-.03,0-.08,0-.11-.01-.26-.2-.6-.28-.83-.54-.21-.24-.49-.36-.77-.49-.39-.19-.81-.2-1.23-.16-.07,0-.15,0-.22,0-.25-.02-.43.13-.62.25-.26.16-.5.34-.74.53-.26.2-.54.45-.89.45-.27,0-.55.18-.82.02-.3-.18-.64-.31-.91-.55-.23-.19-.5-.33-.75-.5-.44-.31-.92-.22-1.39-.22-.06,0-.12.04-.18.06-.06.03-.13.09-.18.09-.36-.04-.53.29-.8.41-.33.14-.53.42-.8.62-.12.09-.27.1-.41.1-.21,0-.42-.02-.62,0-.33.04-.56-.13-.76-.35-.07-.07-.16-.1-.24-.14-.18-.09-.31-.23-.44-.37-.02-.02-.04-.06-.06-.07-.33-.09-.61-.28-.95-.36-.34-.07-.66.09-.98.02-.05-.01-.08.03-.11.06-.08.11-.19.13-.3.11-.1-.02-.17,0-.23.09-.09.13-.21.2-.35.25-.12.04-.21.11-.27.22-.13.25-.41.28-.62.39-.13.06-.29.11-.43.16-.12.04-.25.05-.34.01-.21-.07-.44-.07-.64-.16-.13-.06-.22-.14-.32-.24-.16-.15-.33-.32-.56-.39-.05-.01-.12-.01-.16-.06-.27-.33-.65-.4-1.04-.46-.41-.06-.78.02-1.15.17v.76c.53-.43,1.09-.3,1.66-.1ZM39.98,4.21c.19-.12.4-.06.61-.06.53,0,.96.24,1.35.57.42.35.87.62,1.42.71.31.05.62,0,.92-.11.09-.04.19-.08.29-.08.2,0,.33-.09.45-.23.06-.07.13-.12.21-.15.09-.04.19-.09.24-.17.27-.39.68-.57,1.1-.6.45-.03.92,0,1.28.38.22.23.51.4.77.59.26.18.55.24.83.31.46.1.92.06,1.37-.1.38-.13.7-.36.96-.65.45-.49,1-.61,1.62-.51.2.03.4.14.57.25.22.15.42.32.6.51.24.26.55.38.87.45.25.05.49.15.76.14.37-.01.7-.08,1.02-.31.21-.15.46-.26.64-.45.29-.33.71-.41,1.09-.59.19-.09.39-.08.59,0,.26.1.53.2.79.3.07.03.11.07.16.13.26.33.64.52.99.71.16.09.38.16.62.17.44.02.87-.03,1.26-.2.2-.09.4-.22.59-.35.46-.32.87-.75,1.49-.77.24,0,.48,0,.7.15.21.14.46.23.66.4.03.03.09.04.1.08.17.35.55.35.82.52.17.1.35.16.56.11v-.64c-.34-.05-.6-.21-.84-.46-.14-.14-.3-.27-.47-.38-.32-.21-.68-.33-1.06-.4-.25-.04-.5-.11-.74-.06-.28.06-.6.05-.83.26-.21.19-.43.36-.66.52-.2.14-.38.33-.6.41-.21.07-.42.23-.67.09-.17-.09-.37.02-.55-.04-.05-.02-.1,0-.14-.04-.22-.18-.48-.3-.69-.49-.35-.33-.75-.6-1.24-.7-.21-.04-.43-.02-.64-.01-.46.02-.88.16-1.26.42-.02.01-.04.02-.04.04-.17.35-.58.41-.84.64-.17.15-.42.1-.62.18-.27.11-.51.03-.79-.08-.28-.11-.51-.25-.75-.43-.31-.23-.63-.47-.99-.64-.17-.08-.36-.11-.54-.14-.12-.02-.25,0-.37-.05-.03-.01-.08-.02-.11,0-.39.16-.82.2-1.19.44-.09.06-.15.14-.23.21-.29.27-.62.48-.97.67-.02.01-.05.04-.06.04-.35-.06-.71.02-1.07-.07-.42-.11-.65-.46-.98-.68-.32-.22-.63-.49-1.06-.48-.05,0-.1-.02-.13-.06-.03-.03-.07-.07-.11-.05-.31.09-.66,0-.95.2-.11.08-.26,0-.38.09-.26.19-.54.35-.79.56-.29.24-.59.48-.97.53-.22.03-.46-.02-.68-.07-.52-.12-.9-.48-1.31-.8-.21-.16-.44-.36-.75-.34-.02,0-.04,0-.06,0-.5-.25-.97-.09-1.44.09v.64c.1,0,.2.02.29-.04ZM67.69-.79c-.19-.05-.34-.2-.47-.33-.34-.34-.73-.59-1.21-.67-.23-.04-.48-.07-.7-.07-.23,0-.48.1-.71.22-.09.05-.18.09-.28.11-.04,0-.09.02-.1.04-.07.15-.22.2-.35.27-.12.06-.2.15-.27.28-.07.15-.24.19-.37.22-.2.04-.39.11-.57.18-.22.08-.44.1-.65-.04-.08-.05-.17-.05-.25-.08-.36-.16-.67-.4-.97-.65-.22-.19-.43-.38-.74-.4-.12,0-.22-.1-.35-.11-.4-.04-.78.09-1.17.06-.13,0-.23.1-.33.17-.18.11-.36.22-.53.35-.33.25-.6.59-1.03.68-.25.05-.51.07-.76.02-.26-.05-.5-.16-.73-.28-.25-.13-.43-.35-.61-.54-.19-.2-.41-.32-.65-.38-.41-.11-.86-.12-1.27-.05-.39.06-.78.16-1.06.5-.05.07-.12.13-.22.13-.14,0-.19.15-.29.23-.24.18-.47.39-.79.43-.03,0-.07.02-.09,0-.21-.13-.44,0-.66-.03-.03,0-.08,0-.09-.01-.15-.24-.47-.19-.66-.36-.2-.19-.44-.33-.62-.54-.13-.15-.34-.14-.51-.23-.14-.07-.29-.11-.44-.16-.03-.01-.06-.03-.09-.03-.43.06-.87.02-1.29.24-.44.23-.8.54-1.17.85-.16.13-.34.21-.5.23-.29.04-.61.18-.89-.05-.02-.01-.05-.03-.07-.03-.28.02-.44-.17-.64-.33-.24-.19-.47-.4-.72-.57-.25-.16-.57-.21-.87-.29-.36-.09-.72-.05-1.07.1-.06.02-.12.02-.19.03,0,.24,0,.48,0,.72.3-.13.62-.21.94-.18.34.02.66.1.94.35.33.29.66.62,1.07.79.57.24,1.17.22,1.77.1.16-.03.3-.08.38-.21.15-.23.44-.22.62-.4.12-.12.27-.2.4-.32.13-.12.29-.17.46-.21.15-.04.3-.03.45-.05.4-.06.74.11,1.06.32.15.1.28.2.42.31.17.13.34.3.57.36.12.04.25.07.35.17.19.17.43.09.64.12.05,0,.1-.01.15,0,.4.06.73-.09,1.09-.24.24-.1.42-.24.61-.42.12-.12.3-.2.44-.32.27-.24.62-.33.94-.33.27,0,.63-.08.85.22.01.01.03.03.05.03.28.05.46.26.65.44.16.15.33.28.51.4.17.11.35.09.52.11.05,0,.11-.02.15.01.29.24.63.11.92.07.36-.06.72-.21,1.01-.47.11-.1.2-.23.31-.31.25-.19.53-.37.84-.44.22-.05.46-.11.68-.07.17.03.35.05.53.15.22.13.4.32.64.42.11.05.19.17.29.26.34.3.74.47,1.19.48.11,0,.21,0,.32.05.07.03.16.04.22,0,.17-.1.37-.07.54-.15.21-.1.42-.18.58-.35.04-.04.08-.06.13-.08.05-.01.11-.03.13-.07.14-.28.42-.36.65-.51.26-.17.55-.21.86-.18.02,0,.05.02.07.02.59,0,1.01.34,1.43.7.15.13.32.24.51.32.23.1.45.26.73.21v-.64c-.21-.06-.38-.21-.59-.27ZM67.76,25.43c-.25-.12-.43-.29-.63-.46-.21-.19-.43-.37-.72-.48-.41-.14-.8-.11-1.2-.08-.32.02-.66.1-.9.29-.21.17-.54.18-.64.5-.03.11-.19.12-.28.2-.31.27-.67.39-1.09.26-.02,0-.04-.01-.06,0-.37.15-.59-.11-.84-.29-.29-.22-.55-.47-.86-.65-.28-.17-.58-.32-.93-.33-.4,0-.83-.06-1.19.13-.33.17-.66.38-.97.63-.28.23-.53.54-.99.53-.29,0-.58,0-.87-.04-.13-.02-.24-.09-.31-.17-.25-.32-.64-.45-.93-.72-.06-.06-.16-.07-.24-.1-.33-.14-.67-.27-1.03-.34,0,0-.01,0-.02,0-.37.14-.78.12-1.12.34-.14.09-.3.14-.43.26-.09.08-.18.14-.25.25-.11.18-.34.15-.49.24-.15.1-.24.28-.46.27-.19,0-.37.08-.57.08-.17,0-.31-.06-.45-.12-.16-.07-.32-.15-.48-.2-.02,0-.06-.02-.07-.03-.09-.22-.31-.29-.46-.45-.02-.02-.03-.05-.05-.05-.33-.09-.52-.46-.91-.43-.01,0-.03-.01-.04,0-.42.11-.84-.12-1.27.01-.24.07-.4.24-.59.38-.01,0-.02.04-.03.04-.4.13-.6.54-1,.67-.42.14-.84.24-1.29.1-.33-.11-.64-.26-.86-.56-.02-.03-.07-.06-.1-.08-.35-.21-.67-.47-1.1-.52-.27-.03-.53-.13-.81-.1-.03,0-.06,0-.09.01-.12.05-.23.11-.36.04-.04-.02-.08.03-.11.06v.79c.46-.2.92-.35,1.42-.09.07.04.15.07.23.09.08.02.14.05.18.14.04.09.14.13.22.18.25.15.54.24.72.49.11.16.29.2.46.21.12.01.24.02.35.08.12.07.24,0,.36.02.72.09,1.3-.23,1.81-.68.16-.14.34-.3.5-.45.19-.17.45-.18.69-.17.16,0,.31.05.46-.02.08-.03.15-.02.21.04.12.13.28.18.44.24.11.04.2.1.27.2.21.26.44.48.8.59.36.1.72.23,1.09.23.33,0,.68-.03.99-.19.07-.04.14-.07.23-.08.14,0,.24-.09.31-.19.18-.24.4-.43.64-.58.18-.12.39-.25.64-.22.19.02.37-.07.57-.04.1.02.2.02.28.07.08.05.15.08.24.09.04,0,.09,0,.11.03.23.27.56.41.84.62.05.03.08.08.11.12.09.14.2.22.39.23.18.01.35.08.53.13.23.06.45.08.68,0,.1-.04.2-.06.31-.06.14,0,.28,0,.36-.14.03-.05.09-.03.14-.05.15-.05.3-.09.36-.27.03-.1.13-.15.23-.18.15-.05.28-.14.4-.25.18-.16.4-.22.61-.31.37-.15.66.04.98.12.04,0,.07.04.11.03.26-.02.37.19.54.33.41.34.78.74,1.38.77.21.01.45.06.65.05.36-.02.78,0,1.05-.36.01-.02.04-.04.06-.04.29.02.39-.24.57-.38.38-.28.76-.56,1.25-.58.14,0,.28-.03.4.07.03.02.07.03.11.02.16-.02.29.02.38.18.03.05.09.1.14.12.2.08.36.2.53.34.21.18.5.28.74.44.17.11.34.09.52.1v-.61c-.15-.14-.34-.21-.52-.3ZM41.05,19.9c.3.05.47.25.68.41.5.38.95.83,1.64.87.22.01.44-.09.66.03.04.02.08-.02.12-.05.19-.11.38-.22.6-.24.08,0,.16-.04.2-.09.22-.28.54-.44.81-.66.25-.2.55-.33.89-.35.36-.02.67.08.99.22.08.03.14.08.19.15.15.18.32.34.54.43.07.03.1.09.16.13.38.31.83.4,1.32.41.3,0,.58-.04.85-.15.39-.16.77-.32,1.06-.66.2-.23.46-.46.83-.46.2,0,.4-.02.6-.05.27-.04.51.08.71.26.2.17.39.34.65.44.13.05.23.19.33.3.09.09.2.16.32.18.33.06.67.16,1,.15.42-.02.84-.09,1.21-.34.35-.24.66-.51.99-.76.15-.11.37-.16.57-.17.39-.03.78-.04,1.13.19.09.06.2.1.26.21.03.05.07.08.12.08.21.04.31.18.42.34.08.12.21.18.35.21.14.02.27.07.39.12.13.05.27.12.41.03.03-.02.09-.01.13,0,.38.17.74.08,1.08-.09.06-.03.13-.04.2-.05.14-.02.26-.07.33-.19.08-.13.18-.23.31-.3.13-.07.24-.18.35-.28.19-.16.4-.29.67-.28.09,0,.19-.01.28-.02.34-.03.66.05.96.21.18.1.31.23.45.37.14.13.31.29.5.36.09.03.18.07.25.13.2.16.47.12.68.23v-.68c-.17-.02-.31-.08-.43-.22-.13-.15-.28-.3-.51-.33-.04,0-.08-.02-.1-.05-.21-.25-.5-.38-.76-.56-.12-.09-.26-.1-.39-.12-.2-.03-.41-.05-.61-.08-.25-.04-.48.07-.69.15-.23.08-.47.16-.69.3-.18.12-.3.3-.47.43-.14.11-.3.24-.44.3-.31.12-.65.25-1,.17-.11-.02-.21-.04-.32-.04-.05,0-.1,0-.14-.04-.37-.31-.79-.55-1.17-.84-.29-.22-.62-.31-.98-.37-.25-.04-.51.05-.76-.03-.09-.03-.21.07-.31.12-.29.12-.58.25-.82.48-.19.19-.41.36-.64.49-.21.13-.47.2-.7.29-.08.03-.16-.03-.24-.04-.24-.03-.53-.02-.7-.15-.24-.18-.57-.25-.73-.52-.12-.2-.34-.26-.51-.4-.15-.11-.32-.2-.52-.12-.07.03-.13-.04-.18-.09-.11-.1-.22-.13-.36-.08-.11.04-.21.09-.32.03,0,0-.03,0-.04,0-.23.25-.59.05-.84.23-.24.18-.5.34-.7.56-.15.17-.31.33-.57.33-.13,0-.17.19-.34.2-.12,0-.24.04-.37.02-.15-.02-.3-.07-.45-.01-.02,0-.06,0-.07,0-.14-.15-.37-.16-.5-.31-.15-.17-.34-.31-.52-.45-.33-.27-.72-.43-1.15-.52-.26-.05-.51-.02-.77-.03-.46,0-.8.24-1.13.46-.25.17-.52.34-.73.57-.12.13-.29.25-.49.23-.11,0-.21,0-.32.03-.23.07-.47,0-.7,0-.13,0-.29-.12-.39-.23-.2-.21-.43-.39-.64-.6-.03-.03-.07-.06-.11-.08-.15-.05-.29-.11-.43-.21-.12-.09-.32-.11-.48-.13-.45-.06-.9-.05-1.35.03v.87c.42-.33.88-.28,1.36-.19ZM67.13,22.36c-.33-.2-.63-.46-1.03-.51-.15-.02-.3-.13-.45-.13-.37,0-.75,0-1.08.23-.15.11-.37.13-.49.29-.2.26-.5.39-.76.57-.37.26-.81.32-1.28.25-.29-.05-.47-.27-.75-.33-.11-.02-.22-.18-.32-.28-.23-.24-.55-.35-.79-.57-.04-.04-.12-.06-.18-.05-.32.02-.64-.06-.95-.1-.09,0-.16.02-.24.05-.11.06-.22.09-.34.09-.04,0-.1,0-.13.03-.27.23-.62.33-.86.59-.11.12-.26.21-.38.33-.01.01-.03.03-.05.03-.54.21-1.06.33-1.65.09-.3-.12-.47-.33-.68-.52-.5-.44-1.05-.76-1.75-.65-.14.02-.29,0-.44.03-.56.11-.99.43-1.4.8-.05.05-.11.09-.17.12-.19.11-.38.22-.58.31-.09.04-.19.07-.29.04-.21-.07-.43-.05-.64-.07-.24-.03-.51-.11-.68-.29-.25-.27-.53-.51-.84-.65-.51-.24-1.05-.48-1.65-.32-.24.07-.46.16-.68.31-.25.17-.52.32-.76.52-.03.03-.07.05-.1.08-.37.39-.82.5-1.35.43-.36-.05-.63-.23-.9-.44-.22-.17-.42-.38-.64-.51-.24-.14-.48-.35-.82-.35-.2,0-.42-.04-.63-.05-.26-.01-.51.07-.73.2v.72c.24-.13.5-.17.78-.19.28-.02.54-.01.8.1.14.06.27.14.38.24.29.29.59.62.96.75.35.12.68.39,1.12.23.3-.11.65-.09.95-.22.25-.11.48-.26.67-.47.2-.23.47-.35.74-.49.27-.14.53-.11.8-.16.26-.04.46.06.63.18.19.14.41.23.6.39.22.19.43.38.69.52.08.04.14.09.23.1.15.02.3.07.45.12.3.09.61.05.91-.04.03,0,.06-.03.09-.03.41-.01.71-.27,1.04-.48.02-.01.04-.02.05-.03.09-.24.36-.29.51-.46.12-.13.3-.16.46-.2.1-.02.21-.03.32-.05.59-.09,1.06.12,1.5.51.21.19.42.4.73.51.2.07.41.16.62.21.31.08.62.08.93,0,.04,0,.07-.02.11-.02.28.01.47-.17.68-.31.41-.26.78-.6,1.22-.81.27-.13.57-.21.91-.11.46.14.87.33,1.22.67.15.15.36.23.5.39.07.08.2.01.27.07.27.23.6.15.9.2.11.02.21-.03.32-.04.54-.06.98-.31,1.38-.66.22-.19.44-.37.67-.55.03-.02.07-.04.1-.04.34.05.66-.06,1-.04.07,0,.14,0,.19.06.13.13.32.15.46.24.19.13.37.28.56.42.27.2.54.4.86.53.1.04.22.02.33.03v-.64c-.51-.06-.76-.52-1.15-.76ZM40.38,11.98c.15-.03.29-.01.44,0,.4.02.67.27.96.49.21.16.36.41.62.51.34.14.67.35,1.06.32.19-.01.37.06.56,0,.46-.12.93-.23,1.27-.58.21-.21.45-.39.69-.53.26-.15.55-.3.9-.21.21.06.45.04.66.14.13.06.26.12.33.26.04.07.11.12.19.16.15.07.28.17.4.28.34.29.72.48,1.18.5.06,0,.12,0,.18-.02.24-.06.49-.05.73-.09.3-.06.56-.22.81-.4.29-.21.54-.48.86-.64.24-.12.49-.26.75-.21.46.09.97.12,1.28.56.06.09.19.11.27.18.26.22.57.36.85.53.06.03.13.07.19.07.48.01.98.07,1.44-.12.25-.1.5-.24.71-.42.23-.21.51-.34.75-.54.33-.27.76-.24,1.16-.17.5.08.89.37,1.25.71.22.21.47.36.77.45.47.14.93.23,1.4.04.44-.18.86-.38,1.22-.72.2-.19.48-.31.72-.47.13-.09.34.03.51-.03.46-.16.8.13,1.15.35.12.08.22.21.35.3.07.05.14.11.23.12.05,0,.1.04.12.09.09.23.31.27.51.3.15.03.27.18.44.08v-.72c-.18,0-.36-.02-.49-.17-.09-.1-.26-.06-.35-.17-.12-.15-.29-.24-.42-.37-.17-.18-.4-.25-.61-.35-.09-.04-.2-.06-.29-.11-.24-.16-.51-.07-.75-.05-.27.03-.55.03-.81.15-.25.12-.46.3-.67.47-.2.16-.37.38-.64.43-.09.02-.13.1-.22.14-.29.13-.62.14-.91.1-.25-.04-.51-.16-.74-.32-.28-.2-.55-.41-.8-.65-.18-.17-.44-.19-.68-.27-.42-.14-.84-.04-1.25.02-.38.06-.75.26-1.03.55-.17.17-.37.3-.53.48-.08.09-.2.1-.31.12-.21.03-.44.07-.64.07-.31,0-.66.02-.94-.26-.38-.36-.82-.67-1.27-.93-.14-.08-.32-.11-.49-.11-.29,0-.57.02-.85.1-.29.08-.59.12-.86.26-.16.08-.29.18-.41.31-.18.19-.36.39-.63.45-.14.03-.28.09-.41.14-.3.11-.58.07-.88-.03-.3-.11-.55-.27-.77-.5-.04-.04-.08-.05-.13-.07-.16-.08-.32-.14-.42-.31-.06-.1-.17-.14-.29-.17-.27-.06-.54-.1-.8-.18-.3-.09-.57.02-.84.1-.46.13-.86.38-1.21.69-.22.2-.45.37-.73.47-.31.1-.61.11-.94.02-.43-.12-.72-.42-1.05-.66-.28-.2-.52-.49-.92-.48-.1,0-.2-.07-.3-.11-.34-.15-.66-.05-.98.05-.1.03-.2.06-.31.09,0,.24,0,.48,0,.72.22-.08.45-.13.69-.18ZM39.97,6.8c.07-.06.17-.08.26-.09.04,0,.09,0,.13,0,.52-.1.9.18,1.29.44.14.09.2.27.36.35.21.11.41.23.62.33.39.17.78.27,1.2.24.22-.02.46-.04.66-.09.19-.05.45-.15.53-.4.02-.08.09-.11.15-.13.34-.16.65-.37.94-.62.03-.03.06-.06.1-.05.21.1.39-.01.56-.1.03-.01.07-.02.09-.01.29.2.66.21.95.43.23.18.49.31.67.56.03.04.09.06.15.08.35.12.69.25,1.06.32.25.05.5-.04.74-.07.51-.07.88-.42,1.3-.66.11-.06.21-.17.31-.26.19-.17.44-.21.65-.32.04-.02.1,0,.15,0,.18.03.35.1.54.03.06-.02.12.02.18.05.17.09.34.18.52.26.14.06.21.23.35.3.02.01.03.04.06.05.18.11.35.21.52.34.17.13.39.2.59.28.05.02.11,0,.17-.01.14-.04.28-.07.41.04.02.02.06.03.09.02.24-.1.51-.08.76-.19.36-.15.66-.37.94-.61.26-.23.56-.35.85-.51.14-.08.31-.11.48-.04.14.06.28,0,.44.04.2.06.37.18.57.23.06.02.13.04.16.09.11.19.32.28.42.47.07.14.24.16.37.21.21.08.41.25.68.16.04-.01.11.03.16.05.32.11.63.09.94-.03.05-.02.1-.02.15,0,.07.03.13.01.17-.04.22-.28.64-.31.81-.64.41-.16.73-.52,1.2-.56.15-.01.3.01.43.05.46.13.92.29,1.29.61.11.1.16.25.31.32.3.14.6.27.91.37v-.76c-.33-.03-.6-.16-.84-.4-.27-.28-.59-.49-.94-.65-.35-.16-.73-.25-1.11-.25-.22,0-.48.01-.68.16-.13.09-.28.13-.42.2-.25.13-.46.3-.67.48-.36.32-.79.47-1.27.48-.21,0-.41,0-.63-.08-.26-.11-.42-.35-.65-.49-.3-.19-.54-.46-.92-.53-.21-.04-.39-.19-.62-.18-.33,0-.64.07-.97.08-.21,0-.41.12-.58.25-.24.19-.49.36-.71.59-.35.36-.83.46-1.3.36-.36-.08-.75-.17-1.06-.41-.12-.1-.16-.25-.29-.34-.3-.19-.63-.31-.95-.44-.63-.27-1.22-.1-1.81.13-.08.03-.14.08-.19.15-.04.06-.08.12-.14.15-.35.16-.57.49-.91.67-.17.09-.35.14-.56.14-.3,0-.58-.1-.87-.14-.15-.02-.26-.08-.35-.24-.08-.14-.25-.25-.41-.31-.23-.09-.36-.27-.53-.43-.03-.02-.06-.06-.09-.07-.44-.04-.87-.25-1.33-.1-.07.02-.15.02-.22.02-.32,0-.55.25-.86.29-.08,0-.12.09-.16.15-.07.1-.14.21-.28.23-.03,0-.06.03-.08.05-.31.36-.73.47-1.18.49-.11,0-.23.03-.34.03-.21,0-.4-.04-.57-.21-.23-.24-.53-.4-.78-.61-.13-.1-.25-.2-.39-.29-.2-.15-.44-.17-.66-.16-.16,0-.32.03-.45-.03-.31-.12-.55.09-.83.13v.68c.1.03.2.01.28-.06ZM67.86-3.31c-.2-.15-.48-.2-.6-.44,0-.02-.02-.04-.03-.04-.37-.15-.59-.56-1.04-.55-.14,0-.25-.11-.4-.11-.5,0-.99.1-1.46.26-.08.03-.15.08-.2.14-.31.43-.77.65-1.21.89-.12.07-.25,0-.37.02-.4.04-.81.02-1.13-.27-.19-.17-.38-.35-.59-.49-.27-.19-.53-.41-.86-.48-.29-.06-.59-.08-.89-.07-.28.01-.51.15-.78.18-.26.03-.38.27-.58.4-.31.19-.55.48-.91.62-.15.06-.26.23-.45.19-.44-.1-.88-.15-1.27-.45-.34-.26-.65-.59-1.08-.74-.04-.01-.07-.04-.1-.04-.28-.05-.55-.19-.82-.19-.43,0-.87.02-1.24.33-.27.23-.56.45-.87.64-.19.12-.44.16-.58.36-.03.04-.06.03-.1,0-.05-.03-.11-.03-.16,0-.17.11-.32.03-.46-.05-.09-.05-.16-.07-.26-.07-.27,0-.48-.17-.68-.32-.27-.2-.53-.41-.8-.62-.18-.14-.4-.16-.6-.2-.53-.12-1.05-.03-1.57.15-.31.1-.5.34-.73.54-.36.3-.73.64-1.28.6-.29-.02-.56-.08-.83-.18-.29-.1-.43-.35-.67-.48-.28-.16-.47-.46-.84-.46-.02,0-.04-.01-.05-.02-.33-.32-.73-.2-1.11-.17-.19.02-.41-.05-.57.13v.72c.32-.15.66-.17,1.01-.15.03,0,.06.01.09,0,.51-.03.84.3,1.18.61.2.18.37.4.66.43.04,0,.08.01.11.03.26.19.57.18.87.18.11,0,.22-.02.3.07.02.02.06.03.09.01.19-.14.45-.1.64-.26.09-.08.22-.08.32-.14.39-.24.67-.63,1.1-.83.36-.17.72-.2,1.08-.07.25.09.51.11.74.28.11.08.22.15.28.27.04.08.09.15.2.15,0,0,.01,0,.02,0,.26.28.62.34.95.46.24.09.48.24.78.09.21-.1.48-.07.71-.15.39-.12.7-.34.93-.68.08-.11.24-.19.37-.24.14-.06.27-.13.4-.2.19-.09.41-.04.61-.04.4,0,.67.23.98.46.27.2.53.43.87.56.28.11.55.29.85.27.32-.01.63.12.96-.05.24-.12.5-.22.75-.33.03-.02.07-.04.09-.07.16-.22.39-.36.57-.55.2-.22.49-.26.78-.27.12,0,.22,0,.32-.07.05-.04.11-.04.16-.01.37.22.82.29,1.14.63.15.16.33.3.51.44.02.02.05.04.08.05.26.02.49.19.76.18.06,0,.13,0,.19.01.46.1.9.05,1.33-.17.15-.08.24-.21.37-.31.08-.06.15-.15.24-.17.26-.06.42-.24.59-.42.08-.08.16-.13.28-.13.14,0,.29.04.4-.1.02-.02.09-.02.13-.01.46.14.97.2,1.27.66,0,.02.03.04.04.04.32,0,.41.29.6.44.16.13.37.12.55.16.11.02.22.04.33.08v-.68c-.14-.07-.31-.11-.42-.19ZM40.47,1.5c.19,0,.39-.05.56.04.24.12.52.15.72.38.38.46.92.7,1.45.93.13.06.26-.04.4-.05.23,0,.45-.05.68-.07.26-.02.54-.13.74-.33.28-.27.64-.46.91-.75.05-.05.13-.07.2-.09.31-.08.62-.08.93-.08.15,0,.28.04.4.11.33.19.62.41.87.7.09.11.27.16.42.21.19.06.4.09.58.21.2.14.43.11.66.08.07-.01.15-.03.22-.03.42,0,.77-.19,1.1-.41.33-.22.62-.5.94-.75.13-.1.29-.21.49-.12.02,0,.04.01.05,0,.52-.19.88.14,1.28.36.35.19.63.47.97.67.39.24.79.3,1.23.25.14-.02.27-.04.41.02.06.03.13.02.17-.03.09-.1.22-.16.34-.2.17-.07.29-.15.41-.31.11-.14.32-.22.46-.36.23-.22.54-.32.83-.42.05-.02.1-.01.15-.02.27-.02.54.04.8.11.24.06.46.2.63.41.11.13.22.27.4.33.07.02.14.07.19.12.11.12.24.2.41.24.5.1,1.01.23,1.52.09.25-.07.52-.13.72-.34.12-.12.25-.23.43-.25.13-.02.18-.15.22-.24.06-.14.17-.2.29-.25.11-.05.23-.09.34-.17.02-.02.07-.04.08-.03.14.09.27,0,.4-.02.34-.04.66.01.91.27.04.04.09.06.14.09.15.08.29.16.39.31.12.17.34.21.51.32.17.11.37.18.55.28.1.05.2,0,.3.04v-.68c-.32-.1-.65-.22-.88-.47-.16-.18-.36-.33-.55-.43-.24-.13-.44-.4-.78-.33-.1.02-.23,0-.33-.04-.22-.09-.46.07-.68-.04-.02-.01-.07.01-.1.03-.37.18-.77.31-1.09.58-.11.09-.18.21-.3.3-.22.16-.45.28-.69.38-.19.07-.39.1-.6,0-.09-.04-.21-.06-.31-.06-.28,0-.49-.14-.7-.32-.28-.24-.57-.47-.88-.67-.12-.08-.29-.15-.46-.14-.02,0-.06,0-.07-.01-.19-.18-.43-.07-.64-.12-.2-.05-.37.07-.54.12-.21.06-.44.04-.61.22-.28.29-.65.47-.95.73-.15.12-.34.18-.53.23-.24.07-.48,0-.71.04-.21.03-.43-.13-.61-.25-.28-.19-.54-.4-.8-.62-.16-.14-.31-.25-.53-.25-.06,0-.12-.04-.17-.08-.21-.2-.46-.18-.7-.1-.09.03-.17.04-.26.03-.57-.03-1,.25-1.4.62-.21.19-.44.35-.72.47-.24.1-.47.19-.72.22-.3.03-.56-.06-.83-.22-.35-.21-.59-.54-.93-.75-.33-.21-.7-.35-1.11-.34-.19,0-.38.02-.56-.05-.12-.05-.23.02-.35.06-.33.12-.64.27-.92.47-.23.16-.46.34-.67.53-.1.09-.24.14-.37.18-.15.04-.29.06-.44.1-.4.11-.74-.07-1.07-.26-.32-.19-.56-.49-.87-.68-.3-.18-.6-.37-.99-.31-.17.03-.35-.03-.52-.07-.1-.02-.18-.03-.27.03-.11.08-.23.13-.37.13v.76c.24-.16.49-.22.78-.21Z"/>
      </g>
      <circle class="cls-5" cx="42.18" cy="29.48" r="25.69"/>
      <polyline class="cls-5" points="66.67 37.11 42.05 29.48 42.05 3.78"/>
    </g>
  </g>
</svg>