<?xml version="1.0" encoding="UTF-8"?>
<svg id="Layer_6" data-name="Layer 6" xmlns="http://www.w3.org/2000/svg" viewBox="0 0 153.06 14.36">
  <defs>
    <style>
      .cls-1 {
        fill: #fff;
      }
    </style>
  </defs>
  <path class="cls-1" d="M.41.09h2.09c.23,0,.41.18.41.41v10.6c0,.23.18.41.41.41h6.13c.23,0,.41.18.41.41v1.69c0,.23-.18.41-.41.41H.41c-.23,0-.41-.18-.41-.41V.49C0,.27.18.09.41.09Z"/>
  <path class="cls-1" d="M21.7,2.55h-6.55c-.23,0-.41.18-.41.41v2.14c0,.23.18.41.41.41h5.95c.23,0,.41.18.41.41v1.6c0,.23-.18.41-.41.41h-5.95c-.23,0-.41.18-.41.41v2.76c0,.23.18.41.41.41h6.89c.23,0,.41.18.41.41v1.69c0,.23-.18.41-.41.41h-9.73c-.23,0-.41-.18-.41-.41V.49c0-.23.18-.41.41-.41h9.39c.23,0,.41.18.41.41v1.65c0,.23-.18.41-.41.41h0Z"/>
  <path class="cls-1" d="M28.98.09h2.72c.17,0,.33.11.38.27l4.64,13.1c.09.27-.1.54-.38.54h-2.28c-.18,0-.33-.11-.39-.28l-.74-2.29c-.05-.17-.21-.28-.39-.28h-4.53c-.18,0-.33.11-.39.28l-.76,2.3c-.06.17-.21.28-.39.28h-2.17c-.28,0-.48-.28-.38-.55L28.6.36c.06-.16.21-.27.38-.27h0ZM29.07,8.75h2.44c.28,0,.47-.27.39-.53l-1.2-3.75c-.12-.38-.65-.38-.78,0l-1.24,3.75c-.09.26.11.54.39.54h0Z"/>
  <path class="cls-1" d="M47.6.44c.51.22.95.54,1.3.97.29.35.53.74.7,1.17.17.43.26.92.26,1.46,0,.66-.17,1.31-.5,1.95-.33.64-.88,1.09-1.65,1.36.64.26,1.1.62,1.36,1.1.27.48.4,1.2.4,2.18v.94c0,.64.03,1.07.08,1.29.08.36.26.62.54.79v.35h-3.21c-.09-.31-.15-.56-.19-.75-.08-.39-.12-.79-.12-1.2l-.02-1.29c-.01-.89-.17-1.48-.46-1.77s-.85-.44-1.66-.44h-2.43c-.23,0-.41.18-.41.41v4.64c0,.23-.18.41-.41.41h-2.03c-.23,0-.41-.18-.41-.41V.49c0-.23.18-.41.41-.41h6.25c.95.02,1.68.14,2.2.36h0ZM41.59,2.91v2.92c0,.23.18.41.41.41h2.72c.62,0,1.09-.08,1.4-.23.55-.26.82-.79.82-1.57,0-.84-.27-1.41-.8-1.7-.3-.16-.75-.25-1.35-.25h-2.8c-.23,0-.41.18-.41.41h0Z"/>
  <path class="cls-1" d="M53.01.09h2.4c.15,0,.28.08.35.21l4.65,8.16c.21.36.76.22.76-.2V.49c0-.23.18-.41.41-.41h1.89c.23,0,.41.18.41.41v13.1c0,.23-.18.41-.41.41h-2.26c-.15,0-.28-.08-.35-.2l-4.79-8.34c-.21-.36-.76-.22-.76.2v7.94c0,.23-.18.41-.41.41h-1.89c-.23,0-.41-.18-.41-.41V.49c0-.23.18-.41.41-.41h0Z"/>
  <path class="cls-1" d="M76.96,3.71h2.06c.19,0,.36.13.4.32l1.11,5.23c.09.43.7.43.8,0l1.13-5.23c.04-.19.21-.32.4-.32h1.93c.27,0,.47.26.39.52l-2.75,9.48c-.05.17-.21.29-.39.29h-2.13c-.19,0-.36-.13-.4-.32l-1.15-5.34c-.09-.43-.7-.43-.8,0l-1.16,5.34c-.04.19-.21.32-.4.32h-2.16c-.18,0-.34-.12-.39-.3l-2.66-9.48c-.07-.26.12-.52.39-.52h2.02c.19,0,.36.13.4.32l1.12,5.16c.09.43.71.43.8,0l1.03-5.15c.04-.19.21-.33.4-.33h0Z"/>
  <path class="cls-1" d="M89.18,2.48h-1.91c-.23,0-.41-.18-.41-.41V.41c0-.23.18-.41.41-.41h1.91c.23,0,.41.18.41.41v1.67c0,.23-.18.41-.41.41h0ZM87.26,3.71h1.91c.23,0,.41.18.41.41v9.48c0,.23-.18.41-.41.41h-1.91c-.23,0-.41-.18-.41-.41V4.12c0-.23.18-.41.41-.41Z"/>
  <path class="cls-1" d="M91.13,5.72v-1.92h1.44V1.34c0-.23.18-.41.41-.41h1.85c.23,0,.41.18.41.41v2.46h1.67v1.92h-1.67v5.44c0,.42.05.68.16.79.11.1.43.16.98.16.08,0,.17,0,.26,0,.09,0,.18,0,.27-.01v2.01l-1.27.05c-1.27.04-2.14-.18-2.61-.66-.3-.31-.45-.78-.45-1.43v-6.34h-1.44Z"/>
  <path class="cls-1" d="M106.03,3.77c.52.22.94.56,1.27,1.01.28.38.45.78.52,1.19.06.41.09,1.07.09,1.99v5.64c0,.23-.18.41-.41.41h-1.93c-.23,0-.41-.18-.41-.41v-5.86c0-.55-.09-1-.28-1.34-.24-.48-.71-.72-1.39-.72s-1.24.24-1.61.71-.55,1.15-.55,2.04v5.17c0,.23-.18.41-.41.41h-1.88c-.23,0-.41-.18-.41-.41V.54c0-.23.18-.41.41-.41h1.88c.23,0,.41.18.41.41v4.5c.39-.6.84-1.02,1.35-1.25.51-.24,1.05-.35,1.61-.35.63,0,1.21.11,1.73.33h0Z"/>
  <path class="cls-1" d="M116.44.1h9.11c.23,0,.41.18.41.41v1.63c0,.23-.18.41-.41.41h-6.22c-.23,0-.41.18-.41.41v2.39c0,.23.18.41.41.41h5.35c.23,0,.41.18.41.41v1.6c0,.23-.18.41-.41.41h-5.35c-.23,0-.41.18-.41.41v5.02c0,.23-.18.41-.41.41h-2.07c-.23,0-.41-.18-.41-.41V.51c0-.23.18-.41.41-.41h0Z"/>
  <path class="cls-1" d="M128.26.09h2.14c.23,0,.41.18.41.41v8.14c0,.96.11,1.65.34,2.09.35.78,1.12,1.17,2.3,1.17s1.93-.39,2.29-1.17c.23-.44.34-1.14.34-2.09V.49c0-.23.18-.41.41-.41h2.14c.23,0,.41.18.41.41v8.15c0,1.48-.23,2.63-.69,3.46-.85,1.51-2.49,2.27-4.89,2.27s-4.04-.76-4.9-2.27c-.46-.82-.69-1.98-.69-3.46V.49c0-.23.18-.41.41-.41h0Z"/>
  <path class="cls-1" d="M142.18.09h2.4c.15,0,.28.08.35.21l4.65,8.16c.21.36.76.22.76-.2V.49c0-.23.18-.41.41-.41h1.89c.23,0,.41.18.41.41v13.1c0,.23-.18.41-.41.41h-2.26c-.15,0-.28-.08-.35-.2l-4.79-8.34c-.21-.36-.76-.22-.76.2v7.94c0,.23-.18.41-.41.41h-1.89c-.23,0-.41-.18-.41-.41V.49c0-.23.18-.41.41-.41Z"/>
</svg>