<?xml version="1.0" encoding="UTF-8"?>
<svg id="Isolation_Mode" data-name="Isolation Mode" xmlns="http://www.w3.org/2000/svg" viewBox="0 0 26.94 26.94">
  <defs>
    <style>
      .cls-1 {
        fill: #191919;
        stroke-width: 0px;
      }
    </style>
  </defs>
  <path class="cls-1" d="M18.41,13.47c0-.17-.07-.34-.19-.46l-2.84-2.83c-.13-.13-.29-.19-.46-.19s-.33.06-.46.19c-.25.25-.25.66,0,.92l1.72,1.72h-7.01c-.36,0-.65.29-.65.65s.3.65.65.65h7.01s-1.72,1.72-1.72,1.72c-.25.25-.25.66,0,.92.26.25.67.25.92,0l2.84-2.84c.12-.12.19-.29.19-.46Z"/>
  <path class="cls-1" d="M0,13.47C0,6.04,6.04,0,13.47,0c7.43,0,13.47,6.04,13.47,13.47,0,7.43-6.04,13.47-13.47,13.47C6.04,26.94,0,20.9,0,13.47ZM1.21,13.47c0,6.76,5.5,12.26,12.26,12.26,6.76,0,12.26-5.5,12.26-12.26,0-6.76-5.5-12.26-12.26-12.26-6.76,0-12.26,5.5-12.26,12.26Z"/>
</svg>