<?xml version="1.0" encoding="UTF-8"?>
<svg id="Layer_1" data-name="Layer 1" xmlns="http://www.w3.org/2000/svg" xmlns:xlink="http://www.w3.org/1999/xlink" viewBox="0 0 267.01 167.37">
  <defs>
    <style>
      .cls-1 {
        stroke-dasharray: 0 0 0 0 0 0 1.94 3.87;
      }

      .cls-1, .cls-2 {
        fill: none;
        stroke: #dddddc;
        stroke-linecap: round;
        stroke-miterlimit: 10;
        stroke-width: .96px;
      }

      .cls-3 {
        fill: url(#linear-gradient);
      }

      .cls-3, .cls-4, .cls-5, .cls-6, .cls-7, .cls-8, .cls-9, .cls-10 {
        stroke-width: 0px;
      }

      .cls-4 {
        fill: #dddddc;
      }

      .cls-11 {
        opacity: .5;
      }

      .cls-5 {
        fill: url(#linear-gradient-4);
      }

      .cls-6 {
        fill: url(#linear-gradient-2);
      }

      .cls-7 {
        fill: url(#linear-gradient-3);
      }

      .cls-8 {
        fill: #e98024;
      }

      .cls-9 {
        fill: #fff;
      }

      .cls-10 {
        fill: #231f20;
      }
    </style>
    <linearGradient id="linear-gradient" x1="46.53" y1="27.27" x2="63.14" y2="27.27" gradientTransform="translate(0 170) scale(1 -1)" gradientUnits="userSpaceOnUse">
      <stop offset="0" stop-color="#fcb44b"/>
      <stop offset=".35" stop-color="#fbb24a"/>
    </linearGradient>
    <linearGradient id="linear-gradient-2" x1="113.04" y1="19.65" x2="113.04" y2="65.19" gradientTransform="translate(0 170) scale(1 -1)" gradientUnits="userSpaceOnUse">
      <stop offset="0" stop-color="#fcb44b"/>
      <stop offset=".35" stop-color="#fbb24a"/>
    </linearGradient>
    <linearGradient id="linear-gradient-3" x1="171.23" y1="19.65" x2="171.23" y2="100.74" gradientTransform="translate(0 170) scale(1 -1)" gradientUnits="userSpaceOnUse">
      <stop offset="0" stop-color="#fcb44b"/>
      <stop offset=".21" stop-color="#fbb24a"/>
      <stop offset=".62" stop-color="#f09534"/>
      <stop offset="1" stop-color="#e98024"/>
    </linearGradient>
    <linearGradient id="linear-gradient-4" x1="229.41" y1="19.65" x2="229.41" y2="122.4" gradientTransform="translate(0 170) scale(1 -1)" gradientUnits="userSpaceOnUse">
      <stop offset="0" stop-color="#fcb44b"/>
      <stop offset=".33" stop-color="#fbb24a"/>
      <stop offset=".33" stop-color="#fab149"/>
      <stop offset=".44" stop-color="#f39b39"/>
      <stop offset=".55" stop-color="#ed8c2d"/>
      <stop offset=".69" stop-color="#ea8226"/>
      <stop offset=".88" stop-color="#e98024"/>
    </linearGradient>
  </defs>
  <g>
    <path class="cls-8" d="M13.1,16.87l2.38.2c-.13,1.46-.64,2.66-1.53,3.59s-2.2,1.64-3.96,2.14l-1.04-1.98c1.42-.43,2.43-.92,3.01-1.48s.96-1.38,1.14-2.47ZM22.98,11.79h-5.73v.57h4.66v1.81h-11.83v-1.81h4.66v-.57h-5.73v-1.94h5.73v-1.15h2.52v1.15h5.73v1.94h-.01ZM20.27,16.49h-8.57v1.72h-2.35v-3.53h13.27v3.38h-2.35v-1.57ZM16.46,16.95h2.44v3.23c0,.19.04.31.13.35s.34.06.76.06.64-.08.71-.25.14-.74.19-1.72l2.27.2c-.03.51-.05.92-.07,1.21-.02.3-.05.6-.12.91-.06.31-.12.53-.16.68-.05.14-.14.29-.28.45-.14.15-.28.25-.4.3-.12.05-.32.09-.59.14s-.53.07-.77.08h-1.02c-.52,0-.94,0-1.24-.02-.3-.01-.58-.04-.84-.1s-.44-.12-.56-.2c-.12-.08-.22-.2-.3-.37s-.13-.35-.15-.53-.02-.45-.02-.78v-3.64h.02Z"/>
    <path class="cls-8" d="M32.81,9.01v3.9h5.5v2.07h-5.5v5.24h6.3v2.14h-13.98v-2.14h5.18v-11.21s2.5,0,2.5,0Z"/>
    <path class="cls-8" d="M42.88,22.74c-.18,0-.68-.03-1.48-.08l-.12-1.92c.64.05,1.05.08,1.23.08.09,0,.15-.03.17-.08.02-.06.03-.24.03-.54v-1.57c-.53.11-.99.2-1.38.26l-.14-2.12c.54-.09,1.05-.18,1.52-.28v-3.29h-1.5v-2h1.5v-2.44h2.32v2.44h1.14v1.71c.61-1.26,1.15-2.75,1.61-4.46l2.27.34c-.13.57-.29,1.15-.46,1.72h1.61c.23-.72.41-1.4.54-2.06l2.13.28c-.16.77-.31,1.36-.45,1.78h1.8v1.94h-2.1v1.41h1.92v1.77h-1.92v1.41h1.92v1.78h-1.92v1.43h2.29v1.87h-6.38v.8h-2.37v-6.82l-1.51-1.44c.33-.49.61-.98.85-1.46h-.98v2.73c.12-.03.47-.13,1.04-.29l.28,2.04c-.58.17-1.02.3-1.32.38v1.89c0,.47,0,.84-.02,1.11,0,.27-.05.52-.11.75s-.13.4-.21.5-.22.19-.4.26-.38.12-.58.13c-.2.02-.48.02-.84.02l.02.02ZM50.87,13.86v-1.41h-1.83v1.41h1.83ZM50.87,17.04v-1.41h-1.83v1.41h1.83ZM50.87,18.82h-1.83v1.43h1.83v-1.43Z"/>
    <path class="cls-8" d="M57.26,12.62h1.84v-1.35c-.36.04-.88.08-1.55.12l-.2-1.86c1.79-.08,3.56-.37,5.31-.86l.58,1.74c-.56.22-1.22.39-1.98.54v1.67h1.64v1.81c1.05-.15,2.01-.43,2.86-.83-.11-.11-.29-.28-.52-.51-.24-.22-.41-.39-.52-.51-.3.17-.63.35-1.01.52l-1.14-1.52c.65-.32,1.35-.76,2.12-1.34.77-.57,1.4-1.13,1.89-1.66l1.6.95h2.67v1.63c-.52,1.37-1.45,2.51-2.78,3.41l1.11.54h2.44v1.75c-.65,1.66-1.7,3.02-3.17,4.08s-3.22,1.71-5.25,1.94l-.66-1.92c1.42-.17,2.71-.58,3.87-1.23-.26-.27-.64-.66-1.15-1.17-.46.27-.99.53-1.58.8l-.78-1.14-.75.57c-.2-.42-.49-1.04-.88-1.86v5.85h-2.17v-4.04c-.31.82-.67,1.52-1.08,2.09l-1.12-2.04c1.04-1.37,1.77-2.77,2.2-4.19v-.02h-1.84v-1.98.02ZM61.72,14.6c.88,1.52,1.43,2.46,1.64,2.83,1.04-.51,2.01-1.14,2.9-1.87-.92.39-1.95.68-3.07.86l-.68-1.81h-.8,0ZM67.43,12.56c.5-.41.93-.87,1.27-1.38h-1.98c-.08.07-.21.18-.4.32.08.08.2.2.35.34s.29.27.42.39c.12.12.24.23.34.33h0ZM68.06,18.55c.51-.48.96-1.04,1.34-1.67h-1.74c-.08.07-.21.17-.38.31-.17.13-.27.21-.3.23.49.51.85.89,1.08,1.14h0Z"/>
  </g>
  <g class="cls-11">
    <g>
      <line class="cls-2" x1="258.51" y1="140.84" x2="257.55" y2="140.84"/>
      <line class="cls-1" x1="253.68" y1="140.84" x2="29.02" y2="140.84"/>
      <line class="cls-2" x1="27.08" y1="140.84" x2="26.12" y2="140.84"/>
    </g>
  </g>
  <g class="cls-11">
    <g>
      <line class="cls-2" x1="258.51" y1="131.24" x2="257.55" y2="131.24"/>
      <line class="cls-1" x1="253.68" y1="131.24" x2="29.02" y2="131.24"/>
      <line class="cls-2" x1="27.08" y1="131.24" x2="26.12" y2="131.24"/>
    </g>
  </g>
  <g class="cls-11">
    <g>
      <line class="cls-2" x1="258.51" y1="121.64" x2="257.55" y2="121.64"/>
      <line class="cls-1" x1="253.68" y1="121.64" x2="29.02" y2="121.64"/>
      <line class="cls-2" x1="27.08" y1="121.64" x2="26.12" y2="121.64"/>
    </g>
  </g>
  <g class="cls-11">
    <g>
      <line class="cls-2" x1="258.51" y1="112.04" x2="257.55" y2="112.04"/>
      <line class="cls-1" x1="253.68" y1="112.04" x2="29.02" y2="112.04"/>
      <line class="cls-2" x1="27.08" y1="112.04" x2="26.12" y2="112.04"/>
    </g>
  </g>
  <line class="cls-2" x1="258.51" y1="102.44" x2="26.12" y2="102.44"/>
  <g class="cls-11">
    <g>
      <line class="cls-2" x1="258.51" y1="92.84" x2="257.55" y2="92.84"/>
      <line class="cls-1" x1="253.68" y1="92.84" x2="29.02" y2="92.84"/>
      <line class="cls-2" x1="27.08" y1="92.84" x2="26.12" y2="92.84"/>
    </g>
  </g>
  <g class="cls-11">
    <g>
      <line class="cls-2" x1="258.51" y1="83.24" x2="257.55" y2="83.24"/>
      <line class="cls-1" x1="253.68" y1="83.24" x2="29.02" y2="83.24"/>
      <line class="cls-2" x1="27.08" y1="83.24" x2="26.12" y2="83.24"/>
    </g>
  </g>
  <g class="cls-11">
    <g>
      <line class="cls-2" x1="258.51" y1="73.64" x2="257.55" y2="73.64"/>
      <line class="cls-1" x1="253.68" y1="73.64" x2="29.02" y2="73.64"/>
      <line class="cls-2" x1="27.08" y1="73.64" x2="26.12" y2="73.64"/>
    </g>
  </g>
  <g class="cls-11">
    <g>
      <line class="cls-2" x1="258.51" y1="64.04" x2="257.55" y2="64.04"/>
      <line class="cls-1" x1="253.68" y1="64.04" x2="29.02" y2="64.04"/>
      <line class="cls-2" x1="27.08" y1="64.04" x2="26.12" y2="64.04"/>
    </g>
  </g>
  <line class="cls-2" x1="258.51" y1="54.45" x2="26.12" y2="54.45"/>
  <path class="cls-4" d="M20.76,144.38H2.18c-1.16,0-2.11.94-2.11,2.11v7.9c0,1.16.94,2.11,2.11,2.11h18.58c.64,0,1.25-.29,1.65-.79l4.19-5.26-4.19-5.26c-.4-.5-1.01-.79-1.65-.79v-.02Z"/>
  <path class="cls-10" d="M10.43,148.58c.32-.39.81-.59,1.47-.59s1.15.2,1.47.59c.32.39.48,1.04.48,1.93s-.16,1.53-.48,1.93c-.32.39-.81.59-1.47.59s-1.15-.2-1.47-.59c-.32-.39-.48-1.04-.48-1.93s.16-1.54.48-1.93ZM11.31,151.79c.13.25.33.37.59.37s.47-.12.59-.37.19-.67.19-1.28-.06-1.04-.19-1.28c-.13-.25-.33-.37-.59-.37s-.47.12-.59.37c-.13.25-.19.67-.19,1.28s.06,1.04.19,1.28Z"/>
  <g>
    <path class="cls-10" d="M17.55,165.4c.88-.68,1.46-1.18,1.74-1.51s.42-.66.42-.97c0-.41-.23-.62-.69-.62-.37,0-.8.16-1.3.48l-.29-.91c.23-.15.51-.28.83-.37.33-.1.63-.14.93-.14.54,0,.96.13,1.25.39s.44.62.44,1.07c0,.39-.12.77-.37,1.13s-.74.84-1.46,1.45h1.86v.93h-3.36v-.92h0Z"/>
    <path class="cls-10" d="M22.11,161.94c.32-.39.81-.59,1.47-.59s1.15.2,1.47.59.48,1.04.48,1.93-.16,1.53-.48,1.93c-.32.39-.81.59-1.47.59s-1.15-.2-1.47-.59-.48-1.04-.48-1.93.16-1.54.48-1.93ZM22.99,165.15c.13.25.33.37.59.37s.47-.12.59-.37c.13-.25.19-.67.19-1.28s-.06-1.04-.19-1.28c-.13-.25-.33-.37-.59-.37s-.47.12-.59.37c-.13.25-.19.67-.19,1.28s.06,1.04.19,1.28Z"/>
    <path class="cls-10" d="M27.66,166.32v-3.58h-.01l-1.09,1.01-.36-.97,1.46-1.36h1.18v4.91h-1.18Z"/>
    <path class="cls-10" d="M33.22,161.35l.2.92c-.47,0-.85.1-1.13.27-.28.16-.5.41-.64.74h0c.29-.17.6-.25.95-.25.52,0,.92.14,1.2.41s.42.68.42,1.21-.17.95-.52,1.27c-.35.32-.8.48-1.37.48s-1.05-.17-1.39-.5c-.34-.34-.51-.82-.51-1.46,0-.94.25-1.68.75-2.23s1.18-.83,2.04-.85h0ZM32.33,165.56c.25,0,.45-.08.58-.23.14-.16.21-.39.21-.69,0-.27-.07-.48-.21-.63-.14-.15-.33-.22-.58-.22s-.43.08-.58.23c-.14.15-.21.36-.21.62,0,.3.07.52.21.68.14.16.33.24.58.24h0Z"/>
  </g>
  <g>
    <path class="cls-10" d="M46.65,165.4c.88-.68,1.46-1.18,1.74-1.51s.42-.66.42-.97c0-.41-.23-.62-.69-.62-.37,0-.8.16-1.3.48l-.29-.91c.23-.15.51-.28.83-.37.33-.1.63-.14.93-.14.54,0,.96.13,1.25.39s.44.62.44,1.07c0,.39-.12.77-.37,1.13s-.74.84-1.46,1.45h1.86v.93h-3.36v-.92h0Z"/>
    <path class="cls-10" d="M51.21,161.94c.32-.39.81-.59,1.47-.59s1.15.2,1.47.59.48,1.04.48,1.93-.16,1.53-.48,1.93c-.32.39-.81.59-1.47.59s-1.15-.2-1.47-.59-.48-1.04-.48-1.93.16-1.54.48-1.93ZM52.08,165.15c.13.25.33.37.59.37s.47-.12.59-.37c.13-.25.19-.67.19-1.28s-.06-1.04-.19-1.28c-.13-.25-.33-.37-.59-.37s-.47.12-.59.37c-.13.25-.19.67-.19,1.28s.06,1.04.19,1.28Z"/>
    <path class="cls-10" d="M56.75,166.32v-3.58h0l-1.09,1.01-.36-.97,1.46-1.36h1.18v4.91h-1.18Z"/>
    <path class="cls-10" d="M59.7,161.42h3.45v.92c-.38.63-.7,1.25-.97,1.85s-.54,1.32-.81,2.13h-1.22c.53-1.45,1.18-2.77,1.93-3.96v-.03h-2.37v-.92h0Z"/>
  </g>
  <g>
    <path class="cls-10" d="M75.74,165.4c.88-.68,1.46-1.18,1.74-1.51s.42-.66.42-.97c0-.41-.23-.62-.69-.62-.37,0-.8.16-1.3.48l-.29-.91c.23-.15.51-.28.83-.37.33-.1.63-.14.93-.14.54,0,.96.13,1.25.39s.44.62.44,1.07c0,.39-.12.77-.37,1.13s-.74.84-1.46,1.45h1.86v.93h-3.36v-.92h0Z"/>
    <path class="cls-10" d="M80.3,161.94c.32-.39.81-.59,1.47-.59s1.15.2,1.47.59.48,1.04.48,1.93-.16,1.53-.48,1.93c-.32.39-.81.59-1.47.59s-1.15-.2-1.47-.59-.48-1.04-.48-1.93.16-1.54.48-1.93ZM81.18,165.15c.13.25.33.37.59.37s.47-.12.59-.37c.13-.25.19-.67.19-1.28s-.06-1.04-.19-1.28c-.13-.25-.33-.37-.59-.37s-.47.12-.59.37c-.13.25-.19.67-.19,1.28s.06,1.04.19,1.28Z"/>
    <path class="cls-10" d="M85.85,166.32v-3.58h-.01l-1.09,1.01-.36-.97,1.46-1.36h1.18v4.91h-1.18Z"/>
    <path class="cls-10" d="M89.18,161.7c.32-.24.76-.35,1.32-.35s1.01.12,1.32.35c.32.23.48.54.48.9,0,.43-.28.78-.83,1.06h0c.65.28.98.71.98,1.31,0,.43-.17.77-.51,1.03-.34.25-.82.38-1.44.38s-1.09-.13-1.43-.38c-.34-.26-.51-.6-.51-1.03,0-.49.31-.88.93-1.17h0c-.52-.3-.79-.7-.79-1.2,0-.37.16-.67.48-.9ZM90.39,164.16c-.27.11-.46.22-.56.34-.11.12-.16.26-.16.42,0,.19.08.35.24.48.16.13.36.19.6.19s.45-.06.6-.19c.16-.12.23-.28.23-.48,0-.18-.06-.32-.19-.43-.12-.11-.38-.22-.76-.34h0ZM90.55,163.38c.25-.09.42-.19.52-.29.1-.11.16-.23.16-.37,0-.17-.07-.3-.2-.41s-.31-.16-.53-.16-.39.05-.52.16-.19.24-.19.41c0,.14.06.27.17.38s.31.2.59.29h0Z"/>
  </g>
  <g>
    <path class="cls-10" d="M104.84,165.4c.88-.68,1.46-1.18,1.74-1.51s.42-.66.42-.97c0-.41-.23-.62-.69-.62-.37,0-.8.16-1.3.48l-.29-.91c.23-.15.5-.28.83-.37.32-.1.63-.14.93-.14.54,0,.96.13,1.25.39s.44.62.44,1.07c0,.39-.12.77-.37,1.13s-.74.84-1.46,1.45h1.86v.93h-3.36v-.92h0Z"/>
    <path class="cls-10" d="M109.39,161.94c.32-.39.81-.59,1.47-.59s1.15.2,1.47.59.48,1.04.48,1.93-.16,1.53-.48,1.93c-.32.39-.81.59-1.47.59s-1.15-.2-1.47-.59-.48-1.04-.48-1.93.16-1.54.48-1.93ZM110.27,165.15c.13.25.33.37.59.37s.47-.12.59-.37.19-.67.19-1.28-.06-1.04-.19-1.28c-.13-.25-.33-.37-.59-.37s-.47.12-.59.37c-.13.25-.19.67-.19,1.28s.06,1.04.19,1.28Z"/>
    <path class="cls-10" d="M114.94,166.32v-3.58h-.01l-1.09,1.01-.36-.97,1.46-1.36h1.18v4.91h-1.18Z"/>
    <path class="cls-10" d="M118.42,165.47c.5-.02.89-.11,1.18-.27s.51-.4.65-.74h0c-.29.17-.6.25-.95.25-.52,0-.92-.14-1.2-.42s-.42-.69-.42-1.24c0-.51.17-.92.52-1.24s.81-.48,1.37-.48,1.05.17,1.39.5.5.81.5,1.42c0,.96-.26,1.72-.77,2.26s-1.21.83-2.08.85l-.2-.92v.03ZM119.58,162.18c-.25,0-.45.08-.59.23s-.21.37-.21.66.07.5.22.66c.14.15.34.23.58.23s.43-.08.58-.23c.14-.16.21-.37.21-.66s-.07-.5-.21-.66-.33-.23-.58-.23Z"/>
  </g>
  <g>
    <path class="cls-10" d="M133.93,165.4c.88-.68,1.46-1.18,1.74-1.51s.42-.66.42-.97c0-.41-.23-.62-.69-.62-.37,0-.8.16-1.3.48l-.29-.91c.23-.15.5-.28.83-.37.32-.1.63-.14.93-.14.54,0,.96.13,1.25.39s.44.62.44,1.07c0,.39-.12.77-.37,1.13s-.74.84-1.46,1.45h1.86v.93h-3.36v-.92h0Z"/>
    <path class="cls-10" d="M138.49,161.94c.32-.39.81-.59,1.47-.59s1.15.2,1.47.59.48,1.04.48,1.93-.16,1.53-.48,1.93c-.32.39-.81.59-1.47.59s-1.15-.2-1.47-.59-.48-1.04-.48-1.93.16-1.54.48-1.93ZM139.36,165.15c.13.25.33.37.59.37s.47-.12.59-.37.19-.67.19-1.28-.06-1.04-.19-1.28c-.13-.25-.33-.37-.59-.37s-.47.12-.59.37c-.13.25-.19.67-.19,1.28s.06,1.04.19,1.28Z"/>
    <path class="cls-10" d="M142.66,165.4c.88-.68,1.46-1.18,1.74-1.51s.42-.66.42-.97c0-.41-.23-.62-.69-.62-.37,0-.8.16-1.3.48l-.29-.91c.23-.15.5-.28.83-.37.32-.1.63-.14.93-.14.54,0,.96.13,1.25.39s.44.62.44,1.07c0,.39-.12.77-.37,1.13s-.74.84-1.46,1.45h1.86v.93h-3.36v-.92h0Z"/>
    <path class="cls-10" d="M147.22,161.94c.32-.39.81-.59,1.47-.59s1.15.2,1.47.59.48,1.04.48,1.93-.16,1.53-.48,1.93c-.32.39-.81.59-1.47.59s-1.15-.2-1.47-.59-.48-1.04-.48-1.93.16-1.54.48-1.93ZM148.1,165.15c.13.25.33.37.59.37s.47-.12.59-.37.19-.67.19-1.28-.06-1.04-.19-1.28c-.13-.25-.33-.37-.59-.37s-.47.12-.59.37c-.13.25-.19.67-.19,1.28s.06,1.04.19,1.28Z"/>
  </g>
  <g>
    <path class="cls-10" d="M163.02,165.4c.88-.68,1.46-1.18,1.74-1.51s.42-.66.42-.97c0-.41-.23-.62-.69-.62-.37,0-.8.16-1.3.48l-.29-.91c.23-.15.5-.28.83-.37.32-.1.63-.14.93-.14.54,0,.96.13,1.25.39s.44.62.44,1.07c0,.39-.12.77-.37,1.13s-.74.84-1.46,1.45h1.86v.93h-3.36v-.92h0Z"/>
    <path class="cls-10" d="M167.58,161.94c.32-.39.81-.59,1.47-.59s1.15.2,1.47.59.48,1.04.48,1.93-.16,1.53-.48,1.93c-.32.39-.81.59-1.47.59s-1.15-.2-1.47-.59-.48-1.04-.48-1.93.16-1.54.48-1.93ZM168.46,165.15c.13.25.33.37.59.37s.47-.12.59-.37.19-.67.19-1.28-.06-1.04-.19-1.28c-.13-.25-.33-.37-.59-.37s-.47.12-.59.37c-.13.25-.19.67-.19,1.28s.06,1.04.19,1.28Z"/>
    <path class="cls-10" d="M171.76,165.4c.88-.68,1.46-1.18,1.74-1.51s.42-.66.42-.97c0-.41-.23-.62-.69-.62-.37,0-.8.16-1.3.48l-.29-.91c.23-.15.5-.28.83-.37.32-.1.63-.14.93-.14.54,0,.96.13,1.25.39s.44.62.44,1.07c0,.39-.12.77-.37,1.13s-.74.84-1.46,1.45h1.86v.93h-3.36v-.92h0Z"/>
    <path class="cls-10" d="M177.5,166.32v-3.58h0l-1.09,1.01-.36-.97,1.46-1.36h1.18v4.91h-1.18Z"/>
  </g>
  <g>
    <path class="cls-10" d="M192.12,165.4c.88-.68,1.46-1.18,1.74-1.51s.42-.66.42-.97c0-.41-.23-.62-.69-.62-.37,0-.8.16-1.3.48l-.29-.91c.23-.15.51-.28.83-.37.33-.1.63-.14.93-.14.54,0,.96.13,1.25.39s.44.62.44,1.07c0,.39-.12.77-.37,1.13s-.74.84-1.46,1.45h1.86v.93h-3.36v-.92h0Z"/>
    <path class="cls-10" d="M196.68,161.94c.32-.39.81-.59,1.47-.59s1.15.2,1.47.59.48,1.04.48,1.93-.16,1.53-.48,1.93c-.32.39-.81.59-1.47.59s-1.15-.2-1.47-.59-.48-1.04-.48-1.93.16-1.54.48-1.93ZM197.55,165.15c.13.25.33.37.59.37s.47-.12.59-.37c.13-.25.19-.67.19-1.28s-.06-1.04-.19-1.28c-.13-.25-.33-.37-.59-.37s-.47.12-.59.37c-.13.25-.19.67-.19,1.28s.06,1.04.19,1.28Z"/>
    <path class="cls-10" d="M200.85,165.4c.88-.68,1.46-1.18,1.74-1.51s.42-.66.42-.97c0-.41-.23-.62-.69-.62-.37,0-.8.16-1.3.48l-.29-.91c.23-.15.51-.28.83-.37.33-.1.63-.14.93-.14.54,0,.96.13,1.25.39s.44.62.44,1.07c0,.39-.12.77-.37,1.13s-.74.84-1.46,1.45h1.86v.93h-3.36v-.92h0Z"/>
    <path class="cls-10" d="M205.22,165.4c.88-.68,1.46-1.18,1.74-1.51s.42-.66.42-.97c0-.41-.23-.62-.69-.62-.37,0-.8.16-1.3.48l-.29-.91c.23-.15.5-.28.83-.37.32-.1.63-.14.93-.14.54,0,.96.13,1.25.39s.44.62.44,1.07c0,.39-.12.77-.37,1.13s-.74.84-1.46,1.45h1.86v.93h-3.36v-.92h0Z"/>
  </g>
  <g>
    <path class="cls-10" d="M221.21,165.4c.88-.68,1.46-1.18,1.74-1.51s.42-.66.42-.97c0-.41-.23-.62-.69-.62-.37,0-.8.16-1.3.48l-.29-.91c.23-.15.51-.28.83-.37.33-.1.63-.14.93-.14.54,0,.96.13,1.25.39s.44.62.44,1.07c0,.39-.12.77-.37,1.13s-.74.84-1.46,1.45h1.86v.93h-3.36v-.92h0Z"/>
    <path class="cls-10" d="M225.77,161.94c.32-.39.81-.59,1.47-.59s1.15.2,1.47.59.48,1.04.48,1.93-.16,1.53-.48,1.93c-.32.39-.81.59-1.47.59s-1.15-.2-1.47-.59-.48-1.04-.48-1.93.16-1.54.48-1.93ZM226.64,165.15c.13.25.33.37.59.37s.47-.12.59-.37c.13-.25.19-.67.19-1.28s-.06-1.04-.19-1.28c-.13-.25-.33-.37-.59-.37s-.47.12-.59.37c-.13.25-.19.67-.19,1.28s.06,1.04.19,1.28Z"/>
    <path class="cls-10" d="M229.94,165.4c.88-.68,1.46-1.18,1.74-1.51s.42-.66.42-.97c0-.41-.23-.62-.69-.62-.37,0-.8.16-1.3.48l-.29-.91c.23-.15.51-.28.83-.37.33-.1.63-.14.93-.14.54,0,.96.13,1.25.39s.44.62.44,1.07c0,.39-.12.77-.37,1.13s-.74.84-1.46,1.45h1.86v.93h-3.36v-.92h0Z"/>
    <path class="cls-10" d="M234.29,161.42h3.27v.92l-1.31,1.08h.09c.39,0,.7.13.94.37s.35.57.35.98c0,.52-.16.92-.48,1.2-.32.28-.77.42-1.37.42s-1.09-.13-1.56-.38l.28-.87c.45.23.85.35,1.18.35.26,0,.46-.06.61-.18s.21-.29.21-.5-.09-.38-.26-.47-.49-.14-.96-.14h-.34v-.77l1.24-1.07h-1.9v-.93h0Z"/>
  </g>
  <g>
    <path class="cls-10" d="M250.3,165.4c.88-.68,1.46-1.18,1.74-1.51s.42-.66.42-.97c0-.41-.23-.62-.69-.62-.37,0-.8.16-1.3.48l-.29-.91c.23-.15.5-.28.83-.37.32-.1.63-.14.93-.14.54,0,.96.13,1.25.39s.44.62.44,1.07c0,.39-.12.77-.37,1.13s-.74.84-1.46,1.45h1.86v.93h-3.36v-.92h0Z"/>
    <path class="cls-10" d="M254.86,161.94c.32-.39.81-.59,1.47-.59s1.15.2,1.47.59.48,1.04.48,1.93-.16,1.53-.48,1.93c-.32.39-.81.59-1.47.59s-1.15-.2-1.47-.59-.48-1.04-.48-1.93.16-1.54.48-1.93h0ZM255.74,165.15c.13.25.33.37.59.37s.47-.12.59-.37.19-.67.19-1.28-.06-1.04-.19-1.28c-.13-.25-.33-.37-.59-.37s-.47.12-.59.37c-.13.25-.19.67-.19,1.28s.06,1.04.19,1.28h0Z"/>
    <path class="cls-10" d="M259.04,165.4c.88-.68,1.46-1.18,1.74-1.51s.42-.66.42-.97c0-.41-.23-.62-.69-.62-.37,0-.8.16-1.3.48l-.29-.91c.23-.15.5-.28.83-.37.32-.1.63-.14.93-.14.54,0,.96.13,1.25.39s.44.62.44,1.07c0,.39-.12.77-.37,1.13s-.74.84-1.46,1.45h1.86v.93h-3.36v-.92h0Z"/>
    <path class="cls-10" d="M266.23,164.49h.71v.89h-.71v.94h-1.09v-.94h-2.18v-.89l2.18-3.07h1.09v3.07ZM265.14,164.49v-1.69h-.01l-1.16,1.67h1.18s0,.02,0,.02Z"/>
  </g>
  <path class="cls-8" d="M253.49,9.53v28.63c0,1.16-.95,2.11-2.11,2.11h-18.71c-.37,0-.72.17-.94.47l-1.51,2.02c-.39.53-1.2.53-1.59,0l-1.52-2.02c-.22-.29-.57-.47-.94-.47h-18.71c-1.16,0-2.1-.94-2.1-2.1V9.52c0-1.16.94-2.1,2.1-2.1h43.92c1.16,0,2.11.95,2.11,2.11h0Z"/>
  <g>
    <path class="cls-9" d="M212.42,23.03c1.94-1.48,3.21-2.59,3.83-3.33.61-.73.92-1.44.92-2.13,0-.9-.5-1.36-1.5-1.36-.81,0-1.76.35-2.86,1.06l-.63-2c.5-.33,1.11-.61,1.82-.82s1.39-.32,2.04-.32c1.19,0,2.1.28,2.74.85.64.57.96,1.35.96,2.35,0,.87-.27,1.69-.82,2.48-.55.79-1.61,1.85-3.21,3.18v.03h4.08v2.02h-7.37v-2.02h0Z"/>
    <path class="cls-9" d="M222.74,23.03c1.94-1.48,3.21-2.59,3.83-3.33.61-.73.92-1.44.92-2.13,0-.9-.5-1.36-1.5-1.36-.81,0-1.76.35-2.86,1.06l-.63-2c.5-.33,1.11-.61,1.82-.82s1.39-.32,2.04-.32c1.19,0,2.1.28,2.74.85.64.57.96,1.35.96,2.35,0,.87-.27,1.69-.82,2.48-.55.79-1.61,1.85-3.21,3.18v.03h4.08v2.02h-7.37v-2.02h0Z"/>
    <path class="cls-9" d="M233.18,25.05v-2.8h2.8v2.8h-2.8Z"/>
    <path class="cls-9" d="M244.76,14.14l.44,2.02c-1.03.03-1.86.22-2.48.58s-1.09.9-1.4,1.62h0c.63-.37,1.32-.56,2.08-.56,1.14,0,2.02.3,2.62.91.61.6.91,1.49.91,2.66s-.38,2.09-1.14,2.79-1.76,1.05-3,1.05-2.3-.37-3.04-1.11-1.11-1.8-1.11-3.2c0-2.05.55-3.68,1.64-4.89,1.09-1.2,2.58-1.83,4.47-1.87h0ZM242.81,23.38c.55,0,.98-.17,1.28-.52.3-.34.46-.84.46-1.5,0-.59-.15-1.05-.46-1.38-.3-.33-.73-.49-1.28-.49s-.95.17-1.27.5-.47.79-.47,1.37c0,.65.15,1.15.46,1.5.31.35.74.52,1.28.52Z"/>
  </g>
  <g>
    <path class="cls-9" d="M224.13,33.93c.16-.24.29-.51.4-.81l.65.3c-.16.48-.39.91-.7,1.29l-.35-.24v.34h-.81v-2.71c-.11.21-.23.39-.34.54l-.24-1.11c.53-.78.88-1.73,1.07-2.84l.81.1c-.1.7-.26,1.34-.49,1.91v3.22h0ZM224.38,30.87v-.67h.97c-.08-.15-.16-.29-.23-.41h-.49v-.69h1.68v-.5h.91v.5h1.84v.69h-.73c-.07.16-.14.29-.2.41h1.05v.67h-4.8ZM229.35,34.37l-.67.33c-.14-.31-.3-.62-.48-.94-.03.42-.09.69-.18.8s-.29.18-.59.21c-.26.02-.51.03-.75.03-.3,0-.55,0-.74-.02-.33-.02-.54-.07-.62-.16s-.12-.3-.12-.64v-.72h.83v.53c0,.14,0,.23.03.26s.07.05.15.06c.11,0,.26.02.46.02.18,0,.34,0,.46-.02.15,0,.24-.05.27-.1s.06-.2.08-.45l.69.13-.22-.36.62-.31h-1.6c.21.17.38.32.5.44l-.45.54c-.27-.27-.58-.52-.93-.76l.2-.22h-1.74v-1.96h4.37v1.96h-.26c.27.46.51.91.7,1.35h-.01ZM225.44,31.79h2.58v-.2h-2.58v.2ZM225.44,32.28v.22h2.58v-.22h-2.58ZM227.22,30.21c.13-.21.21-.35.23-.41h-1.4s.09.18.21.41h.96Z"/>
    <path class="cls-9" d="M229.99,28.96h5.58v5c0,.11-.02.2-.05.3s-.06.16-.1.2c-.04.04-.1.08-.19.1s-.18.05-.28.05h-.41c-.08,0-.45,0-1.1-.03l-.05-.76c.59.02.91.03.97.03.17,0,.26,0,.29-.04.03-.03.04-.12.04-.28v-1.39h-3.79v2.49h-.89v-5.68h-.02ZM232.34,29.72h-1.46v1.7h1.46v-1.7ZM233.22,29.72v1.7h1.46v-1.7h-1.46Z"/>
  </g>
  <path class="cls-3" d="M48.57,135.12h12.53c1.13,0,2.04.91,2.04,2.04v13.19h-16.61v-13.19c0-1.13.91-2.04,2.04-2.04Z"/>
  <path class="cls-6" d="M106.78,104.81h12.53c1.13,0,2.04.91,2.04,2.04v43.5h-16.61v-43.5c0-1.13.91-2.04,2.04-2.04Z"/>
  <path class="cls-7" d="M164.97,69.26h12.53c1.13,0,2.04.91,2.04,2.04v79.05h-16.61v-79.05c0-1.13.91-2.04,2.04-2.04h0Z"/>
  <path class="cls-5" d="M223.15,47.6h12.53c1.13,0,2.04.91,2.04,2.04v100.71h-16.61V49.64c0-1.13.91-2.04,2.04-2.04h0Z"/>
  <line class="cls-2" x1="258.51" y1="150.44" x2="26.12" y2="150.44"/>
  <path class="cls-10" d="M68.37,119.09v7.89c0,1.16-.95,2.11-2.11,2.11h-8.15c-.37,0-.72.17-.94.47l-1.51,2.02c-.39.53-1.2.53-1.59,0l-1.52-2.02c-.22-.29-.57-.47-.94-.47h-8.15c-1.16,0-2.1-.94-2.1-2.1v-7.91c0-1.16.94-2.1,2.1-2.1h22.8c1.16,0,2.11.95,2.11,2.11Z"/>
  <path class="cls-9" d="M53.18,120.65h3.27v.92l-1.31,1.08h.09c.39.01.7.13.94.37s.35.57.35.98c0,.52-.16.92-.48,1.2s-.77.42-1.37.42-1.09-.13-1.56-.38l.28-.87c.45.23.85.35,1.18.35.26,0,.46-.06.61-.18s.21-.29.21-.5-.09-.38-.26-.47-.49-.14-.96-.14h-.34v-.77l1.24-1.07h-1.9v-.93h.01Z"/>
  <path class="cls-10" d="M126.55,88.38v7.89c0,1.16-.95,2.11-2.11,2.11h-8.15c-.37,0-.72.17-.94.47l-1.51,2.02c-.39.53-1.2.53-1.59,0l-1.52-2.02c-.22-.29-.57-.47-.94-.47h-8.15c-1.16,0-2.1-.94-2.1-2.1v-7.91c0-1.16.94-2.1,2.1-2.1h22.8c1.16,0,2.11.95,2.11,2.11Z"/>
  <g>
    <path class="cls-9" d="M108.47,93.99c.5-.02.89-.11,1.18-.27.29-.16.51-.4.65-.74h0c-.29.17-.6.25-.95.25-.52,0-.92-.14-1.2-.42s-.42-.69-.42-1.24c0-.51.17-.92.52-1.24s.81-.48,1.37-.48,1.05.17,1.39.5c.33.34.5.81.5,1.42,0,.96-.25,1.72-.77,2.26s-1.21.83-2.08.85l-.2-.92v.03ZM109.63,90.69c-.25,0-.45.08-.59.23s-.21.37-.21.66.07.5.21.66c.14.15.34.23.58.23s.43-.08.57-.23c.14-.16.21-.37.21-.66s-.07-.5-.21-.66c-.14-.15-.33-.23-.58-.23h.02Z"/>
    <path class="cls-9" d="M112.41,94.84v-1.28h1.28v1.28h-1.28Z"/>
    <path class="cls-9" d="M117.96,90.86h-1.96l-.05.91h.01c.21-.09.42-.13.65-.13.5,0,.89.13,1.16.4s.41.65.41,1.14c0,1.16-.69,1.73-2.06,1.73-.5,0-.97-.09-1.41-.28l.23-.91c.44.19.82.28,1.13.28.66,0,.99-.28.99-.83,0-.45-.22-.67-.67-.67-.2,0-.39.08-.58.25h-.97l.13-2.82h2.99v.92h0Z"/>
  </g>
  <path class="cls-10" d="M184.74,53.46v7.89c0,1.16-.95,2.11-2.11,2.11h-8.15c-.37,0-.72.17-.94.47l-1.51,2.02c-.39.53-1.2.53-1.59,0l-1.52-2.02c-.22-.29-.57-.47-.94-.47h-8.15c-1.16,0-2.1-.94-2.1-2.1v-7.91c0-1.16.94-2.1,2.1-2.1h22.8c1.16,0,2.11.95,2.11,2.11h0Z"/>
  <g>
    <path class="cls-9" d="M165.36,59.92v-3.58h0l-1.09,1.01-.36-.97,1.46-1.36h1.18v4.91h-1.18Z"/>
    <path class="cls-9" d="M170.92,54.95l.2.92c-.47,0-.85.1-1.13.27-.28.16-.5.41-.64.74h0c.29-.17.6-.25.95-.25.52,0,.92.14,1.2.41s.42.68.42,1.21-.17.95-.52,1.27-.8.48-1.37.48-1.05-.17-1.39-.5c-.34-.34-.51-.82-.51-1.46,0-.94.25-1.68.75-2.23s1.18-.83,2.04-.85h0ZM170.03,59.16c.25,0,.45-.08.58-.23.14-.16.21-.39.21-.69,0-.27-.07-.48-.21-.63s-.33-.22-.58-.22-.43.08-.58.23c-.14.15-.21.36-.21.62,0,.3.07.52.21.68s.33.24.58.24Z"/>
    <path class="cls-9" d="M172.78,59.92v-1.28h1.28v1.28h-1.28Z"/>
    <path class="cls-9" d="M175.49,55.3c.32-.24.76-.35,1.32-.35s1.01.12,1.32.35c.32.23.48.54.48.9,0,.43-.28.78-.83,1.06h0c.65.28.98.71.98,1.31,0,.43-.17.77-.51,1.03-.34.25-.82.38-1.43.38s-1.09-.13-1.43-.38c-.34-.26-.51-.6-.51-1.03,0-.49.31-.88.93-1.17h0c-.52-.3-.79-.7-.79-1.2,0-.37.16-.67.48-.9h-.01ZM176.7,57.76c-.27.11-.46.22-.56.34s-.16.26-.16.42c0,.19.08.35.24.48s.36.19.6.19.45-.06.6-.19c.15-.12.23-.28.23-.48,0-.18-.06-.32-.19-.43s-.38-.22-.76-.34h0ZM176.86,56.98c.25-.09.42-.19.52-.29.1-.11.15-.23.15-.37,0-.17-.06-.3-.19-.41s-.31-.16-.53-.16-.39.05-.52.16-.19.24-.19.41c0,.14.06.27.17.38s.31.2.59.29h0Z"/>
  </g>
  <path class="cls-4" d="M20.77,48.4H2.2c-1.16,0-2.11.94-2.11,2.11v7.9c0,1.16.94,2.11,2.11,2.11h18.58c.64,0,1.25-.29,1.65-.79l4.19-5.26-4.19-5.26c-.4-.5-1.01-.79-1.65-.79v-.02Z"/>
  <g>
    <path class="cls-10" d="M2.8,55.92c.88-.68,1.46-1.18,1.74-1.51s.42-.66.42-.97c0-.41-.23-.62-.69-.62-.37,0-.8.16-1.3.48l-.29-.91c.23-.15.51-.28.83-.37.33-.1.63-.14.93-.14.54,0,.96.13,1.25.39s.44.62.44,1.07c0,.39-.12.77-.37,1.13s-.74.84-1.46,1.45h1.86v.93h-3.36v-.92h0Z"/>
    <path class="cls-10" d="M7.36,52.46c.32-.39.81-.59,1.47-.59s1.15.2,1.47.59c.32.39.48,1.04.48,1.93s-.16,1.53-.48,1.93c-.32.39-.81.59-1.47.59s-1.15-.2-1.47-.59-.48-1.04-.48-1.93.16-1.54.48-1.93ZM8.23,55.67c.13.25.33.37.59.37s.47-.12.59-.37c.13-.25.19-.67.19-1.28s-.06-1.04-.19-1.28c-.13-.25-.33-.37-.59-.37s-.47.12-.59.37c-.13.25-.19.67-.19,1.28s.06,1.04.19,1.28Z"/>
  </g>
  <g>
    <path class="cls-10" d="M12.89,56.01c.11-.16.2-.34.27-.54l.43.2c-.11.32-.26.61-.47.86l-.23-.16v.23h-.54v-1.81c-.08.14-.15.26-.23.36l-.16-.74c.35-.52.59-1.16.72-1.9l.54.07c-.07.47-.18.9-.33,1.28v2.16h0ZM13.06,53.96v-.45h.65c-.05-.1-.11-.19-.15-.27h-.33v-.46h1.12v-.34h.61v.34h1.23v.46h-.49c-.05.11-.09.2-.13.27h.7v.45h-3.22.01ZM16.39,56.3l-.45.22c-.09-.21-.2-.42-.32-.63-.02.28-.06.46-.12.54-.06.08-.19.12-.4.14-.17,0-.34.02-.5.02-.2,0-.37,0-.5,0-.22,0-.36-.05-.41-.11s-.08-.2-.08-.43v-.48h.55v.36c0,.1,0,.15.02.18.01.02.05.03.1.04.07,0,.17,0,.31,0,.12,0,.22,0,.31,0,.1,0,.16-.03.18-.07.02-.03.04-.13.05-.3l.46.09-.15-.24.41-.21h-1.07c.14.11.25.21.34.3l-.3.36c-.18-.18-.39-.35-.62-.51l.13-.15h-1.17v-1.31h2.93v1.31h-.18c.18.31.34.61.47.9h0ZM13.78,54.58h1.73v-.13h-1.73s0,.13,0,.13ZM13.78,54.9v.15h1.73v-.15h-1.73ZM14.96,53.51c.09-.14.14-.24.16-.27h-.94s.06.12.14.27c0,0,.64,0,.64,0Z"/>
    <path class="cls-10" d="M16.82,52.68h3.74v3.35c0,.07-.02.14-.04.2s-.04.11-.07.13c-.03.03-.07.05-.13.07s-.12.03-.19.04h-.28s-.3,0-.73-.02l-.03-.51c.4,0,.61.02.65.02.11,0,.18,0,.2-.03.02-.02.03-.08.03-.18v-.93h-2.54v1.67h-.6v-3.81h-.01ZM18.4,53.19h-.98v1.14h.98v-1.14ZM18.98,53.19v1.14h.98v-1.14h-.98Z"/>
  </g>
  <path class="cls-4" d="M20.77,96.47H2.2c-1.16,0-2.11.94-2.11,2.11v7.9c0,1.16.94,2.11,2.11,2.11h18.58c.64,0,1.25-.29,1.65-.79l4.19-5.26-4.19-5.26c-.4-.5-1.01-.79-1.65-.79v-.02Z"/>
  <g>
    <path class="cls-10" d="M2.8,103.99c.88-.68,1.46-1.18,1.74-1.51s.42-.66.42-.97c0-.41-.23-.62-.69-.62-.37,0-.8.16-1.3.48l-.29-.91c.23-.15.51-.28.83-.37.33-.1.63-.14.93-.14.54,0,.96.13,1.25.39s.44.62.44,1.07c0,.39-.12.77-.37,1.13s-.74.84-1.46,1.45h1.86v.93h-3.36v-.92h0Z"/>
    <path class="cls-10" d="M7.36,100.53c.32-.39.81-.59,1.47-.59s1.15.2,1.47.59c.32.39.48,1.04.48,1.93s-.16,1.53-.48,1.93c-.32.39-.81.59-1.47.59s-1.15-.2-1.47-.59-.48-1.04-.48-1.93.16-1.54.48-1.93ZM8.23,103.74c.13.25.33.37.59.37s.47-.12.59-.37c.13-.25.19-.67.19-1.28s-.06-1.04-.19-1.28c-.13-.25-.33-.37-.59-.37s-.47.12-.59.37c-.13.25-.19.67-.19,1.28s.06,1.04.19,1.28Z"/>
  </g>
  <g>
    <path class="cls-10" d="M12.89,104.07c.11-.16.2-.34.27-.54l.43.2c-.11.32-.26.61-.47.86l-.23-.16v.23h-.54v-1.81c-.08.14-.15.26-.23.36l-.16-.74c.35-.52.59-1.16.72-1.9l.54.07c-.07.47-.18.9-.33,1.28v2.16h0ZM13.06,102.02v-.45h.65c-.05-.1-.11-.19-.15-.27h-.33v-.46h1.12v-.34h.61v.34h1.23v.46h-.49c-.05.11-.09.2-.13.27h.7v.45h-3.22.01ZM16.39,104.37l-.45.22c-.09-.21-.2-.42-.32-.63-.02.28-.06.46-.12.54-.06.08-.19.12-.4.14-.17.01-.34.02-.5.02-.2,0-.37,0-.5-.01-.22-.01-.36-.05-.41-.11s-.08-.2-.08-.43v-.48h.55v.36c0,.1,0,.15.02.18.01.02.05.03.1.04.07,0,.17.01.31.01.12,0,.22,0,.31-.01.1,0,.16-.03.18-.07.02-.03.04-.13.05-.3l.46.09-.15-.24.41-.21h-1.07c.14.11.25.21.34.3l-.3.36c-.18-.18-.39-.35-.62-.51l.13-.15h-1.17v-1.31h2.93v1.31h-.18c.18.31.34.61.47.9h0ZM13.78,102.64h1.73v-.13h-1.73s0,.13,0,.13ZM13.78,102.96v.15h1.73v-.15h-1.73ZM14.96,101.58c.09-.14.14-.24.16-.27h-.94s.06.12.14.27c0,0,.64,0,.64,0Z"/>
    <path class="cls-10" d="M16.82,100.74h3.74v3.35c0,.07-.02.14-.04.2s-.04.11-.07.13c-.03.03-.07.05-.13.07s-.12.03-.19.04h-.28s-.3,0-.73-.02l-.03-.51c.4.01.61.02.65.02.11,0,.18,0,.2-.03.02-.02.03-.08.03-.18v-.93h-2.54v1.67h-.6v-3.81h-.01ZM18.4,101.25h-.98v1.14h.98v-1.14ZM18.98,101.25v1.14h.98v-1.14h-.98Z"/>
  </g>
</svg>