<?xml version="1.0" encoding="UTF-8"?>
<svg id="Layer_1" data-name="Layer 1" xmlns="http://www.w3.org/2000/svg" version="1.1" viewBox="0 0 126.7 166.6">
  <defs>
    <style>
      .cls-1 {
        fill: #fff;
        stroke-width: 0px;
      }
    </style>
  </defs>
  <path class="cls-1" d="M123.9,121.1c0,1.8-.8,3.5-2.2,4.4l-56.1,37.6c-1.4.9-3.1.9-4.4,0L5.1,125.5c-1.3-.9-2.2-2.6-2.2-4.4V7.9c0-2.4,1.3-3.9,2.6-4.6.8-.4,2.3-.9,4.1.2l48.5,32.5c3.3,2.2,7.5,2.2,10.8,0L117.2,3.6c1.7-1.2,3.3-.6,4.1-.2,1.2.7,2.6,2.2,2.6,4.6v113.2M126.7,121.1V7.9c0-6.2-6.2-10-11.1-6.8l-48.5,32.5c-2.3,1.6-5.3,1.6-7.6,0L11.1,1.2C6.2-2.1,0,1.7,0,7.9v113.2c0,2.8,1.3,5.3,3.5,6.8l56.1,37.6c2.3,1.6,5.3,1.6,7.6,0l56.1-37.6c2.2-1.4,3.5-4,3.5-6.8h0Z"/>
</svg>