<?xml version="1.0" encoding="UTF-8"?>
<svg id="Layer_1" data-name="Layer 1" xmlns="http://www.w3.org/2000/svg" viewBox="0 0 410.33 389.43">
  <defs>
    <style>
      .cls-1 {
        fill: #ffffff1f
;
        fill-rule: evenodd;
        stroke-width: 0px;
      }
    </style>
  </defs>
  <path class="cls-1" d="M410.33,194.6C410.26,87.19,318.49.16,205.26,0h0c-.07,0-.13,0-.2,0-.07,0-.15,0-.22,0h0C91.61.29-.06,87.42,0,194.83c.06,107.4,91.83,194.43,205.06,194.6h0c.07,0,.14,0,.2,0,.08,0,.15,0,.23,0h0c113.23-.3,204.9-87.43,204.84-194.83ZM205.52,381.25h-.49c-108.51-.3-196.34-83.62-196.34-186.39C8.6,91.91,96.43,8.48,204.84,8.2h.39c108.42.1,196.44,83.61,196.44,186.38.1,102.86-87.63,186.28-196.15,186.67Z"/>
  <path class="cls-1" d="M386.63,166.43c-1.35-8.83-4.5-16.06-7.04-24.5-2.49-8.46-5.84-16.57-9.58-24.34-3.71-7.8-8.06-15.15-12.71-22.1-4.64-6.96-9.69-13.48-15.11-19.41-1.4-1.51-2.59-2.91-4.15-4.47-1.36-1.36-2.72-2.71-4.07-4.05-1.3-1.34-2.8-2.67-4.26-3.98-1.46-1.31-2.91-2.61-4.35-3.9-11.63-9.9-14.37-13.01-26.29-20.73-.01-.01-.03-.02-.04-.02-11.84-5.92-32.79-12.6-43.14-15.2-10.35-2.64-19.56-3.98-27.16-4.53-1.9-.15-3.69-.35-5.38-.42-1.7-.04-3.28-.08-4.76-.11-1.47-.03-2.83-.06-4.08-.09h0c-1.25.04-2.38.08-3.39.11h-.16c-.13,0-.23.07-.29.15-.32-.01-.64-.02-.93-.03-3.19.06-4.89.1-4.89.1,0,0,0,0,0,0,0,0,0,0,0,0,0,0-.03,0-.07,0,.01,0,.02,0,.02,0-.03,0-.07.01-.13.02.09,0,.15,0,.15,0l.03-.02s0,0,0,0c-.01.1-.15,1.46-.39,3.93-.21,2.58-.61,6.35-.96,11.16-.36,4.81-.85,10.64-1.24,17.34-.44,6.7-.93,14.25-1.3,22.49-.41,8.06-.85,16.79-1.14,26.01-2.43-.06-4.86-.13-7.28-.19-2.28-.08-4.58-.1-6.84-.16.18-.99.4-1.97.69-2.95.1-.34.42-.5.73-.68,11.85-6.91,13.07-18.54,6.09-17.94-22.93,1.95-10.89-9.74-25.06-11.04-.86-.08-.42-.79.21-1.38,0,0,.02-.03.03-.03.65-.6,1.07-1.99-.6-1.75-4.32.62-8.46-.58-10.52,1.22-.77.68-1.8,1.21-1.94.19-.19-1.31.08-2.51.93-3.45.58-.65.57-3.29-.31-3.29-2.08.02-4.04.35-5.89.92.81-1.33,1.64-2.64,2.48-3.91,5.46-8.2,11.34-15.12,17.32-20.43,6-5.28,11.95-9.07,17.25-11.45,1.32-.58,2.63-1,3.84-1.47,1.21-.47,2.34-.94,3.44-1.16,1.1-.28,2.11-.54,3.04-.78.46-.13.92-.24,1.34-.35.44-.07.86-.12,1.25-.18,2.58-.36,4.16-.58,4.65-.65-.02,0-.05,0-.08,0,.08,0,.15-.01.19-.02-.34-.01-2.44-.09-6.14-.22-1.02-.03-2.15-.06-3.39-.1-1.25.03-2.62.06-4.09.1-1.48.04-3.07.08-4.77.12-1.69.08-3.48.28-5.38.43-7.6.56-16.81,1.92-27.16,4.57-10.35,2.62-21.86,6.55-33.7,12.49-11.85,5.87-24.1,13.63-35.72,23.54-5.71,5.04-11.5,10.41-16.8,16.39l-1.98,2.16-1.97,2.35c-1.3,1.59-2.66,3.19-3.91,4.82-2.46,3.28-4.97,6.59-7.25,10.1-4.65,6.96-8.99,14.31-12.68,22.11-3.71,7.78-7.08,15.89-9.56,24.35-2.53,8.44-4.56,17.11-5.9,25.94-1.28,8.83-1.96,17.78-2.06,26.74l.18,6.63c.01,2.1.25,4.45.41,6.71.27,4.59.93,8.96,1.5,13.4,1.36,8.83,3.39,17.5,5.93,25.94.39,1.32.8,2.62,1.23,3.92-1.08,4.52-1.8,9.2-2.01,13.3-.91,17.15,6.56,12.3,7.57,7.76.25-1.07.73-2.38,1.32-3.77.48,1.05.97,2.09,1.47,3.13,3.71,7.8,8.06,15.15,12.71,22.1,4.64,6.96,9.69,13.48,15.11,19.41,1.4,1.51,2.59,2.92,4.15,4.47,1.37,1.35,2.73,2.7,4.08,4.04,1.3,1.34,2.8,2.67,4.26,3.98,1.46,1.31,2.91,2.61,4.35,3.9,11.63,9.89,23.89,17.64,35.75,23.5,11.85,5.93,23.37,9.85,33.72,12.45,10.35,2.63,19.56,3.98,27.16,4.53,1.9.15,3.69.35,5.38.42,1.7.04,3.28.08,4.76.11,1.48.03,2.84.06,4.09.09,1.25-.04,2.38-.08,3.4-.11,2.16-.08,3.77-.14,4.81-.18.91-.02,1.39-.03,1.39-.03,0,0-.04,0-.11-.02.06,0,.09,0,.1,0,0,0,0,0,0,0h.03s.05,0,.12-.02c-.07,0-.11,0-.12,0,0-.01,0-.06-.01-.13,0,.08-.01.13-.01.14-.02,0-.15-.01-.41-.04-.67-.1-2.16-.31-4.4-.62-.39-.05-.81-.11-1.24-.17-.43-.11-.88-.23-1.35-.35-.93-.23-1.96-.5-3.06-.78-1.1-.22-2.24-.68-3.45-1.15-1.21-.47-2.52-.88-3.84-1.47-5.29-2.38-11.25-6.16-17.25-11.43-5.97-5.31-1.89-17.06-7.36-25.25-5.44-8.21-20.34-12.94-24.71-23.36-1.01-2.63-2.11-5.17-3.1-7.97-.22-.62-.44-1.26-.65-1.88.09-.02.18-.03.26-.05,3.57-.64,7.24-1.31,10.98-1.99,1.38-.2,2.77-.38,4.15-.55.37,5.83.11,11.61-.67,16.97-1.72,12.21,48.17-5.33,41.13-9.91-11.33-7.37-19.03-1.01-19.23-2.83-.26-2.16-.45-4.35-.61-6.56,3.36-.23,6.74-.48,10.15-.77,4.04-.45,8.15-.37,12.26-.51,2.44-.07,4.88-.13,7.32-.2.29,9.19.75,17.89,1.17,25.94.38,8.24.88,15.79,1.32,22.49.4,6.7.89,12.53,1.26,17.34.35,4.81.75,8.59.97,11.16.21,2.11.33,3.4.38,3.8.04-.4.17-1.69.38-3.8.22-2.58.61-6.35.96-11.16.36-4.81.85-10.65,1.24-17.34.44-6.7.93-14.25,1.29-22.49.42-8.04.86-16.75,1.15-25.94,2.45.06,4.91.12,7.35.19,4.19.14,8.43.07,12.37.51,4,.33,7.98.62,11.92.88l2.94.2c.98.09,1.95.25,2.93.37,1.95.24,3.88.49,5.8.73,3.84.49,7.64.91,11.33,1.44,3.67.66,7.26,1.31,10.76,1.94.12.02.23.04.34.06-.21.6-.42,1.2-.61,1.78-.96,2.75-2.09,5.39-3.11,8.04-4.38,10.45-9.28,20.01-14.72,28.24-5.46,8.2-11.34,15.12-17.32,20.43-5.99,5.28-11.95,9.07-17.24,11.45-1.32.58-2.63,1-3.84,1.47-1.21.47-2.34.94-3.44,1.16-1.1.29-2.11.55-3.04.79-.46.12-.91.24-1.34.35-.44.06-.86.12-1.25.17-2.69.38-4.29.6-4.71.66.44.01,2.06.05,4.74.1.29,0,.61-.02.93-.03.06.09.16.16.3.16v.03h.11c1.02.03,2.15.06,3.39.1,1.25-.03,2.61-.06,4.09-.1,1.48-.04,3.08-.08,4.77-.12,1.7-.08,3.49-.28,5.39-.43,7.59-.57,16.8-1.92,27.15-4.57,10.35-2.63,21.87-6.56,33.7-12.5,11.86-5.88,24.1-13.64,35.72-23.55,5.19-4.59,10.45-9.45,15.35-14.8,1.02-.41,2.02-.87,2.97-1.38,15.77-8.68,17.07-15.25,12.82-18.48.26-.39.53-.77.78-1.16,4.64-6.95,9.57-11.03,13.26-18.83,3.72-7.78,6.5-19.16,8.99-27.63,2.53-8.44,4.56-17.12,5.9-25.94.57-4.43,1.22-8.86,1.48-13.33.15-2.23.38-4.46.4-6.7l.18-6.88c-.08-8.4.32-19.32-.97-28.02ZM340.68,92.45c2.22,3.14,4.48,6.29,6.52,9.63,8.45,13.16,14.99,28.04,19.73,43.67,2.28,7.85,4.09,15.9,5.27,24.08,1.09,8.08,1.62,15.61,1.71,24.15-2.25-.21-5.02-.46-8.27-.7-2.79-.21-5.94-.46-9.4-.71,2.51-1.48,5.04-3.7,6.51-7.01,1.94-4.29,1.43-8.57-1.73-9.9l.03-.06c-2.83-1.28-11.04,1.26-11.81,2.03-2.35,2.35-3.81,6.24-3.61,7.77.2,1.95-1.2,3.71-5.67,6.11-4.44-.27-9.17-.54-14.15-.76-1.58-.08-3.19-.16-4.82-.24-.01-.04-.02-.08-.04-.12-3.57-12.55-2.45-13.16-12.35-22.45-2.16-2.01-3.76-3.52-4.73-4.7-.11-1.11-.23-2.21-.35-3.31.25-.19.56-.36.95-.53.33-.14.68-.21,1.04-.17,4.69.44,12.98-1.22,18.7-5.36.18-.13.49-.36.86-.65,1.13-.88,2.87-2.28,3.44-2.72.04-.03.07-.06.1-.09,17.52-15.27,5.98-22.38,7.61-41.04.1-1.09,1.22-1.59,1.34-3.21l.89-4.69c.34-3.79-.22-5.77-.78-7.15-2.33-5.84-5.6-10.23-9.54-13.49.76-.52,1.45-1.01,2.09-1.45,1.09,1.2,2.29,2.73,3.44,4.09,1.22,1.43,2.41,2.9,3.54,4.44,1.15,1.51,2.36,2.99,3.48,4.55ZM221.39,245.53c6.42,3.56,20.59,22.84,3.54,24.68-10.22,1.04-9.85-12.23-13.75-18.13.17-7.69.3-15.54.38-23.5,1.74-.27,3.61-.94,5.42-1.84,12.55-6.12,7.55-6.94,7.34-15.3-.11-3.67,1.07-7.01,3.12-10.01,3.44-.03,6.88-.06,10.29-.11,7.85-.09,15.61-.23,23.21-.4-.53,8-1.96,17.62-8.59,26.02-15.71,20-36.17,15.73-30.97,18.59ZM95.78,235.51c0,4.04-7.55,16.61-17.24,20.25-6.55,2.52-18.5-2.44-22.74-8.9-5.89-8.88-7.54-23.37-15.7-14.39-.95-4.25-1.76-8.54-2.38-12.87-.49-4.09-1.07-8.25-1.26-12.27-.13-2.04-.33-3.98-.33-6.2l-.12-5.65c1.89.17,4.14.38,6.74.59-1.23,3.52-.58,7.52,3.64,11.33,15.34,13.73,12.92-12.2,20.99-8.97,4.07,1.58,2.39,4.5,7.84-.16,2.86.16,5.82.32,8.87.45,6.39.33,13.2.67,20.34.94.01.47.03.94.04,1.41-.62,3.25-1.58,6.87-3.34,10.56-7.21,15.16-5.35,19.84-5.35,23.88ZM120.84,154.98c.19-.7.38-1.4.55-2.12,1.84.49,4.06,1.03,6.88,1.73.11.03.21.07.3.13.42.27.85.57,1.29.86.54.36.61,1.14.13,1.58-1.62,1.49-5.12,4.41-8.93,5.95-.34.14-.7.26-1.06.39.02-.88.03-1.76.03-2.67-.01-1.98.28-3.94.81-5.85ZM104.42,189.91c-4.79.19-9.43.4-13.9.63,5.16-1.49,10.46-2.55,13.97-3.16-.02.84-.05,1.69-.07,2.53ZM198.15,201.53c.01,3.58.03,7.16.05,10.72-2.56,2.12-.58-2.14-5.99-4.85-4.06-2.03-7.56-4.02-10.6-5.95,5.49.04,11.01.06,16.54.07ZM259.68,88.92c.18.21.38.41.58.6l.17-.15c-.08.09-.15.18-.23.27-.04.05-.08.1-.11.15-1.41,2.02-2.75,4.33-3.96,6.79-.96.12-1.92.24-2.89.36-.41.05-.82.1-1.23.16,1.4-5.08,3.97-12.73,6.9-14.39-1.31,1.78-1.59,3.48.77,6.21ZM261.96,188.48c-5.35-.11-10.78-.21-16.27-.29,4.98-2.11,10.13-3.62,14.58-4.5,1.66-.33,2.99,1.36,2.29,2.9-.25.55-.45,1.19-.61,1.89ZM230.55,112.36s0,0,0,0c1.39,5.35,3.42,11.12,6.33,15.67,3.86,6.04,6.12,10.71,5.33,14.95-.42-.11-.73-.32-.91-.65-.06-.11-.18-.17-.31-.15l-1.24.19c-.18.03-.4-.08-.49-.23-.22-.37-.36-.6-.54-.87-.06-.09-.1-.2-.12-.31-.14-1.22,0-2.85,1.33-4.04l-.99-1.71c-2.3.75-6.02,2.91-6.4,6.36l-.24-.62c-2.66.53-7.65,4.15-6.1,8.99,1.55,4.86,6.56,8.06,10.49,8.59.89.12,1.72.11,2.49-.02.62-.11,1.36-.24,2.15-.43,1.5.46,2.96.58,4.21.36,3.11-.55,10.38-1.83,13-9.53.87-1.48,1.42-3.12,1.64-4.89,3.43,3.13,5.99,7,12.2,11.09,2.2,1.44,4.61,2.59,6.82,3.48,1.87.75,1.67,3.46-.28,3.93-17.97,4.35-51.02,13.09-56.88,25.44-3.42-.02-6.86-.03-10.29-.04-.03-8.72-.07-17.41-.2-26-.11-10.82-.34-21.46-.59-31.76-.12-5.69-.3-11.25-.49-16.7,2.45-.09,4.9-.17,7.33-.26,4.28-.15,8.54-.28,12.75-.84ZM233.88,147.7h-.01c-.29-.05-.97.13-1.65-1.72-.04-.12-.07-.25-.08-.37l-.09-1.01c-.07-.66.27-2.24.53-2.61.03.12.32,1.83.35,1.95.11.35.1.64.36,1.03.35.35.66,2.6.59,2.73ZM293.03,284.42c.22-.65.47-1.26.71-1.86,5.34-.73,10.16-2.33,13.61-5.05,1.01-.79,2.49-.45,3.09.68,1.61,3.04,4.55,8.65,7.62,14.67,1.78,3.37,2.27,7.19,2.49,10.8-2.14-1.21-4.49-2.49-7.03-3.9-.57-.31-1.16-.63-1.75-.95-.61-.29-1.24-.57-1.87-.86-1.27-.57-2.58-1.17-3.92-1.78-2.68-1.19-5.54-2.53-8.52-3.72-2.08-.76-4.24-1.55-6.44-2.35.66-1.89,1.33-3.8,2-5.68ZM254.39,28.74c9.8,3.36,20.52,8.04,31.49,14.35.01.01.02.02.03.02,11.9,5.2,22.05,14.43,32.64,24.19,1.27,1.25,2.54,2.5,3.82,3.76,1.28,1.26,2.57,2.49,3.85,3.95,1,1.09,2.02,2.2,3.03,3.31-.88.34-1.84.72-2.9,1.14-7.94-5.64-18.26-7.24-29.19-7-7.34.19-13.01.6-18.19,2.41-4.65-8.97-9.87-17.07-15.44-24.13-6.45-8.25-13.49-14.95-20.44-19.89-6.79-4.9-13.51-7.99-19.24-9.77,1.43.24,2.92.54,4.5.81,7.38,1.27,16.21,3.54,26.03,6.85ZM204.85,18.91c.05,0,1.72.25,4.81.68.39.05.81.11,1.24.17.43.1.88.22,1.35.34.94.24,1.96.51,3.06.79,1.11.22,2.25.68,3.46,1.15,1.21.47,2.51.88,3.84,1.47,5.29,2.38,11.25,6.15,17.25,11.43,5.98,5.31,11.87,12.22,17.34,20.41,3.76,5.68,7.28,12.02,10.54,18.84-.25.07-.5.15-.75.25-1.24-1.63-3.64-3.79-7.83-4.37-.44-.06-.9-.1-1.34-.12-7.67-.65-14.25,2.61-18.55,8.64-7.64,4.25-11.46,13.3-11.13,20.68-3.58.3-7.2.27-10.83.39-2.44.07-4.89.14-7.34.21-.3-9.22-.74-17.95-1.17-26.02-.38-8.24-.87-15.8-1.32-22.49-.4-6.7-.89-12.53-1.27-17.34-.35-4.81-.75-8.59-.97-11.16-.24-2.48-.38-3.84-.39-3.93h0s0,0,0,0c0,0,0,0,0,0ZM199.33,113.47c-.19,5.44-.36,11.01-.47,16.69-.24,10.3-.46,20.94-.55,31.76-.12,8.59-.15,17.29-.17,26-8.71.03-17.4.07-25.98.2-1.93.02-3.85.05-5.77.07-9.25-12.26-5.14-22.07-17.56-28.96-.89-.49-.58-1.84.43-1.88,14.93-.62,31.24-4.13,36.59-22.29,1.92-6.59.48-14.29-.28-22.1,2.18.12,4.34.19,6.52.26,2.41.09,4.83.17,7.24.25ZM91.22,67.43c10.59-9.77,21.69-17.88,32.64-24.24,10.96-6.32,21.69-11.02,31.49-14.39,9.81-3.32,18.64-5.6,26.03-6.88,1.59-.28,3.09-.59,4.54-.82-5.76,1.79-12.51,4.9-19.34,9.84-6.93,4.95-13.97,11.66-20.4,19.92-2.94,3.73-5.78,7.77-8.49,12.05-.18-.09-.39-.12-.61-.08-15.63,2.93-27.36,12.07-34.4,23.26-1.48-.4-2.93-.8-4.27-1.29-2.41-.81-4.66-1.6-6.77-2.27-2.08-.72-4.09-1.22-5.76-1.98-2.04-.84-3.84-1.54-5.35-2.12,3.47-3.87,7.08-7.49,10.69-11ZM42.93,145.94c4.7-15.64,11.24-30.52,19.67-43.7,2.04-3.33,4.29-6.49,6.51-9.63,1.12-1.55,2.3-2.99,3.42-4.5l1.7-2.24,1.87-2.25c1.13-1.41,2.29-2.77,3.46-4.1,1.4.98,3.09,2.16,5.11,3.48,3.14,2.03,7.14,4.16,11.72,6.7.57.31,1.16.63,1.75.95.53.25,1.08.5,1.63.75-.94,1.98-1.74,3.99-2.41,6.03-4.54,14.12-1.54,27-.69,35.25,1.18,11.48,7.52,15.66,7.68,15.82,2.69,2.59,3.15-3.61,3.96-2.89,0,0,0,0,0,0-.41,2.68-.82,5.35-1.23,8.05-.55,4.2-1.01,8.44-1.39,12.7-14.38,1.87-31.42,3.17-37.72,13.99-2.02,3.44-8.27,5.05-10.59,4.95-3.95-.11-10.27,3.33-13.37,8.17-3.14.23-5.82.48-8.01.69.05-8.08.59-16.15,1.67-24.13,1.17-8.19,2.98-16.24,5.25-24.09ZM69.24,296.98c-2.22-3.13-4.48-6.29-6.52-9.62-5.12-7.98-9.53-16.6-13.28-25.63,3.65,3.94,8.91,10.09,15.98,12.72,18.15,6.88,36.21.45,46.05-14.25.04.18.08.37.12.55.4,1.61.79,3.22,1.19,4.82.8,3.19,1.54,6.38,2.54,9.48.95,3.1,1.82,6.2,2.83,9.23.67,1.85,1.32,3.67,1.97,5.5-2.63.96-5.2,1.89-7.67,2.8-2.99,1.2-5.79,2.53-8.46,3.72-1.33.61-2.63,1.2-3.89,1.78-.63.29-1.25.57-1.86.85-.59.33-1.18.66-1.76.97-4.61,2.55-8.63,4.7-11.74,6.71-1.97,1.3-3.65,2.47-5.03,3.44-1.09-1.2-2.29-2.73-3.44-4.08-1.22-1.43-2.41-2.9-3.54-4.44-1.15-1.51-2.36-2.99-3.49-4.55ZM146.33,338.69c6.45,8.25,13.49,14.95,20.44,19.89,6.71,4.84,13.32,7.9,18.99,9.7-1.34-.22-2.72-.5-4.18-.75-7.38-1.27-16.21-3.55-26.03-6.85-9.8-3.36-20.53-8.05-31.51-14.36-10.95-6.35-22.06-14.44-32.66-24.2-1.27-1.24-2.54-2.5-3.82-3.76-1.28-1.26-2.57-2.48-3.85-3.94-.99-1.08-2-2.18-3-3.27,1.5-.58,3.27-1.28,5.29-2.12,1.69-.77,3.67-1.26,5.76-1.99,2.08-.7,4.33-1.46,6.73-2.26,2.35-.87,5.04-1.46,7.76-2.26,2.76-.73,5.59-1.65,8.62-2.39,2.73-.62,5.57-1.27,8.49-1.94.49,1.18.99,2.36,1.47,3.54,1.16,2.77,2.56,5.58,3.8,8.31,5.18,10.79,11.2,20.43,17.7,28.65ZM142.96,282.96c-3.67,1.01-7.26,2.01-10.76,2.97-.4.11-.79.23-1.18.34-.55-1.81-1.09-3.63-1.65-5.46-.84-2.93-1.54-5.93-2.33-8.92-1.95-8.06-3.62-16.38-4.97-24.88,14.67,6.23,22.69,19.92,25.94,34.86-1.72.34-3.41.68-5.05,1.09ZM179.37,277.09c-3.34.36-6.66.71-9.94,1.11-1-15.46-3.06-30.3-15.55-38.82h-.02c-8.67-11.59-1.51-44.99.71-33.59.91,4.24,7.93,10.83,12.01,13.31,17.38,10.58,15.44,10.2,30.57,5.06.37-.13.76-.2,1.16-.23.01,1.19.02,2.38.04,3.57.12,9.9.31,19.64.54,29.12-3.55,4.55-6.71,10.48-7.42,15.12-.25,1.67-.4,3.18-.48,4.55-3.9.14-7.78.29-11.62.8ZM266.89,282.85c-3.77-.92-7.68-1.54-11.64-2.34-4.81-1.05-9.82-1.77-14.93-2.38,4.55-3.36,12.34-6.11,16.34-3.02,4.78,3.76,13.88,6.65,23.37,7.59-.35,1.16-.7,2.32-1.04,3.46-.38-.11-.75-.21-1.13-.32-3.56-.97-7.23-1.98-10.97-3ZM318.7,322c-10.59,9.77-21.69,17.88-32.64,24.24-10.96,6.32-21.69,11.02-31.49,14.39-9.82,3.32-18.64,5.6-26.03,6.88-1.61.29-3.14.6-4.6.83,5.76-1.79,12.51-4.9,19.34-9.84,6.93-4.96,17.85-13.17,24.28-21.43,6.48-8.23,9.3-14.67,14.46-25.44,1.23-2.72,3.09-6.61,4.27-9.43.75-1.36,1.3-2.58,1.77-3.77,2.44.56,4.84,1.11,7.15,1.63,3.04.73,5.81,1.63,8.56,2.36,2.71.79,5.36,1.36,7.74,2.24,2.41.81,4.66,1.6,6.77,2.27.85.29,1.67.55,2.48.8.21,4.12.62,7.56,3.11,9.14-1.71,1.75-3.44,3.45-5.17,5.14ZM373.48,207.05c-.19,4.14-.77,8.25-1.25,12.35-1.17,8.19-2.98,16.24-5.25,24.09-4.7,15.64-11.24,30.52-19.67,43.7-1.27,2.08-2.63,4.09-4,6.06-2.12.49-4.22,1.29-6.09,2.43-1.42.87-3.22-.23-3.13-1.88.29-5.46.54-14.55-.61-20.11-1.84-8.47-12.55-14.49-8.06-16.32,4.49-1.74,9.99-6.13,5.81-7.66-4.18-1.43-25.51-14.79-26.63-25.81-.83-8.13,3.52-18.33,5.85-23.1.64-1.3,2.38-1.56,3.37-.5,12.58,13.44,22.97,12.97,33.7-3.02.26-.02.53-.03.78-.05,6.7-.4,12.53-.89,17.34-1.26,3.25-.24,6.02-.49,8.27-.71l-.11,5.58c.01,2.08-.2,4.14-.32,6.21Z"/>
</svg>