<?xml version="1.0" encoding="UTF-8"?>
<svg id="Layer_1" data-name="Layer 1" xmlns="http://www.w3.org/2000/svg" viewBox="0 0 166.63 126.72">
  <defs>
    <style>
      .cls-1 {
        fill: #fff;
        stroke-width: 0px;
      }
    </style>
  </defs>
  <path class="cls-1" d="M121.11,2.87c1.78,0,3.46.84,4.36,2.19l37.59,56.08c.92,1.37.92,3.06,0,4.43l-37.59,56.08c-.9,1.35-2.58,2.19-4.36,2.19H36.87c-2.78,0-5.05-1.97-5.05-4.4V7.28c0-2.43,2.27-4.4,5.05-4.4h84.24M121.11,0H36.87c-4.38,0-7.92,3.26-7.92,7.28v112.17c0,4.02,3.55,7.28,7.92,7.28h84.24c2.75,0,5.31-1.31,6.75-3.46l37.59-56.08c1.57-2.34,1.57-5.29,0-7.63L127.86,3.46c-1.44-2.15-4-3.46-6.75-3.46h0Z"/>
</svg>