<?xml version="1.0" encoding="UTF-8"?>
<svg id="Layer_1" data-name="Layer 1" xmlns="http://www.w3.org/2000/svg" viewBox="0 0 266.87 181.91">
  <defs>
    <style>
      .cls-1 {
        opacity: .5;
      }

      .cls-1, .cls-2, .cls-3 {
        fill: #fff;
      }

      .cls-1, .cls-2, .cls-4 {
        font-family: MPLUS1p-ExtraBold, 'M PLUS 1p';
        font-size: 6.72px;
        font-weight: 700;
      }

      .cls-5 {
        opacity: .6;
      }

      .cls-6, .cls-3 {
        stroke-width: 0px;
      }

      .cls-6, .cls-4 {
        fill: #e98024;
      }
    </style>
  </defs>
  <g class="cls-5">
    <g>
      <rect class="cls-3" x="23.47" y="145.42" width="16.61" height="21.09" rx="2.39" ry="2.39"/>
      <path class="cls-3" d="M45.28,129.61v7.89c0,1.16-.95,2.11-2.11,2.11h-8.15c-.37,0-.72.17-.94.47l-1.51,2.02c-.39.53-1.2.53-1.59,0l-1.52-2.02c-.22-.29-.57-.47-.94-.47h-8.15c-1.16,0-2.1-.94-2.1-2.1v-7.91c0-1.16.94-2.1,2.1-2.1h22.8c1.16,0,2.11.95,2.11,2.11Z"/>
      <text class="cls-4" transform="translate(26.23 136.08)"><tspan x="0" y="0">6校</tspan></text>
    </g>
    <g>
      <rect class="cls-3" x="73.47" y="125.42" width="16.61" height="41.09" rx="2.39" ry="2.39"/>
      <path class="cls-3" d="M95.28,109.61v7.89c0,1.16-.95,2.11-2.11,2.11h-8.15c-.37,0-.72.17-.94.47l-1.51,2.02c-.39.53-1.2.53-1.59,0l-1.52-2.02c-.22-.29-.57-.47-.94-.47h-8.15c-1.16,0-2.1-.94-2.1-2.1v-7.91c0-1.16.94-2.1,2.1-2.1h22.8c1.16,0,2.11.95,2.11,2.11Z"/>
      <text class="cls-4" transform="translate(74.04 116.08)"><tspan x="0" y="0">14校</tspan></text>
    </g>
    <g>
      <rect class="cls-3" x="123.47" y="65.42" width="16.61" height="101.09" rx="2.39" ry="2.39"/>
      <path class="cls-3" d="M145.28,49.61v7.89c0,1.16-.95,2.11-2.11,2.11h-8.15c-.37,0-.72.17-.94.47l-1.51,2.02c-.39.53-1.2.53-1.59,0l-1.52-2.02c-.22-.29-.57-.47-.94-.47h-8.15c-1.16,0-2.1-.94-2.1-2.1v-7.91c0-1.16.94-2.1,2.1-2.1h22.8c1.16,0,2.11.95,2.11,2.11Z"/>
      <text class="cls-4" transform="translate(124.04 56.08)"><tspan x="0" y="0">26校</tspan></text>
    </g>
    <g>
      <rect class="cls-3" x="173.47" y="46.42" width="16.61" height="120.09" rx="2.39" ry="2.39"/>
      <path class="cls-3" d="M195.28,30.61v7.89c0,1.16-.95,2.11-2.11,2.11h-8.15c-.37,0-.72.17-.94.47l-1.51,2.02c-.39.53-1.2.53-1.59,0l-1.52-2.02c-.22-.29-.57-.47-.94-.47h-8.15c-1.16,0-2.1-.94-2.1-2.1v-7.91c0-1.16.94-2.1,2.1-2.1h22.8c1.16,0,2.11.95,2.11,2.11Z"/>
      <text class="cls-4" transform="translate(174.04 37.08)"><tspan x="0" y="0">32校</tspan></text>
    </g>
    <text class="cls-2" transform="translate(19.68 178.38)"><tspan x="0" y="0">2016年</tspan></text>
    <text class="cls-2" transform="translate(69.68 178.38)"><tspan x="0" y="0">2018年</tspan></text>
    <text class="cls-2" transform="translate(119.67 178.38)"><tspan x="0" y="0">2020年</tspan></text>
    <text class="cls-2" transform="translate(169.68 178.38)"><tspan x="0" y="0">2022年</tspan></text>
  </g>
  <g>
    <rect class="cls-3" x="223.47" y="33.42" width="16.61" height="133.09" rx="2.39" ry="2.39"/>
    <path class="cls-3" d="M255.84,2.11v21.63c0,1.16-.95,2.11-2.11,2.11h-18.71c-.37,0-.72.17-.94.47l-1.51,2.02c-.39.53-1.2.53-1.59,0l-1.52-2.02c-.22-.29-.57-.47-.94-.47h-18.71c-1.16,0-2.1-.94-2.1-2.1V2.1C207.71.94,208.65,0,209.81,0h43.92c1.16,0,2.11.95,2.11,2.11Z"/>
    <g>
      <g>
        <path class="cls-6" d="M215.07,6.45h8.58v2.41l-3.44,2.84v.03h.23c1.02,0,1.84.32,2.46.95.62.63.92,1.49.92,2.57,0,1.36-.42,2.41-1.25,3.14-.83.73-2.03,1.09-3.59,1.09s-2.85-.33-4.09-1l.74-2.29c1.19.61,2.22.92,3.1.92.68,0,1.21-.16,1.59-.48.38-.32.56-.76.56-1.32s-.23-.98-.68-1.22-1.29-.36-2.53-.36h-.88v-2.01l3.26-2.82v-.03h-4.99v-2.41Z"/>
        <path class="cls-6" d="M234.87,14.5h1.85v2.34h-1.85v2.47h-2.87v-2.47h-5.73v-2.34l5.73-8.05h2.87v8.05ZM232,14.5v-4.42h-.03l-3.05,4.39v.03h3.08Z"/>
      </g>
      <path class="cls-6" d="M248.67,18.09l-.44,1.19c-1.31-.44-2.35-.99-3.12-1.63-.8.65-1.89,1.19-3.26,1.63l-.53-1.15c1.23-.44,2.18-.91,2.87-1.43-.52-.65-.94-1.47-1.27-2.44-.17.16-.39.35-.66.55.13.27.23.48.29.62l-.97.65c-.21-.52-.41-1.01-.61-1.48v4.72h-1.29v-3.98c-.24.77-.51,1.4-.82,1.89l-.65-1.36c.62-1.08,1.05-2.2,1.28-3.39h-1.03v-1.18h1.22v-1.72h1.29v1.72h.77v-.77h2.66v-1.16h1.43v1.16h2.66v1.18h-1.76c.76.7,1.4,1.39,1.94,2.06l-.91.86s-.11-.11-.19-.2-.14-.16-.18-.22c-.35,1.02-.8,1.86-1.35,2.53.6.47,1.48.93,2.63,1.35ZM243.34,11.7h-1.23v.77h-.97c.04.09.13.26.26.52.13.26.23.47.3.62.63-.57,1.18-1.21,1.63-1.91ZM245.12,15.8c.41-.52.76-1.21,1.05-2.07l1.05.3c-.41-.46-.94-1-1.6-1.62l.73-.7h-2.71l.85.56c-.3.59-.73,1.17-1.29,1.73l.97-.24c.29.89.6,1.57.95,2.04Z"/>
    </g>
    <text class="cls-1" transform="translate(219.68 178.38)"><tspan x="0" y="0">2023年</tspan></text>
  </g>
</svg>