<?xml version="1.0" encoding="UTF-8"?>
<svg id="Layer_1" data-name="Layer 1" xmlns="http://www.w3.org/2000/svg" version="1.1" viewBox="0 0 126.7 165.2">
  <defs>
    <style>
      .cls-1 {
        fill: #fff;
        stroke-width: 0px;
      }
    </style>
  </defs>
  <path class="cls-1" d="M123.7,119.7c0,1.8-.8,3.5-2.2,4.4l-56.1,37.6c-1.4.9-3.1.9-4.4,0L4.9,124c-1.3-.9-2.2-2.6-2.2-4.4V7.9c0-2.8,2-5,4.4-5h112.2c2.4,0,4.4,2.3,4.4,5v111.7M126.5,119.7V7.9c0-4.4-3.3-7.9-7.3-7.9H7.1C3.1,0-.2,3.6-.2,7.9v111.7c0,2.8,1.3,5.3,3.5,6.8l56.1,37.6c2.3,1.6,5.3,1.6,7.6,0l56.1-37.6c2.2-1.4,3.5-4,3.5-6.8h0Z"/>
</svg>