<?xml version="1.0" encoding="UTF-8"?>
<svg id="Layer_1" data-name="Layer 1" xmlns="http://www.w3.org/2000/svg" xmlns:xlink="http://www.w3.org/1999/xlink" viewBox="0 0 267.01 167.37">
  <defs>
    <style>
      .cls-1 {
        stroke-dasharray: 0 0 1.9 3.81;
      }

      .cls-1, .cls-2 {
        fill: none;
        stroke: #dddddc;
        stroke-linecap: round;
        stroke-miterlimit: 10;
        stroke-width: .96px;
      }

      .cls-3 {
        fill: url(#linear-gradient);
      }

      .cls-3, .cls-4, .cls-5, .cls-6, .cls-7 {
        stroke-width: 0px;
      }

      .cls-4 {
        fill: #dddddc;
      }

      .cls-8 {
        opacity: .5;
      }

      .cls-5 {
        fill: #e98024;
      }

      .cls-6 {
        fill: #fff;
      }

      .cls-7 {
        fill: #231f20;
      }
    </style>
    <linearGradient id="linear-gradient" x1="24.52" y1="78.4" x2="264.3" y2="78.4" gradientUnits="userSpaceOnUse">
      <stop offset="0" stop-color="#fcb44b"/>
      <stop offset=".59" stop-color="#ef9231"/>
      <stop offset="1" stop-color="#e98024"/>
    </linearGradient>
  </defs>
  <g>
    <path class="cls-5" d="M15.33,13.76v1.04H6.66v-1.04c-.71.45-1.46.87-2.26,1.24l-.89-2c2.28-1.18,4.26-2.58,5.91-4.22h3.13c1.66,1.64,3.63,3.05,5.91,4.22l-.89,2c-.8-.38-1.55-.79-2.26-1.24ZM4.31,17.84v-2h13.36v2h-1.95c.74,1.5,1.44,2.99,2.1,4.47l-2.17.72c-.33-.74-.53-1.18-.6-1.34-3.69.41-7.08.66-10.18.75l-.14-2c.96-.04,1.69-.07,2.18-.09.39-.69.82-1.53,1.29-2.52h-3.9ZM13.99,12.87c-1.1-.78-2.09-1.63-3-2.55-.9.92-1.9,1.77-3,2.55h5.99ZM14.2,19.82c-.07-.14-.18-.37-.33-.69s-.26-.55-.33-.71l1.69-.58h-4.41c-.33.76-.71,1.54-1.14,2.35,2.03-.14,3.53-.27,4.52-.37Z"/>
    <path class="cls-5" d="M31.33,20.2c1.22.4,2.23.78,3.03,1.14l-1.12,1.69c-1.37-.67-3.04-1.31-5.01-1.92l.45-.91h-3.1l.45.77c-1.28.8-3.02,1.45-5.21,1.97l-.91-1.75c1.22-.3,2.32-.62,3.3-.98h-2.26v-7.24h12.35v7.24h-1.97ZM23.96,12.55h-2.4v-3.59h11.12v3.59h-8.73ZM23.41,15.09h7.44v-.58h-7.44v.58ZM23.41,16.35v.6h7.44v-.6h-7.44ZM23.41,18.2v.6h7.44v-.6h-7.44ZM23.96,11.28h6.33v-.61h-6.33v.61Z"/>
    <path class="cls-5" d="M41.24,10.89c.39-.74.7-1.45.94-2.15l1.8.52c-.26.71-.58,1.42-.97,2.15h.52v1.71h-1.72c.48.34.91.67,1.27.98.82-1.5,1.51-3.38,2.06-5.64l2.12.26c-.12.62-.28,1.27-.46,1.95h3.78v2.06h-.72c-.21,2.77-.73,4.87-1.55,6.31.53.59,1.31,1.16,2.32,1.71l-.94,1.91c-1.12-.57-2.01-1.21-2.69-1.92-.72.71-1.67,1.35-2.87,1.92l-.8-1.34-.71,1.12c-.68-.37-1.31-.69-1.89-.97-1.08.68-2.42,1.1-4.02,1.26l-.66-1.72c.99-.11,1.82-.27,2.47-.48-.51-.19-1.19-.41-2.04-.64.38-.62.66-1.09.83-1.41h-1.14v-1.71h1.9c.12-.33.22-.58.29-.77l2.33.21c-.04.12-.11.31-.22.55h3.56v1.71h-.92c-.22.6-.51,1.15-.89,1.64.24.1.59.27,1.06.49,1.01-.5,1.81-1.07,2.4-1.69-.42-.79-.78-1.82-1.09-3.09-.18.31-.37.6-.55.88l-1.31-1.11-.38.43c-.47-.58-.88-1.05-1.23-1.4v1.26h-2.15v-1.4c-.56.71-1.22,1.35-1.97,1.92l-1.11-1.6c.88-.57,1.61-1.14,2.18-1.71h-1.84v-1.71h.83c-.34-.76-.66-1.41-.95-1.95l1.74-.66c.38.67.72,1.36,1.01,2.09l-1.37.52h1.47v-2.75h2.15v2.75h1.6l-1.49-.52ZM40.41,19.42c.24-.25.45-.56.65-.94h-1.37c-.07.13-.19.33-.35.6.55.16.91.28,1.08.34ZM46.99,16.78c.36-.98.61-2.33.75-4.04h-1.64c-.26.6-.42.98-.48,1.12l.66-.14c.18,1.22.42,2.24.71,3.06Z"/>
    <path class="cls-5" d="M60.57,19.73c2.18-.31,3.27-1.63,3.27-3.96,0-.95-.27-1.76-.82-2.43-.55-.67-1.27-1.09-2.16-1.27-.27,1.92-.57,3.52-.9,4.8-.33,1.29-.71,2.27-1.12,2.95-.41.68-.84,1.16-1.27,1.42-.43.27-.93.4-1.49.4-.87,0-1.67-.49-2.4-1.47-.73-.98-1.1-2.18-1.1-3.59,0-2.02.68-3.66,2.04-4.92,1.36-1.27,3.15-1.9,5.38-1.9,1.79,0,3.27.57,4.44,1.7s1.75,2.57,1.75,4.32-.46,3.28-1.38,4.36c-.92,1.09-2.17,1.7-3.73,1.83l-.51-2.23ZM58.38,12.15c-1.09.27-1.93.79-2.54,1.57-.61.78-.91,1.73-.91,2.84,0,.69.14,1.31.41,1.87.27.56.52.84.75.84.11,0,.24-.07.38-.22.14-.14.29-.39.45-.74.16-.35.33-.78.48-1.31s.33-1.2.5-2.04c.17-.83.34-1.77.49-2.82Z"/>
    <path class="cls-5" d="M70.15,22.72c-.18,0-.68-.03-1.48-.08l-.12-1.92c.65.05,1.05.08,1.23.08.09,0,.15-.03.17-.08.02-.06.03-.24.03-.54v-1.57c-.53.11-.99.2-1.38.26l-.14-2.12c.54-.09,1.05-.18,1.52-.28v-3.29h-1.51v-2h1.51v-2.44h2.32v2.44h1.14v1.71c.61-1.26,1.15-2.75,1.61-4.46l2.27.34c-.13.57-.29,1.15-.46,1.72h1.61c.23-.72.4-1.4.54-2.06l2.14.28c-.16.77-.31,1.36-.45,1.78h1.8v1.94h-2.1v1.41h1.92v1.77h-1.92v1.41h1.92v1.78h-1.92v1.43h2.29v1.87h-6.38v.8h-2.37v-6.82l-1.51-1.44c.33-.49.61-.98.85-1.46h-.98v2.73c.12-.03.47-.13,1.04-.29l.28,2.04c-.58.17-1.02.3-1.32.38v1.89c0,.47,0,.84-.02,1.11-.01.27-.05.52-.11.75-.06.23-.13.4-.21.5s-.22.19-.4.26c-.18.07-.38.12-.58.13-.2.02-.48.02-.84.02ZM78.14,13.84v-1.41h-1.83v1.41h1.83ZM78.14,17.02v-1.41h-1.83v1.41h1.83ZM78.14,18.8h-1.83v1.43h1.83v-1.43Z"/>
    <path class="cls-5" d="M84.53,12.6h1.84v-1.35c-.36.04-.88.08-1.55.12l-.2-1.86c1.79-.08,3.56-.37,5.31-.86l.58,1.74c-.56.22-1.22.39-1.98.54v1.67h1.64v1.81c1.05-.15,2.01-.43,2.86-.83-.11-.11-.29-.28-.52-.51-.24-.22-.41-.39-.52-.51-.3.17-.64.35-1.01.52l-1.14-1.52c.65-.32,1.35-.76,2.12-1.34.77-.57,1.4-1.13,1.89-1.66l1.6.95h2.67v1.63c-.52,1.37-1.45,2.51-2.78,3.41l1.11.54h2.44v1.75c-.65,1.66-1.7,3.02-3.17,4.08-1.47,1.06-3.22,1.71-5.25,1.94l-.66-1.92c1.42-.17,2.71-.58,3.87-1.23-.26-.27-.64-.66-1.15-1.17-.46.27-.99.53-1.58.8l-.78-1.14-.75.57c-.19-.42-.49-1.04-.88-1.86v5.85h-2.17v-4.04c-.31.82-.67,1.52-1.08,2.09l-1.12-2.04c1.03-1.37,1.77-2.77,2.2-4.19v-.02h-1.84v-1.98ZM88.99,14.58c.88,1.52,1.43,2.46,1.64,2.83,1.04-.51,2.01-1.14,2.9-1.87-.92.39-1.95.68-3.07.86l-.68-1.81h-.8ZM94.7,12.54c.5-.41.93-.87,1.27-1.38h-1.98c-.08.07-.22.18-.4.32.08.08.2.2.35.34.15.14.29.27.42.39.12.12.24.23.34.33ZM95.33,18.53c.51-.48.96-1.04,1.34-1.67h-1.74c-.08.07-.21.17-.38.31-.17.13-.27.21-.3.23.49.51.85.89,1.08,1.14Z"/>
  </g>
  <line class="cls-2" x1="260.51" y1="150.42" x2="26.19" y2="150.42"/>
  <g class="cls-8">
    <g>
      <line class="cls-2" x1="260.51" y1="140.82" x2="259.55" y2="140.82"/>
      <line class="cls-1" x1="255.74" y1="140.82" x2="29.06" y2="140.82"/>
      <line class="cls-2" x1="27.15" y1="140.82" x2="26.19" y2="140.82"/>
    </g>
  </g>
  <g class="cls-8">
    <g>
      <line class="cls-2" x1="260.51" y1="131.22" x2="259.55" y2="131.22"/>
      <line class="cls-1" x1="255.74" y1="131.22" x2="29.06" y2="131.22"/>
      <line class="cls-2" x1="27.15" y1="131.22" x2="26.19" y2="131.22"/>
    </g>
  </g>
  <g class="cls-8">
    <g>
      <line class="cls-2" x1="260.51" y1="121.62" x2="259.55" y2="121.62"/>
      <line class="cls-1" x1="255.74" y1="121.62" x2="29.06" y2="121.62"/>
      <line class="cls-2" x1="27.15" y1="121.62" x2="26.19" y2="121.62"/>
    </g>
  </g>
  <g class="cls-8">
    <g>
      <line class="cls-2" x1="260.51" y1="112.02" x2="259.55" y2="112.02"/>
      <line class="cls-1" x1="255.74" y1="112.02" x2="29.06" y2="112.02"/>
      <line class="cls-2" x1="27.15" y1="112.02" x2="26.19" y2="112.02"/>
    </g>
  </g>
  <line class="cls-2" x1="260.51" y1="102.42" x2="26.19" y2="102.42"/>
  <g class="cls-8">
    <g>
      <line class="cls-2" x1="260.51" y1="92.82" x2="259.55" y2="92.82"/>
      <line class="cls-1" x1="255.74" y1="92.82" x2="29.06" y2="92.82"/>
      <line class="cls-2" x1="27.15" y1="92.82" x2="26.19" y2="92.82"/>
    </g>
  </g>
  <g class="cls-8">
    <g>
      <line class="cls-2" x1="260.51" y1="83.22" x2="259.55" y2="83.22"/>
      <line class="cls-1" x1="255.74" y1="83.22" x2="29.06" y2="83.22"/>
      <line class="cls-2" x1="27.15" y1="83.22" x2="26.19" y2="83.22"/>
    </g>
  </g>
  <g class="cls-8">
    <g>
      <line class="cls-2" x1="260.51" y1="73.62" x2="259.55" y2="73.62"/>
      <line class="cls-1" x1="255.74" y1="73.62" x2="29.06" y2="73.62"/>
      <line class="cls-2" x1="27.15" y1="73.62" x2="26.19" y2="73.62"/>
    </g>
  </g>
  <g class="cls-8">
    <g>
      <line class="cls-2" x1="260.51" y1="64.03" x2="259.55" y2="64.03"/>
      <line class="cls-1" x1="255.74" y1="64.03" x2="29.06" y2="64.03"/>
      <line class="cls-2" x1="27.15" y1="64.03" x2="26.19" y2="64.03"/>
    </g>
  </g>
  <line class="cls-2" x1="260.51" y1="54.43" x2="26.19" y2="54.43"/>
  <path class="cls-4" d="M20.83,144.36H2.25c-1.16,0-2.11.94-2.11,2.11v7.9c0,1.16.94,2.11,2.11,2.11h18.58c.64,0,1.25-.29,1.65-.79l4.19-5.26-4.19-5.26c-.4-.5-1.01-.79-1.65-.79Z"/>
  <path class="cls-7" d="M10.51,148.56c.32-.39.81-.59,1.47-.59s1.15.2,1.47.59c.32.39.48,1.04.48,1.93s-.16,1.53-.48,1.93c-.32.39-.81.59-1.47.59s-1.15-.2-1.47-.59c-.32-.39-.48-1.04-.48-1.93s.16-1.54.48-1.93ZM11.38,151.77c.13.25.33.37.59.37s.47-.12.59-.37c.13-.25.19-.67.19-1.28s-.06-1.04-.19-1.28c-.13-.25-.33-.37-.59-.37s-.47.12-.59.37c-.13.25-.19.67-.19,1.28s.06,1.04.19,1.28Z"/>
  <g>
    <path class="cls-7" d="M17.63,165.38c.88-.68,1.46-1.18,1.74-1.51.28-.33.42-.66.42-.97,0-.41-.23-.62-.69-.62-.37,0-.8.16-1.3.48l-.29-.91c.23-.15.51-.28.83-.37.32-.1.63-.14.93-.14.54,0,.96.13,1.25.39.29.26.44.62.44,1.07,0,.39-.12.77-.37,1.13s-.74.84-1.46,1.45h0s1.86.01,1.86.01v.92h-3.36v-.92Z"/>
    <path class="cls-7" d="M22.19,161.92c.32-.39.81-.59,1.47-.59s1.15.2,1.47.59c.32.39.48,1.04.48,1.93s-.16,1.53-.48,1.93c-.32.39-.81.59-1.47.59s-1.15-.2-1.47-.59c-.32-.39-.48-1.04-.48-1.93s.16-1.54.48-1.93ZM23.06,165.13c.13.25.33.37.59.37s.47-.12.59-.37c.13-.25.19-.67.19-1.28s-.06-1.04-.19-1.28c-.13-.25-.33-.37-.59-.37s-.47.12-.59.37c-.13.25-.19.67-.19,1.28s.06,1.04.19,1.28Z"/>
    <path class="cls-7" d="M27.73,166.3v-3.58h-.01l-1.09,1.01-.36-.97,1.46-1.36h1.18v4.91h-1.18Z"/>
    <path class="cls-7" d="M33.29,161.33l.2.92c-.47.01-.85.1-1.13.27-.28.16-.49.41-.64.74h0c.29-.17.6-.25.95-.25.52,0,.92.14,1.2.41.28.28.42.68.42,1.21s-.17.95-.52,1.27c-.35.32-.8.48-1.37.48s-1.05-.17-1.39-.5-.51-.82-.51-1.46c0-.94.25-1.68.75-2.23.5-.55,1.18-.83,2.04-.85ZM32.4,165.54c.25,0,.45-.08.58-.23.14-.16.21-.39.21-.69,0-.27-.07-.48-.21-.63-.14-.15-.33-.22-.58-.22s-.43.08-.58.23c-.14.15-.21.36-.21.62,0,.3.07.52.21.68s.33.24.58.24Z"/>
  </g>
  <g>
    <path class="cls-7" d="M46.72,165.38c.88-.68,1.46-1.18,1.74-1.51.28-.33.42-.66.42-.97,0-.41-.23-.62-.69-.62-.37,0-.8.16-1.3.48l-.29-.91c.23-.15.51-.28.83-.37.32-.1.63-.14.93-.14.54,0,.96.13,1.25.39.29.26.44.62.44,1.07,0,.39-.12.77-.37,1.13s-.74.84-1.46,1.45h0s1.86.01,1.86.01v.92h-3.36v-.92Z"/>
    <path class="cls-7" d="M51.28,161.92c.32-.39.81-.59,1.47-.59s1.15.2,1.47.59c.32.39.48,1.04.48,1.93s-.16,1.53-.48,1.93c-.32.39-.81.59-1.47.59s-1.15-.2-1.47-.59c-.32-.39-.48-1.04-.48-1.93s.16-1.54.48-1.93ZM52.15,165.13c.13.25.33.37.59.37s.47-.12.59-.37c.13-.25.19-.67.19-1.28s-.06-1.04-.19-1.28c-.13-.25-.33-.37-.59-.37s-.47.12-.59.37c-.13.25-.19.67-.19,1.28s.06,1.04.19,1.28Z"/>
    <path class="cls-7" d="M56.83,166.3v-3.58h-.01l-1.09,1.01-.36-.97,1.46-1.36h1.18v4.91h-1.18Z"/>
    <path class="cls-7" d="M59.77,161.4h3.45v.92c-.38.63-.7,1.25-.97,1.85-.27.61-.54,1.32-.81,2.13h-1.22c.53-1.45,1.18-2.77,1.93-3.96v-.03h-2.37v-.92Z"/>
  </g>
  <path class="cls-7" d="M68.44,114.5v7.89c0,1.16-.95,2.11-2.11,2.11h-8.15c-.37,0-.72.17-.94.47l-1.51,2.02c-.39.53-1.2.53-1.59,0l-1.52-2.02c-.22-.29-.57-.47-.94-.47h-8.15c-1.16,0-2.1-.94-2.1-2.1v-7.91c0-1.16.94-2.1,2.1-2.1h22.8c1.16,0,2.11.95,2.11,2.11Z"/>
  <g>
    <path class="cls-6" d="M52.08,116.98h-1.96l-.05.91h.01c.21-.09.42-.13.65-.13.5,0,.89.13,1.16.4.27.27.41.65.41,1.14,0,1.16-.69,1.73-2.06,1.73-.5,0-.97-.09-1.41-.28l.23-.91c.44.19.82.28,1.13.28.66,0,.99-.28.99-.83,0-.45-.22-.67-.67-.67-.2,0-.39.08-.58.25h-.97l.13-2.82h2.99v.92Z"/>
    <path class="cls-6" d="M56.1,119.13h.71v.89h-.71v.94h-1.1v-.94h-2.18v-.89l2.18-3.07h1.1v3.07ZM55,119.13v-1.69h-.01l-1.16,1.67h0s1.18.01,1.18.01Z"/>
    <path class="cls-6" d="M57.62,116.06h3.27v.92l-1.31,1.08h0s.09.01.09.01c.39,0,.7.12.94.36s.35.57.35.98c0,.52-.16.92-.48,1.2-.32.28-.77.42-1.37.42s-1.09-.13-1.56-.38l.28-.87c.45.23.85.35,1.18.35.26,0,.46-.06.6-.18s.21-.29.21-.5-.09-.38-.26-.47c-.17-.09-.49-.14-.96-.14h-.34v-.77l1.24-1.07h0s-1.9-.01-1.9-.01v-.92Z"/>
  </g>
  <path class="cls-7" d="M126.62,85.7v7.89c0,1.16-.95,2.11-2.11,2.11h-8.15c-.37,0-.72.17-.94.47l-1.51,2.02c-.39.53-1.2.53-1.59,0l-1.52-2.02c-.22-.29-.57-.47-.94-.47h-8.15c-1.16,0-2.1-.94-2.1-2.1v-7.91c0-1.16.94-2.1,2.1-2.1h22.8c1.16,0,2.11.95,2.11,2.11Z"/>
  <g>
    <path class="cls-6" d="M106.28,92.17v-3.58h-.01l-1.09,1.01-.36-.97,1.46-1.36h1.18v4.91h-1.18Z"/>
    <path class="cls-6" d="M109.22,87.26h3.45v.92c-.38.63-.7,1.25-.97,1.85-.27.61-.54,1.32-.81,2.13h-1.22c.53-1.45,1.18-2.77,1.93-3.96v-.03h-2.37v-.92Z"/>
    <path class="cls-6" d="M116.2,87.19l.2.92c-.47.01-.85.1-1.13.27-.28.16-.49.41-.64.74h0c.29-.17.6-.25.95-.25.52,0,.92.14,1.2.41.28.28.42.68.42,1.21s-.17.95-.52,1.27c-.35.32-.8.48-1.37.48s-1.05-.17-1.39-.5-.51-.82-.51-1.46c0-.94.25-1.68.75-2.23.5-.55,1.18-.83,2.04-.85ZM115.31,91.41c.25,0,.45-.08.58-.23.14-.16.21-.39.21-.69,0-.27-.07-.48-.21-.63-.14-.15-.33-.22-.58-.22s-.43.08-.58.23c-.14.15-.21.36-.21.62,0,.3.07.52.21.68s.33.24.58.24Z"/>
    <path class="cls-6" d="M118.34,87.55c.32-.24.76-.35,1.32-.35s1.01.12,1.32.35c.32.23.48.54.48.9,0,.43-.28.78-.83,1.06h0c.65.28.98.71.98,1.31,0,.43-.17.77-.51,1.03-.34.25-.82.38-1.44.38s-1.09-.13-1.43-.38c-.34-.26-.51-.6-.51-1.03,0-.49.31-.88.93-1.17h0c-.52-.3-.79-.7-.79-1.2,0-.37.16-.67.48-.9ZM119.55,90c-.27.11-.46.22-.56.34-.11.12-.16.26-.16.42,0,.19.08.35.24.48.16.13.36.19.6.19s.45-.06.6-.19c.15-.12.23-.28.23-.48,0-.18-.06-.32-.19-.43-.13-.11-.38-.22-.76-.34ZM119.72,89.22c.25-.09.42-.19.52-.29.1-.11.15-.23.15-.37,0-.17-.06-.3-.19-.41-.13-.11-.31-.16-.53-.16s-.39.05-.52.16c-.13.11-.19.24-.19.41,0,.14.06.27.17.38s.31.2.59.29Z"/>
  </g>
  <path class="cls-7" d="M184.81,48.22v7.89c0,1.16-.95,2.11-2.11,2.11h-8.15c-.37,0-.72.17-.94.47l-1.51,2.02c-.39.53-1.2.53-1.59,0l-1.52-2.02c-.22-.29-.57-.47-.94-.47h-8.15c-1.16,0-2.1-.94-2.1-2.1v-7.91c0-1.16.94-2.1,2.1-2.1h22.8c1.16,0,2.11.95,2.11,2.11Z"/>
  <g>
    <path class="cls-6" d="M163.07,49.78h3.27v.92l-1.31,1.08h0s.09.01.09.01c.39,0,.7.12.94.36s.35.57.35.98c0,.52-.16.92-.48,1.2-.32.28-.77.42-1.37.42s-1.09-.13-1.56-.38l.28-.87c.45.23.85.35,1.18.35.26,0,.46-.06.61-.18s.21-.29.21-.5-.09-.38-.26-.47-.49-.14-.96-.14h-.34v-.77l1.24-1.07h0s-1.9-.01-1.9-.01v-.92Z"/>
    <path class="cls-6" d="M167.44,49.78h3.27v.92l-1.31,1.08h0s.09.01.09.01c.39,0,.7.12.94.36s.35.57.35.98c0,.52-.16.92-.48,1.2-.32.28-.78.42-1.37.42s-1.09-.13-1.56-.38l.28-.87c.45.23.85.35,1.18.35.26,0,.46-.06.6-.18s.21-.29.21-.5-.09-.38-.26-.47c-.17-.09-.49-.14-.96-.14h-.34v-.77l1.24-1.07h0s-1.9-.01-1.9-.01v-.92Z"/>
    <path class="cls-6" d="M171.81,49.78h3.27v.92l-1.31,1.08h0s.09.01.09.01c.39,0,.7.12.94.36s.35.57.35.98c0,.52-.16.92-.48,1.2-.32.28-.77.42-1.37.42s-1.09-.13-1.56-.38l.28-.87c.45.23.85.35,1.18.35.26,0,.46-.06.61-.18s.21-.29.21-.5-.09-.38-.26-.47-.49-.14-.96-.14h-.34v-.77l1.24-1.07h0s-1.9-.01-1.9-.01v-.92Z"/>
    <path class="cls-6" d="M176.39,50.3c.32-.39.81-.59,1.47-.59s1.15.2,1.47.59c.32.39.48,1.04.48,1.93s-.16,1.53-.48,1.93c-.32.39-.81.59-1.47.59s-1.15-.2-1.47-.59c-.32-.39-.48-1.04-.48-1.93s.16-1.54.48-1.93ZM177.26,53.52c.13.25.33.37.59.37s.47-.12.59-.37.19-.67.19-1.28-.06-1.04-.19-1.28c-.13-.25-.33-.37-.59-.37s-.47.12-.59.37c-.13.25-.19.67-.19,1.28s.06,1.04.19,1.28Z"/>
  </g>
  <g>
    <path class="cls-7" d="M75.81,165.38c.88-.68,1.46-1.18,1.74-1.51.28-.33.42-.66.42-.97,0-.41-.23-.62-.69-.62-.37,0-.8.16-1.3.48l-.29-.91c.23-.15.51-.28.83-.37.32-.1.63-.14.93-.14.54,0,.96.13,1.25.39.29.26.44.62.44,1.07,0,.39-.12.77-.37,1.13s-.74.84-1.46,1.45h0s1.86.01,1.86.01v.92h-3.36v-.92Z"/>
    <path class="cls-7" d="M80.37,161.92c.32-.39.81-.59,1.47-.59s1.15.2,1.47.59c.32.39.48,1.04.48,1.93s-.16,1.53-.48,1.93c-.32.39-.81.59-1.47.59s-1.15-.2-1.47-.59c-.32-.39-.48-1.04-.48-1.93s.16-1.54.48-1.93ZM81.25,165.13c.13.25.33.37.59.37s.47-.12.59-.37c.13-.25.19-.67.19-1.28s-.06-1.04-.19-1.28c-.13-.25-.33-.37-.59-.37s-.47.12-.59.37c-.13.25-.19.67-.19,1.28s.06,1.04.19,1.28Z"/>
    <path class="cls-7" d="M85.92,166.3v-3.58h-.01l-1.09,1.01-.36-.97,1.46-1.36h1.18v4.91h-1.18Z"/>
    <path class="cls-7" d="M89.25,161.68c.32-.24.76-.35,1.32-.35s1.01.12,1.32.35c.32.23.48.54.48.9,0,.43-.28.78-.83,1.06h0c.65.28.98.71.98,1.31,0,.43-.17.77-.51,1.03-.34.25-.82.38-1.44.38s-1.09-.13-1.43-.38c-.34-.26-.51-.6-.51-1.03,0-.49.31-.88.93-1.17h0c-.52-.3-.79-.7-.79-1.2,0-.37.16-.67.48-.9ZM90.46,164.14c-.27.11-.46.22-.56.34-.11.12-.16.26-.16.42,0,.19.08.35.24.48.16.13.36.19.6.19s.45-.06.6-.19c.15-.12.23-.28.23-.48,0-.18-.06-.32-.19-.43-.13-.11-.38-.22-.76-.34ZM90.62,163.36c.25-.09.42-.19.52-.29.1-.11.15-.23.15-.37,0-.17-.06-.3-.19-.41-.13-.11-.31-.16-.53-.16s-.39.05-.52.16c-.13.11-.19.24-.19.41,0,.14.06.27.17.38s.31.2.59.29Z"/>
  </g>
  <g>
    <path class="cls-7" d="M104.91,165.38c.88-.68,1.46-1.18,1.74-1.51.28-.33.42-.66.42-.97,0-.41-.23-.62-.69-.62-.37,0-.8.16-1.3.48l-.29-.91c.23-.15.51-.28.83-.37.32-.1.63-.14.93-.14.54,0,.96.13,1.25.39.29.26.44.62.44,1.07,0,.39-.12.77-.37,1.13s-.74.84-1.46,1.45h0s1.86.01,1.86.01v.92h-3.36v-.92Z"/>
    <path class="cls-7" d="M109.47,161.92c.32-.39.81-.59,1.47-.59s1.15.2,1.47.59c.32.39.48,1.04.48,1.93s-.16,1.53-.48,1.93c-.32.39-.81.59-1.47.59s-1.15-.2-1.47-.59c-.32-.39-.48-1.04-.48-1.93s.16-1.54.48-1.93ZM110.34,165.13c.13.25.33.37.59.37s.47-.12.59-.37c.13-.25.19-.67.19-1.28s-.06-1.04-.19-1.28c-.13-.25-.33-.37-.59-.37s-.47.12-.59.37c-.13.25-.19.67-.19,1.28s.06,1.04.19,1.28Z"/>
    <path class="cls-7" d="M115.01,166.3v-3.58h-.01l-1.09,1.01-.36-.97,1.46-1.36h1.18v4.91h-1.18Z"/>
    <path class="cls-7" d="M118.49,165.45c.5-.02.89-.11,1.18-.27.29-.16.51-.4.65-.74h0c-.29.17-.6.25-.95.25-.52,0-.92-.14-1.2-.42-.28-.28-.42-.69-.42-1.24,0-.51.17-.92.52-1.24.35-.32.81-.48,1.37-.48s1.05.17,1.39.5c.33.34.5.81.5,1.42,0,.96-.26,1.72-.77,2.26s-1.21.83-2.08.85l-.2-.92ZM119.66,162.16c-.25,0-.45.08-.59.23s-.21.37-.21.66.07.5.22.66c.14.15.34.23.58.23s.43-.08.57-.23c.14-.16.21-.37.21-.66s-.07-.5-.21-.66c-.14-.15-.33-.23-.58-.23Z"/>
  </g>
  <g>
    <path class="cls-7" d="M134,165.38c.88-.68,1.46-1.18,1.74-1.51.28-.33.42-.66.42-.97,0-.41-.23-.62-.69-.62-.37,0-.8.16-1.3.48l-.29-.91c.23-.15.51-.28.83-.37.32-.1.63-.14.93-.14.54,0,.96.13,1.25.39.29.26.44.62.44,1.07,0,.39-.12.77-.37,1.13-.25.36-.74.84-1.46,1.45h0s1.86.01,1.86.01v.92h-3.36v-.92Z"/>
    <path class="cls-7" d="M138.56,161.92c.32-.39.81-.59,1.47-.59s1.15.2,1.47.59c.32.39.48,1.04.48,1.93s-.16,1.53-.48,1.93c-.32.39-.81.59-1.47.59s-1.15-.2-1.47-.59c-.32-.39-.48-1.04-.48-1.93s.16-1.54.48-1.93ZM139.43,165.13c.13.25.33.37.59.37s.47-.12.59-.37.19-.67.19-1.28-.06-1.04-.19-1.28c-.13-.25-.33-.37-.59-.37s-.47.12-.59.37c-.13.25-.19.67-.19,1.28s.06,1.04.19,1.28Z"/>
    <path class="cls-7" d="M142.74,165.38c.88-.68,1.46-1.18,1.74-1.51.28-.33.42-.66.42-.97,0-.41-.23-.62-.69-.62-.37,0-.8.16-1.3.48l-.29-.91c.23-.15.5-.28.83-.37.32-.1.63-.14.93-.14.54,0,.96.13,1.25.39.29.26.44.62.44,1.07,0,.39-.12.77-.37,1.13-.25.36-.74.84-1.46,1.45h0s1.86.01,1.86.01v.92h-3.36v-.92Z"/>
    <path class="cls-7" d="M147.3,161.92c.32-.39.81-.59,1.47-.59s1.15.2,1.47.59c.32.39.48,1.04.48,1.93s-.16,1.53-.48,1.93c-.32.39-.81.59-1.47.59s-1.15-.2-1.47-.59c-.32-.39-.48-1.04-.48-1.93s.16-1.54.48-1.93ZM148.17,165.13c.13.25.33.37.59.37s.47-.12.59-.37.19-.67.19-1.28-.06-1.04-.19-1.28c-.13-.25-.33-.37-.59-.37s-.47.12-.59.37c-.13.25-.19.67-.19,1.28s.06,1.04.19,1.28Z"/>
  </g>
  <g>
    <path class="cls-7" d="M163.09,165.38c.88-.68,1.46-1.18,1.74-1.51.28-.33.42-.66.42-.97,0-.41-.23-.62-.69-.62-.37,0-.8.16-1.3.48l-.29-.91c.23-.15.5-.28.83-.37.32-.1.63-.14.93-.14.54,0,.96.13,1.25.39.29.26.44.62.44,1.07,0,.39-.12.77-.37,1.13-.25.36-.74.84-1.46,1.45h0s1.86.01,1.86.01v.92h-3.36v-.92Z"/>
    <path class="cls-7" d="M167.65,161.92c.32-.39.81-.59,1.47-.59s1.15.2,1.47.59c.32.39.48,1.04.48,1.93s-.16,1.53-.48,1.93c-.32.39-.81.59-1.47.59s-1.15-.2-1.47-.59c-.32-.39-.48-1.04-.48-1.93s.16-1.54.48-1.93ZM168.53,165.13c.13.25.33.37.59.37s.47-.12.59-.37.19-.67.19-1.28-.06-1.04-.19-1.28c-.13-.25-.33-.37-.59-.37s-.47.12-.59.37c-.13.25-.19.67-.19,1.28s.06,1.04.19,1.28Z"/>
    <path class="cls-7" d="M171.83,165.38c.88-.68,1.46-1.18,1.74-1.51.28-.33.42-.66.42-.97,0-.41-.23-.62-.69-.62-.37,0-.8.16-1.3.48l-.29-.91c.23-.15.5-.28.83-.37.32-.1.63-.14.93-.14.54,0,.96.13,1.25.39.29.26.44.62.44,1.07,0,.39-.12.77-.37,1.13-.25.36-.74.84-1.46,1.45h0s1.86.01,1.86.01v.92h-3.36v-.92Z"/>
    <path class="cls-7" d="M177.57,166.3v-3.58h-.01l-1.09,1.01-.36-.97,1.46-1.36h1.18v4.91h-1.18Z"/>
  </g>
  <g>
    <path class="cls-7" d="M192.19,165.38c.88-.68,1.46-1.18,1.74-1.51s.42-.66.42-.97c0-.41-.23-.62-.69-.62-.37,0-.8.16-1.3.48l-.29-.91c.23-.15.51-.28.83-.37.33-.1.63-.14.93-.14.54,0,.96.13,1.25.39s.44.62.44,1.07c0,.39-.12.77-.37,1.13-.25.36-.74.84-1.46,1.45h0s1.86.01,1.86.01v.92h-3.36v-.92Z"/>
    <path class="cls-7" d="M196.75,161.92c.32-.39.81-.59,1.47-.59s1.15.2,1.47.59c.32.39.48,1.04.48,1.93s-.16,1.53-.48,1.93c-.32.39-.81.59-1.47.59s-1.15-.2-1.47-.59c-.32-.39-.48-1.04-.48-1.93s.16-1.54.48-1.93ZM197.62,165.13c.13.25.33.37.59.37s.47-.12.59-.37c.13-.25.19-.67.19-1.28s-.06-1.04-.19-1.28c-.13-.25-.33-.37-.59-.37s-.47.12-.59.37c-.13.25-.19.67-.19,1.28s.06,1.04.19,1.28Z"/>
    <path class="cls-7" d="M200.92,165.38c.88-.68,1.46-1.18,1.74-1.51s.42-.66.42-.97c0-.41-.23-.62-.69-.62-.37,0-.8.16-1.3.48l-.29-.91c.23-.15.51-.28.83-.37.33-.1.63-.14.93-.14.54,0,.96.13,1.25.39s.44.62.44,1.07c0,.39-.12.77-.37,1.13-.25.36-.74.84-1.46,1.45h0s1.86.01,1.86.01v.92h-3.36v-.92Z"/>
    <path class="cls-7" d="M205.29,165.38c.88-.68,1.46-1.18,1.74-1.51.28-.33.42-.66.42-.97,0-.41-.23-.62-.69-.62-.37,0-.8.16-1.3.48l-.29-.91c.23-.15.5-.28.83-.37.32-.1.63-.14.93-.14.54,0,.96.13,1.25.39.29.26.44.62.44,1.07,0,.39-.12.77-.37,1.13-.25.36-.74.84-1.46,1.45h0s1.86.01,1.86.01v.92h-3.36v-.92Z"/>
  </g>
  <g>
    <path class="cls-7" d="M221.28,165.38c.88-.68,1.46-1.18,1.74-1.51.28-.33.42-.66.42-.97,0-.41-.23-.62-.69-.62-.37,0-.8.16-1.3.48l-.29-.91c.23-.15.5-.28.83-.37.32-.1.63-.14.93-.14.54,0,.96.13,1.25.39.29.26.44.62.44,1.07,0,.39-.12.77-.37,1.13-.25.36-.74.84-1.46,1.45h0s1.86.01,1.86.01v.92h-3.36v-.92Z"/>
    <path class="cls-7" d="M225.84,161.92c.32-.39.81-.59,1.47-.59s1.15.2,1.47.59c.32.39.48,1.04.48,1.93s-.16,1.53-.48,1.93c-.32.39-.81.59-1.47.59s-1.15-.2-1.47-.59c-.32-.39-.48-1.04-.48-1.93s.16-1.54.48-1.93ZM226.71,165.13c.13.25.33.37.59.37s.47-.12.59-.37.19-.67.19-1.28-.06-1.04-.19-1.28c-.13-.25-.33-.37-.59-.37s-.47.12-.59.37c-.13.25-.19.67-.19,1.28s.06,1.04.19,1.28Z"/>
    <path class="cls-7" d="M230.02,165.38c.88-.68,1.46-1.18,1.74-1.51.28-.33.42-.66.42-.97,0-.41-.23-.62-.69-.62-.37,0-.8.16-1.3.48l-.29-.91c.23-.15.5-.28.83-.37.32-.1.63-.14.93-.14.54,0,.96.13,1.25.39.29.26.44.62.44,1.07,0,.39-.12.77-.37,1.13-.25.36-.74.84-1.46,1.45h0s1.86.01,1.86.01v.92h-3.36v-.92Z"/>
    <path class="cls-7" d="M234.36,161.4h3.27v.92l-1.31,1.08h0s.09.01.09.01c.39,0,.7.12.94.36s.35.57.35.98c0,.52-.16.92-.48,1.2-.32.28-.78.42-1.37.42s-1.09-.13-1.56-.38l.28-.87c.45.23.85.35,1.18.35.26,0,.46-.06.6-.18s.21-.29.21-.5-.09-.38-.26-.47c-.17-.09-.49-.14-.96-.14h-.34v-.77l1.24-1.07h0s-1.9-.01-1.9-.01v-.92Z"/>
  </g>
  <g>
    <path class="cls-7" d="M250.37,165.38c.88-.68,1.46-1.18,1.74-1.51s.42-.66.42-.97c0-.41-.23-.62-.69-.62-.37,0-.8.16-1.3.48l-.29-.91c.23-.15.51-.28.83-.37.33-.1.63-.14.93-.14.54,0,.96.13,1.25.39s.44.62.44,1.07c0,.39-.12.77-.37,1.13-.25.36-.74.84-1.46,1.45h0s1.86.01,1.86.01v.92h-3.36v-.92Z"/>
    <path class="cls-7" d="M254.93,161.92c.32-.39.81-.59,1.47-.59s1.15.2,1.47.59c.32.39.48,1.04.48,1.93s-.16,1.53-.48,1.93c-.32.39-.81.59-1.47.59s-1.15-.2-1.47-.59c-.32-.39-.48-1.04-.48-1.93s.16-1.54.48-1.93ZM255.81,165.13c.13.25.33.37.59.37s.47-.12.59-.37c.13-.25.19-.67.19-1.28s-.06-1.04-.19-1.28c-.13-.25-.33-.37-.59-.37s-.47.12-.59.37c-.13.25-.19.67-.19,1.28s.06,1.04.19,1.28Z"/>
    <path class="cls-7" d="M259.11,165.38c.88-.68,1.46-1.18,1.74-1.51s.42-.66.42-.97c0-.41-.23-.62-.69-.62-.37,0-.8.16-1.3.48l-.29-.91c.23-.15.51-.28.83-.37.33-.1.63-.14.93-.14.54,0,.96.13,1.25.39s.44.62.44,1.07c0,.39-.12.77-.37,1.13-.25.36-.74.84-1.46,1.45h0s1.86.01,1.86.01v.92h-3.36v-.92Z"/>
    <path class="cls-7" d="M266.31,164.47h.71v.89h-.71v.94h-1.1v-.94h-2.18v-.89l2.18-3.07h1.1v3.07ZM265.21,164.47v-1.69h-.01l-1.16,1.67h0s1.18.01,1.18.01Z"/>
  </g>
  <path class="cls-3" d="M264.3,10.43c0,2.67-1.82,4.91-4.3,5.53-3.27,18.57-14.13,29.15-24.8,33.6,0,.04,0,.08,0,.12,0,3.16-2.55,5.72-5.71,5.72-2.1,0-3.94-1.13-4.93-2.83-14.09,3.38-28.92,7.33-47.61,16.27.05.3.08.6.08.91,0,3.16-2.56,5.71-5.72,5.71-1.57,0-2.99-.62-4.02-1.65-7.43,4.25-12.53,8.42-17.86,12.79-7.61,6.22-15.45,12.63-30.64,19.88.04.25.06.5.06.76,0,3.15-2.56,5.71-5.71,5.71-1.71,0-3.24-.75-4.29-1.95-12.74,5.84-25.88,12.61-36.68,18.18-4.27,2.2-8.15,4.19-11.59,5.92.05.31.08.61.08.93,0,3.15-2.55,5.71-5.71,5.71-1.6,0-3.06-.66-4.09-1.74-2.76,1.5-5.08,2.9-7.2,4.19-5.15,3.11-9.6,5.8-17,7.84-.15.05-.3.07-.45.07-.73,0-1.4-.49-1.61-1.23-.24-.89.28-1.81,1.17-2.05,6.96-1.93,11.02-4.38,16.16-7.49,2.19-1.32,4.56-2.75,7.41-4.3-.07-.33-.1-.66-.1-1,0-3.16,2.55-5.72,5.71-5.72,1.63,0,3.11.69,4.15,1.8,3.42-1.72,7.3-3.71,11.55-5.9,10.84-5.58,24.01-12.37,36.82-18.26-.03-.23-.05-.47-.05-.71,0-3.16,2.56-5.72,5.72-5.72,1.69,0,3.22.74,4.25,1.92,14.81-7.07,22.48-13.34,29.92-19.43,5.48-4.48,10.71-8.75,18.4-13.14-.07-.36-.11-.73-.11-1.11,0-3.16,2.55-5.71,5.71-5.71,1.64,0,3.13.69,4.17,1.8,19.01-9.1,34.05-13.11,48.33-16.54.18-2.99,2.66-5.34,5.69-5.34,1.94,0,3.66.97,4.68,2.45,13.26-5.49,20.2-18.71,22.45-30.62-2.2-.79-3.76-2.89-3.76-5.36,0-3.16,2.56-5.71,5.72-5.71s5.71,2.55,5.71,5.71Z"/>
  <path class="cls-7" d="M243,28.15v7.89c0,1.16-.95,2.11-2.11,2.11h-8.15c-.37,0-.72.17-.94.47l-1.51,2.02c-.39.53-1.2.53-1.59,0l-1.52-2.02c-.22-.29-.57-.47-.94-.47h-8.15c-1.16,0-2.1-.94-2.1-2.1v-7.91c0-1.16.94-2.1,2.1-2.1h22.8c1.16,0,2.11.95,2.11,2.11Z"/>
  <g>
    <path class="cls-6" d="M224.11,32.78h.71v.89h-.71v.94h-1.09v-.94h-2.18v-.89l2.18-3.07h1.09v3.07ZM223.01,32.78v-1.69h-.01l-1.16,1.67h0s1.18.01,1.18.01Z"/>
    <path class="cls-6" d="M225.65,33.7c.88-.68,1.46-1.18,1.74-1.51.28-.33.42-.66.42-.97,0-.41-.23-.62-.69-.62-.37,0-.8.16-1.3.48l-.29-.91c.23-.15.5-.28.83-.37.32-.1.63-.14.93-.14.54,0,.96.13,1.25.39.29.26.44.62.44,1.07,0,.39-.12.77-.37,1.13-.25.36-.74.84-1.46,1.45h0s1.86.01,1.86.01v.92h-3.36v-.92Z"/>
    <path class="cls-6" d="M230.01,33.7c.88-.68,1.46-1.18,1.74-1.51s.42-.66.42-.97c0-.41-.23-.62-.69-.62-.37,0-.8.16-1.3.48l-.29-.91c.23-.15.51-.28.83-.37.33-.1.63-.14.93-.14.54,0,.96.13,1.25.39s.44.62.44,1.07c0,.39-.12.77-.37,1.13-.25.36-.74.84-1.46,1.45h0s1.86.01,1.86.01v.92h-3.36v-.92Z"/>
    <path class="cls-6" d="M237.56,30.63h-1.96l-.05.91h.01c.21-.09.42-.13.64-.13.5,0,.89.13,1.16.4.27.27.41.65.41,1.14,0,1.16-.69,1.73-2.06,1.73-.5,0-.97-.09-1.41-.28l.24-.91c.44.19.82.28,1.13.28.66,0,.99-.28.99-.83,0-.45-.22-.67-.67-.67-.2,0-.39.08-.58.25h-.97l.13-2.82h2.99v.92Z"/>
  </g>
  <path class="cls-5" d="M200.22.76h43.98c1.16,0,2.11.95,2.11,2.11v4.31c0,.37.17.72.47.94l2.02,1.51c.53.39.53,1.2,0,1.59l-2.02,1.52c-.29.22-.47.57-.47.94v4.31c0,1.16-.94,2.1-2.1,2.1h-44c-1.16,0-2.1-.94-2.1-2.1V2.87c0-1.16.95-2.11,2.11-2.11Z"/>
  <g>
    <path class="cls-6" d="M210.07,7.21h-4.29l-.1,2h.03c.45-.2.92-.29,1.42-.29,1.1,0,1.95.29,2.55.88s.9,1.42.9,2.49c0,2.54-1.51,3.8-4.53,3.8-1.1,0-2.13-.21-3.1-.62l.52-1.99c.97.41,1.8.62,2.48.62,1.45,0,2.17-.61,2.17-1.81,0-.98-.49-1.47-1.47-1.47-.43,0-.86.19-1.28.56h-2.14l.29-6.19h6.56v2.02Z"/>
    <path class="cls-6" d="M213.42,13.94c1.94-1.48,3.21-2.59,3.83-3.33.61-.73.92-1.44.92-2.13,0-.9-.5-1.36-1.5-1.36-.81,0-1.76.35-2.86,1.06l-.63-2c.5-.33,1.11-.61,1.82-.82.71-.21,1.39-.32,2.04-.32,1.19,0,2.1.28,2.74.85.64.57.96,1.35.96,2.35,0,.87-.27,1.69-.82,2.48-.55.79-1.61,1.85-3.21,3.18v.03h4.08v2.02h-7.37v-2.02Z"/>
    <path class="cls-6" d="M230.71,7.21h-4.29l-.1,2h.03c.45-.2.92-.29,1.42-.29,1.1,0,1.95.29,2.55.88s.9,1.42.9,2.49c0,2.54-1.51,3.8-4.53,3.8-1.1,0-2.13-.21-3.1-.62l.52-1.99c.97.41,1.8.62,2.48.62,1.45,0,2.17-.61,2.17-1.81,0-.98-.49-1.47-1.47-1.47-.43,0-.86.19-1.28.56h-2.14l.29-6.19h6.56v2.02Z"/>
    <path class="cls-6" d="M233.94,5.19h7.56v2.02c-.83,1.38-1.54,2.73-2.14,4.07s-1.19,2.9-1.78,4.67h-2.68c1.17-3.19,2.58-6.08,4.23-8.69v-.06h-5.19v-2.02Z"/>
  </g>
  <path class="cls-4" d="M21.69,96.41H2.11C.94,96.41,0,97.36,0,98.52v7.9C0,107.58.94,108.53,2.11,108.53h19.58c.64,0,1.25-.29,1.65-.79l4.19-5.26-4.19-5.26c-.4-.5-1.01-.79-1.65-.79Z"/>
  <path class="cls-4" d="M21.69,48.42H2.11C.94,48.42,0,49.36,0,50.53v7.9C0,59.59.94,60.53,2.11,60.53h19.58c.64,0,1.25-.29,1.65-.79l4.19-5.26-4.19-5.26c-.4-.5-1.01-.79-1.65-.79Z"/>
  <g>
    <path class="cls-7" d="M4.89,55.02h.71v.89h-.71v.94h-1.1v-.94H1.61v-.89l2.18-3.07h1.1v3.07ZM3.79,55.02v-1.69h-.01l-1.16,1.67h0s1.18.01,1.18.01Z"/>
    <path class="cls-7" d="M6.62,52.48c.32-.39.81-.59,1.47-.59s1.15.2,1.47.59c.32.39.48,1.04.48,1.93s-.16,1.53-.48,1.93c-.32.39-.81.59-1.47.59s-1.15-.2-1.47-.59c-.32-.39-.48-1.04-.48-1.93s.16-1.54.48-1.93ZM7.49,55.69c.13.25.33.37.59.37s.47-.12.59-.37c.13-.25.19-.67.19-1.28s-.06-1.04-.19-1.28c-.13-.25-.33-.37-.59-.37s-.47.12-.59.37c-.13.25-.19.67-.19,1.28s.06,1.04.19,1.28Z"/>
    <path class="cls-7" d="M10.98,52.48c.32-.39.81-.59,1.47-.59s1.15.2,1.47.59c.32.39.48,1.04.48,1.93s-.16,1.53-.48,1.93c-.32.39-.81.59-1.47.59s-1.15-.2-1.47-.59c-.32-.39-.48-1.04-.48-1.93s.16-1.54.48-1.93ZM11.86,55.69c.13.25.33.37.59.37s.47-.12.59-.37c.13-.25.19-.67.19-1.28s-.06-1.04-.19-1.28c-.13-.25-.33-.37-.59-.37s-.47.12-.59.37c-.13.25-.19.67-.19,1.28s.06,1.04.19,1.28Z"/>
    <path class="cls-7" d="M15.35,52.48c.32-.39.81-.59,1.47-.59s1.15.2,1.47.59c.32.39.48,1.04.48,1.93s-.16,1.53-.48,1.93c-.32.39-.81.59-1.47.59s-1.15-.2-1.47-.59c-.32-.39-.48-1.04-.48-1.93s.16-1.54.48-1.93ZM16.23,55.69c.13.25.33.37.59.37s.47-.12.59-.37c.13-.25.19-.67.19-1.28s-.06-1.04-.19-1.28c-.13-.25-.33-.37-.59-.37s-.47.12-.59.37c-.13.25-.19.67-.19,1.28s.06,1.04.19,1.28Z"/>
  </g>
  <path class="cls-7" d="M19.68,55.93c.59-.32,1.03-.73,1.33-1.23s.44-1.09.44-1.8v-.5h.74v.5c0,.7.15,1.3.44,1.8s.73.9,1.33,1.23l-.4.56c-.36-.18-.69-.44-.98-.79-.3-.35-.53-.74-.71-1.17-.19.44-.43.83-.74,1.17-.31.34-.65.61-1.02.79l-.4-.56Z"/>
  <g>
    <path class="cls-7" d="M2.06,103.93c.88-.68,1.46-1.18,1.74-1.51.28-.33.42-.66.42-.97,0-.41-.23-.62-.69-.62-.37,0-.8.16-1.3.48l-.29-.91c.23-.15.51-.28.83-.37.32-.1.63-.14.93-.14.54,0,.96.13,1.25.39.29.26.44.62.44,1.07,0,.39-.12.77-.37,1.13s-.74.84-1.46,1.45h0s1.86.01,1.86.01v.92h-3.36v-.92Z"/>
    <path class="cls-7" d="M6.62,100.47c.32-.39.81-.59,1.47-.59s1.15.2,1.47.59c.32.39.48,1.04.48,1.93s-.16,1.53-.48,1.93c-.32.39-.81.59-1.47.59s-1.15-.2-1.47-.59c-.32-.39-.48-1.04-.48-1.93s.16-1.54.48-1.93ZM7.49,103.69c.13.25.33.37.59.37s.47-.12.59-.37c.13-.25.19-.67.19-1.28s-.06-1.04-.19-1.28c-.13-.25-.33-.37-.59-.37s-.47.12-.59.37c-.13.25-.19.67-.19,1.28s.06,1.04.19,1.28Z"/>
    <path class="cls-7" d="M10.98,100.47c.32-.39.81-.59,1.47-.59s1.15.2,1.47.59c.32.39.48,1.04.48,1.93s-.16,1.53-.48,1.93c-.32.39-.81.59-1.47.59s-1.15-.2-1.47-.59c-.32-.39-.48-1.04-.48-1.93s.16-1.54.48-1.93ZM11.86,103.69c.13.25.33.37.59.37s.47-.12.59-.37c.13-.25.19-.67.19-1.28s-.06-1.04-.19-1.28c-.13-.25-.33-.37-.59-.37s-.47.12-.59.37c-.13.25-.19.67-.19,1.28s.06,1.04.19,1.28Z"/>
    <path class="cls-7" d="M15.35,100.47c.32-.39.81-.59,1.47-.59s1.15.2,1.47.59c.32.39.48,1.04.48,1.93s-.16,1.53-.48,1.93c-.32.39-.81.59-1.47.59s-1.15-.2-1.47-.59c-.32-.39-.48-1.04-.48-1.93s.16-1.54.48-1.93ZM16.23,103.69c.13.25.33.37.59.37s.47-.12.59-.37c.13-.25.19-.67.19-1.28s-.06-1.04-.19-1.28c-.13-.25-.33-.37-.59-.37s-.47.12-.59.37c-.13.25-.19.67-.19,1.28s.06,1.04.19,1.28Z"/>
  </g>
  <path class="cls-7" d="M19.68,103.93c.59-.32,1.03-.73,1.33-1.23s.44-1.09.44-1.8v-.5h.74v.5c0,.7.15,1.3.44,1.8s.73.9,1.33,1.23l-.4.56c-.36-.18-.69-.44-.98-.79-.3-.35-.53-.74-.71-1.17-.19.44-.43.83-.74,1.17-.31.34-.65.61-1.02.79l-.4-.56Z"/>
</svg>