<?xml version="1.0" encoding="UTF-8"?>
<svg id="Layer_1" data-name="Layer 1" xmlns="http://www.w3.org/2000/svg" viewBox="0 0 166.63 126.72">
  <defs>
    <style>
      .cls-1 {
        fill: #fff;
        stroke-width: 0px;
      }
    </style>
  </defs>
  <path class="cls-1" d="M121.11,2.87c1.78,0,3.46.84,4.36,2.19l37.59,56.08c.92,1.37.92,3.06,0,4.43l-37.59,56.08c-.9,1.35-2.58,2.19-4.36,2.19H7.94c-2.37,0-3.92-1.32-4.58-2.56-.41-.77-.93-2.33.22-4.05l32.48-48.45c2.2-3.29,2.2-7.54,0-10.83L3.58,9.49c-1.16-1.72-.64-3.28-.22-4.05.66-1.24,2.21-2.56,4.58-2.56h113.18M121.11,0H7.94C1.74,0-2.06,6.24,1.19,11.09l32.48,48.46c1.57,2.34,1.57,5.29,0,7.63L1.19,115.63c-3.25,4.85.55,11.09,6.75,11.09h113.18c2.75,0,5.31-1.31,6.75-3.46l37.59-56.08c1.57-2.34,1.57-5.29,0-7.63L127.86,3.46c-1.44-2.15-4-3.46-6.75-3.46h0Z"/>
</svg>