<?xml version="1.0" encoding="UTF-8"?>
<svg id="Layer_6" data-name="Layer 6" xmlns="http://www.w3.org/2000/svg" viewBox="0 0 122.72 26.21">
  <defs>
    <style>
      .cls-1 {
        fill: #000;
        stroke-width: 0px;
      }
    </style>
  </defs>
  <path class="cls-1" d="M0,13.76c.06-.62.05-.92.09-1.37.1-1.45.26-2.88.47-4.31.28-1.92.67-3.81,1.14-5.69.16-.64.52-.95,1.17-.95,1.35,0,2.71,0,4.06,0,.58,0,.87.41.72.97-.56,2.03-1.02,4.08-1.33,6.16-.2,1.38-.37,2.77-.43,4.17-.04.99-.02,1.98-.03,2.97,0,.38.11.5.4.52.18.02.24-.1.3-.22.66-1.25,1.31-2.5,1.97-3.75,1.73-3.3,3.46-6.59,5.2-9.89.26-.5.67-.78,1.28-.77,1.36.02,2.73.01,4.09,0,.28,0,.47.11.62.32.11.16.14.32.04.52-2.1,4.11-4.19,8.23-6.28,12.34-1.13,2.23-2.26,4.46-3.39,6.69-.56,1.11-1.13,2.22-1.69,3.33-.3.59-.73.87-1.42.89-1.68.05-3.35.04-5.03.04-.77,0-1.1-.3-1.19-1.06-.12-.98-.28-1.95-.39-2.93-.11-.92-.2-1.85-.27-2.77-.03-.48,0-.96-.08-1.43v-3.77ZM27.52,2.55c0-.58-.35-.94-.92-.94-1.32,0-2.65,0-3.97,0-.56,0-.91.36-.91.92v22.16c0,.57.36.92.94.93,1.29,0,2.59-.02,3.88.01.55.02,1-.43,1-1.01-.02-3.67-.01-7.34-.01-11.01V2.55ZM40.05,1.25c2.5.04,4.76.77,6.77,2.27.76.57.84,1.17.25,1.91-.42.53-.83,1.07-1.26,1.59-.57.7-1.14.8-1.91.34-1.2-.73-2.5-1.14-3.91-1.12-.92.01-1.77.21-2.36,1.03-.38.53-.4,1.07-.05,1.62.46.71,1.17,1.07,1.9,1.37,1.5.62,3,1.21,4.5,1.84,1.25.52,2.36,1.24,3.21,2.32.85,1.08,1.25,2.31,1.33,3.67.11,1.77-.36,3.36-1.46,4.75-1.31,1.65-3.05,2.61-5.08,3.01-3.77.74-7.22-.06-10.37-2.23-.12-.08-.23-.18-.34-.28-.52-.52-.55-1.04-.08-1.62.48-.59.98-1.18,1.46-1.77.13-.15.25-.31.39-.44.52-.49,1.03-.54,1.62-.14.89.6,1.84,1.09,2.87,1.4,1.1.33,2.21.45,3.33.16.6-.15,1.06-.5,1.4-1.01.35-.52.34-1.16-.03-1.69-.29-.42-.66-.75-1.12-.98-1.36-.7-2.81-1.22-4.21-1.82-1.09-.46-2.15-.95-3.08-1.71-3.27-2.67-3.37-7.41-.21-10.2,1.37-1.22,2.99-1.89,4.79-2.14.53-.08,1.07-.13,1.61-.12ZM51.97,13.68V3.02c0-.78.56-1.35,1.34-1.35,1.1,0,2.2,0,3.3,0,.63,0,1.21.6,1.22,1.23v21.56c0,.64-.59,1.23-1.24,1.23-1.12,0-2.24,0-3.36,0-.66,0-1.25-.59-1.25-1.26,0-3.58,0-7.17,0-10.75ZM73.12,26.21c-6.88,0-12.48-5.6-12.48-12.48s5.6-12.48,12.48-12.48,12.48,5.6,12.48,12.48-5.6,12.48-12.48,12.48ZM73.12,6.91c-3.77,0-6.83,3.06-6.83,6.83s3.06,6.83,6.83,6.83,6.83-3.06,6.83-6.83-3.06-6.83-6.83-6.83ZM118.94,5.24h-.46c-.31,0-.57.25-.57.57v.48c0,.31.25.57.57.57h.46c.26,0,.46-.07.61-.2.15-.13.22-.34.22-.63s-.07-.49-.22-.61c-.15-.12-.35-.18-.61-.18ZM120.72,11.68c-2.63,2.64-6.94,2.68-9.61.09-.63-.61-1.12-1.31-1.46-2.05-.17-.37-.55-.6-.96-.58h0c-.43.03-.73.44-.69.86.08.77.16,1.55.21,2.32.12,1.64.14,3.27.09,4.91-.05,1.61-.16,3.22-.39,4.83-.12.87-.26,1.74-.36,2.61-.05.45-.58.97-1.09.96-1.36-.05-2.73-.04-4.09,0-.69.02-1.11-.32-1.4-.87-.63-1.2-1.24-2.4-1.86-3.61-1.2-2.34-2.4-4.67-3.59-7.01-.36-.72-.69-1.46-.99-2.2-.12-.28-.29-.32-.53-.27-.23.04-.24.23-.24.43,0,4.21,0,8.42,0,12.63,0,.51-.36.89-.88.89-1.24,0-2.47,0-3.71,0-.58,0-.93-.35-.93-.93v-11.07c0-3.67.01-7.34-.01-11.01,0-.57.45-1.02,1-1.01,1.7.03,3.4.02,5.09,0,.58,0,.96.31,1.18.77,2.11,4.53,4.21,9.06,6.3,13.6.08.17.18.2.34.2.17,0,.27-.05.32-.23.03-.12.03-.23.03-.35.04-1.2-.03-2.39-.13-3.58-.26-3.28-.79-6.52-1.75-9.68-.14-.46.18-.9.67-.9,1.44,0,2.89,0,4.33,0,.35,0,.83.39.92.75.25.96.48,1.93.68,2.89.02.08.04.15.06.23.11.46.53.78,1.01.75.44-.02.81-.34.91-.77.28-1.21.9-2.36,1.85-3.31,2.68-2.67,7.07-2.64,9.72.06,2.63,2.68,2.61,6.98-.04,9.64ZM115.91,4.87c0-.32-.26-.57-.57-.57s-.57.26-.57.57v2.75c0,.37-.04.64-.13.81-.14.31-.43.46-.89.46s-.76-.15-.89-.46c-.09-.17-.13-.44-.13-.81v-2.75c0-.16-.06-.3-.17-.41-.11-.1-.25-.17-.41-.17-.32,0-.58.26-.58.57v2.75c0,.58.09,1.02.27,1.34.33.59.97.88,1.9.88s1.57-.29,1.9-.88c.18-.32.27-.77.27-1.34v-2.75h0ZM120.91,6.02c0-.59-.16-1.03-.49-1.31s-.76-.42-1.3-.42h-1.79c-.31,0-.57.25-.57.57v4.35c0,.31.25.57.57.57s.57-.25.57-.57v-.83c0-.31.25-.57.57-.57h.57c.6,0,1.05-.13,1.38-.4.32-.27.48-.73.48-1.38Z"/>
</svg>