<?xml version="1.0" encoding="UTF-8"?>
<svg id="Layer_1" data-name="Layer 1" xmlns="http://www.w3.org/2000/svg" xmlns:xlink="http://www.w3.org/1999/xlink" viewBox="0 0 233.73 33.22">
  <defs>
    <style>
      .cls-1 {
        clip-path: url(#clippath);
      }

      .cls-2 {
        fill: none;
      }

      .cls-2, .cls-3, .cls-4, .cls-5, .cls-6 {
        stroke-width: 0px;
      }

      .cls-7 {
        clip-path: url(#clippath-1);
      }

      .cls-3 {
        fill: #ea8124;
      }

      .cls-4 {
        fill-rule: evenodd;
      }

      .cls-4, .cls-5 {
        fill: #fff;
      }

      .cls-6 {
        fill: #96c5e0;
      }
    </style>
    <clipPath id="clippath">
      <rect class="cls-2" x="0" y="0" width="111.04" height="33.22"/>
    </clipPath>
    <clipPath id="clippath-1">
      <rect class="cls-2" x="0" y="0" width="111.04" height="33.22"/>
    </clipPath>
  </defs>
  <path class="cls-5" d="M140.78,15.12c.05-.47.04-.69.07-1.04.08-1.09.2-2.18.35-3.27.21-1.45.51-2.89.86-4.31.12-.49.4-.72.89-.72,1.03,0,2.05,0,3.08,0,.44,0,.66.31.54.74-.42,1.54-.78,3.09-1.01,4.67-.15,1.05-.28,2.1-.32,3.16-.03.75-.01,1.5-.03,2.25,0,.29.08.38.31.4.14.01.18-.07.23-.16.5-.95.99-1.89,1.49-2.84,1.31-2.5,2.62-4.99,3.94-7.49.2-.38.51-.59.97-.58,1.03.02,2.07,0,3.1,0,.21,0,.36.08.47.25.08.12.11.24.03.39-1.59,3.11-3.18,6.23-4.76,9.35-.86,1.69-1.71,3.38-2.57,5.06-.43.84-.85,1.68-1.28,2.52-.22.44-.55.66-1.08.67-1.27.04-2.54.03-3.81.03-.58,0-.83-.23-.9-.81-.09-.74-.21-1.48-.3-2.22-.08-.7-.15-1.4-.2-2.1-.02-.36,0-.73-.06-1.08v-2.85ZM161.62,6.63c0-.44-.26-.71-.7-.71-1,0-2.01,0-3.01,0-.42,0-.69.27-.69.7v16.78c0,.43.27.7.71.7.98,0,1.96-.02,2.94,0,.41.01.76-.32.76-.76-.02-2.78,0-5.56,0-8.34V6.63ZM171.11,5.64c1.89.03,3.61.58,5.13,1.72.58.44.63.89.19,1.45-.32.4-.63.81-.96,1.21-.43.53-.86.61-1.45.26-.91-.55-1.89-.86-2.96-.85-.69,0-1.34.16-1.79.78-.29.4-.3.81-.03,1.22.35.53.88.81,1.44,1.04,1.13.47,2.27.92,3.41,1.39.95.39,1.79.94,2.43,1.75.65.81.95,1.75,1.01,2.78.08,1.34-.27,2.55-1.1,3.6-.99,1.25-2.31,1.97-3.85,2.28-2.85.56-5.47-.04-7.86-1.69-.09-.06-.18-.14-.26-.21-.4-.4-.42-.79-.06-1.23.37-.45.74-.89,1.11-1.34.1-.11.19-.23.3-.33.39-.37.78-.41,1.23-.1.68.46,1.39.83,2.18,1.06.83.25,1.67.34,2.53.12.45-.12.8-.38,1.06-.77.26-.39.26-.88-.02-1.28-.22-.32-.5-.57-.85-.74-1.03-.53-2.12-.92-3.19-1.38-.82-.35-1.63-.72-2.33-1.29-2.47-2.02-2.55-5.61-.16-7.73,1.04-.92,2.26-1.43,3.63-1.62.4-.06.81-.1,1.22-.09ZM180.14,15.05V6.98c0-.59.43-1.02,1.01-1.02.83,0,1.66,0,2.5,0,.47,0,.92.45.92.93v16.33c0,.49-.45.93-.94.93-.85,0-1.69,0-2.54,0-.5,0-.95-.45-.95-.95,0-2.71,0-5.43,0-8.14ZM196.16,24.55c-5.21,0-9.45-4.24-9.45-9.45s4.24-9.45,9.45-9.45,9.45,4.24,9.45,9.45-4.24,9.45-9.45,9.45ZM196.16,9.93c-2.85,0-5.17,2.32-5.17,5.17s2.32,5.17,5.17,5.17,5.17-2.32,5.17-5.17-2.32-5.17-5.17-5.17ZM230.86,8.66h-.35c-.24,0-.43.19-.43.43v.36c0,.24.19.43.43.43h.35c.2,0,.35-.05.46-.15.11-.1.16-.26.16-.47s-.06-.37-.16-.46c-.11-.09-.26-.14-.46-.14ZM232.21,13.54c-1.99,2-5.25,2.03-7.28.07-.48-.46-.85-.99-1.11-1.55-.13-.28-.42-.46-.73-.44h0c-.33.02-.56.33-.52.65.06.59.12,1.17.16,1.76.09,1.24.11,2.48.07,3.72-.04,1.22-.12,2.44-.29,3.65-.09.66-.2,1.32-.27,1.98-.04.34-.44.74-.82.73-1.03-.04-2.07-.03-3.1,0-.52.01-.84-.24-1.06-.66-.48-.91-.94-1.82-1.41-2.73-.91-1.77-1.82-3.54-2.72-5.31-.28-.54-.52-1.1-.75-1.66-.09-.21-.22-.24-.4-.2-.18.03-.18.18-.18.33,0,3.19,0,6.38,0,9.57,0,.39-.27.67-.66.67-.94,0-1.87,0-2.81,0-.44,0-.7-.27-.7-.71v-8.39c0-2.78,0-5.56,0-8.34,0-.43.34-.77.76-.76,1.29.02,2.57.02,3.86,0,.44,0,.73.23.89.59,1.6,3.43,3.19,6.87,4.77,10.3.06.13.13.15.26.15.13,0,.21-.04.24-.18.02-.09.02-.18.02-.26.03-.91-.02-1.81-.1-2.71-.2-2.49-.6-4.94-1.32-7.33-.1-.35.14-.68.51-.68,1.09,0,2.19,0,3.28,0,.27,0,.63.29.7.57.19.73.36,1.46.51,2.19.02.06.03.12.04.17.08.35.4.59.76.57.34-.02.61-.26.69-.58.21-.92.68-1.79,1.4-2.51,2.03-2.02,5.36-2,7.36.04,1.99,2.03,1.98,5.29-.03,7.3ZM228.57,8.39c0-.24-.2-.44-.44-.44s-.44.2-.44.44v2.08c0,.28-.03.49-.1.62-.1.23-.33.35-.67.35s-.57-.12-.67-.35c-.07-.13-.1-.34-.1-.62v-2.08c0-.12-.05-.23-.13-.31-.08-.08-.19-.13-.31-.13-.24,0-.44.2-.44.44v2.08c0,.44.07.77.2,1.02.25.45.73.67,1.44.67s1.19-.22,1.44-.67c.14-.24.2-.58.2-1.02v-2.08h0ZM232.35,9.26c0-.45-.12-.78-.37-.99s-.57-.32-.98-.32h-1.35c-.24,0-.43.19-.43.43v3.29c0,.24.19.43.43.43s.43-.19.43-.43v-.63c0-.24.19-.43.43-.43h.44c.45,0,.8-.1,1.04-.3.24-.2.36-.55.36-1.04Z"/>
  <g id="Artwork_18" data-name="Artwork 18">
    <g class="cls-1">
      <g class="cls-7">
        <path class="cls-5" d="M0,16.62c0,9.17,7.85,16.61,17.53,16.6L17.51,0C7.84,0,0,7.45,0,16.62"/>
        <path class="cls-5" d="M35.01,16.6C35,7.43,27.15,0,17.48,0l.02,33.22c9.68,0,17.52-7.45,17.51-16.62"/>
        <path class="cls-6" d="M.74,16.62c0,8.79,7.52,15.91,16.79,15.9l-.02-31.82C8.24.71.73,7.83.74,16.62"/>
        <path class="cls-3" d="M34.27,16.6c0-8.79-7.52-15.91-16.79-15.9l.02,31.82c9.27,0,16.78-7.13,16.77-15.92"/>
        <path class="cls-5" d="M32.48,16.6s-.12.01-.34.03c-.22.02-.54.05-.95.08-.41.03-.91.07-1.48.11-.57.04-1.22.08-1.92.11-.7.04-1.46.08-2.27.1-.81.03-1.66.06-2.53.08-.88.02-1.79.04-2.71.05-.92.01-1.86.02-2.8.02-.94,0-1.87,0-2.8-.02-.92,0-1.83-.03-2.71-.05-.88-.02-1.73-.05-2.53-.08-.81-.02-1.57-.06-2.27-.1-.7-.03-1.35-.07-1.92-.11-.57-.03-1.07-.07-1.48-.11-.41-.03-.73-.06-.95-.08-.22-.02-.34-.03-.34-.03,0,0,.12-.01.34-.03.22-.02.54-.05.95-.08.41-.03.91-.07,1.48-.11.57-.04,1.22-.08,1.92-.11.7-.04,1.46-.08,2.27-.1.81-.03,1.66-.06,2.53-.08.88-.02,1.79-.04,2.71-.05.92-.01,1.86-.02,2.8-.02.94,0,1.87,0,2.8.02.92,0,1.83.03,2.71.05.88.02,1.73.05,2.53.08.81.02,1.57.06,2.27.1.7.03,1.35.07,1.92.11.57.03,1.07.07,1.48.11.41.03.73.06.95.08.22.02.34.03.34.03"/>
        <path class="cls-5" d="M28.56,6.5s-.07.05-.21.15c-.14.1-.34.24-.61.42-.26.17-.61.35-1,.57-.05.03-.1.05-.15.08-.05.02-.1.05-.16.07-.11.05-.22.1-.33.15-.23.1-.47.21-.72.32-.26.09-.53.19-.8.29-.07.03-.14.05-.21.08l-.11.04-.12.04c-.14.04-.29.08-.44.13-.3.08-.6.17-.92.25-.32.08-.66.13-1,.2-.68.15-1.39.22-2.11.3-.36.05-.72.06-1.09.07-.37.01-.74.03-1.12.04-.36-.01-.72-.03-1.08-.04-.36-.01-.71-.02-1.08-.07-.73-.08-1.44-.15-2.11-.3-.34-.07-.67-.12-.99-.2-.32-.09-.63-.17-.94-.26-.15-.04-.3-.09-.45-.13l-.06-.02h-.03s-.03-.01-.03-.01h-.01s-.11-.04-.11-.04c-.07-.02-.14-.05-.21-.07-.27-.1-.54-.2-.79-.29-.25-.1-.5-.22-.73-.32-.11-.05-.23-.1-.33-.15-.05-.02-.11-.05-.16-.07-.05-.03-.1-.05-.15-.08-.39-.22-.73-.4-1-.57-.27-.18-.47-.32-.61-.42-.14-.1-.21-.15-.21-.15,0,0,.09.03.24.09.16.06.39.15.68.27.14.06.31.11.49.17.18.06.37.12.58.19.2.08.43.12.66.19.23.06.47.14.73.2.26.06.54.12.82.19.07.02.14.03.21.05l.11.03.1.02c.15.02.29.05.44.08.3.05.6.11.92.17.32.05.64.08.97.12.16.02.33.04.5.06.08.01.17.02.25.03l.25.02c.34.02.68.05,1.02.08.34.04.7.03,1.06.04.36,0,.72.02,1.08.03.35,0,.69-.02,1.04-.03.35-.01.7,0,1.05-.04.35-.03.69-.05,1.03-.08l.25-.02c.08,0,.17-.02.25-.03.16-.02.33-.04.49-.06.33-.04.64-.08.96-.12.32-.06.63-.12.94-.17.15-.03.3-.05.45-.08l.1-.02.11-.03c.07-.02.14-.03.21-.05.28-.06.55-.13.81-.18.26-.06.5-.14.74-.2.23-.07.46-.12.66-.19.21-.07.4-.13.57-.19.18-.06.35-.1.49-.17.29-.12.53-.21.68-.27.16-.06.24-.09.24-.09"/>
        <path class="cls-5" d="M17.49,31.61s-.01-.12-.03-.34c-.02-.22-.05-.54-.08-.95-.03-.41-.07-.91-.11-1.48-.04-.57-.08-1.22-.11-1.92-.04-.7-.08-1.46-.1-2.27-.03-.81-.06-1.65-.08-2.53-.02-.88-.04-1.79-.05-2.71-.01-.92-.02-1.86-.02-2.8,0-.94,0-1.87.02-2.8,0-.92.03-1.83.05-2.71.02-.88.05-1.73.08-2.53.02-.81.06-1.57.1-2.27.03-.7.07-1.35.11-1.92.03-.57.07-1.07.11-1.48.03-.41.06-.73.08-.95.02-.22.03-.34.03-.34,0,0,.01.12.03.34.02.22.05.54.08.95.03.41.07.91.11,1.48.04.57.08,1.22.11,1.92.04.7.08,1.46.1,2.27.03.81.06,1.66.08,2.53.02.88.04,1.79.05,2.71.01.92.02,1.86.02,2.8,0,.94,0,1.87-.02,2.8,0,.92-.03,1.83-.05,2.71-.02.88-.05,1.73-.08,2.53-.02.81-.06,1.57-.1,2.27-.03.7-.07,1.35-.11,1.92-.03.57-.07,1.07-.11,1.48-.03.41-.06.73-.08.95-.02.22-.03.34-.03.34"/>
        <path class="cls-5" d="M17.48,1.61s-.18.02-.53.05c-.09,0-.18.02-.29.02-.1.01-.22.03-.34.05-.12.02-.26.04-.4.06-.14.02-.29.05-.45.08-.63.11-1.38.3-2.22.59-.84.29-1.75.69-2.69,1.23-.93.54-1.88,1.23-2.78,2.07-.44.43-.88.88-1.29,1.38l-.16.19-.15.19c-.1.13-.2.25-.29.38-.19.27-.38.54-.56.82-.72,1.12-1.28,2.39-1.68,3.73-.19.67-.35,1.36-.45,2.06-.09.7-.14,1.41-.14,2.11v.54c.01.19.03.35.04.53.02.34.07.7.11,1.05.1.7.26,1.39.45,2.05.4,1.33.96,2.6,1.68,3.73.17.28.37.55.56.82.1.13.2.26.3.39.1.13.2.26.3.38.1.12.21.26.3.36.11.12.22.24.33.36.11.12.22.23.33.34.11.11.22.21.33.32.9.83,1.85,1.52,2.79,2.06.94.54,1.85.94,2.69,1.23.84.28,1.59.48,2.22.58.16.03.31.06.45.08.14.02.27.04.4.06.12.02.24.03.34.05.11,0,.2.02.29.02.34.03.53.05.53.05,0,0-.18,0-.53.02-.09,0-.18,0-.29,0-.11,0-.22,0-.35,0-.13,0-.26,0-.41,0-.14,0-.3-.02-.46-.04-.65-.05-1.43-.16-2.32-.39-.88-.22-1.87-.56-2.88-1.06-1.01-.5-2.06-1.16-3.05-2.01-.12-.11-.25-.22-.37-.33-.12-.11-.25-.23-.36-.34-.12-.11-.23-.23-.35-.35-.13-.13-.23-.25-.35-.38-.46-.51-.89-1.06-1.29-1.66-.4-.59-.77-1.22-1.08-1.89-.32-.66-.6-1.36-.82-2.08-.22-.72-.39-1.46-.51-2.21-.05-.38-.11-.75-.13-1.14-.01-.19-.03-.39-.03-.57l-.02-.57c0-.76.07-1.53.18-2.28.11-.75.29-1.49.5-2.21.21-.72.5-1.41.82-2.08.32-.67.69-1.29,1.08-1.89.19-.3.41-.58.62-.86.11-.14.22-.28.33-.41l.17-.2.17-.18c.45-.51.95-.97,1.43-1.4.99-.85,2.04-1.51,3.05-2.01,1.01-.51,1.99-.84,2.88-1.07.88-.23,1.67-.34,2.32-.39.16-.01.31-.03.46-.04.14,0,.28,0,.41,0,.13,0,.24,0,.35,0,.11,0,.2,0,.29,0,.35.01.53.02.53.02"/>
        <path class="cls-5" d="M17.49,31.61s.14-.02.41-.06c.03,0,.07,0,.11-.01.04,0,.07-.02.11-.03.08-.02.17-.04.26-.07.09-.02.19-.06.29-.1.1-.04.21-.08.33-.13.45-.2.96-.53,1.47-.98.51-.45,1.01-1.04,1.48-1.74.46-.7.88-1.52,1.26-2.41.09-.23.18-.45.27-.69.08-.23.17-.48.24-.71.08-.25.15-.5.23-.76.07-.25.13-.5.2-.75.25-1.02.44-2.1.57-3.21.05-.55.11-1.11.14-1.67.01-.28.04-.56.04-.85v-.84c0-1.17-.06-2.26-.18-3.38-.13-1.11-.33-2.18-.58-3.21-.07-.26-.13-.51-.2-.76-.07-.25-.15-.49-.22-.74l-.02-.08-.03-.09-.06-.18c-.04-.12-.08-.24-.13-.36-.08-.24-.18-.46-.26-.68-.37-.89-.79-1.71-1.26-2.41-.47-.7-.97-1.29-1.48-1.74-.51-.45-1.02-.77-1.47-.98-.11-.05-.22-.09-.33-.13-.1-.04-.2-.08-.29-.1-.09-.02-.18-.05-.26-.07-.04-.01-.08-.02-.11-.03-.04,0-.07-.01-.11-.01-.27-.04-.41-.06-.41-.06,0,0,.15,0,.42,0,.27,0,.68.04,1.18.18.5.15,1.08.42,1.67.84.59.42,1.19.99,1.74,1.7.55.7,1.07,1.52,1.51,2.44.11.23.23.47.32.71.05.12.1.24.15.36l.07.18.04.09.04.1c.09.25.18.51.27.76.09.26.16.52.24.79.09.26.15.54.22.81.03.14.07.27.1.41.03.14.06.28.09.42.05.28.12.56.16.84.04.28.09.57.13.86.15,1.14.23,2.36.24,3.5l-.02.9c0,.29-.03.59-.04.88-.03.59-.1,1.17-.17,1.74-.04.29-.09.57-.13.86-.04.28-.11.56-.16.84-.03.14-.05.28-.09.42-.03.14-.07.27-.1.41-.07.27-.13.54-.22.81.09.38-.05.55-.14.81-.09.25-.18.51-.27.75-.1.27-.15.48-.31.76-.1.24-.26.57-.36.8-.44.92-.68,1.47-1.23,2.17-.55.7-1.48,1.41-2.07,1.83-.59.43-1.17.69-1.67.85-.5.14-.91.18-1.18.19-.27,0-.42,0-.42,0"/>
        <path class="cls-5" d="M17.48,1.61s-.14.02-.41.06c-.03,0-.07,0-.11.02-.04,0-.07.02-.11.03-.08.02-.17.04-.26.07-.09.02-.19.06-.29.1-.1.04-.21.08-.33.13-.45.2-.96.53-1.47.98-.51.45-1.01,1.04-1.48,1.74-.46.7-.88,1.52-1.26,2.41-.09.23-.18.45-.27.69-.08.23-.17.48-.24.71-.08.25-.15.5-.23.76-.07.25-.13.5-.2.76-.23.95-.24,2.18-.52,3.18-.05.16-.07.33-.07.5,0,1.06-.17,1.85-.17,2.9,0,1.15.07,2.26.19,3.37.13,1.11.33,2.18.58,3.21.07.26.13.51.2.76.08.25.15.49.22.74l.02.08.03.09.06.18c.04.12.08.24.13.36.08.24.18.46.26.68.37.89,1.64,1.29,2.11,1.99.47.7.12,1.7.63,2.15.51.45,1.02.77,1.47.98.11.05.22.09.33.13.1.04.2.08.29.1.09.02.18.05.26.07.04.01.08.02.11.03.04,0,.07.01.11.01.27.04.41.06.41.06,0,0-.15,0-.42,0-.27,0-.68-.04-1.18-.18-.5-.15-1.08-.42-1.67-.84-.59-.42-1.19-.99-1.74-1.7-.55-.7-1.07-1.52-1.51-2.44-.11-.23-.22-.47-.32-.71-.05-.12-.1-.24-.15-.36l-.07-.18-.04-.09-.04-.1c-.09-.25-.18-.51-.27-.76-.09-.26-.16-.52-.24-.79-.09-.26-.15-.54-.22-.81-.03-.14-.07-.27-.1-.41-.03-.14-.06-.28-.09-.42-.05-.28-.12-.56-.16-.84-.04-.28-.09-.57-.13-.86-.15-1.15-.23-2.35-.24-3.51.01-1.18.08-2.36.23-3.51.04-.29.09-.57.13-.86.04-.28.11-.56.16-.84.03-.14.05-.28.09-.42.03-.14.07-.27.1-.41.07-.27.13-.54.22-.81.08-.27.16-.54.24-.79.09-.25.18-.5.27-.74.1-.27.2-.5.3-.74.1-.24.22-.47.32-.7.44-.92.95-1.74,1.51-2.44.55-.7,1.15-1.28,1.74-1.7.59-.43,1.17-.69,1.67-.85.5-.14.91-.18,1.18-.19.27,0,.42,0,.42,0"/>
        <path class="cls-5" d="M18.01,31.63s-.04-.06,0-.07c0,0,0,0,.01,0,.09,0,.18-.02.29-.02,0,0,0,0,0,0,.1-.01.22-.03.34-.05.12-.02.26-.04.4-.06.14-.02.29-.05.45-.08.63-.11,1.38-.3,2.22-.59.84-.29,1.75-.69,2.69-1.23.93-.54,1.88-1.23,2.78-2.07.44-.43.88-.88,1.29-1.38l.16-.19.15-.19c.1-.13.2-.25.29-.38.19-.27.38-.54.56-.82.72-1.12,1.28-2.39,1.68-3.73.19-.67.35-1.36.45-2.06.04-.35.09-.7.11-1.05.01-.18.03-.35.03-.53v-.52c0-.76-.04-1.42-.14-2.13-.1-.7-.26-1.39-.45-2.05-.4-1.33-.96-2.6-1.68-3.73-.17-.28-.37-.55-.56-.82-.1-.13-.2-.26-.3-.39-.1-.13-.2-.26-.3-.38-.1-.12-.21-.26-.3-.36-.11-.12-.22-.24-.33-.36-.11-.12-.22-.23-.33-.34-.11-.11-.22-.21-.33-.32-.9-.83-1.77-1.62-2.79-2.06,0,0,0,0,0,0-.94-.54-1.85-.94-2.69-1.22-.84-.28-1.59-.48-2.22-.58-.16-.03-.31-.06-.45-.08-.14-.02-.27-.04-.4-.05-.12-.02-.24-.03-.34-.05,0,0,0,0,0,0-.1,0-.2-.02-.29-.02,0,0,0,0-.01,0-.04,0-.04-.06,0-.07,0,0,0,0,.01,0,.09,0,.18,0,.29,0h0c.11,0,.22,0,.35,0,.13,0,.26,0,.41,0,.14,0,.3.02.46.04.65.05,1.43.16,2.32.39.88.22,2.67.79,3.68,1.3,0,0,0,0,0,0,1.02.66,1.25.92,2.24,1.77.12.11.25.22.37.33.12.11.25.23.36.34.12.11.23.23.35.35.13.13.23.25.35.38.46.51.89,1.06,1.29,1.66.4.59.77,1.22,1.08,1.89.32.66.6,1.35.82,2.08.22.72.49,1.34.6,2.09.11.74.08,1.67.08,2.39l-.02.59c0,.19-.02.38-.03.57-.02.38-.08.76-.13,1.14-.11.75-.29,1.49-.5,2.21-.21.72-.45,1.69-.77,2.36-.32.67-.74,1.01-1.13,1.61-.19.3-.41.58-.62.86-.11.14-.22.28-.33.41l-.17.2-.17.18c-.45.51-.95.97-1.43,1.4-.99.85-2.04,1.51-3.05,2.01-1.01.51-1.99.84-2.88,1.07-.88.23-1.67.34-2.32.39-.16.01-.31.03-.46.04-.14,0-.28,0-.41,0-.13,0-.24,0-.35,0-.11,0-.2,0-.29,0,0,0,0,0-.01,0"/>
        <path class="cls-5" d="M6.41,26.73s.07-.05.21-.15c.14-.1.34-.24.61-.42.26-.17.61-.35,1-.57.05-.03.1-.05.15-.08.05-.02.11-.05.16-.07.11-.05.22-.1.33-.15.23-.1.47-.21.72-.32.26-.09.53-.19.8-.29.07-.03.14-.05.21-.08l.11-.04.12-.03c.14-.04.29-.08.44-.13.3-.08.6-.17.92-.25.32-.08.66-.13,1-.2.68-.15,1.39-.22,2.11-.3.36-.05.72-.06,1.09-.07.37-.01.73-.03,1.1-.04.37.01.73.03,1.09.04.36.01.71.02,1.08.07.73.08,1.44.15,2.11.29.34.07.67.12.99.2.32.09.63.17.94.26.15.04.3.08.45.13l.06.02h.03s.03.02.03.02h.01s.11.04.11.04c.07.03.14.05.21.07.27.1.54.2.79.29.25.1.5.22.73.32.11.05.23.1.33.15.05.02.11.05.16.07.05.03.1.05.15.08.39.22.73.4,1,.57.27.18.47.32.61.42.14.1.21.15.21.15,0,0-.09-.03-.24-.09-.16-.06-.39-.15-.68-.27-.14-.06-.31-.11-.49-.17-.18-.06-.37-.12-.58-.19-.2-.08-.43-.12-.66-.19-.23-.06-.47-.14-.73-.2-.26-.06-.54-.12-.82-.19-.07-.02-.14-.03-.21-.05l-.11-.03-.1-.02c-.15-.02-.29-.05-.44-.08-.3-.05-.6-.11-.92-.17-.32-.05-.64-.08-.97-.12-.16-.02-.33-.04-.49-.06-.08-.01-.17-.02-.25-.03l-.25-.02c-.34-.02-.68-.05-1.02-.08-.34-.04-.7-.03-1.06-.04-.35,0-.71-.02-1.06-.03-.35,0-.7.02-1.05.03-.35.01-.7,0-1.05.04-.35.03-.69.05-1.03.08l-.25.02c-.08,0-.17.02-.25.03-.16.02-.33.04-.49.06-.33.04-.64.08-.96.12-.32.06-.63.11-.94.17-.15.03-.3.05-.45.08l-.1.02-.11.03c-.07.02-.14.03-.21.05-.28.06-.55.13-.81.18-.26.06-.5.14-.74.2-.23.07-.46.12-.66.19-.2.07-.4.13-.57.19-.18.06-.35.1-.49.17-.29.12-.53.21-.68.27-.16.06-.24.09-.24.09"/>
        <path class="cls-5" d="M23.25,6.69s.08-.07.11-.1l.1-.09s-.08-.07-.12-.09c-.08-.04-.18-.09-.29-.11-.1-.01-.19,0-.28.04-.11-.14-.31-.32-.67-.37-.04,0-.08,0-.11-.01-.65-.06-1.22.22-1.58.74-.71.39-1.03,1.27-.94,1.92.08.56.28,1.6.73,2.3.33.52.52.91.45,1.28-.04,0-.06-.03-.08-.06,0,0-.02-.01-.03-.01l-.11.02s-.03,0-.04-.02c-.02-.03-.03-.05-.05-.07,0,0,0-.02,0-.03-.01-.1,0-.24.11-.34l-.08-.15c-.2.06-.51.25-.55.54l-.02-.05c-.23.05-.65.35-.52.77.13.41.56.69.89.73.08.01.15,0,.21,0,.05,0,.12-.02.18-.04.13.04.25.05.36.03.27-.05.89-.16,1.11-.81.09-.16.14-.34.15-.54,0-.07,0-.15-.02-.23.02-.09.04-.18.04-.27,0-.34-.14-.7-.32-1.1-.22-.5-.47-1.07-.5-1.8,0-.05,0-.11.01-.16.07-.31.34-1.36.67-1.54-.11.15-.14.3.07.53.02.02.03.04.05.05l.3-.27c.24-.25.49-.44.75-.68M19.95,12.6s-.08.01-.14-.15c0-.01,0-.02,0-.03v-.09c-.01-.06.02-.19.04-.22,0,.01.03.16.03.17,0,.03,0,.05.03.09.03.03.06.22.05.23"/>
        <path class="cls-4" d="M30.8,14.98c-.24-.11-.94.11-1.01.17-.2.2-.33.53-.31.66.03.25-.26.47-1.31.9-.51.2-.67-.06-.79-.47-.3-1.07-.21-1.12-1.05-1.92-.48-.45-.64-.6-.35-.73.03-.01.06-.02.09-.01.4.04,1.11-.1,1.6-.46.02-.01.04-.03.07-.06.1-.08.24-.19.29-.23,0,0,0,0,0,0,1.49-1.3.51-1.91.65-3.5,0-.09.1-.14.11-.27l.08-.4c.03-.32-.02-.49-.07-.61-.61-1.53-1.97-1.9-3.46-1.87-1.39.03-2.07.16-3.15,1.47,0,0,0,0,0,.01-.42.6-.77,1.48-.78,2.18,0,0,.01.6.06.9,0,0,0,0,0,.01.01.04.02.08.02.11,0,0,0,0,0,.01.1.47.14.7.46,1.16.04.06.13.15.18.2.32.27.53.62,1.09.99.19.12.39.22.58.3.16.06.14.3-.02.34-1.63.39-4.73,1.21-4.92,2.38-.18,1.08-1.76.62-1.44,2.81.09.58.61.52,1.08.29,1.07-.52.64-.59.63-1.31-.04-1.31,1.83-2.12,3.07-2.37.14-.03.26.12.2.25-.26.57.13,2.17-.87,3.44-1.34,1.71-3.09,1.34-2.64,1.59.55.3,1.76,1.95.3,2.11-1.02.1-.8-1.46-1.38-1.74-.37-.18-1.36,1.07-1.48,1.87-.1.69-.01,1.07.1,1.27.02.04.16.24.2.25.41.09.71-.63.88-1.19.05-.15.25-.17.32-.03.58,1.07,1.39,1.87,2.43.46.26-.36,1.2-.81,1.63-.48.85.67,3.29,1.02,4.33.21.09-.07.21-.04.26.06.14.26.39.74.65,1.25.4.76.03,1.78.5,2.05.16.09,1.05.05,1.69-.3,2.62-1.44.56-2.2-.56-1.51-.12.07-.28-.02-.27-.16.03-.47.05-1.24-.05-1.72-.16-.72-1.07-1.24-.69-1.39.38-.15.85-.52.5-.65-.36-.12-2.18-1.26-2.27-2.2-.07-.69.3-1.56.5-1.97.05-.11.2-.13.29-.04,1.1,1.17,2,1.11,2.94-.36.02-.04.06-.07.11-.08.21-.05.86-.24,1.12-.82.17-.37.12-.73-.15-.84"/>
        <path class="cls-4" d="M13.13,20.42c1.52,1.03,1.23,3.16,1.45,4.97.02.16.67-.39,1.64.24.6.39-3.66,1.89-3.51.85.3-2.04-.29-4.77-2.57-5.52-.05-.02-.1.01-.11.06-.52,2.04-2.47,3.13-4.44,2.39-.95-.35-1.51-1.45-1.76-1.39-.11.03-.55.82-.65,1.22-.09.39-.72.8-.65-.66.04-.85.34-2,.72-2.53.85-1.19.97.19,1.52,1.01.36.55,1.38.97,1.94.76.83-.31,1.47-1.38,1.47-1.73s-.16-.74.46-2.04c.42-.88.31-1.71.5-1.95.05-.06,0-.15-.08-.14-.55.09-1.98.36-2.49.83-.64.57-.43.28-.81.14-.69-.28-.48,1.94-1.79.77-.99-.89.32-1.9.94-1.88.2,0,.73-.13.9-.42.76-1.3,3.33-.99,4.53-1.47.33-.13.62-.38.76-.51.04-.04.04-.1-.01-.13-.04-.02-.07-.05-.11-.07,0,0-.02,0-.03-.01-1.04-.26-1.13-.26-1.7-.77-.07-.06-.11.47-.34.25-.01-.01-.55-.37-.66-1.35-.07-.7-.33-1.8.06-3.01.44-1.36,1.63-2.62,3.39-2.95.07-.01.12.05.1.11,0,.02-.01.03-.01.05-.02.08.08.14.14.08.4-.37.84-.61,1.39-.62.07,0,.08.23.03.28-.07.08-.1.18-.08.29.01.09.1.04.17-.02.18-.15.53-.05.9-.1.14-.02.11.1.05.15,0,0,0,0,0,0-.05.05-.09.11-.02.12,1.21.11.18,1.11,2.14.94.6-.05.49.94-.52,1.53-.03.02-.05.03-.06.06-.32,1.09.23,2.33-.05,3.28-.46,1.55-1.85,1.85-3.12,1.9-.09,0-.11.12-.04.16,1.2.67.59,1.65,1.88,2.9.4.38.96.78,1.83,1.21.48.24.28.63.54.39,1.92-1.72,2.36,2.01.67,1.25-.28-.13-.56-.28-.79-.21-1.29.44-1.13.47-2.61-.43-.35-.21-.95-.77-1.02-1.14-.19-.97-.8,1.88-.06,2.87"/>
        <path class="cls-4" d="M53.27,3.85c-.04.1-.03.38-.01.5.02.03.09.24.11.3.07.18.19.35.33.48.06.06.14.12.21.17h.02s.02.02.04.04c.04,0,.09.03.14.05.05.02.1.03.16.04.13.02.22.01.35.02.02-.01.02-.01.05-.01.06-.01.12-.04.15-.07.06-.06.06-.04.1-.13.1-.24-.06-.22-.11-.29-.02-.02-.05-.12-.07-.15-.06-.11-.12-.18-.2-.26-.04-.04-.07-.07-.12-.11-.02-.02-.03-.03-.06-.05-.02-.02-.04-.03-.06-.05-.1-.09-.41-.35-.52-.4-.07-.03-.18-.02-.19-.03-.04-.02-.04-.08-.15-.08-.08,0-.12.04-.17.06"/>
        <path class="cls-4" d="M53.41,3.3s.02.04.04.09c.02.04.03.04.07.06.05.03.17.21.35.1.14-.09.07-.07.15-.12.16-.1.19-.1.3-.23.21-.25.14-.28.3-.48.04-.05.07-.13.11-.15.03-.02.06-.02.08-.04.03-.02.04-.05.06-.07.12-.12.14-.23.31-.14.07.04.23.18.36.03.05-.06.07-.09.07-.2v-.08c-.15-.06-.6-.05-.8,0-.35.09-.74.31-.98.56-.02.02-.03.04-.05.06-.14.16-.21.26-.31.46-.03.06-.04.11-.07.16"/>
        <path class="cls-4" d="M55.7,5.95c-.38,0-.5,0-.87-.16-.15-.06-.38-.18-.52-.26-.05-.03-.13-.08-.17-.09-.03,0,0,0-.03-.01,0,0-.01-.02-.02-.02.03,0,.03,0,.04.02.23.05.24.03.45,0h0c-.13-.01-.22,0-.35-.02-.06-.01-.11-.02-.16-.04-.05-.02-.09-.04-.14-.05,0,0-.03.03-.03,0,0,0,0,0-.02,0,0,0,0,0,0,0,0,0,0,0,0,0-.14-.08-.27-.19-.35-.29-.05-.06-.1-.1-.14-.18-.02-.04-.09-.2-.11-.21.04.24.21.51.32.67.15.21.26.37.47.51.18.11.5.21.75.24.3.04.59.02.86-.08"/>
        <path class="cls-4" d="M53.28,3.34s.12-.26.15-.31c.29-.54.7-.86,1.29-1.05.35-.11.48-.04.83-.04-.04-.1-.24-.15-.34-.16-.55-.08-1.05.21-1.42.56-.07.07-.16.18-.22.28-.11.16-.25.49-.3.71"/>
        <path class="cls-4" d="M56.42,2.43h0s-.01-.02-.03-.04c-.02-.02-.02-.02-.04-.03,0,.01.01.02.03.03.02.02.02,0,.04.03"/>
        <path class="cls-4" d="M55.86,2.28c-.03.06-.08.1-.12.16-.08.12-.07.17-.19.25-.04.03-.05.04-.08.07-.12.13-.02.05-.18.11-.26.11-.35.28-.41.32-.04.02-.07.03-.09.05-.03.03-.03.05-.06.09-.03.04-.05.03-.07.08-.06.11.01.38.06.47.04.07.07.12.11.19.04.08.07.09.15.14.23.13.24.04.34-.12.03-.05.04-.04.08-.07.09-.07.14-.22.19-.25.05.04.11.09.2.11,0,.07-.06.16-.09.35-.02.14,0,.28,0,.42-.18-.02-.24-.07-.38.17-.02.04-.08.08-.13.15-.04.06-.07.12-.09.21-.08.41.24.59.59.42.06-.03.22-.12.27-.17.12-.11.11-.13.27-.17.09-.02.11-.08.21-.08.21-.02.28-.09.37-.21.04-.06.08-.11.11-.18.03-.06.05-.17.09-.21.09-.12.11-.47.1-.64-.03-.4-.16-.79-.35-1.11-.06-.09-.26-.36-.33-.39-.02-.02-.02-.02-.04-.03-.02-.01-.02-.02-.03-.03l-.13-.08s-.09-.05-.14-.07c-.03.01-.07.02-.11.03-.04.01-.07.03-.1.04"/>
        <path class="cls-5" d="M83.17,6.31h0c1.01,0,1.83.82,1.83,1.83v8.74c0,1.18.14,2.04.42,2.59.43.96,1.38,1.45,2.84,1.45s2.39-.48,2.83-1.45c.28-.54.42-1.41.42-2.59v-8.74c0-1.01.82-1.83,1.83-1.83s1.83.82,1.83,1.83v8.75c0,1.83-.28,3.25-.85,4.27-1.06,1.87-3.07,2.8-6.05,2.8s-5-.93-6.06-2.8c-.57-1.02-.85-2.44-.85-4.27v-8.75c0-1.01.82-1.83,1.83-1.83"/>
        <path class="cls-5" d="M109.51,16.16c-1.02.85-2.48,1.28-4.38,1.28h-1.82c-1,0-1.81.81-1.81,1.81v2.65c0,1-.81,1.81-1.81,1.81s-1.81-.81-1.81-1.81v-13.82c0-1,.81-1.81,1.81-1.81h5.68c1.73,0,3.1.45,4.13,1.35,1.03.9,1.54,2.29,1.54,4.18,0,2.06-.51,3.52-1.53,4.37M106.73,9.88c-.46-.39-1.11-.58-1.94-.58h-1.47c-1,0-1.81.81-1.81,1.81v1.51c0,1,.81,1.81,1.81,1.81h1.47c.83,0,1.48-.21,1.94-.63.46-.42.69-1.08.69-1.99s-.23-1.55-.69-1.94"/>
        <path class="cls-5" d="M48.28,8.96c-1.92,2.66-3.35,4.83-4.28,6.53l-.46.89-.05.07.02.23c.08,0,.15,0,.23.02.17.02.4.04.69.07.26.03.43.05.5.05.58.11,1.16.24,1.75.4.59.16,1.06.3,1.41.41.35.11.87.3,1.56.55.69.25,1.18.42,1.49.52.15.06.26.16.33.3.07.14.08.28.02.44-.05.15-.15.26-.29.33-.14.07-.28.08-.44.03l-1.51-.55-1.51-.53c-.34-.12-.78-.26-1.34-.4-.56-.14-1.11-.26-1.66-.36-.05-.02-.18-.03-.41-.05-.31-.03-.54-.05-.71-.07l-.07-.02c.11,2.17.18,3.75.21,4.74,0,.15-.05.29-.16.41-.11.12-.24.18-.39.18s-.29-.05-.41-.16c-.12-.11-.18-.24-.18-.39-.03-.96-.11-2.65-.23-5.06-.09-.06-.17-.13-.23-.21-.09-.11-.13-.24-.11-.39,0-.05,0-.09.02-.14.02-.03.03-.07.05-.11.02-.06.05-.14.09-.23l.14-.27c-.05-1.01-.08-1.89-.11-2.66-.02-.56,0-1.87.05-3.92.03-1.65,0-2.92-.11-3.8-.02-.15.03-.29.13-.42.1-.13.23-.2.38-.22.15-.02.29.03.42.13.13.1.2.23.22.38.12.95.16,2.27.11,3.96-.05,2.02-.06,3.3-.05,3.85l.02.71c.9-1.56,2.22-3.53,3.96-5.93.09-.12.21-.19.37-.22.15-.02.29.01.42.1.13.09.21.21.23.37.02.15-.01.3-.1.44"/>
        <path class="cls-5" d="M55.79,7.34c.37,3.97.55,9.28.55,15.92,0,.15-.06.29-.17.4-.11.11-.25.17-.4.17s-.29-.06-.4-.17c-.11-.11-.17-.25-.17-.4,0-6.66-.18-11.93-.55-15.83-.02-.15.03-.29.13-.41.1-.12.23-.19.39-.21.16-.02.3.03.42.13.12.1.19.23.21.4"/>
        <path class="cls-5" d="M66.25,5.16c.05.52.08,1.05.09,1.59.02.54.02,1.2,0,1.97-.02.77-.02,1.28-.02,1.52,0,1.42-.04,5.32-.13,8.16-.08,2.85-.13,3.22-.13,4.64,0,.15-.06.29-.17.4-.11.11-.25.17-.4.17s-.29-.06-.4-.17c-.11-.11-.17-.25-.17-.4,0-.95.02-.25.05-1.42-.96.4-2.02.44-3.16.11-.76-.21-1.39-.55-1.89-1.02-.5-.47-.83-.98-1-1.53-.17-.56-.22-1.13-.16-1.71.06-.58.23-1.11.5-1.6.27-.5.65-.92,1.13-1.24.48-.32,1.02-.49,1.61-.5,1.04-.03,2.08.43,3.11,1.37.03-1.31.05-4.24.05-5.27,0-.29,0-.81.02-1.56.01-.75.02-1.38.01-1.9,0-.52-.04-1.02-.1-1.49-.02-.17.03-.31.13-.44.1-.12.23-.19.39-.21.16-.02.3.03.42.13.12.1.19.23.21.38M65.04,17.04c-1.05-1.21-2.05-1.79-3-1.76-.76.02-1.36.4-1.79,1.17-.2.35-.32.74-.37,1.16-.05.42,0,.82.13,1.21.13.39.37.75.73,1.09.36.34.82.58,1.39.73,1.07.31,2,.21,2.79-.27.03,0,.05,0,.07-.02.02-.41.03-.99.06-1.74.02-.75.03-1.25.03-1.51l-.05-.05Z"/>
        <path class="cls-5" d="M74.36,9.81c-.26-.79-.64-1.38-1.13-1.75-.5-.37-1.01-.54-1.53-.5-.53.04-1,.28-1.43.72-.43.44-.7,1.09-.82,1.95-.17,1.02-.14,1.82.09,2.38.15.37.36.75.61,1.15.25.4.6.9,1.05,1.51.45.61.77,1.05.95,1.33.6.87,1.05,1.69,1.35,2.47.31.78.4,1.58.27,2.4-.14.89-.61,1.56-1.42,2.02-.6.34-1.16.44-1.69.3-.46-.12-.86-.41-1.21-.87-.49-.64-.82-1.53-1.01-2.68-.02-.15.02-.29.11-.42.09-.13.21-.21.37-.23.15-.02.29.01.42.1.13.09.21.21.24.37.15.96.41,1.69.78,2.18.18.24.37.39.57.44.24.06.53,0,.87-.18.47-.27.75-.67.82-1.19.09-.61.01-1.24-.24-1.89-.25-.65-.65-1.37-1.18-2.16-.14-.2-.44-.62-.92-1.26-.47-.64-.85-1.19-1.13-1.64-.28-.45-.51-.89-.68-1.32-.31-.75-.37-1.74-.18-2.98.17-1.07.56-1.93,1.17-2.58.61-.65,1.33-1,2.15-1.06.81-.06,1.57.18,2.28.72.71.54,1.23,1.32,1.57,2.32.05.15.03.3-.03.44-.07.14-.18.23-.33.29-.15.05-.3.05-.44-.02-.14-.07-.24-.18-.3-.33"/>
        <path class="cls-5" d="M54.86,27.1h.6c.06,0,.12.05.12.12v3.02c0,.06.05.12.12.12h1.75c.06,0,.12.05.12.12v.48c0,.06-.05.12-.12.12h-2.58c-.06,0-.12-.05-.12-.12v-3.73c0-.06.05-.12.12-.12"/>
        <path class="cls-5" d="M60.92,27.8h-1.87c-.06,0-.12.05-.12.12v.61c0,.06.05.12.12.12h1.69c.06,0,.12.05.12.12v.46c0,.06-.05.12-.12.12h-1.69c-.06,0-.12.05-.12.12v.79c0,.06.05.12.12.12h1.96c.06,0,.12.05.12.12v.48c0,.06-.05.12-.12.12h-2.77c-.06,0-.12-.05-.12-.12v-3.73c0-.06.05-.12.12-.12h2.68c.06,0,.12.05.12.12v.47c0,.06-.05.12-.12.12"/>
        <path class="cls-5" d="M63,27.1h.77s.09.03.11.08l1.32,3.73c.03.08-.03.15-.11.15h-.65c-.05,0-.1-.03-.11-.08l-.21-.65s-.06-.08-.11-.08h-1.29c-.05,0-.09.03-.11.08l-.22.66s-.06.08-.11.08h-.62c-.08,0-.14-.08-.11-.16l1.33-3.73s.06-.08.11-.08M63.02,29.57h.7c.08,0,.13-.08.11-.15l-.34-1.07c-.03-.11-.19-.11-.22,0l-.35,1.07c-.02.08.03.15.11.15"/>
        <path class="cls-5" d="M68.3,27.2c.15.06.27.16.37.28.08.1.15.21.2.33.05.12.07.26.07.42,0,.19-.05.37-.14.56-.1.18-.25.31-.47.39.18.07.31.18.39.31.08.14.11.34.11.62v.27c0,.18,0,.3.02.37.02.1.07.18.15.23v.1h-.91c-.03-.09-.04-.16-.05-.21-.02-.11-.03-.23-.03-.34v-.37c0-.25-.05-.42-.14-.51-.08-.08-.24-.13-.47-.13h-.69c-.06,0-.12.05-.12.12v1.32c0,.06-.05.12-.12.12h-.58c-.06,0-.12-.05-.12-.12v-3.73c0-.06.05-.12.12-.12h1.78c.27,0,.48.04.63.1M66.59,27.9v.83c0,.06.05.12.12.12h.78c.18,0,.31-.02.4-.06.16-.08.24-.22.24-.45,0-.24-.08-.4-.23-.48-.09-.05-.21-.07-.38-.07h-.8c-.06,0-.12.05-.12.12"/>
        <path class="cls-5" d="M69.84,27.1h.69s.08.02.1.06l1.32,2.33c.06.1.22.06.22-.06v-2.21c0-.06.05-.12.12-.12h.54c.06,0,.12.05.12.12v3.73c0,.06-.05.12-.12.12h-.65s-.08-.02-.1-.06l-1.36-2.38c-.06-.1-.22-.06-.22.06v2.26c0,.06-.05.12-.12.12h-.54c-.06,0-.12-.05-.12-.12v-3.73c0-.06.05-.12.12-.12"/>
        <path class="cls-5" d="M76.67,28.13h.59c.05,0,.1.04.11.09l.31,1.49c.03.12.2.12.23,0l.32-1.49c.01-.05.06-.09.11-.09h.55c.08,0,.13.07.11.15l-.78,2.7s-.06.08-.11.08h-.61c-.05,0-.1-.04-.11-.09l-.33-1.52c-.03-.12-.2-.12-.23,0l-.33,1.52c-.01.05-.06.09-.11.09h-.61c-.05,0-.1-.03-.11-.08l-.76-2.7c-.02-.07.03-.15.11-.15h.58c.05,0,.1.04.11.09l.32,1.47c.03.12.2.12.23,0l.29-1.47c.01-.05.06-.09.11-.09"/>
        <path class="cls-5" d="M80.15,27.78h-.55c-.06,0-.12-.05-.12-.12v-.48c0-.06.05-.12.12-.12h.55c.06,0,.12.05.12.12v.48c0,.06-.05.12-.12.12M79.6,28.13h.55c.06,0,.12.05.12.12v2.7c0,.06-.05.12-.12.12h-.55c-.06,0-.12-.05-.12-.12v-2.7c0-.06.05-.12.12-.12"/>
        <path class="cls-5" d="M80.7,28.71v-.55h.41v-.7c0-.06.05-.12.12-.12h.53c.06,0,.12.05.12.12v.7h.48v.55h-.48v1.55c0,.12.02.2.05.22.03.03.12.04.28.04.02,0,.05,0,.07,0,.03,0,.05,0,.08,0v.57h-.36c-.36.03-.61-.04-.74-.17-.09-.09-.13-.22-.13-.41v-1.81h-.41Z"/>
        <path class="cls-5" d="M84.95,28.15c.15.06.27.16.36.29.08.11.13.22.15.34.02.12.03.3.03.57v1.61c0,.06-.05.12-.12.12h-.55c-.06,0-.12-.05-.12-.12v-1.67c0-.16-.03-.29-.08-.38-.07-.14-.2-.2-.4-.2s-.35.07-.46.2c-.1.14-.16.33-.16.58v1.47c0,.06-.05.12-.12.12h-.53c-.06,0-.12-.05-.12-.12v-3.72c0-.06.05-.12.12-.12h.53c.06,0,.12.05.12.12v1.28c.11-.17.24-.29.38-.36.15-.07.3-.1.46-.1.18,0,.34.03.49.09"/>
        <path class="cls-5" d="M87.92,27.1h2.6c.06,0,.12.05.12.12v.46c0,.06-.05.12-.12.12h-1.77c-.06,0-.12.05-.12.12v.68c0,.06.05.12.12.12h1.52c.06,0,.12.05.12.12v.46c0,.06-.05.12-.12.12h-1.52c-.06,0-.12.05-.12.12v1.43c0,.06-.05.12-.12.12h-.59c-.06,0-.12-.05-.12-.12v-3.73c0-.06.05-.12.12-.12"/>
        <path class="cls-5" d="M91.28,27.1h.61c.06,0,.12.05.12.12v2.32c0,.27.03.47.1.6.1.22.32.33.65.33s.55-.11.65-.33c.06-.13.1-.32.1-.6v-2.32c0-.06.05-.12.12-.12h.61c.06,0,.12.05.12.12v2.32c0,.42-.07.75-.2.98-.24.43-.71.65-1.39.65s-1.15-.22-1.4-.65c-.13-.24-.2-.56-.2-.98v-2.32c0-.06.05-.12.12-.12"/>
        <path class="cls-5" d="M95.25,27.1h.69s.08.02.1.06l1.32,2.33c.06.1.22.06.22-.06v-2.21c0-.06.05-.12.12-.12h.54c.06,0,.12.05.12.12v3.73c0,.06-.05.12-.12.12h-.65s-.08-.02-.1-.06l-1.36-2.38c-.06-.1-.22-.06-.22.06v2.26c0,.06-.05.12-.12.12h-.54c-.06,0-.12-.05-.12-.12v-3.73c0-.06.05-.12.12-.12"/>
      </g>
    </g>
  </g>
</svg>