<?xml version="1.0" encoding="UTF-8"?>
<svg id="Layer_1" data-name="Layer 1" xmlns="http://www.w3.org/2000/svg" viewBox="0 0 14.65 14.65">
  <defs>
    <style>
      .cls-1 {
        fill: #f6f6f6;
        stroke-width: 0px;
      }
    </style>
  </defs>
  <path class="cls-1" d="M0,10.05v-5.52c.04-.37.07-.75.13-1.12C.45,1.6,1.73.37,3.55.12,4.26.02,4.97.01,5.68,0c1.5,0,3.01-.03,4.51.03.41.01.82.06,1.22.15.81.18,1.53.52,2.1,1.14.64.69.92,1.53,1.04,2.44.08.64.08,1.29.08,1.94,0,1.45.03,2.9-.02,4.36-.02.45-.05.9-.15,1.35-.25,1.1-.79,2-1.77,2.58-.66.39-1.39.55-2.15.61-.27.02-.53.03-.8.05h-5.23c-.25-.03-.5-.05-.75-.08-.61-.08-1.21-.23-1.75-.54-1.14-.66-1.72-1.69-1.91-2.96-.05-.34-.07-.68-.1-1.02ZM1.3,7.37s0,0,0,0c0,.68,0,1.35,0,2.03,0,.55.03,1.1.14,1.65.23,1.16.93,1.87,2.09,2.11.5.1,1.01.13,1.52.14,1.18.01,2.36,0,3.54,0,.8,0,1.6.01,2.39-.12,1.14-.19,1.9-.89,2.15-2.01.1-.46.14-.92.15-1.39.01-1.21.01-2.43.01-3.64,0-.79.01-1.58-.09-2.37-.16-1.22-.81-1.95-2-2.24-.6-.15-1.21-.18-1.83-.19-1.41-.01-2.83-.01-4.24,0-.51,0-1.03.02-1.54.11-1.13.2-1.85.84-2.1,1.97-.2.9-.18,1.81-.18,2.71,0,.41,0,.82,0,1.23Z"/>
  <path class="cls-1" d="M7.32,3.55c2.07,0,3.77,1.7,3.78,3.78,0,2.07-1.7,3.79-3.78,3.77-2.1-.01-3.76-1.66-3.77-3.77-.01-2.07,1.7-3.78,3.77-3.78ZM9.74,7.33c0-1.34-1.08-2.42-2.41-2.42-1.34,0-2.42,1.08-2.42,2.41,0,1.34,1.09,2.43,2.43,2.43,1.33,0,2.41-1.09,2.41-2.42Z"/>
  <path class="cls-1" d="M11.21,4.31c-.5,0-.88-.39-.88-.9,0-.49.41-.89.89-.89.49,0,.89.41.89.9,0,.49-.41.89-.91.89Z"/>
</svg>