<?xml version="1.0" encoding="UTF-8"?>
<svg id="Layer_1" data-name="Layer 1" xmlns="http://www.w3.org/2000/svg" viewBox="0 0 14.65 14.65">
  <defs>
    <style>
      .cls-1 {
        fill: #000;
        stroke-width: 0px;
      }
    </style>
  </defs>
  <path class="cls-1" d="M12.72,0c.43,0,.86,0,1.28,0-.01.07-.07.11-.11.16-1.69,1.97-3.38,3.94-5.08,5.91-.09.1-.09.17-.02.28,1.44,2.09,2.88,4.19,4.31,6.28.46.67.92,1.35,1.38,2.02h-4.31c-.04-.07-.07-.13-.12-.2-1.22-1.78-2.44-3.55-3.65-5.33q-.09-.14-.2-.01c-1.27,1.48-2.55,2.96-3.82,4.44-.31.36-.61.73-.92,1.09H.16s.05-.07.08-.1c1.78-2.08,3.57-4.15,5.35-6.23.15-.17.15-.17.02-.36-1.25-1.82-2.49-3.64-3.74-5.45C1.29,1.67.73.83.16,0,1.59,0,3.03,0,4.47,0c.03.05.06.11.09.16,1.15,1.68,2.31,3.37,3.47,5.05.1.14.1.14.21.01.63-.73,1.25-1.46,1.88-2.19C10.99,2.02,11.85,1.01,12.72,0ZM11.74,13.72c.26,0,.52,0,.78,0,.05,0,.12.03.14-.03.02-.05-.04-.09-.07-.13-1.74-2.5-3.48-4.99-5.22-7.49-1.16-1.66-2.31-3.31-3.46-4.97-.06-.09-.13-.13-.25-.13-.28,0-.56,0-.84,0-.24,0-.49,0-.73,0-.04,0-.1-.02-.12.02-.03.05.03.08.05.12,0,.02.02.03.03.05,1.94,2.78,3.89,5.57,5.83,8.35.94,1.35,1.88,2.69,2.82,4.04.08.12.17.16.31.16.24-.01.49,0,.73,0Z"/>
</svg>