<?xml version="1.0" encoding="UTF-8"?>
<svg id="Layer_1" data-name="Layer 1" xmlns="http://www.w3.org/2000/svg" viewBox="0 0 24 24.32">
  <defs>
    <style>
      .cls-1 {
        fill: #fff;
      }

      .cls-2 {
        fill: #ffdf9f;
      }
    </style>
  </defs>
  <circle class="cls-2" cx="12" cy="12" r="12"/>
  <path class="cls-1" d="M7.5,15.91c2.28-1.75,3.78-3.05,4.5-3.91.72-.86,1.08-1.7,1.08-2.51,0-1.06-.59-1.59-1.77-1.59-.95,0-2.07.42-3.36,1.25l-.75-2.36c.59-.39,1.3-.71,2.14-.96.84-.25,1.64-.37,2.4-.37,1.4,0,2.47.33,3.22,1s1.13,1.59,1.13,2.77c0,1.02-.32,1.99-.96,2.92-.64.93-1.9,2.18-3.77,3.74v.03h4.8v2.38H7.5v-2.38Z"/>
</svg>