<?xml version="1.0" encoding="UTF-8"?>
<svg id="Layer_1" data-name="Layer 1" xmlns="http://www.w3.org/2000/svg" viewBox="0 0 24 24.32">
  <defs>
    <style>
      .cls-1 {
        fill: #fff;
      }

      .cls-2 {
        fill: #aeddeb;
      }
    </style>
  </defs>
  <circle class="cls-2" cx="12" cy="12" r="12"/>
  <path class="cls-1" d="M7.45,5.63h8.44v2.38l-3.38,2.79v.04h.23c1.01,0,1.81.31,2.42.94.61.62.91,1.47.91,2.53,0,1.34-.41,2.37-1.23,3.09-.82.72-2,1.07-3.54,1.07s-2.81-.33-4.02-.99l.73-2.25c1.17.6,2.18.9,3.05.9.67,0,1.19-.16,1.56-.47.37-.31.56-.75.56-1.3s-.22-.97-.67-1.21c-.45-.24-1.27-.36-2.49-.36h-.87v-1.98l3.21-2.77v-.03h-4.91v-2.38Z"/>
</svg>