<?xml version="1.0" encoding="UTF-8"?>
<svg id="Layer_1" xmlns="http://www.w3.org/2000/svg" version="1.1" viewBox="0 0 24.8 24.8">
  <!-- Generator: Adobe Illustrator 30.2.1, SVG Export Plug-In . SVG Version: 2.1.1 Build 1)  -->
  <defs>
    <style>
      .st0 {
        fill: #aeddeb;
        stroke: #181818;
        stroke-miterlimit: 10;
        stroke-width: .8px;
      }

      .st1 {
        fill: #181818;
      }
    </style>
  </defs>
  <circle class="st0" cx="12.4" cy="12.4" r="11.4"/>
  <path class="st1" d="M8.1,6.3h8v2.3l-3.2,2.7h0s.2,0,.2,0c1,0,1.7.3,2.3.9.6.6.9,1.4.9,2.4s-.4,2.3-1.2,2.9-1.9,1-3.4,1-2.7-.3-3.8-.9l.7-2.1c1.1.6,2.1.9,2.9.9s1.1-.2,1.5-.4c.4-.3.5-.7.5-1.2s-.2-.9-.6-1.1-1.2-.3-2.4-.3h-.8v-1.9l3-2.6h0s-4.7,0-4.7,0c0,0,0-2.3,0-2.3Z"/>
</svg>