<?xml version="1.0" encoding="UTF-8"?>
<svg id="Layer_1" xmlns="http://www.w3.org/2000/svg" version="1.1" viewBox="0 0 24 24.3">
  <!-- Generator: Adobe Illustrator 30.2.1, SVG Export Plug-In . SVG Version: 2.1.1 Build 1)  -->
  <defs>
    <style>
      .st0 {
        fill: #ffdf9f;
        stroke: #181818;
        stroke-miterlimit: 10;
        stroke-width: .8px;
      }

      .st1 {
        fill: #181818;
      }
    </style>
  </defs>
  <circle class="st0" cx="12" cy="12" r="11.4"/>
  <path class="st1" d="M7.7,15.7c2.2-1.7,3.6-2.9,4.3-3.7s1-1.6,1-2.4-.6-1.5-1.7-1.5-2,.4-3.2,1.2l-.7-2.2c.6-.4,1.2-.7,2-.9s1.6-.4,2.3-.4c1.3,0,2.3.3,3.1,1s1.1,1.5,1.1,2.6-.3,1.9-.9,2.8-1.8,2.1-3.6,3.6h0s4.6,0,4.6,0v2.3H7.7v-2.3h0Z"/>
</svg>