<?xml version="1.0" encoding="UTF-8"?>
<svg id="Layer_1" data-name="Layer 1" xmlns="http://www.w3.org/2000/svg" viewBox="0 0 21.14 23.1">
  <defs>
    <style>
      .cls-1 {
        fill: #231f20;
      }
    </style>
  </defs>
  <g id="Layer_1-2" data-name="Layer 1">
    <path class="cls-1" d="M16.98,1.81c-.45-.02-.91-.03-1.37-.05v-.9C15.6.39,15.22,0,14.74,0s-.87.39-.87.87v.85c-2.17-.04-4.37-.03-6.6.01v-.86c0-.48-.39-.87-.87-.87s-.87.39-.87.87v.91c-.45.01-.9.03-1.36.05C1.86,1.91.04,3.8.04,6.12v11.81c0,2.33,1.82,4.22,4.14,4.3,2.19.08,4.37.12,6.53.12s4.2-.04,6.25-.11c2.32-.08,4.13-1.97,4.13-4.3V6.11c0-2.32-1.81-4.21-4.12-4.3ZM1.84,6.12c0-1.35,1.06-2.46,2.41-2.51.43-.02.86-.03,1.29-.05v.75c0,.48.39.87.87.87s.87-.39.87-.87v-.78c1.17-.03,2.33-.04,3.48-.04,1.05,0,2.08.01,3.11.03v.8c0,.48.39.87.87.87s.87-.39.87-.87v-.75c.44.01.87.02,1.3.04,1.34.05,2.4,1.16,2.4,2.51v.67H1.84v-.66ZM19.31,17.94c0,.68-.26,1.29-.7,1.74-.43.45-1.03.74-1.71.76-4.11.15-8.37.15-12.65,0-1.35-.05-2.41-1.15-2.41-2.51v-9.36h17.47v9.37h0ZM7.27,12.52c0,.48-.39.87-.87.87s-.87-.39-.87-.87.39-.87.87-.87.87.39.87.87ZM11.44,12.52c0,.48-.39.87-.87.87s-.87-.39-.87-.87.39-.87.87-.87.87.39.87.87ZM15.61,12.52c0,.48-.39.87-.87.87s-.87-.39-.87-.87.39-.87.87-.87.87.39.87.87ZM7.27,16.69c0,.48-.39.87-.87.87s-.87-.39-.87-.87.39-.87.87-.87.87.39.87.87ZM11.44,16.69c0,.48-.39.87-.87.87s-.87-.39-.87-.87.39-.87.87-.87.87.39.87.87ZM15.61,16.69c0,.48-.39.87-.87.87s-.87-.39-.87-.87.39-.87.87-.87.87.39.87.87Z"/>
  </g>
</svg>