<?xml version="1.0" encoding="UTF-8"?>
<svg id="Layer_1" data-name="Layer 1" xmlns="http://www.w3.org/2000/svg" viewBox="0 0 21.14 23.1">
  <defs>
    <style>
      .cls-1 {
        fill: #231f20;
      }
    </style>
  </defs>
  <path class="cls-1" d="M12.26,15.8v.91c0,.52-.21,1-.56,1.35-.35.34-.82.56-1.35.56-1.05,0-1.9-.85-1.9-1.9v-.91c0-1.05.85-1.9,1.9-1.9s1.9.85,1.9,1.9ZM14,21.55v-.47c0-.5-.28-.96-.73-1.17-.97-.46-1.95-.69-2.94-.69s-1.99.24-2.99.7c-.46.21-.74.68-.74,1.18v.46c0,.48.39.88.88.88h5.63c.48,0,.88-.39.88-.88ZM10.69,8.32c-.68-.34-1.42-.52-2.14-.52h-4.14c-2.09,0-4.42,1.57-4.42,3.83v4.67c0,1.6,1.17,2.93,2.69,3.19v2.14c0,.48.39.87.87.87s.87-.39.87-.87v-8.81c0-.48-.39-.87-.87-.87s-.87.39-.87.87v4.88c-.56-.22-.96-.76-.96-1.4v-4.67c0-1.18,1.44-2.09,2.68-2.09h4.14c.45,0,.93.12,1.37.33.43.22.95.04,1.16-.39.22-.43.04-.95-.39-1.16ZM21.06,16.68c-.1-.44-.2-.85-.31-1.25-.15-.57-.28-1.1-.37-1.59-.56-3.03-2.38-3.67-3.81-3.67h-3.55c-1.4,0-2.49.6-3.15,1.74-.24.41-.1.95.32,1.19.14.08.28.12.43.12.3,0,.59-.16.75-.43.35-.61.86-.88,1.65-.88h3.55c.88,0,1.74.27,2.1,2.25.1.55.24,1.11.4,1.71.1.39.2.78.3,1.21.16.68-.16,1.36-.75,1.68l-1.14-4.63c-.11-.47-.58-.75-1.05-.64-.47.11-.75.58-.64,1.05l1.79,7.3c.1.4.45.66.84.66.07,0,.14,0,.2-.02.47-.11.75-.59.64-1.05l-.23-.95c1.52-.58,2.39-2.18,2.02-3.78ZM17.65,6.86v-1.82c0-1.44-1.17-2.62-2.62-2.62h-.48c-1.44,0-2.62,1.17-2.62,2.62v1.82c0,1.44,1.17,2.62,2.62,2.62h.48c1.44,0,2.62-1.17,2.62-2.62ZM15.03,4.15c.49,0,.88.4.88.88v1.82c0,.49-.4.88-.88.88h-.48c-.49,0-.88-.4-.88-.88v-1.82c0-.49.4-.88.88-.88h.48ZM9.46,4.44v-1.82c0-1.44-1.17-2.62-2.62-2.62h-.48c-1.44,0-2.62,1.17-2.62,2.62v1.82c0,1.44,1.17,2.62,2.62,2.62h.48c1.44,0,2.62-1.17,2.62-2.62ZM6.84,1.74c.49,0,.88.4.88.88v1.82c0,.49-.4.88-.88.88h-.48c-.49,0-.88-.4-.88-.88v-1.82c0-.49.4-.88.88-.88h.48Z"/>
</svg>