<?xml version="1.0" encoding="UTF-8"?>
<svg id="Layer_1" data-name="Layer 1" xmlns="http://www.w3.org/2000/svg" viewBox="0 0 21.14 23.1">
  <defs>
    <style>
      .cls-1 {
        fill: #231f20;
      }
    </style>
  </defs>
  <path class="cls-1" d="M8.06,10.39c-.4,0-.73-.33-.73-.73v-1.46c0-.4.33-.73.73-.73s.73.33.73.73v1.46c0,.4-.33.73-.73.73ZM13.83,9.66v-1.46c0-.4-.33-.73-.73-.73s-.73.33-.73.73v1.46c0,.4.33.73.73.73s.73-.33.73-.73ZM20.98,13.76v2.73c0,.95-.62,1.75-1.47,2.02v1.28c0,.34-.23.65-.56.73l-8.18,2.2s-.06,0-.09.02c-.04,0-.08,0-.12,0h0s-.08,0-.12,0c-.03,0-.05,0-.08-.02l-8.19-2.2c-.33-.09-.56-.4-.56-.73v-1.31c-.86-.32-1.47-1.14-1.47-2.1v-2.49c0-.96.61-1.78,1.47-2.1v-1.64c0-.23.11-.45.3-.6.18-.14.43-.19.66-.14h0v-4.62C2.59,2.15,4.74,0,7.38,0h6.39c2.64,0,4.78,2.15,4.78,4.79v4.62c.22-.06.47,0,.66.14.19.14.3.37.3.6v1.61c.85.27,1.47,1.06,1.47,2.01M4.08,9.82l.62.16v-3.55c0-.21.09-.41.24-.55.14-.14.32-.2.52-.2h.03c.27,0,.54.02.81.02,2.49,0,4.89-.63,6.94-1.8.12-.07.25-.1.38-.1.11,0,.2.02.3.06.21.1.38.28.42.51.14.52.41,1.02.78,1.39.11.11.27.26.46.34.06.02.11.02.17.03h.04c.18.03.35.11.47.22.12.13.18.3.21.5,0,.11,0,.21,0,.32v2.81l.58-.15v-5.03c0-1.82-1.48-3.3-3.29-3.3h-6.39c-1.82,0-3.3,1.48-3.3,3.3v5.03h0ZM3.21,16.38v-2.49c0-.4-.32-.71-.71-.71h-.1c-.4,0-.71.32-.71.71v2.49c0,.39.32.71.71.71h.1c.4,0,.71-.33.71-.71ZM9.8,12.93l-6.66-1.79v.61c.92.28,1.58,1.14,1.58,2.14v2.49c0,1-.67,1.86-1.58,2.14v.68l6.66,1.79v-8.06ZM14.98,10.38v-2.91c-.68-.29-1.34-.97-1.77-1.85-2.08,1.04-4.49,1.58-6.94,1.58h-.07v3.19l4.37,1.18,4.41-1.19ZM17.99,18.54c-.77-.2-1.38-.83-1.53-1.62l-1.48.41c-.07.02-.14.03-.19.03-.34,0-.65-.23-.74-.57-.11-.41.14-.82.54-.94l1.82-.49v-.76l-3.22.87c-.07.02-.14.03-.19.03-.34,0-.65-.23-.74-.57-.11-.41.14-.82.54-.94l3.78-1.01c.24-.62.77-1.08,1.42-1.24v-.59l-6.66,1.79v8.06l6.66-1.79v-.67h0ZM19.46,13.76c0-.33-.26-.59-.59-.59h-.34c-.33,0-.6.26-.6.59v2.73c0,.33.27.6.6.6h.34c.33,0,.59-.27.59-.6v-2.73Z"/>
</svg>