<?xml version="1.0" encoding="UTF-8"?>
<svg id="Layer_1" data-name="Layer 1" xmlns="http://www.w3.org/2000/svg" viewBox="0 0 21.14 23.1">
  <defs>
    <style>
      .cls-1 {
        fill: #191818;
      }
    </style>
  </defs>
  <path class="cls-1" d="M10.57,0C4.91,0,.3,4.61.3,10.27s4.61,10.27,10.27,10.27,10.27-4.61,10.27-10.27S16.24,0,10.57,0ZM10.57,18.64c-4.61,0-8.37-3.76-8.37-8.37S5.96,1.9,10.57,1.9s8.37,3.75,8.37,8.37-3.75,8.37-8.37,8.37ZM14.69,12.51c0,.52-.43.95-.95.95h-2.22v1.19c0,.52-.43.95-.95.95s-.95-.43-.95-.95v-1.19h-2.22c-.52,0-.95-.43-.95-.95s.43-.95.95-.95h2.22v-.75h-2.22c-.52,0-.95-.43-.95-.95s.43-.95.95-.95h1.28l-1.45-1.97c-.31-.42-.22-1.02.2-1.33.16-.12.36-.18.56-.18.3,0,.59.15.77.39l1.8,2.45,1.81-2.45c.18-.24.47-.39.77-.39.2,0,.4.06.56.18.42.31.51.91.2,1.33l-1.45,1.97h1.28c.52,0,.95.43.95.95s-.43.95-.95.95h-2.22v.75h2.22c.52,0,.95.42.95.95Z"/>
</svg>