<?xml version="1.0" encoding="UTF-8"?>
<svg id="Layer_1" data-name="Layer 1" xmlns="http://www.w3.org/2000/svg" viewBox="0 0 1155.39 294.49">
  <defs>
    <style>
      .cls-1 {
        fill: none;
        stroke-width: 6px;
      }

      .cls-1, .cls-2 {
        stroke: #181818;
        stroke-miterlimit: 10;
      }

      .cls-3, .cls-4 {
        fill: #231f20;
      }

      .cls-5 {
        fill: #f4d7de;
      }

      .cls-2 {
        stroke-width: .7px;
      }

      .cls-2, .cls-6 {
        fill: #fff;
      }

      .cls-7 {
        fill: #e9afbb;
      }

      .cls-8 {
        fill: #ffdf9f;
      }

      .cls-9, .cls-4 {
        opacity: .1;
      }

      .cls-10 {
        fill: #d6edf4;
      }

      .cls-11 {
        fill: #ffeed0;
      }

      .cls-12 {
        fill: #aeddeb;
      }
    </style>
  </defs>
  <path class="cls-10" d="M1089.96,291.49H25.68c-12.53,0-22.68-13.6-22.68-30.37V127.43c0-16.77,10.15-30.37,22.68-30.37h1063.63c7.05,0,13.71,4.4,18,11.89l40.4,70.58c6.48,11.32,6.2,27.15-.66,38.05l-39.75,63.12c-4.31,6.84-10.65,10.79-17.34,10.79Z"/>
  <path class="cls-12" d="M461.12,175.21h684.05l-37.86-66.59c-4.29-7.29-10.94-11.56-18-11.56H25.68c-12.53,0-22.68,13.21-22.68,29.51v129.92c0,16.3,10.15,29.51,22.68,29.51h435.44v-110.79Z"/>
  <path class="cls-11" d="M718.92,291.49H25.68c-12.53,0-22.68-13.6-22.68-30.37V127.43c0-16.77,10.15-30.37,22.68-30.37h692.59c7.05,0,13.71,4.4,18,11.89l40.4,70.58c6.48,11.32,6.2,27.15-.66,38.05l-39.75,63.12c-4.31,6.84-10.65,10.79-17.34,10.79Z"/>
  <path class="cls-8" d="M236.86,176h537.79l-38.38-67.05c-4.29-7.5-10.94-11.89-18-11.89H25.68c-12.53,0-22.68,13.6-22.68,30.37v133.7c0,16.77,10.15,30.37,22.68,30.37h211.18v-115.49Z"/>
  <path class="cls-5" d="M343.13,291.49H25.68c-12.53,0-22.68-13.6-22.68-30.37V127.43c0-16.77,10.15-30.37,22.68-30.37h316.81c7.05,0,13.71,4.4,18,11.89l40.4,70.58c6.48,11.32,6.2,27.15-.66,38.05l-39.75,63.12c-4.31,6.84-10.65,10.79-17.34,10.79Z"/>
  <path class="cls-7" d="M398.87,176l-38.38-67.05c-4.29-7.5-10.94-11.89-18-11.89H25.68c-12.53,0-22.68,13.6-22.68,30.37v48.57h395.86Z"/>
  <path class="cls-1" d="M1089.96,291.49H25.68c-12.53,0-22.68-13.6-22.68-30.37V127.43c0-16.77,10.15-30.37,22.68-30.37h1063.63c7.05,0,13.71,4.4,18,11.89l40.4,70.58c6.48,11.32,6.2,27.15-.66,38.05l-39.75,63.12c-4.31,6.84-10.65,10.79-17.34,10.79Z"/>
  <path class="cls-1" d="M718.92,291.49H25.68c-12.53,0-22.68-13.6-22.68-30.37V127.43c0-16.77,10.15-30.37,22.68-30.37h692.59c7.05,0,13.71,4.4,18,11.89l40.4,70.58c6.48,11.32,6.2,27.15-.66,38.05l-39.75,63.12c-4.31,6.84-10.65,10.79-17.34,10.79Z"/>
  <path class="cls-1" d="M343.13,291.49H25.68c-12.53,0-22.68-13.6-22.68-30.37V127.43c0-16.77,10.15-30.37,22.68-30.37h316.81c7.05,0,13.71,4.4,18,11.89l40.4,70.58c6.48,11.32,6.2,27.15-.66,38.05l-39.75,63.12c-4.31,6.84-10.65,10.79-17.34,10.79Z"/>
  <line class="cls-1" x1="3" y1="175.14" x2="1145.2" y2="175.14"/>
  <g>
    <path class="cls-3" d="M166.29,138.35c0,5.61-1.51,9.9-4.53,12.87-3.02,2.97-7.33,4.46-12.92,4.46-3.25,0-6.29-.23-9.11-.67v-32.4c2.82-.45,5.86-.67,9.11-.67,5.56,0,9.86,1.43,12.89,4.3,3.04,2.87,4.56,6.91,4.56,12.13ZM160.23,138.35c0-7.59-3.69-11.38-11.07-11.38-1.15,0-2.2.09-3.14.27v23.13c.94.18,1.99.27,3.14.27,3.71,0,6.48-1,8.32-3.02,1.84-2.01,2.76-5.1,2.76-9.27Z"/>
    <path class="cls-3" d="M167.79,155.22l11.53-32.85h6.83l11.57,32.85h-6.83l-2.37-7.92h-11.71l-2.42,7.92h-6.61ZM178.22,142.49h8.84l-4.37-14.58h-.09l-4.37,14.58Z"/>
    <path class="cls-3" d="M201.6,122.37l7.47,14.71h.09l7.47-14.71h7.2l-11.48,19.8v13.05h-6.65v-13.05l-11.48-19.8h7.38Z"/>
    <path class="cls-3" d="M252.08,155.22v-25.51h-.05l-7.97,7.2-2.14-5.22,10.16-9.31h6.56v32.85h-6.56Z"/>
  </g>
  <g>
    <path class="cls-3" d="M555.37,138.35c0,5.61-1.51,9.9-4.53,12.87-3.02,2.97-7.33,4.46-12.92,4.46-3.25,0-6.29-.23-9.11-.67v-32.4c2.82-.45,5.86-.67,9.11-.67,5.56,0,9.86,1.43,12.89,4.3,3.04,2.87,4.56,6.91,4.56,12.13ZM549.31,138.35c0-7.59-3.69-11.38-11.07-11.38-1.15,0-2.2.09-3.14.27v23.13c.94.18,1.99.27,3.14.27,3.71,0,6.48-1,8.32-3.02,1.84-2.01,2.76-5.1,2.76-9.27Z"/>
    <path class="cls-3" d="M556.87,155.22l11.53-32.85h6.83l11.57,32.85h-6.83l-2.37-7.92h-11.71l-2.42,7.92h-6.61ZM567.3,142.49h8.84l-4.37-14.58h-.09l-4.37,14.58Z"/>
    <path class="cls-3" d="M590.68,122.37l7.47,14.71h.09l7.47-14.71h7.2l-11.48,19.8v13.05h-6.65v-13.05l-11.48-19.8h7.38Z"/>
    <path class="cls-3" d="M631.55,150.14c4.16-3.21,7.36-5.9,9.59-8.08s3.73-3.98,4.49-5.42c.76-1.44,1.14-2.94,1.14-4.5,0-3.33-1.81-5-5.42-5-2.55,0-5.45,1.04-8.7,3.11l-1.69-5.04c1.52-1.02,3.29-1.82,5.31-2.41,2.02-.58,4.02-.88,5.99-.88,3.55,0,6.29.85,8.22,2.54,1.93,1.7,2.89,4.04,2.89,7.04,0,2.82-.9,5.54-2.71,8.14-1.81,2.61-5.34,6.08-10.59,10.4v.09h13.35v5.08h-21.87v-5.08Z"/>
  </g>
  <g>
    <path class="cls-3" d="M926.44,138.35c0,5.61-1.51,9.9-4.53,12.87s-7.33,4.46-12.92,4.46c-3.25,0-6.29-.23-9.11-.67v-32.4c2.82-.45,5.86-.67,9.11-.67,5.56,0,9.86,1.43,12.89,4.3,3.04,2.87,4.56,6.91,4.56,12.13ZM920.38,138.35c0-7.59-3.69-11.38-11.07-11.38-1.16,0-2.2.09-3.14.27v23.13c.94.18,1.99.27,3.14.27,3.71,0,6.48-1,8.31-3.02,1.84-2.01,2.76-5.1,2.76-9.27Z"/>
    <path class="cls-3" d="M927.95,155.22l11.53-32.85h6.83l11.57,32.85h-6.83l-2.37-7.92h-11.71l-2.42,7.92h-6.61ZM938.38,142.49h8.84l-4.37-14.58h-.09l-4.37,14.58Z"/>
    <path class="cls-3" d="M961.76,122.37l7.47,14.71h.09l7.47-14.71h7.2l-11.48,19.8v13.05h-6.65v-13.05l-11.48-19.8h7.38Z"/>
    <path class="cls-3" d="M1002.53,122.37h21.32v5.08l-9.34,8.37v.09h.78c2.79,0,5,.79,6.61,2.36,1.61,1.58,2.41,3.77,2.41,6.59,0,3.45-1.06,6.11-3.19,7.99s-5.16,2.81-9.11,2.81c-3.55,0-6.79-.79-9.7-2.38l1.64-4.95c2.83,1.5,5.42,2.25,7.79,2.25,2,0,3.55-.48,4.65-1.44,1.09-.96,1.64-2.35,1.64-4.18,0-1.68-.62-2.89-1.85-3.62-1.23-.73-3.39-1.1-6.49-1.1h-2.73v-4.5l9.11-8.19v-.09h-13.53v-5.08Z"/>
  </g>
  <g>
    <path class="cls-3" d="M80.35,214.38c7.23-.24,14.32-.88,21.28-1.93l.59,4.54c-2.67.36-5.27.66-7.79.9v2.34h7.79v1.04h3.65c.09-2.7.14-5.7.14-9h5.33c0,3.27-.05,6.27-.14,9h9.75v3.6c0,3.42-.02,6.32-.05,8.68-.03,2.37-.09,4.58-.18,6.62-.09,2.04-.19,3.68-.3,4.91-.11,1.23-.29,2.33-.55,3.31-.26.97-.51,1.69-.75,2.16-.24.46-.6.85-1.07,1.15-.47.3-.92.48-1.34.54-.43.06-1,.09-1.73.09-1.49,0-3.57-.15-6.24-.45l-.14-5.31c2.16.3,3.67.45,4.56.45.49,0,.86-.34,1.12-1.01.26-.68.46-2.36.62-5.04.15-2.68.23-6.71.23-12.08v-2.66h-4.15c-.36,6.78-1.09,12.19-2.19,16.22-1.09,4.04-2.69,7.61-4.78,10.73l-3.05-2.07c-7.17.81-14.28,1.36-21.32,1.67l-.32-4.64c1.88-.06,4.95-.21,9.2-.45v-1.98h-8.47v-4.14h8.47v-1.71h-7.79v-13.77h7.79v-1.67h-8.75v-4.18h8.75v-1.84c-2.64.18-5.27.31-7.88.4l-.27-4.41ZM85.72,231.61h2.92v-1.93h-2.92v1.93ZM85.72,234.31v1.98h2.92v-1.98h-2.92ZM94.29,231.61h2.82v-1.93h-2.82v1.93ZM94.29,236.29h2.82v-1.98h-2.82v1.98ZM94.43,226.08h6.93v-1.67h-6.93v1.67ZM94.43,247.27c2.19-.15,4.56-.36,7.11-.63,2.28-4.62,3.66-11.43,4.15-20.43h-3.83v13.64h-7.43v1.71h7.2v4.14h-7.2v1.58Z"/>
    <path class="cls-3" d="M139.4,243.72h-5.06v-21.69h8.7v-3.46h-17.54v-4.95h40.73v4.95h-17.54v3.46h8.7v21.69h-18ZM132.11,223.38v22.64h27.52v-22.64h5.6v29.39h-5.6v-2.07h-27.52v2.07h-5.6v-29.39h5.6ZM139.4,230.8h3.65v-4.46h-3.65v4.46ZM139.4,234.67v4.77h3.65v-4.77h-3.65ZM148.69,230.8h3.65v-4.46h-3.65v4.46ZM148.69,234.67v4.77h3.65v-4.77h-3.65Z"/>
    <path class="cls-3" d="M171.79,217.08c12.27,0,24.76-.3,37.45-.9l.23,5.4c-7.32.6-12.82,2.2-16.49,4.79-3.68,2.59-5.51,5.83-5.51,9.7,0,3.18,1.02,5.67,3.08,7.47s4.78,2.7,8.18,2.7c1.76,0,3.61-.18,5.56-.54l.68,5.49c-2.28.42-4.47.63-6.56.63-5.32,0-9.55-1.37-12.71-4.09-3.16-2.73-4.74-6.42-4.74-11.07,0-2.94.87-5.67,2.6-8.19,1.73-2.52,4.19-4.62,7.38-6.3v-.09c-6.65.27-13.03.41-19.14.41v-5.4ZM206.37,234.04l-4.69,2.21c-1.18-2.37-2.48-4.75-3.87-7.15l4.69-2.34c1.4,2.55,2.69,4.98,3.87,7.29ZM213.76,232.6l-4.78,2.25c-1.37-2.61-2.69-5.04-3.96-7.29l4.78-2.38c1.09,1.95,2.41,4.42,3.96,7.42Z"/>
    <path class="cls-3" d="M234.71,246.46v-4.77h-18.54v-5.13h18.54v-3.2h4.28c1.18-.81,2.7-1.92,4.56-3.33h-20.59v-1.71h-5.42v-10.48h5.83c-.7-1.29-1.44-2.59-2.23-3.92l5.29-1.89c1.03,1.65,2.1,3.59,3.19,5.81h4.65c-.79-1.56-1.59-3.02-2.41-4.37l5.29-1.89c.97,1.56,2.08,3.65,3.33,6.26h4.01c1.21-2.04,2.28-4.02,3.19-5.94l5.42,1.26c-.67,1.47-1.47,3.03-2.41,4.68h5.79v10.48h-5.47v1.71c-2.55,2.46-5.18,4.63-7.88,6.53h14.72v5.13h-16.86v5.71c0,1.41-.05,2.44-.14,3.08-.09.64-.42,1.18-.98,1.62-.56.43-1.25.69-2.05.77-.81.07-2.1.11-3.9.11-.88,0-3.37-.08-7.47-.22l-.27-5c3.74.15,6.01.22,6.83.22s1.35-.07,1.5-.2c.15-.13.23-.58.23-1.33ZM250.57,222.48h-27.16v2.7h27.16v-2.7Z"/>
    <path class="cls-3" d="M266.61,229.77l5.47,1.3c-1.49,5.43-3.61,10.79-6.38,16.07l-5.15-2.07c2.58-5.04,4.6-10.14,6.06-15.3ZM286.29,233.5c1.79,2.01,3.04,3.69,3.74,5.04.7,1.35,1.05,2.75,1.05,4.19,0,2.88-1.02,5.17-3.08,6.88s-4.78,2.57-8.18,2.57c-2.98,0-5.74-.71-8.29-2.12l2-5c2.73,1.14,4.72,1.71,5.97,1.71,1.49,0,2.7-.38,3.62-1.12.93-.75,1.39-1.72,1.39-2.92,0-1.02-.27-2.02-.82-2.99-.55-.97-1.59-2.27-3.14-3.89-1.58-1.65-2.7-3.11-3.37-4.39-.67-1.28-1-2.57-1-3.89,0-2.4,1.41-4.71,4.24-6.93v-.09h-11.07v-5.13h19.5l4.65-2.29c1.4,2.55,2.69,4.98,3.87,7.29l-4.69,2.21c-.73-1.44-1.85-3.52-3.37-6.25v5c-2.1.54-3.74,1.33-4.94,2.38-1.2,1.05-1.8,2.13-1.8,3.24,0,.9.27,1.82.8,2.75.53.93,1.51,2.19,2.94,3.78ZM291.85,231.43l5.1-2.29c2.89,5.19,5.22,10.56,7.02,16.11l-5.33,1.58c-1.7-5.43-3.96-10.56-6.79-15.39ZM304.65,218.74l-4.78,2.25c-1.37-2.61-2.69-5.04-3.96-7.29l4.78-2.38c1.09,1.95,2.42,4.43,3.96,7.42Z"/>
  </g>
  <g>
    <path class="cls-3" d="M514.9,241.38c2.4,3.12,7.75,5.25,16.04,6.39l-2,5.17c-3.95-.69-7.5-1.82-10.66-3.38-3.16-1.56-5.62-3.34-7.38-5.36-1.82,2.01-4.37,3.8-7.63,5.38s-6.95,2.69-11.05,3.35l-2-5.17c8.29-1.17,13.64-3.3,16.04-6.39h-16.04v-4.86h17.27v-2.52h-12.85v-4.5h12.85v-2.43h-13.3v-3.15h-3.33v-8.77h16.63v-3.33h6.2v3.33h16.63v8.77h-3.33v3.15h-13.3v2.43h12.85v4.5h-12.85v2.52h17.27v4.86h-16.04ZM496.44,222.43h11.03v-2.57h-11.03v2.57ZM524.69,219.87h-11.03v2.57h11.03v-2.57Z"/>
    <path class="cls-3" d="M572.35,246.46c.43,0,.85-2.4,1.28-7.2l4.46,1.98c-.21,3.96-.8,6.9-1.75,8.82-.96,1.92-2.1,2.88-3.44,2.88-2.89,0-5.18-2.07-6.88-6.21-2.86,2.4-6.18,4.46-9.98,6.17l-2.92-4.28c2.19-.96,3.98-1.89,5.38-2.79h-7.75v7.38h-5.83v-7.38h-10.16v-4.81h10.16v-2.7h-8.43v-18.67h1.91c-.94-2.4-1.79-4.38-2.55-5.94l4.65-1.44c.94,1.86,1.97,4.32,3.1,7.38h2.64c-.76-2.07-1.64-4.2-2.64-6.39l4.65-1.44c1.25,2.61,2.32,5.22,3.23,7.83h.23c1.31-2.64,2.38-5.14,3.23-7.52l5.1,1.26c-.82,2.31-1.69,4.39-2.6,6.25h1.59v4.09l3.23-.27c-.18-3.36-.27-7.11-.27-11.25h5.7c.06,4.32.17,7.91.32,10.75l8.98-.81.32,5.13-8.98.77c.15,1.77.42,4.17.82,7.2,1.09-1.8,2.11-3.87,3.05-6.21l4.69,1.94c-1.73,4.38-3.87,8.12-6.42,11.21.73,2.85,1.35,4.27,1.87,4.27ZM545.1,224.01h-3.6v3.06h3.6v-3.06ZM541.51,230.98v3.2h3.6v-3.2h-3.6ZM554.22,227.07v-3.06h-3.6v3.06h3.6ZM554.22,230.98h-3.6v3.2h3.6v-3.2ZM559.96,244.89c1.64-1.11,3.11-2.31,4.42-3.6-.82-3.63-1.41-7.88-1.78-12.73l-3.55.31v9.45h-8.29v2.7h9.2v3.87ZM572.4,221.8c-1.21-2.73-2.43-5.18-3.65-7.33l4.51-1.76c1.25,2.22,2.46,4.68,3.65,7.38l-4.51,1.71Z"/>
    <path class="cls-3" d="M579.82,222.03l2.51-5.4c.67.96,1.18,1.7,1.55,2.21,1.12-2.28,2.11-4.59,2.96-6.93l4.65,1.62c-1.34,3.21-2.87,6.43-4.6,9.67.09.12.21.29.34.5s.26.39.36.54c.11.15.21.3.3.45,1.82-3.09,3.31-5.75,4.47-7.96l3.42,1.48v-2.79h11.07v-3.42h5.79v3.42h10.34v4.68h-10.34v2.02h9.57v17.15h-8.84c2.64,2.91,6.11,5.52,10.39,7.83l-2.42,4.9c-3.31-2.1-6.21-4.6-8.7-7.51v8.68h-5.79v-8.64c-2.73,2.79-6.09,5.28-10.07,7.47l-1.73-3.6-1.73.18c-.12-2.88-.43-6.39-.91-10.53l3.69-.54c.39,2.88.7,5.64.91,8.28,3.95-2.13,7-4.3,9.16-6.52h-8.7v-3.02l-2.73.58c-.03-.12-.08-.34-.16-.67-.08-.33-.13-.58-.16-.76l-2.64.18v17.64h-5.7v-17.23l-5.56.41-.18-5.22,3.6-.18c.12-.18.3-.46.55-.83.24-.37.42-.65.55-.83-1.52-2.22-3.25-4.65-5.19-7.29ZM579.87,250.42c.73-4.08,1.23-8.25,1.5-12.51l3.92.32c-.24,4.35-.75,8.64-1.5,12.87l-3.92-.68ZM593.22,230.44c-.18-.75-.52-1.98-1-3.69-.18.33-.99,1.62-2.42,3.87l3.42-.18ZM592.85,225.67l2.82-.76c.61,1.98,1.2,4.19,1.78,6.62v-9.41h9.39v-2.02h-10.84c-.94,1.74-1.99,3.6-3.14,5.58ZM602.83,228.91h4.01v-2.75h-4.01v2.75ZM606.84,235.39v-2.88h-4.01v2.88h4.01ZM616.59,228.91v-2.75h-3.96v2.75h3.96ZM612.63,235.39h3.96v-2.88h-3.96v2.88Z"/>
    <path class="cls-3" d="M654.82,224.01c-1.76-1.2-3.95-2.58-6.56-4.14l1.91-2.12h-2.1v-4.5h18.68v14.76c0,1.74-.29,2.81-.87,3.22-.58.41-2.13.61-4.65.61-1.73,0-3.74-.04-6.01-.13l-.23-3.01c-1.91.72-3.54,1.29-4.88,1.71-.21.9-.52,1.98-.91,3.24h15.04v19.35h-6.06v-1.62h-21.41v1.62h-6.06v-19.35h12.07c.06-.21.16-.52.3-.95.14-.42.24-.73.3-.95-.49.06-1.44.09-2.87.09-1.73,0-3.74-.04-6.01-.13l-.18-2.88c-2.49.93-4.59,1.65-6.29,2.16l-1.37-4.37c3.07-.9,5.56-1.72,7.47-2.47-2.25-1.53-4.45-2.94-6.61-4.23l1.96-2.16h-2.14v-4.5h18.68v14.76c0,.93-.03,1.56-.09,1.89l2.64.32-1.18-3.78c2.43-.69,4.91-1.5,7.43-2.43ZM638.96,227.52c.64,0,1.02-.04,1.14-.13.12-.09.18-.38.18-.86v-8.78h-7.66c2.19,1.32,3.78,2.33,4.78,3.02l-2.78,3.19c.91-.36,2.25-.93,4.01-1.71l1.09,4.19c-.76.42-1.47.76-2.14,1.04.24,0,.52,0,.82.02.3.02.49.02.55.02ZM636.78,240.57h21.41v-2.52h-21.41v2.52ZM658.19,247v-2.56h-21.41v2.56h21.41ZM659.69,227.52c.64,0,1.02-.04,1.14-.13.12-.09.18-.38.18-.86v-8.78h-7.52c1.55.9,3.1,1.89,4.65,2.97l-2.69,3.01c1.4-.54,2.7-1.08,3.92-1.62l1.09,4.19c-.91.48-1.73.87-2.46,1.17.3,0,.64,0,1.03.02.38.02.6.02.66.02Z"/>
  </g>
  <g>
    <path class="cls-3" d="M874.66,217.89c5.77-.57,10.37-2.24,13.81-5.02,3.43-2.77,6.17-6.98,8.2-12.62l5.6,2.16c-2.8,7.56-6.8,13.02-12.03,16.38s-12.24,5.04-21.05,5.04h-1.09v-35.87h6.56v29.93Z"/>
    <path class="cls-3" d="M913.34,198.04l5.1-1.21c.94,3.21,2.04,7.22,3.28,12.02l-5.24,1.21c-.97-4.02-2.02-8.03-3.14-12.02ZM943.51,196.15c-.09,6.33-.94,11.41-2.55,15.23s-4.09,6.72-7.45,8.69c-3.36,1.96-7.89,3.25-13.6,3.85l-1.05-5c4.92-.63,8.72-1.72,11.39-3.26s4.62-3.86,5.83-6.95c1.21-3.09,1.87-7.36,1.96-12.82l5.47.27ZM923.14,196.87l5.24-1.21c1.18,4.26,2.28,8.37,3.28,12.33l-5.24,1.21c-.97-3.96-2.07-8.07-3.28-12.33Z"/>
    <path class="cls-3" d="M959.54,194.58v-5.54h29.16v5.54c-2.13,4.68-5.07,9.09-8.84,13.23,4.86,4.32,9.11,8.28,12.76,11.88l-4.19,4.09c-4.44-4.38-8.64-8.35-12.62-11.92-5.25,4.8-11.1,8.68-17.54,11.66l-2.73-4.95c6.11-2.97,11.39-6.5,15.86-10.58,4.46-4.08,7.97-8.55,10.52-13.41h-22.37Z"/>
    <path class="cls-3" d="M1002.74,193.68l2.92-5.4c4.59,2.16,9.29,4.58,14.12,7.25l-3.05,5.31c-4.07-2.25-8.73-4.63-13.99-7.15ZM1033.49,192.6l5.79,1.26c-1.61,8.91-5.25,15.77-10.93,20.56-5.68,4.8-13.58,7.63-23.69,8.51l-.91-5.85c8.81-.84,15.58-3.22,20.3-7.13,4.72-3.92,7.87-9.7,9.45-17.35Z"/>
    <path class="cls-3" d="M863.34,277.96c2.67-4.05,4.45-8.49,5.33-13.32l5.47.85c-.3,2.04-.71,3.87-1.23,5.49,1.21.99,2.52,1.73,3.92,2.21v-9.41h-9.52l.18,1.21c-1.37.48-2.75.93-4.15,1.35v6.21c0,1.83-.04,3.18-.14,4.05-.09.87-.36,1.58-.8,2.14-.44.55-1,.89-1.66,1.01-.67.12-1.7.18-3.1.18-.61,0-2.08-.08-4.42-.22l-.27-4.82c2.03.15,3.31.22,3.83.22.33,0,.53-.09.59-.27s.09-.79.09-1.84v-5.08c-2.46.57-3.96.9-4.51.99l-.36-5.26c1.46-.24,3.08-.58,4.88-1.04v-9.76h-4.78v-4.95h4.78v-8.46h5.88v8.46h4.28v-7.51h25.06v16.74h-25.06v-4.27h-4.28v8.23c1.97-.63,3.05-.97,3.24-1.03v-1.04h27.79v4.77h-11.48v2.79h10.11v4.54h-10.11v3.24c2.31.21,5.31.32,9.02.32h2.6l-.32,4.95h-2.73c-5.41,0-9.64-.31-12.71-.92-3.07-.62-5.59-1.67-7.56-3.17-.7,1.53-1.59,3.13-2.69,4.82l-5.15-2.39ZM873.55,247.09h13.21v-2.21h-13.21v2.21ZM873.55,250.74v2.29h13.21v-2.29h-13.21Z"/>
    <path class="cls-3" d="M907.13,251.77v28.44h-5.88v-19.08c-1.03,1.68-2,3.04-2.92,4.09l-1.91-6.75c3.98-5.16,6.73-11.57,8.25-19.21l5.65.99c-.67,4.2-1.73,8.04-3.19,11.52ZM907.76,276.16c4.4-2.85,8.11-6.08,11.12-9.67l4.1,3.78c-3.34,4.08-7.24,7.5-11.71,10.26l-3.51-4.37ZM914.6,246.19v-6.48h5.92v6.48h8.25v-6.48h6.06v6.48h4.42v4.95h-4.42v9.58h5.65v5.08h-31.8v-5.08h5.92v-9.58h-4.42v-4.95h4.42ZM920.52,260.73h8.25v-9.58h-8.25v9.58ZM925.71,270.54l4.01-3.96c3.92,3,7.47,6.38,10.66,10.12l-4.06,4.05c-2.89-3.51-6.42-6.91-10.62-10.21Z"/>
    <path class="cls-3" d="M950.23,279.99h-5.83v-39.83h18.68v17.64h-12.85v22.18ZM950.23,247.32h7.75v-2.61h-7.75v2.61ZM950.23,251.19v2.61h7.75v-2.61h-7.75ZM956.79,270.85h-4.24v-3.83h4.88v-3.01h-4.19v-3.96h22.19v3.96h-3.87v3.01h4.47v3.83h-4.47v7.96h-5.24v-7.96h-4.24c-.73,3.27-2.64,6.12-5.74,8.55l-4.28-2.92c2.49-1.89,4.07-3.76,4.74-5.62ZM966.31,264.01h-3.83v3.01h3.83v-3.01ZM977.34,279.85c-1.03,0-2.55-.08-4.56-.23l-.27-4.95c2.22.15,3.51.22,3.87.22,1.09,0,1.75-.1,1.96-.29.21-.19.32-.8.32-1.82v-14.98h-13.17v-17.64h19v32.36c0,1.23-.02,2.2-.07,2.9-.05.7-.17,1.36-.37,1.98s-.43,1.06-.71,1.33c-.27.27-.71.5-1.3.7-.59.19-1.23.32-1.91.36s-1.62.07-2.8.07ZM978.66,247.32v-2.61h-8.2v2.61h8.2ZM978.66,251.19h-8.2v2.61h8.2v-2.61Z"/>
    <path class="cls-3" d="M1019.89,245.56l5.1-2.25c2.7,4.83,5.07,9.54,7.11,14.13l-5.15,2.21c-.33-.75-.9-1.96-1.69-3.65-6.9,1.11-13.93,1.83-21.1,2.16-.49,3.03-1.28,5.91-2.37,8.64,1.06,1.59,2.23,3.54,3.51,5.85v-12.06h24.19v19.62h-6.06v-2.07h-12.21v2.07h-5.92v-6.48l-3.69,3.29c-1-2.04-1.85-3.66-2.55-4.86-2.1,3.3-4.77,6.22-8.02,8.78l-2.64-4.73c3.16-2.61,5.62-5.61,7.38-9-.43-.54-1.06-1.29-1.91-2.25-.27.75-.68,1.79-1.23,3.11l-4.01-4.23c1.37-3.96,2.43-8.19,3.19-12.69h-3.28v-4.95h4.01c.21-1.62.46-3.93.73-6.93l5.38.18c-.18,2.34-.41,4.59-.68,6.75h6.93v2.38c0,1.05-.06,2.54-.18,4.46.21-.03.52-.04.93-.04s.71-.01.89-.04c1.88-4.47,3.72-9.24,5.51-14.31l5.47,1.39c-1.46,4.23-3.08,8.39-4.88,12.46,3.86-.36,7.3-.73,10.34-1.12-1.4-2.7-2.43-4.63-3.1-5.8ZM995.52,259.47c.97.84,1.78,1.62,2.42,2.34.94-3.24,1.5-6.79,1.69-10.67h-2.37c-.49,2.88-1.06,5.66-1.73,8.33ZM1023.45,273.33v-7.79h-12.21v7.79h12.21Z"/>
    <path class="cls-3" d="M1038.66,243.18h7.61l-.91,22.95h-5.79l-.91-22.95ZM1039.12,276.03v-6.3h6.7v6.3h-6.7Z"/>
  </g>
  <g>
    <path class="cls-9" d="M324.51,56.08v30.16c0,8.45-6.85,15.35-15.33,15.35H126.96c-1.89,2.26-3.81,4.39-5.82,6.44-1.8,1.81-3.77,3.57-6.11,4.51-3.28,1.44-7.26.7-9.72-1.89-2.75-2.63-3.4-7.67-7.79-7.71-2.66.04-5.37,1.64-7.75,2.95-1.97,1.15-4.1,2.01-6.31,2.67-7.54,2.34-18.86,3.9-19.35-6.77-.2-5.46,1.43-11.65,3.89-16.45.37-.74.82-1.48,1.23-2.18.61-1.03.86-1.52.41-1.44-.74.12-2.79,1.31-3.89,1.77-10.49,4.6-23.12,3.73-32.47-2.83-19.35-12.97-20.25-40.75-2.05-55.23,1.93-1.72,4.59-2.87,6.27-4.76,2.01-2.3,1.56-5.46,3.07-8.08,1.11-2.01,3.11-3.28,5.33-3.81,1.76-.41,3.61-.53,5.41-.53,6.07-.21,12.3.7,13.36,7.71.53,2.17.37,4.35,2.99,2.42,2.79-2.01,5.53-3.36,8.98-2.05,3.73,1.35,9.92,7.51,11.27,11.24.57,1.48.74,3.12.33,4.64-.25,1.07-.78,2.05-1.35,2.95-.61,1.19-2.58,3.2-1.27,4.1,1.19.66,3.07.74,5.17.99,2.38.29,4.88.33,7.09-.66,1.19-.53,2.38-1.27,3.48-2.01,7.99-5.46,16.81-9.19,26.36-11,4.39-.74,9.1-1.52,13.4.04,4.39,1.56,7.01,5.95,7.17,10.54v.04c0,1.15-.04,2.34-.12,3.53h160.98c8.49,0,15.33,6.89,15.33,15.35Z"/>
    <path class="cls-6" d="M324.51,47.87v30.16c0,8.45-6.85,15.35-15.33,15.35H126.96c-1.89,2.26-3.81,4.39-5.82,6.44-1.8,1.81-3.77,3.57-6.11,4.51-3.28,1.44-7.26.7-9.72-1.89-2.75-2.63-3.4-7.67-7.79-7.71-2.66.04-5.37,1.64-7.75,2.95-1.97,1.15-4.1,2.01-6.31,2.67-7.54,2.34-18.86,3.9-19.35-6.77-.2-5.46,1.43-11.65,3.89-16.45.37-.74.82-1.48,1.23-2.18.61-1.03.86-1.52.41-1.44-.74.12-2.79,1.31-3.89,1.77-10.49,4.6-23.12,3.73-32.47-2.83-19.35-12.97-20.25-40.75-2.05-55.23,1.93-1.72,4.59-2.87,6.27-4.76,2.01-2.3,1.56-5.46,3.07-8.08,1.11-2.01,3.11-3.28,5.33-3.81,1.76-.41,3.61-.53,5.41-.53,6.07-.21,12.3.7,13.36,7.71.53,2.17.37,4.35,2.99,2.42,2.79-2.01,5.53-3.36,8.98-2.05,3.73,1.35,9.92,7.51,11.27,11.24.57,1.48.74,3.12.33,4.64-.25,1.07-.78,2.05-1.35,2.95-.61,1.19-2.58,3.2-1.27,4.1,1.19.66,3.07.74,5.17.99,2.38.29,4.88.33,7.09-.66,1.19-.53,2.38-1.27,3.48-2.01,7.99-5.46,16.81-9.19,26.36-11,4.39-.74,9.1-1.52,13.4.04,4.39,1.56,7.01,5.95,7.17,10.54v.04c0,1.15-.04,2.34-.12,3.53h160.98c8.49,0,15.33,6.89,15.33,15.35Z"/>
    <g>
      <g>
        <path d="M142.92,29.05c-.33,7.55-2.05,14.78-5.05,21.7-2.77,6.39-6.48,12.19-11.09,17.41-.38.43-.41.81-.21,1.31.69,1.75,1.25,3.53,1.74,5.34.88,3.25.36,6.23-1.38,9.09-2.07,3.38-4.64,6.36-7.31,9.25-1.67,1.81-3.4,3.56-5.14,5.31-2.39,2.41-5.74,1.61-6.79-1.61-1.06-3.26-2.1-6.53-3.15-9.79-.36-1.13-.37-1.12-1.38-.58-1.09.58-2.18,1.15-3.28,1.7-2.62,1.31-4.95.95-7.05-1.1-1.81-1.78-3.6-3.6-5.4-5.4-2.78-2.79-5.57-5.57-8.35-8.36-2.33-2.34-2.7-4.57-1.23-7.5.57-1.12,1.13-2.25,1.75-3.35.34-.59.19-.83-.42-1.02-3.34-1.06-6.68-2.14-10.01-3.21-3.32-1.08-4.13-4.41-1.64-6.87,3.96-3.92,7.91-7.85,12.47-11.09.96-.68,1.98-1.28,3.01-1.85,2.42-1.34,4.95-1.56,7.61-.95,1.96.45,3.87,1.06,5.73,1.81.61.24,1.01.14,1.51-.29,8.77-7.67,18.82-12.77,30.27-15.05,2.86-.57,5.76-.93,8.68-1,3.7-.1,6.19,2.43,6.12,6.11ZM138.04,30.11c0-.4,0-.61,0-.83.03-1.4-.07-1.49-1.49-1.47-2.31.03-4.59.31-6.85.73-12.12,2.26-22.49,7.9-31.3,16.45-6.89,6.68-12.13,14.53-16.34,23.11-.36.74-.19,1.23.36,1.77,4.54,4.51,9.07,9.04,13.57,13.59.64.65,1.18.71,1.98.32,6.36-3.16,12.34-6.88,17.77-11.48,7.98-6.75,14.2-14.82,18.19-24.54,2.34-5.72,3.77-11.65,4.13-17.65ZM93.17,43.44c.02-.25-.16-.28-.31-.33-1.44-.5-2.9-.93-4.42-1.12-2-.26-3.57.75-5.09,1.8-4.08,2.79-7.6,6.24-11.13,9.67-.55.53-.23.65.26.8,3.11.99,6.21,1.98,9.31,3,.57.19.81,0,1.08-.45,2.91-4.67,6.18-9.06,9.99-13.03.11-.12.22-.23.31-.34ZM123.9,78.03c-.06-1.65-.56-3.21-1.06-4.76-.19-.6-.41-.56-.81-.17-.93.88-1.88,1.75-2.86,2.59-3.2,2.74-6.62,5.18-10.18,7.43-.31.2-.58.35-.43.81,1.05,3.23,2.09,6.47,3.12,9.71.14.45.32.49.65.15,3.55-3.65,7.12-7.28,9.96-11.54.84-1.26,1.69-2.57,1.61-4.21Z"/>
        <path d="M69.28,93.29c.34-5.24,1.57-10.55,4.25-15.46.59-1.07,1.57-1.63,2.53-1.48,1.03.16,1.81.89,2.05,1.9.15.61,0,1.18-.29,1.7-1.8,3.25-2.82,6.75-3.4,10.4-.2,1.25-.13,1.31,1.08,1.13,3.66-.54,7.14-1.6,10.4-3.37,1.3-.71,2.69-.31,3.33.87.69,1.27.26,2.62-1.12,3.39-3.55,1.97-7.37,3.14-11.35,3.81-1.45.24-2.91.41-4.38.47-2.23.09-3.16-.85-3.11-3.36Z"/>
        <path d="M118.58,37.66c5.55.05,9.78,4.31,9.73,9.81-.04,5.36-4.46,9.64-9.85,9.67-5.33.03-9.91-4.59-9.72-10.11.18-5.24,4.46-9.43,9.83-9.38ZM123.49,47.44c.09-2.73-2.1-4.99-4.92-5.08-2.58-.09-4.92,2.12-5.02,4.74-.11,2.85,1.99,5.12,4.84,5.23,2.77.11,5.01-2.04,5.1-4.89Z"/>
      </g>
      <g>
        <path d="M49.47,43.89c.02,1.85,1.1,2.93,2.91,2.94,3.52,0,7.04,0,10.55,0,1.66,0,2.85-1.11,2.86-2.64,0-1.53-1.19-2.67-2.84-2.67-2.43,0-4.86-.02-7.3.01-.61,0-.84-.15-.82-.8.04-1.96.01-3.91.01-5.87,0-2,.02-4,0-6-.03-1.93-1.8-3.19-3.55-2.58-1.17.41-1.82,1.41-1.83,2.87-.01,2.8,0,5.61,0,8.41,0,2.11-.01,4.22,0,6.32Z"/>
        <path d="M83.1,20.87c-2.4-2.67-4.95-5.19-7.59-7.61-1.06-.97-2.62-.71-3.57.35-.93,1.04-.92,2.55.06,3.61.4.43.81.85,1.24,1.25.4.37.35.63-.41,1.14-.7.47-1.29,1.09-1.77,1.79-.47.67-.72.79-1.16.45-4.27-3.4-9.13-5.39-14.55-6.02-.39-.04-.49-.21-.48-.59.05-1.22.01-2.44,0-3.66,0-.37.16-.51.51-.5.59.01,1.17,0,1.76,0,1.5-.02,2.66-1.16,2.68-2.63.01-1.49-1.16-2.67-2.69-2.68-1.63,0-3.26,0-4.89,0-1.69,0-3.39-.01-5.08,0-1.45.01-2.6,1.18-2.62,2.63-.02,1.45,1.16,2.65,2.64,2.68.56,0,1.13.02,1.69,0,.46-.02.62.17.61.63-.03,1.07-.08,2.14,0,3.21.04.64-.06.89-.73.96-5.04.51-9.9,2.28-13.81,5.51-8.39,6.94-12.12,15.66-11.04,25.97.73,6.98,3.72,12.91,8.87,17.66,6.98,6.43,15.26,8.84,24.57,7.2,3.62-.64,6.98-1.96,9.97-3.82,1.71-1.07,1.65-3.59-.1-4.59h0c-.85-.49-1.91-.48-2.75.04-3.47,2.18-7.62,3.48-12.22,3.49-13.15.03-23.19-10.61-23.18-23.17,0-12.45,9.95-23.14,23.16-23.12,10.22.02,18.21,6.37,21.47,14.63.41,1.03,1.39,1.71,2.5,1.71h0c1.89,0,3.19-1.91,2.5-3.67-.09-.22-.18-.44-.27-.77-.51-1.82-1.37-3.54-2.59-4.98-1.26-1.49-1.95-1.75-1.25-2.4.83-.77,1.62-1.58,2.4-2.4.34-.36.57-.43.92-.02.39.46.83.89,1.29,1.29,1.05.9,2.58.87,3.57-.05.98-.91,1.24-2.5.35-3.48Z"/>
      </g>
    </g>
    <g>
      <path class="cls-3" d="M161.11,69.48v-3.88h14.24v3.88c-.93,2.29-2.15,4.22-3.65,5.8,1.5.79,3.39,1.5,5.68,2.14l-1.4,3.77c-2.71-.69-5.24-1.74-7.6-3.14-1.85,1.21-4.11,2.25-6.79,3.14l-1.59-2.95v3.4h-4.5v-2.99c-4.2.69-8.33,1.24-12.36,1.66l-.37-3.84c1.38-.15,2.42-.27,3.13-.37v-11.6h-2.77v-3.88h33.94v3.88h-17.08v12.89c1.62-.47,3.21-1.13,4.76-1.99-1.25-1.08-2.43-2.38-3.54-3.88l2.58-2.03h-2.69ZM150.78,59.32h-4.94v-10.89h28.55v10.89h-23.61ZM155.5,64.49h-5.35v1.66h5.35v-1.66ZM150.15,70.7h5.35v-1.66h-5.35v1.66ZM155.5,74.69v-1.11h-5.35v1.96c.96-.15,2.74-.43,5.35-.85ZM150.78,52.94h18.67v-1.18h-18.67v1.18ZM150.78,55.37v1.18h18.67v-1.18h-18.67ZM164.91,69.48c.84,1.21,1.92,2.36,3.25,3.47,1.08-.98,2.02-2.14,2.81-3.47h-6.05Z"/>
      <path class="cls-3" d="M180.29,65.05v-4.17h6.46v-6.39h-1.22c-.59,2.19-1.22,4.1-1.88,5.72l-3.84-1.62c1.4-3.37,2.46-7.3,3.17-11.78l4.02.67c-.12.76-.3,1.75-.52,2.95h7.41v-1.62h19.56v4.06h-18.78v1.62h-3.25v6.39h3.39v-5.54h17.56v12.19h-17.56v-2.47h-3.65l-.22,1.44c1.85,3.27,3.35,6.08,4.54,8.42l-1.47,1.37h10.55c1.08-2.59,1.97-5.37,2.66-8.35l4.39,1.14c-.54,2.39-1.28,4.79-2.21,7.2h4.28v4.06h-20.4v-3.43l-1.14,1.03c-1.45-2.95-2.4-4.86-2.84-5.72-1.5,3.74-3.58,6.65-6.23,8.72l-2.91-3.73c3.54-3.08,5.66-7.13,6.35-12.15h-6.2ZM195.86,69.18l4.35-1.22c.84,2.24,1.5,4.49,1.99,6.76l-4.36,1.18c-.44-2.07-1.1-4.31-1.99-6.72ZM199.29,63.83h8.3v-4.8h-8.3v4.8Z"/>
      <path class="cls-3" d="M218.33,50.9h17.27v4.17l-7.56,6.87v.07h.63c2.26,0,4.04.65,5.35,1.94,1.3,1.29,1.95,3.1,1.95,5.41,0,2.83-.86,5.02-2.58,6.56s-4.18,2.31-7.38,2.31c-2.88,0-5.5-.65-7.86-1.96l1.33-4.06c2.29,1.23,4.39,1.85,6.31,1.85,1.62,0,2.88-.39,3.76-1.18.88-.79,1.33-1.93,1.33-3.43,0-1.38-.5-2.37-1.5-2.97-1-.6-2.75-.9-5.26-.9h-2.21v-3.69l7.38-6.72v-.07h-10.96v-4.17Z"/>
      <path class="cls-3" d="M243.82,48.8h27.3v32.13h-4.91v-2.07h-17.49v2.07h-4.91v-32.13ZM248.73,61.5h17.49v-8.49h-17.49v8.49ZM248.73,65.56v9.23h17.49v-9.23h-17.49Z"/>
      <path class="cls-3" d="M282.86,81.11h-4.72v-32.68h15.13v14.48h-10.4v18.21ZM282.86,54.3h6.27v-2.14h-6.27v2.14ZM282.86,57.48v2.14h6.27v-2.14h-6.27ZM304.81,81c-1.16,0-2.79-.06-4.91-.18l-.14-2.44h-9.19v1.62h-4.24v-15.18h16.08v12.08c.49.02,1.03.04,1.63.04.88,0,1.41-.08,1.59-.24s.26-.66.26-1.5v-12.3h-10.77v-14.48h15.5v26.55c0,1.01-.02,1.8-.06,2.38s-.14,1.12-.3,1.62-.35.87-.57,1.09c-.22.22-.57.41-1.05.57s-1,.26-1.55.3c-.55.04-1.31.06-2.27.06ZM290.57,70.03h7.6v-1.85h-7.6v1.85ZM290.57,73.14v2.03h7.6v-2.03h-7.6ZM305.88,54.3v-2.14h-6.64v2.14h6.64ZM305.88,57.48h-6.64v2.14h6.64v-2.14Z"/>
    </g>
  </g>
  <path class="cls-6" d="M952.02,105.58c-7.88.37-13.41-8.4-18.53-11.71-13.05-.6-40.3-.03-48.11-.22-5.81.23-12.35-2.83-15.01-8.38-2.11-4.37-1.92-7.26-1.92-11.55,0-5.74,0-16.39,0-22.12-.82-7.98,2.76-16.96,11.19-19.13,11.54-1.96,123.6-.25,134.91-.79,2.22.03,4.71.46,8.22,2.3,11.48,7.98,6.67,18.34,7.67,32.74.16,9.14,1.25,20.85-9.05,25.35-2.97,1.27-5.21,1.6-8.08,1.59-5.12,0-22.93,0-33.49,0-4.12.45-7.31-1.27-10.48,1.55-4.48,4.27-9.74,10.53-16.62,10.38h-.71Z"/>
  <path class="cls-4" d="M952.02,113.79c-7.88.37-13.41-8.4-18.53-11.71-13.05-.6-40.3-.03-48.11-.22-5.81.23-12.35-2.83-15.01-8.38-2.11-4.37-1.92-7.26-1.92-11.55,0-5.74,0-16.39,0-22.12-.82-7.98,2.76-16.96,11.19-19.13,11.54-1.96,123.6-.25,134.91-.79,2.22.03,4.71.46,8.22,2.3,11.48,7.98,6.67,18.34,7.67,32.74.16,9.14,1.25,20.85-9.05,25.35-2.97,1.27-5.21,1.6-8.08,1.59-5.12,0-22.93,0-33.49,0-4.12.45-7.31-1.27-10.48,1.55-4.48,4.27-9.74,10.53-16.62,10.38h-.71Z"/>
  <path class="cls-2" d="M1023.47,46.98v31.38c0,4.54-3.68,8.23-8.22,8.23h-43.97c-2.18,0-4.27.87-5.81,2.41l-7.28,7.29c-3.21,3.21-8.42,3.21-11.63,0l-7.28-7.29c-1.54-1.54-3.63-2.41-5.81-2.41h-49.82c-4.54,0-8.22-3.68-8.22-8.23v-31.38c0-4.54,3.68-8.23,8.22-8.23h131.6c4.54,0,8.22,3.68,8.22,8.23Z"/>
  <g>
    <path class="cls-3" d="M905.45,56.36c-2.23-1.1-4.58-1.66-7.04-1.66-1.22,0-2.15.24-2.78.71-.63.47-.95,1.1-.95,1.9,0,1.32.99,2.26,2.96,2.82,3.5.96,5.96,2.12,7.38,3.45,1.42,1.34,2.13,3.07,2.13,5.18,0,2.49-.84,4.39-2.54,5.71-1.69,1.32-4.19,1.97-7.5,1.97-1.48,0-3.02-.23-4.61-.69s-2.93-1.05-4.01-1.78l1.41-4.69c2.39,1.65,4.88,2.47,7.46,2.47,1.22,0,2.14-.25,2.76-.76s.93-1.22.93-2.13c0-.75-.25-1.36-.76-1.83-.51-.47-1.39-.89-2.66-1.27-3.22-.94-5.53-2.08-6.94-3.44-1.41-1.35-2.11-3.03-2.11-5.02,0-2.23.84-4.01,2.52-5.32,1.68-1.32,4.03-1.97,7.06-1.97,3.22,0,6.01.56,8.38,1.69l-1.09,4.65Z"/>
    <path class="cls-3" d="M929.57,50.37v4.97h-7.15v20.76h-6.13v-20.76h-7.15v-4.97h20.42Z"/>
    <path class="cls-3" d="M927.53,76.1l8.7-25.73h6.34l8.66,25.73h-6.34l-1.51-5.57h-8.13l-1.48,5.57h-6.23ZM936.47,65.98h5.7l-2.82-10.43h-.07l-2.82,10.43Z"/>
    <path class="cls-3" d="M959.82,66.58v9.52h-5.88v-25.55c2.58-.35,5.4-.53,8.45-.53,3.52,0,6.14.66,7.87,1.99,1.73,1.33,2.59,3.21,2.59,5.66,0,1.57-.46,2.99-1.37,4.25s-2.12,2.16-3.63,2.7v.07c1.22.68,2.22,2.08,2.99,4.19l2.71,7.23h-6.16l-2.43-6.98c-.33-.99-.73-1.66-1.2-2.01-.47-.35-1.2-.53-2.18-.53h-1.76ZM959.82,62.17h1.97c1.64,0,2.9-.35,3.77-1.04.87-.69,1.3-1.66,1.3-2.91,0-2.44-1.61-3.67-4.82-3.67-.84,0-1.58.07-2.22.21v7.4Z"/>
    <path class="cls-3" d="M994.92,50.37v4.97h-7.15v20.76h-6.13v-20.76h-7.15v-4.97h20.42Z"/>
    <path class="cls-3" d="M1000.27,50.37h7.15l-.88,17.62h-5.39l-.88-17.62ZM1000.8,76.1v-5.29h6.09v5.29h-6.09Z"/>
  </g>
</svg>