<?xml version="1.0" encoding="UTF-8"?>
<svg id="Layer_1" data-name="Layer 1" xmlns="http://www.w3.org/2000/svg" viewBox="0 0 660.35 135.09">
  <defs>
    <style>
      .cls-1, .cls-2, .cls-3, .cls-4 {
        fill: #231f20;
      }

      .cls-2 {
        font-family: MPLUS1p-Bold, 'M PLUS 1p';
      }

      .cls-2, .cls-3 {
        font-size: 20.22px;
        font-weight: 700;
      }

      .cls-5 {
        fill: #f4d7de;
      }

      .cls-6, .cls-7 {
        fill: #fff;
      }

      .cls-6, .cls-8, .cls-9 {
        stroke: #181818;
        stroke-miterlimit: 10;
      }

      .cls-6, .cls-9 {
        stroke-width: .7px;
      }

      .cls-3 {
        font-family: MPLUS1p-ExtraBold, 'M PLUS 1p';
      }

      .cls-10 {
        fill: #e9afbb;
      }

      .cls-11 {
        fill: #ffdf9f;
      }

      .cls-12, .cls-4 {
        opacity: .1;
      }

      .cls-13 {
        letter-spacing: -.06em;
      }

      .cls-14 {
        letter-spacing: -.13em;
      }

      .cls-15 {
        letter-spacing: -.13em;
      }

      .cls-16 {
        letter-spacing: -.13em;
      }

      .cls-17 {
        letter-spacing: -.03em;
      }

      .cls-18 {
        letter-spacing: -.05em;
      }

      .cls-19 {
        letter-spacing: -.03em;
      }

      .cls-20 {
        fill: #d6edf4;
      }

      .cls-21 {
        fill: #ffeed0;
      }

      .cls-8 {
        stroke-width: .95px;
      }

      .cls-8, .cls-9 {
        fill: none;
      }

      .cls-22 {
        fill: #aeddeb;
      }
    </style>
  </defs>
  <path class="cls-20" d="M624.63,134.73H21.65c-7.1,0-12.85-5.75-12.85-12.85v-56.57c0-7.1,5.75-12.85,12.85-12.85h602.61c4,0,7.77,1.86,10.2,5.03l22.89,29.86c3.67,4.79,3.51,11.49-.38,16.1l-22.52,26.71c-2.44,2.89-6.04,4.57-9.82,4.57Z"/>
  <path class="cls-22" d="M268.35,86.5h388.33l-22.23-29c-2.43-3.17-6.2-5.03-10.2-5.03H21.65c-7.1,0-12.85,5.75-12.85,12.85v56.57c0,7.1,5.75,12.85,12.85,12.85h246.7v-48.24Z"/>
  <path class="cls-21" d="M414.41,134.73H21.65c-7.1,0-12.85-5.75-12.85-12.85v-56.57c0-7.1,5.75-12.85,12.85-12.85h392.39c4,0,7.77,1.86,10.2,5.03l22.89,29.86c3.67,4.79,3.51,11.49-.38,16.1l-22.52,26.71c-2.44,2.89-6.04,4.57-9.82,4.57Z"/>
  <path class="cls-11" d="M141.3,85.87h304.69l-21.75-28.37c-2.43-3.17-6.2-5.03-10.2-5.03H21.65c-7.1,0-12.85,5.75-12.85,12.85v56.57c0,7.1,5.75,12.85,12.85,12.85h119.65v-48.86Z"/>
  <path class="cls-5" d="M201.51,134.73H21.65c-7.1,0-12.85-5.75-12.85-12.85v-56.57c0-7.1,5.75-12.85,12.85-12.85h179.49c4,0,7.77,1.86,10.2,5.03l22.89,29.86c3.67,4.79,3.51,11.49-.38,16.1l-22.52,26.71c-2.44,2.89-6.04,4.57-9.82,4.57Z"/>
  <path class="cls-10" d="M233.08,85.87l-21.75-28.37c-2.43-3.17-6.2-5.03-10.2-5.03H21.65c-7.1,0-12.85,5.75-12.85,12.85v20.55h224.28Z"/>
  <path class="cls-9" d="M624.63,134.73H21.65c-7.1,0-12.85-5.75-12.85-12.85v-56.57c0-7.1,5.75-12.85,12.85-12.85h602.61c4,0,7.77,1.86,10.2,5.03l22.89,29.86c3.67,4.79,3.51,11.49-.38,16.1l-22.52,26.71c-2.44,2.89-6.04,4.57-9.82,4.57Z"/>
  <path class="cls-9" d="M414.41,134.73H21.65c-7.1,0-12.85-5.75-12.85-12.85v-56.57c0-7.1,5.75-12.85,12.85-12.85h392.39c4,0,7.77,1.86,10.2,5.03l22.89,29.86c3.67,4.79,3.51,11.49-.38,16.1l-22.52,26.71c-2.44,2.89-6.04,4.57-9.82,4.57Z"/>
  <path class="cls-9" d="M201.51,134.73H21.65c-7.1,0-12.85-5.75-12.85-12.85v-56.57c0-7.1,5.75-12.85,12.85-12.85h179.49c4,0,7.77,1.86,10.2,5.03l22.89,29.86c3.67,4.79,3.51,11.49-.38,16.1l-22.52,26.71c-2.44,2.89-6.04,4.57-9.82,4.57Z"/>
  <line class="cls-8" x1="8.8" y1="85.5" x2="655.92" y2="85.5"/>
  <text class="cls-2" transform="translate(92.32 76.68)"><tspan class="cls-19" x="0" y="0">D</tspan><tspan class="cls-14" x="13.47" y="0">A</tspan><tspan x="25.29" y="0">Y 1</tspan></text>
  <text class="cls-2" transform="translate(312.76 76.68)"><tspan class="cls-19" x="0" y="0">D</tspan><tspan class="cls-14" x="13.47" y="0">A</tspan><tspan x="25.29" y="0">Y 2</tspan></text>
  <text class="cls-2" transform="translate(522.99 76.68)"><tspan class="cls-19" x="0" y="0">D</tspan><tspan class="cls-15" x="13.47" y="0">A</tspan><tspan x="25.29" y="0">Y 3</tspan></text>
  <g>
    <path class="cls-7" d="M558.71,60.57c-4.53.21-7.7-4.82-10.64-6.72-7.5-.35-23.14-.02-27.63-.13-3.33.13-7.09-1.62-8.62-4.81-1.21-2.51-1.1-4.16-1.1-6.62,0-3.29,0-9.4,0-12.69-.47-4.58,1.59-9.73,6.43-10.98,6.63-1.13,70.98-.14,77.47-.46,1.27.02,2.71.27,4.72,1.32,6.59,4.58,3.83,10.52,4.41,18.78.09,5.24.72,11.96-5.2,14.54-1.71.73-2.99.92-4.64.91-2.94,0-13.16,0-19.23,0-2.37.26-4.2-.73-6.02.89-2.57,2.45-5.59,6.04-9.54,5.96h-.41Z"/>
    <path class="cls-4" d="M558.71,65.28c-4.53.21-7.7-4.82-10.64-6.72-7.5-.35-23.14-.02-27.63-.13-3.33.13-7.09-1.62-8.62-4.81-1.21-2.51-1.1-4.16-1.1-6.62,0-3.29,0-9.4,0-12.69-.47-4.58,1.59-9.73,6.43-10.98,6.63-1.13,70.98-.14,77.47-.46,1.27.02,2.71.27,4.72,1.32,6.59,4.58,3.83,10.52,4.41,18.78.09,5.24.72,11.96-5.2,14.54-1.71.73-2.99.92-4.64.91-2.94,0-13.16,0-19.23,0-2.37.26-4.2-.73-6.02.89-2.57,2.45-5.59,6.04-9.54,5.96h-.41Z"/>
    <path class="cls-6" d="M599.74,26.95v18c0,2.61-2.11,4.72-4.72,4.72h-25.25c-1.25,0-2.45.5-3.34,1.38l-4.18,4.18c-1.84,1.84-4.83,1.84-6.68,0l-4.18-4.18c-.89-.89-2.09-1.38-3.34-1.38h-28.61c-2.61,0-4.72-2.11-4.72-4.72v-18c0-2.61,2.11-4.72,4.72-4.72h75.57c2.61,0,4.72,2.11,4.72,4.72Z"/>
    <text class="cls-3" transform="translate(521.19 43.65)"><tspan class="cls-18" x="0" y="0">S</tspan><tspan class="cls-16" x="11.87" y="0">T</tspan><tspan class="cls-17" x="22.93" y="0">A</tspan><tspan class="cls-13" x="37.08" y="0">R</tspan><tspan class="cls-17" x="49.4" y="0">T!</tspan></text>
  </g>
  <text class="cls-2" transform="translate(65.01 117.25)"><tspan x="0" y="0">動画で学ぶ</tspan></text>
  <text class="cls-2" transform="translate(294.65 117.25)"><tspan x="0" y="0">実戦練習</tspan></text>
  <text class="cls-2" transform="translate(460.92 117.25)"><tspan x="0" y="0">レッスン提供開始!</tspan></text>
  <g>
    <path class="cls-12" d="M175.91,32.17v17.3c0,4.85-3.93,8.8-8.8,8.8H62.47c-1.08,1.29-2.19,2.52-3.34,3.7-1.04,1.04-2.17,2.05-3.51,2.59-1.88.82-4.17.4-5.58-1.08-1.58-1.51-1.95-4.4-4.47-4.43-1.53.02-3.08.94-4.45,1.69-1.13.66-2.35,1.15-3.63,1.53-4.33,1.34-10.83,2.24-11.11-3.88-.12-3.13.82-6.68,2.24-9.44.21-.42.47-.85.71-1.25.35-.59.49-.87.24-.82-.42.07-1.6.75-2.24,1.01-6.03,2.64-13.28,2.14-18.64-1.62-11.11-7.44-11.63-23.37-1.18-31.68,1.11-.99,2.64-1.65,3.6-2.73,1.15-1.32.89-3.13,1.77-4.64.64-1.15,1.79-1.88,3.06-2.19,1.01-.24,2.07-.31,3.11-.31,3.48-.12,7.06.4,7.67,4.43.31,1.25.21,2.5,1.72,1.39,1.6-1.15,3.18-1.93,5.15-1.18,2.14.78,5.7,4.31,6.47,6.45.33.85.42,1.79.19,2.66-.14.61-.45,1.18-.78,1.69-.35.68-1.48,1.84-.73,2.35.68.38,1.77.42,2.97.57,1.37.17,2.8.19,4.07-.38.68-.31,1.37-.73,2-1.15,4.59-3.13,9.65-5.27,15.14-6.31,2.52-.42,5.23-.87,7.7.02,2.52.89,4.03,3.41,4.12,6.05v.02c0,.66-.02,1.34-.07,2.03h92.44c4.87,0,8.8,3.95,8.8,8.8Z"/>
    <path class="cls-7" d="M175.91,27.46v17.3c0,4.85-3.93,8.8-8.8,8.8H62.47c-1.08,1.29-2.19,2.52-3.34,3.7-1.04,1.04-2.17,2.05-3.51,2.59-1.88.82-4.17.4-5.58-1.08-1.58-1.51-1.95-4.4-4.47-4.43-1.53.02-3.08.94-4.45,1.69-1.13.66-2.35,1.15-3.63,1.53-4.33,1.34-10.83,2.24-11.11-3.88-.12-3.13.82-6.68,2.24-9.44.21-.42.47-.85.71-1.25.35-.59.49-.87.24-.82-.42.07-1.6.75-2.24,1.01-6.03,2.64-13.28,2.14-18.64-1.62-11.11-7.44-11.63-23.37-1.18-31.68,1.11-.99,2.64-1.65,3.6-2.73,1.15-1.32.89-3.13,1.77-4.64.64-1.15,1.79-1.88,3.06-2.19C16.95.08,18.01.01,19.04.01c3.48-.12,7.06.4,7.67,4.43.31,1.25.21,2.5,1.72,1.39,1.6-1.15,3.18-1.93,5.15-1.18,2.14.78,5.7,4.31,6.47,6.45.33.85.42,1.79.19,2.66-.14.61-.45,1.18-.78,1.69-.35.68-1.48,1.84-.73,2.35.68.38,1.77.42,2.97.57,1.37.17,2.8.19,4.07-.38.68-.31,1.37-.73,2-1.15,4.59-3.13,9.65-5.27,15.14-6.31,2.52-.42,5.23-.87,7.7.02,2.52.89,4.03,3.41,4.12,6.05v.02c0,.66-.02,1.34-.07,2.03h92.44c4.87,0,8.8,3.95,8.8,8.8Z"/>
    <g>
      <g>
        <path d="M71.63,16.67c-.19,4.33-1.18,8.48-2.9,12.45-1.59,3.67-3.72,6.99-6.37,9.99-.22.25-.23.46-.12.75.39,1,.72,2.03,1,3.07.5,1.86.21,3.58-.79,5.21-1.19,1.94-2.66,3.65-4.2,5.31-.96,1.04-1.95,2.05-2.95,3.05-1.37,1.38-3.29.92-3.9-.92-.61-1.87-1.2-3.74-1.81-5.62-.21-.65-.21-.64-.79-.33-.62.33-1.25.66-1.88.97-1.5.75-2.84.55-4.05-.63-1.04-1.02-2.07-2.06-3.1-3.1-1.6-1.6-3.2-3.19-4.79-4.79-1.34-1.34-1.55-2.62-.7-4.3.33-.64.65-1.29,1-1.92.19-.34.11-.47-.24-.59-1.92-.61-3.83-1.22-5.75-1.84-1.91-.62-2.37-2.53-.94-3.94,2.27-2.25,4.54-4.5,7.16-6.36.55-.39,1.13-.73,1.73-1.06,1.39-.77,2.84-.9,4.37-.55,1.13.26,2.22.61,3.29,1.04.35.14.58.08.86-.17,5.04-4.4,10.81-7.33,17.38-8.63,1.64-.33,3.31-.53,4.98-.58,2.12-.06,3.55,1.39,3.52,3.5ZM68.84,17.27c0-.23,0-.35,0-.47.02-.8-.04-.85-.86-.84-1.33.01-2.64.18-3.93.42-6.96,1.3-12.91,4.53-17.98,9.43-3.95,3.83-6.96,8.34-9.38,13.26-.21.42-.11.7.21,1.01,2.61,2.59,5.21,5.18,7.79,7.8.37.37.68.41,1.14.18,3.65-1.81,7.09-3.95,10.2-6.58,4.58-3.87,8.15-8.5,10.44-14.08,1.35-3.28,2.17-6.68,2.37-10.12ZM43.07,24.92c.01-.14-.09-.16-.18-.19-.83-.28-1.66-.53-2.54-.64-1.15-.15-2.05.43-2.92,1.03-2.34,1.6-4.36,3.58-6.39,5.55-.31.3-.13.37.15.46,1.78.57,3.57,1.13,5.34,1.72.33.11.46,0,.62-.26,1.67-2.68,3.55-5.19,5.73-7.48.06-.07.12-.13.18-.19ZM60.72,44.76c-.04-.95-.32-1.84-.61-2.73-.11-.34-.24-.32-.47-.1-.54.51-1.08,1-1.64,1.48-1.84,1.57-3.8,2.97-5.84,4.26-.18.11-.33.2-.25.46.6,1.86,1.2,3.71,1.79,5.57.08.26.19.28.37.09,2.04-2.09,4.09-4.18,5.72-6.62.48-.72.97-1.47.92-2.41Z"/>
        <path d="M29.35,53.51c.2-3.01.9-6.05,2.44-8.87.34-.62.9-.94,1.45-.85.59.09,1.04.51,1.18,1.09.09.35,0,.68-.16.98-1.03,1.86-1.62,3.87-1.95,5.97-.11.71-.08.75.62.65,2.1-.31,4.1-.92,5.97-1.93.75-.41,1.54-.18,1.91.5.4.73.15,1.5-.65,1.95-2.04,1.13-4.23,1.8-6.52,2.19-.83.14-1.67.23-2.52.27-1.28.05-1.82-.49-1.79-1.93Z"/>
        <path d="M57.66,21.6c3.18.03,5.61,2.47,5.59,5.63-.02,3.08-2.56,5.53-5.66,5.55-3.06.02-5.69-2.63-5.58-5.8.1-3.01,2.56-5.41,5.65-5.38ZM60.48,27.21c.05-1.56-1.21-2.86-2.83-2.92-1.48-.05-2.83,1.22-2.88,2.72-.06,1.64,1.14,2.94,2.78,3,1.59.06,2.88-1.17,2.93-2.8Z"/>
      </g>
      <g>
        <path d="M17.97,25.17c0,1.06.63,1.68,1.67,1.68,2.02,0,4.04,0,6.06,0,.95,0,1.64-.64,1.64-1.52,0-.88-.68-1.53-1.63-1.53-1.4,0-2.79-.01-4.19,0-.35,0-.48-.09-.47-.46.02-1.12,0-2.24,0-3.37,0-1.15.01-2.29,0-3.44-.02-1.11-1.03-1.83-2.04-1.48-.67.23-1.05.81-1.05,1.65,0,1.61,0,3.22,0,4.82,0,1.21,0,2.42,0,3.63Z"/>
        <path d="M37.28,11.97c-1.38-1.53-2.84-2.98-4.36-4.37-.61-.55-1.51-.4-2.05.2-.54.59-.53,1.46.03,2.07.23.25.47.49.71.72.23.21.2.36-.24.66-.4.27-.74.63-1.02,1.02s-.41.45-.66.26c-2.45-1.95-5.24-3.09-8.36-3.45-.22-.03-.28-.12-.27-.34.03-.7,0-1.4,0-2.1,0-.21.09-.29.29-.29.34,0,.67,0,1.01,0,.86,0,1.53-.67,1.54-1.51,0-.86-.67-1.53-1.54-1.54-.94,0-1.87,0-2.81,0-.97,0-1.95,0-2.92,0-.83,0-1.49.68-1.5,1.51-.01.83.67,1.52,1.52,1.54.32,0,.65.01.97,0,.27-.01.36.1.35.36-.01.61-.04,1.23,0,1.84.02.37-.03.51-.42.55-2.9.29-5.69,1.31-7.93,3.16-4.82,3.98-6.96,8.99-6.34,14.89.42,4,2.13,7.41,5.09,10.13,4.01,3.69,8.76,5.07,14.11,4.13,2.08-.37,4.01-1.12,5.73-2.19.98-.61.95-2.06-.06-2.64h0c-.49-.28-1.1-.28-1.58.02-1.99,1.25-4.38,2-7.02,2-7.55.02-13.32-6.09-13.31-13.29,0-7.14,5.72-13.27,13.3-13.26,5.87,0,10.46,3.66,12.33,8.39.23.59.8.98,1.43.98h0c1.09,0,1.83-1.09,1.44-2.11-.05-.13-.1-.25-.15-.44-.29-1.05-.79-2.03-1.49-2.86s-1.12-1.01-.72-1.38c.47-.44.93-.9,1.38-1.37.19-.21.33-.25.53-.01.23.26.48.51.74.74.6.52,1.48.5,2.05-.03.56-.52.71-1.43.2-2Z"/>
      </g>
    </g>
    <g>
      <path class="cls-1" d="M82.08,39.86v-2.22h8.18v2.22c-.54,1.31-1.23,2.42-2.1,3.33.86.45,1.95.86,3.26,1.23l-.8,2.16c-1.55-.4-3.01-1-4.36-1.8-1.06.69-2.36,1.29-3.9,1.8l-.91-1.69v1.95h-2.59v-1.72c-2.41.4-4.78.71-7.1.95l-.21-2.2c.79-.08,1.39-.16,1.8-.21v-6.65h-1.59v-2.22h19.49v2.22h-9.81v7.39c.93-.27,1.84-.65,2.73-1.14-.72-.62-1.4-1.36-2.03-2.22l1.48-1.16h-1.55ZM76.15,34.03h-2.84v-6.25h16.4v6.25h-13.56ZM78.86,37h-3.07v.95h3.07v-.95ZM75.79,40.56h3.07v-.95h-3.07v.95ZM78.86,42.84v-.64h-3.07v1.12c.55-.09,1.57-.25,3.07-.49ZM76.15,30.37h10.72v-.68h-10.72v.68ZM76.15,31.76v.68h10.72v-.68h-10.72ZM84.26,39.86c.48.69,1.1,1.36,1.86,1.99.62-.56,1.16-1.23,1.61-1.99h-3.48Z"/>
      <path class="cls-1" d="M93.09,37.31v-2.39h3.71v-3.67h-.7c-.34,1.26-.7,2.35-1.08,3.28l-2.2-.93c.8-1.93,1.41-4.19,1.82-6.76l2.31.38c-.07.44-.17,1-.3,1.69h4.26v-.93h11.23v2.33h-10.78v.93h-1.86v3.67h1.95v-3.18h10.08v6.99h-10.08v-1.42h-2.1l-.13.83c1.06,1.88,1.93,3.49,2.6,4.83l-.85.78h6.06c.62-1.48,1.13-3.08,1.53-4.79l2.52.66c-.31,1.37-.74,2.75-1.27,4.13h2.46v2.33h-11.72v-1.97l-.66.59c-.83-1.69-1.38-2.79-1.63-3.28-.86,2.15-2.06,3.81-3.58,5l-1.67-2.14c2.03-1.76,3.25-4.09,3.64-6.97h-3.56ZM102.04,39.69l2.5-.7c.48,1.29.86,2.58,1.14,3.88l-2.5.68c-.25-1.19-.63-2.47-1.14-3.86ZM104.01,36.62h4.77v-2.75h-4.77v2.75Z"/>
      <path class="cls-1" d="M114.94,29.2h9.91v2.39l-4.34,3.94v.04h.36c1.3,0,2.32.37,3.07,1.11.75.74,1.12,1.78,1.12,3.1,0,1.62-.49,2.88-1.48,3.76s-2.4,1.32-4.24,1.32c-1.65,0-3.16-.37-4.51-1.12l.76-2.33c1.31.71,2.52,1.06,3.62,1.06.93,0,1.65-.23,2.16-.68.51-.45.76-1.11.76-1.97,0-.79-.29-1.36-.86-1.71-.57-.35-1.58-.52-3.02-.52h-1.27v-2.12l4.24-3.86v-.04h-6.29v-2.39Z"/>
      <path class="cls-1" d="M129.58,27.99h15.68v18.43h-2.82v-1.19h-10.04v1.19h-2.82v-18.43ZM132.39,35.28h10.04v-4.87h-10.04v4.87ZM132.39,37.61v5.3h10.04v-5.3h-10.04Z"/>
      <path class="cls-1" d="M151.99,46.53h-2.71v-18.75h8.69v8.3h-5.97v10.44ZM151.99,31.15h3.6v-1.23h-3.6v1.23ZM151.99,32.97v1.23h3.6v-1.23h-3.6ZM164.59,46.47c-.66,0-1.6-.04-2.82-.11l-.08-1.4h-5.28v.93h-2.44v-8.71h9.24v6.93c.28.01.59.02.93.02.51,0,.81-.05.91-.14s.15-.38.15-.86v-7.05h-6.19v-8.3h8.9v15.23c0,.58-.01,1.03-.03,1.37s-.08.64-.17.93-.2.5-.33.63c-.13.13-.33.24-.6.33s-.57.15-.89.17-.75.03-1.3.03ZM156.42,40.17h4.36v-1.06h-4.36v1.06ZM156.42,41.95v1.17h4.36v-1.17h-4.36ZM165.21,31.15v-1.23h-3.81v1.23h3.81ZM165.21,32.97h-3.81v1.23h3.81v-1.23Z"/>
    </g>
  </g>
</svg>