<?xml version="1.0" encoding="UTF-8"?>
<svg id="Layer_1" xmlns="http://www.w3.org/2000/svg" version="1.1" viewBox="0 0 239.4 211.2">
  <!-- Generator: Adobe Illustrator 30.1.0, SVG Export Plug-In . SVG Version: 2.1.1 Build 136)  -->
  <defs>
    <style>
      .st0 {
        fill: #a9615b;
      }
    </style>
  </defs>
  <path class="st0" d="M237.4,189.4L132.3,7.3c-5.6-9.7-19.6-9.7-25.2,0L2,189.4c-5.6,9.7,1.4,21.8,12.6,21.8h210.3c11.2,0,18.2-12.1,12.6-21.8ZM130.2,179.4c-3,2.2-6.5,3.3-10.5,3.3s-7.8-1.1-10.8-3.3c-3-2.2-4.5-5.7-4.5-10.5s1.5-8.8,4.5-10.8,6.6-3.1,10.8-3.1,7.6,1,10.5,3.1,4.4,5.7,4.4,10.8-1.5,8.4-4.4,10.5ZM131.7,143.5h-23.9l-3.7-68.6h31.3l-3.7,68.6h0Z"/>
</svg>