<?xml version="1.0" encoding="UTF-8"?>
<svg id="Layer_1" data-name="Layer 1" xmlns="http://www.w3.org/2000/svg" viewBox="0 0 12.49 12.49">
  <defs>
    <style>
      .cls-1 {
        fill: #2c71b7;
      }
    </style>
  </defs>
  <g>
    <path class="cls-1" d="M6.25,12.49c-3.44,0-6.25-2.8-6.25-6.25S2.8,0,6.25,0s6.25,2.8,6.25,6.25-2.8,6.25-6.25,6.25ZM6.25,1.64C3.71,1.64,1.64,3.71,1.64,6.25s2.06,4.6,4.6,4.6,4.6-2.06,4.6-4.6S8.78,1.64,6.25,1.64Z"/>
    <path class="cls-1" d="M6.25,12.07C3.04,12.07.43,9.45.43,6.25S3.04.43,6.25.43s5.82,2.61,5.82,5.82-2.61,5.82-5.82,5.82ZM6.25,1.22C3.47,1.22,1.22,3.47,1.22,6.25s2.26,5.03,5.03,5.03,5.03-2.26,5.03-5.03S9.02,1.22,6.25,1.22Z"/>
  </g>
  <g>
    <path class="cls-1" d="M5.88,8.97c-.23,0-.44-.09-.6-.26l-1.75-1.85c-.31-.33-.3-.85.03-1.16.15-.14.35-.22.56-.22.22,0,.44.09.6.26l1.15,1.22,2.53-2.67c.16-.16.37-.26.6-.26.21,0,.41.08.56.22.33.31.34.83.03,1.16l-3.12,3.31c-.15.16-.37.26-.6.26Z"/>
    <path class="cls-1" d="M5.88,8.54h0c-.11,0-.21-.04-.29-.12l-1.75-1.85c-.15-.16-.14-.41.02-.56.16-.15.41-.14.56.02l1.46,1.55,2.83-3c.15-.16.4-.17.56-.02.16.15.17.4.02.56l-3.12,3.31c-.07.08-.18.12-.29.12Z"/>
  </g>
</svg>