<?xml version="1.0" encoding="UTF-8"?>
<svg id="Layer_1" data-name="Layer 1" xmlns="http://www.w3.org/2000/svg" viewBox="0 0 39.75 38.47">
  <defs>
    <style>
      .cls-1 {
        fill: #b25c56;
      }
    </style>
  </defs>
  <path class="cls-1" d="M37.5,31.93l-.03-.6c-.1-2.15-.9-3.85-2.39-5.04-1.2-.97-2.51-1.26-3.89-1.56l-.79-.17c-1.48-.32-2.88-.61-3.85-1.85-.13-.18-.32-.28-.52-.28-.28,0-.55.18-.68.46-.14.29-.11.6.09.84,1.08,1.41,2.58,1.84,4.03,2.17.35.08.71.14,1.09.21.82.15,1.67.31,2.38.62,1.82.81,2.92,2.48,3.01,4.57.03.69.07,1.38.11,2.06l.08,1.39c.03.73.03,1.47.02,2.2h-13.26c-.47-3.14-.94-6.29-1.41-9.43.39-.73.78-1.46,1.16-2.18l.19-.37c.21-.37.44-.8.34-1.31-.12-.7-.7-1.16-1.51-1.2-.37-.02-.74-.02-1.11-.02s-1.84.02-2.21.02c-.7,0-1.27.27-1.56.74-.27.45-.26,1.01.04,1.59.35.67.7,1.33,1.05,1.99l.4.74c-.47,3.14-.94,6.29-1.41,9.43H3.61c.01-1.79.09-3.54.18-5.47.1-1.96.88-3.43,2.32-4.36.84-.53,1.86-.74,2.85-.93.26-.05.52-.11.77-.16l.14-.04c1.69-.38,3.28-.75,4.46-2.26.18-.24.21-.56.08-.84-.14-.28-.41-.46-.68-.46-.21,0-.39.1-.53.28-1.04,1.34-2.62,1.64-4.3,1.95-1.23.24-2.51.48-3.58,1.16-1.83,1.17-2.94,3.09-3.03,5.25l-.02.29c-.05,1.09-.11,2.18-.17,3.28-.04.79-.04,1.59-.03,2.38v.69c0,.41.35.76.76.76h34.09c.41,0,.76-.35.76-.76,0-1.93-.09-3.89-.18-5.78ZM19.33,23.97c.19,0,.37.01.55.01s.37-.01.56-.01c.19,0,.38-.02.57-.02.17,0,.34.01.5.03.04,0,.07,0,.15,0-.03.05-.07.11-.09.14l-.07.12c-.38.72-1.25,2.38-1.25,2.38h-.74c-.21-.42-1.24-2.39-1.24-2.39-.02-.03-.04-.07-.07-.11-.02-.03-.06-.08-.08-.14.04,0,.09,0,.13,0,.16-.02.34-.03.51-.03.19,0,.38.01.57.02ZM18.41,36.95l1.3-8.8h.35l1.3,8.8h-2.95Z"/>
  <g>
    <path class="cls-1" d="M26.72,11.83l.48.48c.01-.12.03-.25.04-.38-.16-.08-.34-.12-.52-.1ZM13.22,11.26c.23.15.33.51.11.75.12-.11.2-.27.16-.47-.02-.13-.05-.26-.08-.4-.06.05-.13.09-.19.12Z"/>
    <path class="cls-1" d="M27.99,12.34c-.11-.21-.26-.4-.45-.55.04-.52.06-1.06.07-1.58.01-.08.01-.15.01-.24.07-5.5-1.78-8.97-5.23-9.77-.59-.13-1.23-.2-1.9-.2-1.25,0-2.62.24-4.07.72-.68.22-1.19.48-1.58.82-.34.28-.57.61-.8.94l-.18.26c-.14.19-.28.38-.43.56-.35.45-.72.92-1,1.45-1.09,2.06-.63,4.57-.23,6.62-.55.6-.69,1.47-.36,2.26.11.26.25.49.39.72.1.15.19.3.28.47.1.2.16.44.22.7.05.2.1.41.17.6.73,2,2.07,3.61,3.76,4.52.98.53,2.04.8,3.13.8,2.79,0,5.5-1.84,6.75-4.57.28-.59.48-1.17.61-1.72.05-.27.2-.5.35-.75.09-.14.18-.28.25-.42.27-.5.51-1.03.24-1.64ZM27.2,12.31l-.48-.48c.18-.02.36.02.52.1-.01.13-.03.26-.04.38ZM14.21,15.11c-.07-.26-.13-.52-.23-.77-.07-.19-.21-.4-.35-.62-.5-.77-.64-1.13-.27-1.38.05-.03.1-.07.14-.11t.02-.01s.08-.08.11-.13c.09-.14.12-.32.1-.49-.01-.1-.04-.19-.09-.28.03-.02.06-.04.09-.07,1.53-1.07,2.42-2.87,2.93-4.32,1.25.78,3.38,1.89,5.54,1.89,1.04,0,1.97-.26,2.77-.77.5.69.89,1.41,1.12,2.02,0,.69-.05,1.41-.13,2.22-.02.18.06.38.2.54.09.1.21.17.34.21-.05.13-.12.29-.17.37l-.38.62c-.17.28-.24.57-.31.86l-.06.24c-.3,1-.78,1.91-1.39,2.65-1.13,1.37-2.71,2.16-4.33,2.16-.11,0-.22-.01-.32-.01-1.72-.11-3.37-1.14-4.42-2.76-.29-.43-.51-.86-.7-1.34-.09-.23-.15-.48-.21-.72ZM13.49,11.54c.04.2-.04.36-.16.47.22-.24.12-.6-.11-.75.06-.03.13-.07.19-.12.03.14.06.27.08.4ZM25.66,6.49c-.13-.16-.32-.24-.53-.24s-.41.08-.56.21c-.58.52-1.48.81-2.52.81-.52,0-1.05-.07-1.53-.21-1.25-.37-2.59-1.05-3.86-1.98-.11-.08-.25-.13-.39-.13-.34,0-.66.25-.75.57-.35,1.27-1,2.93-2.11,4.03-.2-1.24-.27-2.6.19-3.73.23-.57.6-1.07.97-1.53.14-.18.28-.37.42-.56.35-.51.72-1.03,1.23-1.3,1.1-.57,2.65-.91,4.16-.91.35,0,.69.02,1.01.05,2.58.3,3.67,2.27,4.13,3.87.11.39.21.81.29,1.24-.05-.07-.1-.13-.15-.19Z"/>
    <path class="cls-1" d="M13.63,12.09c.09-.14.12-.32.1-.49-.01-.1-.04-.19-.09-.28.03-.02.06-.04.09-.07.01.09.03.17.04.25.04.21-.01.42-.14.59Z"/>
    <path class="cls-1" d="M13.33,12.01c.22-.24.12-.6-.11-.75.06-.03.13-.07.19-.12.03.14.06.27.08.4.04.2-.04.36-.16.47Z"/>
    <path class="cls-1" d="M27.24,11.93c-.01.13-.03.26-.04.38l-.48-.48c.18-.02.36.02.52.1Z"/>
  </g>
</svg>