<?xml version="1.0" encoding="UTF-8"?>
<svg id="Layer_1" data-name="Layer 1" xmlns="http://www.w3.org/2000/svg" viewBox="0 0 37.1 29.71">
  <defs>
    <style>
      .cls-1 {
        fill: #b25c56;
      }
    </style>
  </defs>
  <g>
    <g>
      <path class="cls-1" d="M26.41,29.71c-.49,0-.89-.4-.89-.89v-4.97h-6.07v4.97c0,.49-.4.89-.89.89s-.89-.4-.89-.89v-5.86c0-.49.4-.89.89-.89h7.85c.49,0,.89.4.89.89v5.86c0,.49-.4.89-.89.89Z"/>
      <path class="cls-1" d="M34.26,29.71c-.49,0-.89-.4-.89-.89v-11.97h-6.07v11.97c0,.49-.4.89-.89.89s-.89-.4-.89-.89v-12.86c0-.49.4-.89.89-.89h7.85c.49,0,.89.4.89.89v12.86c0,.49-.4.89-.89.89Z"/>
    </g>
    <g>
      <path class="cls-1" d="M10.7,29.71c-.49,0-.89-.4-.89-.89v-4.97H3.73v4.97c0,.49-.4.89-.89.89s-.89-.4-.89-.89v-5.86c0-.49.4-.89.89-.89h7.85c.49,0,.89.4.89.89v5.86c0,.49-.4.89-.89.89Z"/>
      <path class="cls-1" d="M18.55,29.71c-.49,0-.89-.4-.89-.89v-11.97h-6.07v11.97c0,.49-.4.89-.89.89s-.89-.4-.89-.89v-12.86c0-.49.4-.89.89-.89h7.85c.49,0,.89.4.89.89v12.86c0,.49-.4.89-.89.89Z"/>
    </g>
  </g>
  <path class="cls-1" d="M6.77,12.84c-.27,0-.55-.11-.75-.33-.37-.41-.33-1.04.08-1.41l3.92-3.5c2.62-2.33,6.57-2.34,9.19,0,1.86,1.66,4.67,1.66,6.53,0l3.92-3.5c.41-.37,1.04-.33,1.41.08.37.41.33,1.04-.08,1.41l-3.92,3.5c-2.62,2.33-6.57,2.34-9.19,0-1.86-1.66-4.67-1.66-6.53,0l-3.92,3.5c-.19.17-.43.25-.67.25Z"/>
</svg>