<?xml version="1.0" encoding="UTF-8"?>
<svg id="Layer_1" data-name="Layer 1" xmlns="http://www.w3.org/2000/svg" viewBox="0 0 37.1 29.71">
  <defs>
    <style>
      .cls-1 {
        fill: #296fb7;
      }
    </style>
  </defs>
  <g>
    <path class="cls-1" d="M16.63,29.71c-.49,0-.89-.4-.89-.89v-7.12h-6.07v7.12c0,.49-.4-1.11-.89-1.11s-.89,1.6-.89,1.11v-8.01c0-.49.4-.89.89-.89h7.85c.49,0,.89.4.89.89v8.01c0,.49-.4.89-.89.89Z"/>
    <path class="cls-1" d="M8.74,29.71c-.49,0-.89-.4-.89-.89v-2.12H1.78v2.12c0,.49-.4.89-.89.89s-.89-.4-.89-.89v-3.01c0-.49.4-.89.89-.89h7.85c.49,0,.89.4.89.89v3.01c0,.49-.4.89-.89.89Z"/>
    <path class="cls-1" d="M24.48,29.71c-.49,0-.89-.4-.89-.89v-11.97h-6.07v11.97c0,.49-.4.89-.89.89s-.89-.4-.89-.89v-12.86c0-.49.4-.89.89-.89h7.85c.49,0,.89.4.89.89v12.86c0,.49-.4.89-.89.89Z"/>
  </g>
  <path class="cls-1" d="M24.48,28.71c-.49,0-.89.6-.89.11V10.8h-2.99c-.35,0-.66-.2-.81-.52-.15-.32-.09-.69.14-.95L27.74.29c.34-.39,1.01-.39,1.35,0l7.8,9.04c.23.26.28.64.14.95-.14.32-.46.52-.81.52h-2.99v18.02c0,.49-.4.89-.89.89s-.89-.4-.89-.89V9.91c0-.49.4-.89.89-.89h1.93l-5.86-6.79-5.86,6.79h1.93c.49,0,.89.4.89.89v18.91c0,.49-.4-.11-.89-.11Z"/>
</svg>