<?xml version="1.0" encoding="UTF-8"?>
<svg id="Layer_1" data-name="Layer 1" xmlns="http://www.w3.org/2000/svg" viewBox="0 0 28.91 36.72">
  <defs>
    <style>
      .cls-1 {
        fill: #296fb7;
      }
    </style>
  </defs>
  <path class="cls-1" d="M28.22,6.08c-6.32-1.22-10.5-3.07-13.15-5.83-.32-.33-.91-.33-1.23,0C11.19,3.01,7.01,4.86.69,6.08c-.4.07-.69.42-.69.83v14.06c0,5.38,3,10.21,7.83,12.58l3.03,1.49,3.22,1.59c.12.06.25.09.37.09.13,0,.26-.03.38-.09l3.18-1.56s.02-.01.03-.02l3.04-1.5c4.83-2.37,7.83-7.2,7.83-12.58V6.91c0-.41-.29-.76-.69-.83ZM27.21,20.97c0,4.73-2.64,8.97-6.88,11.06l-3.07,1.51-2.81,1.38-2.81-1.38-3.06-1.51c-4.24-2.09-6.88-6.33-6.88-11.06V7.61c5.86-1.2,9.95-2.98,12.75-5.58,2.81,2.6,6.9,4.38,12.76,5.58v13.36Z"/>
  <path class="cls-1" d="M13.19,25.33c-.22,0-.44-.08-.6-.25l-5.98-5.98c-.33-.33-.33-.87,0-1.2l2.14-2.14c.16-.16.38-.25.6-.25h0c.23,0,.44.09.6.25l3.24,3.24,6.51-6.51c.32-.32.88-.32,1.2,0l2.14,2.14c.33.33.33.87,0,1.2l-9.25,9.25c-.17.17-.38.25-.6.25ZM8.41,18.5l4.78,4.78,8.05-8.05-.94-.94-6.51,6.51c-.32.32-.88.32-1.2,0l-3.24-3.24-.94.94Z"/>
</svg>